%TF.GenerationSoftware,KiCad,Pcbnew,7.0.1-0*%
%TF.CreationDate,2023-11-13T20:43:58+01:00*%
%TF.ProjectId,luz,6c757a2e-6b69-4636-9164-5f7063625858,rev?*%
%TF.SameCoordinates,Original*%
%TF.FileFunction,Profile,NP*%
%FSLAX46Y46*%
G04 Gerber Fmt 4.6, Leading zero omitted, Abs format (unit mm)*
G04 Created by KiCad (PCBNEW 7.0.1-0) date 2023-11-13 20:43:58*
%MOMM*%
%LPD*%
G01*
G04 APERTURE LIST*
%TA.AperFunction,Profile*%
%ADD10C,0.100000*%
%TD*%
%TA.AperFunction,Profile*%
%ADD11C,0.010000*%
%TD*%
G04 APERTURE END LIST*
D10*
X57000000Y-85000000D02*
G75*
G03*
X55000000Y-87000000I0J-2000000D01*
G01*
X55000000Y-113000000D02*
G75*
G03*
X57000000Y-115000000I2000000J0D01*
G01*
X54412500Y-103637060D02*
X55000000Y-113000000D01*
X55000000Y-87000000D02*
X54412500Y-95737060D01*
X107500000Y-87500000D02*
G75*
G03*
X105000000Y-85000000I-2500000J0D01*
G01*
X105000000Y-115000000D02*
G75*
G03*
X107500000Y-112500000I0J2500000D01*
G01*
X105000000Y-115000000D02*
X57000000Y-115000000D01*
X57000000Y-85000000D02*
X105000000Y-85000000D01*
X107500000Y-87500000D02*
X107500000Y-112500000D01*
D11*
%TO.C,J2*%
X54162500Y-103387060D02*
X54412500Y-103637060D01*
X54162500Y-102987060D02*
X54162500Y-103387060D01*
X53512500Y-102737060D02*
X53912500Y-102737060D01*
X53912500Y-102737060D02*
X54162500Y-102987060D01*
X53262500Y-102487060D02*
X53512500Y-102737060D01*
X53262500Y-96887060D02*
X53262500Y-102487060D01*
X53512500Y-96637060D02*
X53262500Y-96887060D01*
X53912500Y-96637060D02*
X53512500Y-96637060D01*
X54162500Y-96387060D02*
X53912500Y-96637060D01*
X54162500Y-95987060D02*
X54162500Y-96387060D01*
X54162500Y-95987060D02*
X54412500Y-95737060D01*
%TD*%
M02*
