%TF.GenerationSoftware,KiCad,Pcbnew,7.0.1-0*%
%TF.CreationDate,2023-11-13T20:43:58+01:00*%
%TF.ProjectId,luz,6c757a2e-6b69-4636-9164-5f7063625858,rev?*%
%TF.SameCoordinates,Original*%
%TF.FileFunction,Copper,L2,Inr*%
%TF.FilePolarity,Positive*%
%FSLAX46Y46*%
G04 Gerber Fmt 4.6, Leading zero omitted, Abs format (unit mm)*
G04 Created by KiCad (PCBNEW 7.0.1-0) date 2023-11-13 20:43:58*
%MOMM*%
%LPD*%
G01*
G04 APERTURE LIST*
%TA.AperFunction,ComponentPad*%
%ADD10C,2.600000*%
%TD*%
%TA.AperFunction,ComponentPad*%
%ADD11R,2.600000X2.600000*%
%TD*%
%TA.AperFunction,ViaPad*%
%ADD12C,0.600000*%
%TD*%
%TA.AperFunction,ViaPad*%
%ADD13C,0.800000*%
%TD*%
%TA.AperFunction,Conductor*%
%ADD14C,0.200000*%
%TD*%
G04 APERTURE END LIST*
D10*
%TO.N,Net-(J3-Pin_5)*%
%TO.C,J3*%
X102120000Y-89840000D03*
%TO.N,Net-(J3-Pin_4)*%
X102120000Y-94920000D03*
%TO.N,Net-(J3-Pin_3)*%
X102120000Y-100000000D03*
%TO.N,Net-(J3-Pin_2)*%
X102120000Y-105080000D03*
D11*
%TO.N,+12V*%
X102120000Y-110160000D03*
%TD*%
D12*
%TO.N,unconnected-(J2-SHIELD-PadSH1)*%
X55100000Y-104900000D03*
X55000000Y-94700000D03*
D13*
%TO.N,GND*%
X63900000Y-99700000D03*
%TO.N,+12V*%
X67700000Y-104400000D03*
%TO.N,VBUS*%
X71800000Y-95200000D03*
%TO.N,Net-(U2-CHIP_PU{slash}RESET)*%
X77900000Y-96000000D03*
D12*
%TO.N,ALERT*%
X71000000Y-95900000D03*
X77000000Y-96200000D03*
%TO.N,VMon*%
X77100000Y-98600000D03*
D13*
%TO.N,RX*%
X87037156Y-93737156D03*
%TO.N,TX*%
X87900000Y-94400000D03*
%TO.N,+3V3*%
X79500000Y-93700000D03*
%TO.N,GND*%
X83500000Y-96700000D03*
X81800000Y-96700000D03*
%TO.N,VMon*%
X88133995Y-98253613D03*
%TO.N,+12V*%
X87598758Y-97409500D03*
%TO.N,GND*%
X105520000Y-89149999D03*
X105520000Y-99999999D03*
X105520000Y-110849999D03*
X105520000Y-108137499D03*
X105520000Y-105424999D03*
X105520000Y-102712499D03*
X105520000Y-97287499D03*
X105520000Y-94574999D03*
%TO.N,G10*%
X76566408Y-99966408D03*
X79497821Y-91849500D03*
D12*
%TO.N,CC1*%
X63100000Y-104900000D03*
D13*
%TO.N,GND*%
X63300000Y-94900000D03*
X64500000Y-97000000D03*
X88100000Y-93400000D03*
%TO.N,Net-(U2-GPIO0{slash}BOOT)*%
X73500000Y-109800000D03*
%TO.N,Net-(U2-CHIP_PU{slash}RESET)*%
X90800000Y-109300000D03*
%TO.N,C1*%
X92100000Y-104100000D03*
X88700000Y-102100000D03*
%TO.N,GND*%
X105520000Y-91862499D03*
%TO.N,C2*%
X92100000Y-99000000D03*
%TO.N,C4*%
X92100000Y-88900000D03*
%TO.N,C3*%
X92200000Y-94000000D03*
%TO.N,GND*%
X56100000Y-109000000D03*
X56200000Y-110900000D03*
X56100000Y-109950000D03*
X57200000Y-111400000D03*
X84100000Y-99800000D03*
X80552264Y-93748411D03*
X57200000Y-110450000D03*
X55900000Y-87400000D03*
X55900000Y-88350000D03*
X83000000Y-99800000D03*
X56900000Y-87800000D03*
X69000000Y-102750000D03*
X56900000Y-86850001D03*
X79200000Y-102600000D03*
X55900000Y-89300000D03*
X56900000Y-85900000D03*
X82600000Y-93500000D03*
X57200000Y-109500000D03*
X81900000Y-99800000D03*
%TO.N,CC1*%
X59000000Y-99100000D03*
X63450000Y-98750000D03*
D12*
%TO.N,SCL*%
X65800000Y-103100000D03*
D13*
X74900000Y-104200000D03*
%TO.N,SDA*%
X75900000Y-104300000D03*
D12*
X66300000Y-104000000D03*
D13*
%TO.N,Net-(U2-GPIO0{slash}BOOT)*%
X77200000Y-97100000D03*
%TO.N,USBD-*%
X58050000Y-99800000D03*
X80100000Y-103200000D03*
D12*
X63800000Y-103300000D03*
D13*
%TO.N,USBD+*%
X80900000Y-103800000D03*
X56900000Y-99750000D03*
D12*
X64700000Y-104000000D03*
D13*
%TO.N,SPICS*%
X85300000Y-104000000D03*
X83400000Y-105700000D03*
%TO.N,SPICLK*%
X86400000Y-104000000D03*
X80400000Y-106400000D03*
%TO.N,SPIQ*%
X87500000Y-104000000D03*
X84500000Y-107200000D03*
%TO.N,SPID*%
X87100000Y-102600000D03*
X80500000Y-105200000D03*
%TO.N,+12V*%
X73550000Y-92300000D03*
X73550000Y-90100000D03*
X64700000Y-85750000D03*
X68000000Y-86750000D03*
X73550000Y-93400000D03*
X73550000Y-91200000D03*
X73500000Y-87900000D03*
X72400000Y-87900000D03*
X72450000Y-91200000D03*
X72450000Y-92300000D03*
X68000000Y-85700000D03*
X72450000Y-93400000D03*
X69100001Y-86750000D03*
X65800000Y-86800000D03*
X65800000Y-85750000D03*
X72400000Y-89000000D03*
X70200000Y-85700000D03*
X69100001Y-85700000D03*
X72450000Y-90100000D03*
X73500000Y-89000000D03*
X66900001Y-85700000D03*
X70200000Y-86750000D03*
X66900001Y-86750000D03*
X64700000Y-86800000D03*
%TO.N,VBUS*%
X61050000Y-105550000D03*
X61000000Y-103500000D03*
X68700000Y-108450000D03*
X59950000Y-105550000D03*
X59900000Y-101500000D03*
X60000000Y-95900000D03*
X59900000Y-103500000D03*
X61050000Y-104550000D03*
X58800000Y-102500000D03*
X58850000Y-104550000D03*
X59950000Y-104550000D03*
X58800000Y-96900000D03*
X60000000Y-96900000D03*
X58850000Y-105550000D03*
X61000000Y-102500000D03*
X58800000Y-103500000D03*
X61100000Y-95900000D03*
X58800000Y-101500000D03*
X58800000Y-95900000D03*
X58800000Y-97900000D03*
X60000000Y-97900000D03*
X61000000Y-101500000D03*
X61100000Y-97900000D03*
X61100000Y-96900000D03*
%TO.N,+3V3*%
X84400000Y-93200000D03*
X75400000Y-107300000D03*
X88300000Y-95400000D03*
X75500000Y-100200000D03*
X76200000Y-88300000D03*
X77800000Y-86100000D03*
X76200000Y-86100000D03*
X75000000Y-101100000D03*
X74900000Y-95300000D03*
X77800000Y-88300000D03*
X76200000Y-87200000D03*
X77900000Y-101400000D03*
X77800000Y-87200000D03*
%TO.N,C2*%
X88400000Y-101000000D03*
%TO.N,C3*%
X89080949Y-100213329D03*
%TO.N,C4*%
X88500000Y-99400000D03*
%TO.N,Net-(D3-K)*%
X71950000Y-99500000D03*
X68900000Y-96000000D03*
%TO.N,Net-(Q5-Pad1)*%
X71050000Y-97300000D03*
X58450000Y-88700000D03*
%TO.N,Net-(U1-VBUS_VS_DISCH)*%
X69300000Y-104750000D03*
X69070197Y-97609440D03*
%TD*%
D14*
%TO.N,unconnected-(J2-SHIELD-PadSH1)*%
X55000000Y-94700000D02*
X55000000Y-104800000D01*
X55000000Y-104800000D02*
X55100000Y-104900000D01*
%TO.N,USBD+*%
X62800000Y-103500000D02*
X63300000Y-104000000D01*
X63300000Y-104000000D02*
X64700000Y-104000000D01*
X64800000Y-102400000D02*
X64800000Y-103900000D01*
X64800000Y-103900000D02*
X64700000Y-104000000D01*
X64800000Y-102400000D02*
X65400000Y-101800000D01*
X75800000Y-103000000D02*
X77200000Y-104400000D01*
X80200000Y-104400000D02*
X80800000Y-103800000D01*
X65400000Y-101800000D02*
X69700000Y-101800000D01*
X70900000Y-103000000D02*
X75800000Y-103000000D01*
X69700000Y-101800000D02*
X70900000Y-103000000D01*
X77200000Y-104400000D02*
X80200000Y-104400000D01*
X80800000Y-103800000D02*
X80900000Y-103800000D01*
%TO.N,SCL*%
X74900000Y-104200000D02*
X72600000Y-106500000D01*
X72600000Y-106500000D02*
X67600000Y-106500000D01*
X67600000Y-106500000D02*
X65600000Y-104500000D01*
X65600000Y-104500000D02*
X65600000Y-103300000D01*
X65600000Y-103300000D02*
X65800000Y-103100000D01*
%TO.N,SDA*%
X68000000Y-106100000D02*
X66300000Y-104400000D01*
X66300000Y-104400000D02*
X66300000Y-104000000D01*
X75900000Y-104300000D02*
X75900000Y-104210050D01*
X74610050Y-103500000D02*
X72610050Y-105500000D01*
X72600000Y-105500000D02*
X72000000Y-106100000D01*
X72000000Y-106100000D02*
X68000000Y-106100000D01*
X75900000Y-104210050D02*
X75189950Y-103500000D01*
X75189950Y-103500000D02*
X74610050Y-103500000D01*
X72610050Y-105500000D02*
X72600000Y-105500000D01*
%TO.N,USBD-*%
X75415686Y-102050000D02*
X71250000Y-102050000D01*
X79400000Y-103900000D02*
X77265686Y-103900000D01*
X63800000Y-101700000D02*
X63800000Y-103300000D01*
X77265686Y-103900000D02*
X75415686Y-102050000D01*
X80100000Y-103200000D02*
X79400000Y-103900000D01*
X71250000Y-102050000D02*
X70400000Y-101200000D01*
X70400000Y-101200000D02*
X64300000Y-101200000D01*
X64300000Y-101200000D02*
X63800000Y-101700000D01*
%TO.N,USBD+*%
X56900000Y-99750000D02*
X57650000Y-100500000D01*
X62600000Y-100500000D02*
X62800000Y-100700000D01*
X57650000Y-100500000D02*
X62600000Y-100500000D01*
X62800000Y-100700000D02*
X62800000Y-103500000D01*
%TO.N,USBD-*%
X63200000Y-100500000D02*
X63200000Y-102700000D01*
X63200000Y-102700000D02*
X63800000Y-103300000D01*
X62700000Y-100000000D02*
X63200000Y-100500000D01*
X62700000Y-100000000D02*
X58250000Y-100000000D01*
%TO.N,VMon*%
X87587608Y-98800000D02*
X77300000Y-98800000D01*
X77300000Y-98800000D02*
X77100000Y-98600000D01*
X88133995Y-98253613D02*
X87587608Y-98800000D01*
%TO.N,C4*%
X88500000Y-99400000D02*
X89000000Y-98900000D01*
X89000000Y-98900000D02*
X89000000Y-92000000D01*
X89000000Y-92000000D02*
X92100000Y-88900000D01*
%TO.N,C3*%
X90300000Y-94100000D02*
X92100000Y-94100000D01*
X92100000Y-94100000D02*
X92200000Y-94000000D01*
%TO.N,C2*%
X89800000Y-101000000D02*
X91800000Y-99000000D01*
X91800000Y-99000000D02*
X92100000Y-99000000D01*
%TO.N,C1*%
X90700000Y-104100000D02*
X92100000Y-104100000D01*
X90700000Y-104100000D02*
X88700000Y-102100000D01*
%TO.N,G10*%
X76300000Y-99700000D02*
X76300000Y-95900000D01*
X76300000Y-95900000D02*
X77500000Y-94700000D01*
X76566408Y-99966408D02*
X76300000Y-99700000D01*
X77500000Y-94700000D02*
X77500000Y-93847321D01*
X77500000Y-93847321D02*
X79497821Y-91849500D01*
%TO.N,C2*%
X88400000Y-101000000D02*
X89800000Y-101000000D01*
%TO.N,C3*%
X89600000Y-94800000D02*
X90300000Y-94100000D01*
X89600000Y-99694278D02*
X89600000Y-94800000D01*
%TO.N,CC1*%
X63450000Y-98750000D02*
X63100000Y-99100000D01*
X63100000Y-99100000D02*
X59000000Y-99100000D01*
%TO.N,USBD-*%
X58250000Y-100000000D02*
X58050000Y-99800000D01*
%TO.N,SPICS*%
X83600000Y-105700000D02*
X83400000Y-105700000D01*
X85300000Y-104000000D02*
X83600000Y-105700000D01*
%TO.N,SPICLK*%
X86400000Y-104000000D02*
X84000000Y-106400000D01*
X84000000Y-106400000D02*
X80400000Y-106400000D01*
%TO.N,SPIQ*%
X87500000Y-104000000D02*
X87500000Y-104200000D01*
X87500000Y-104200000D02*
X84500000Y-107200000D01*
%TO.N,SPID*%
X83100000Y-102600000D02*
X80500000Y-105200000D01*
X87100000Y-102600000D02*
X83100000Y-102600000D01*
%TO.N,C3*%
X89080949Y-100213329D02*
X89600000Y-99694278D01*
%TO.N,Net-(D3-K)*%
X71950000Y-99500000D02*
X69100000Y-96650000D01*
X69100000Y-96650000D02*
X69100000Y-96200000D01*
%TO.N,Net-(Q5-Pad1)*%
X71050000Y-97300000D02*
X71050000Y-97160050D01*
X71050000Y-97160050D02*
X62589950Y-88700000D01*
X62589950Y-88700000D02*
X58450000Y-88700000D01*
%TD*%
%TA.AperFunction,Conductor*%
%TO.N,GND*%
G36*
X69447356Y-102409939D02*
G01*
X69487584Y-102436819D01*
X70441799Y-103391034D01*
X70452494Y-103403229D01*
X70471717Y-103428282D01*
X70552230Y-103490061D01*
X70590291Y-103519266D01*
X70597159Y-103524536D01*
X70743238Y-103585044D01*
X70868698Y-103601561D01*
X70899999Y-103605682D01*
X70899999Y-103605681D01*
X70900000Y-103605682D01*
X70931302Y-103601560D01*
X70947487Y-103600500D01*
X73360953Y-103600500D01*
X73417248Y-103614015D01*
X73461271Y-103651615D01*
X73483426Y-103705102D01*
X73478884Y-103762818D01*
X73448634Y-103812181D01*
X72252157Y-105008656D01*
X72239963Y-105019350D01*
X72171717Y-105071717D01*
X72152495Y-105096769D01*
X72141800Y-105108964D01*
X71787584Y-105463181D01*
X71747356Y-105490061D01*
X71699903Y-105499500D01*
X70115399Y-105499500D01*
X70060264Y-105486568D01*
X70016630Y-105450471D01*
X69993596Y-105398736D01*
X69995967Y-105342155D01*
X70023248Y-105292529D01*
X70032533Y-105282216D01*
X70127179Y-105118284D01*
X70138269Y-105084152D01*
X70185674Y-104938256D01*
X70205460Y-104750000D01*
X70185674Y-104561744D01*
X70127179Y-104381716D01*
X70127179Y-104381715D01*
X70032533Y-104217783D01*
X69905870Y-104077110D01*
X69752730Y-103965848D01*
X69579802Y-103888855D01*
X69394648Y-103849500D01*
X69394646Y-103849500D01*
X69205354Y-103849500D01*
X69205352Y-103849500D01*
X69020197Y-103888855D01*
X68847269Y-103965848D01*
X68706393Y-104068200D01*
X68642157Y-104091580D01*
X68575293Y-104077367D01*
X68526121Y-104029882D01*
X68432533Y-103867784D01*
X68305870Y-103727110D01*
X68152730Y-103615848D01*
X67979802Y-103538855D01*
X67794648Y-103499500D01*
X67794646Y-103499500D01*
X67605354Y-103499500D01*
X67605352Y-103499500D01*
X67420197Y-103538855D01*
X67247269Y-103615848D01*
X67187576Y-103659217D01*
X67124882Y-103682479D01*
X67059224Y-103669800D01*
X67009698Y-103624870D01*
X67009633Y-103624767D01*
X66929816Y-103497738D01*
X66929815Y-103497737D01*
X66929814Y-103497735D01*
X66802264Y-103370185D01*
X66669110Y-103286519D01*
X66656111Y-103278351D01*
X66610364Y-103227159D01*
X66598864Y-103159474D01*
X66605565Y-103099999D01*
X66598209Y-103034711D01*
X66585368Y-102920745D01*
X66525789Y-102750478D01*
X66445998Y-102623491D01*
X66425251Y-102590472D01*
X66406294Y-102527977D01*
X66421717Y-102464519D01*
X66467244Y-102417697D01*
X66530245Y-102400500D01*
X69399903Y-102400500D01*
X69447356Y-102409939D01*
G37*
%TD.AperFunction*%
%TA.AperFunction,Conductor*%
G36*
X87541156Y-99415014D02*
G01*
X87585742Y-99455160D01*
X87606262Y-99511536D01*
X87612285Y-99568833D01*
X87614326Y-99588257D01*
X87672820Y-99768284D01*
X87767464Y-99932213D01*
X87767467Y-99932216D01*
X87894129Y-100072888D01*
X87894131Y-100072889D01*
X87900811Y-100080308D01*
X87930777Y-100141748D01*
X87923632Y-100209732D01*
X87881546Y-100263599D01*
X87794129Y-100327110D01*
X87667466Y-100467783D01*
X87572820Y-100631715D01*
X87514326Y-100811742D01*
X87505992Y-100891034D01*
X87494540Y-101000000D01*
X87496338Y-101017105D01*
X87514326Y-101188257D01*
X87572820Y-101368284D01*
X87667466Y-101532216D01*
X87794129Y-101672889D01*
X87800370Y-101677423D01*
X87834873Y-101715743D01*
X87850806Y-101764785D01*
X87845414Y-101816067D01*
X87842311Y-101825615D01*
X87812059Y-101874974D01*
X87762696Y-101905221D01*
X87704982Y-101909762D01*
X87651497Y-101887607D01*
X87552730Y-101815849D01*
X87552729Y-101815848D01*
X87552727Y-101815847D01*
X87379802Y-101738855D01*
X87194648Y-101699500D01*
X87194646Y-101699500D01*
X87005354Y-101699500D01*
X87005352Y-101699500D01*
X86820197Y-101738855D01*
X86647269Y-101815848D01*
X86494128Y-101927111D01*
X86465890Y-101958473D01*
X86424176Y-101988780D01*
X86373741Y-101999500D01*
X83147487Y-101999500D01*
X83131302Y-101998439D01*
X83126776Y-101997843D01*
X83099998Y-101994317D01*
X82929431Y-102016772D01*
X82916524Y-102026021D01*
X82797160Y-102075463D01*
X82797158Y-102075464D01*
X82797159Y-102075464D01*
X82671718Y-102171718D01*
X82671716Y-102171719D01*
X82671715Y-102171721D01*
X82652490Y-102196774D01*
X82641798Y-102208965D01*
X81701451Y-103149312D01*
X81643768Y-103181948D01*
X81577515Y-103180213D01*
X81521620Y-103144603D01*
X81510016Y-103131716D01*
X81505871Y-103127112D01*
X81505870Y-103127111D01*
X81505869Y-103127110D01*
X81352730Y-103015848D01*
X81179802Y-102938855D01*
X81015859Y-102904008D01*
X80958662Y-102874863D01*
X80936809Y-102841205D01*
X80933696Y-102843003D01*
X80832533Y-102667783D01*
X80705870Y-102527110D01*
X80552730Y-102415848D01*
X80379802Y-102338855D01*
X80194648Y-102299500D01*
X80194646Y-102299500D01*
X80005354Y-102299500D01*
X80005352Y-102299500D01*
X79820197Y-102338855D01*
X79647269Y-102415848D01*
X79494129Y-102527110D01*
X79367466Y-102667783D01*
X79272820Y-102831715D01*
X79214326Y-103011742D01*
X79211681Y-103036908D01*
X79196438Y-103181948D01*
X79195753Y-103188461D01*
X79175233Y-103244840D01*
X79130646Y-103284985D01*
X79072432Y-103299500D01*
X77565783Y-103299500D01*
X77518330Y-103290061D01*
X77478102Y-103263181D01*
X75873885Y-101658964D01*
X75863189Y-101646768D01*
X75834274Y-101609084D01*
X75812876Y-101565690D01*
X75809712Y-101517411D01*
X75825264Y-101471599D01*
X75827179Y-101468284D01*
X75885674Y-101288256D01*
X75905460Y-101100000D01*
X75904984Y-101095474D01*
X75915025Y-101032079D01*
X75955418Y-100982197D01*
X76105871Y-100872888D01*
X76126449Y-100850032D01*
X76168160Y-100819728D01*
X76218597Y-100809007D01*
X76269031Y-100819727D01*
X76281945Y-100825477D01*
X76286607Y-100827553D01*
X76471760Y-100866908D01*
X76471762Y-100866908D01*
X76661054Y-100866908D01*
X76661056Y-100866908D01*
X76824508Y-100832165D01*
X76846211Y-100827552D01*
X76961242Y-100776336D01*
X77022054Y-100766050D01*
X77080299Y-100786332D01*
X77121568Y-100832165D01*
X77135652Y-100892211D01*
X77119067Y-100951614D01*
X77072820Y-101031716D01*
X77014326Y-101211742D01*
X76994540Y-101400000D01*
X77014326Y-101588257D01*
X77072820Y-101768284D01*
X77167466Y-101932216D01*
X77294129Y-102072889D01*
X77447269Y-102184151D01*
X77620197Y-102261144D01*
X77805352Y-102300500D01*
X77805354Y-102300500D01*
X77994646Y-102300500D01*
X77994648Y-102300500D01*
X78118084Y-102274262D01*
X78179803Y-102261144D01*
X78352730Y-102184151D01*
X78352730Y-102184150D01*
X78505870Y-102072889D01*
X78632533Y-101932216D01*
X78727179Y-101768284D01*
X78749528Y-101699500D01*
X78785674Y-101588256D01*
X78805460Y-101400000D01*
X78785674Y-101211744D01*
X78747896Y-101095477D01*
X78727179Y-101031715D01*
X78632533Y-100867783D01*
X78505870Y-100727110D01*
X78352730Y-100615848D01*
X78179802Y-100538855D01*
X77994648Y-100499500D01*
X77994646Y-100499500D01*
X77805354Y-100499500D01*
X77805352Y-100499500D01*
X77620199Y-100538854D01*
X77505163Y-100590072D01*
X77444352Y-100600357D01*
X77386107Y-100580074D01*
X77344839Y-100534240D01*
X77330755Y-100474195D01*
X77347340Y-100414794D01*
X77393587Y-100334692D01*
X77452082Y-100154664D01*
X77471868Y-99966408D01*
X77452082Y-99778152D01*
X77393587Y-99598124D01*
X77393586Y-99598122D01*
X77386877Y-99586501D01*
X77370263Y-99524501D01*
X77386876Y-99462501D01*
X77432263Y-99417113D01*
X77494263Y-99400500D01*
X87482942Y-99400500D01*
X87541156Y-99415014D01*
G37*
%TD.AperFunction*%
%TA.AperFunction,Conductor*%
G36*
X63939736Y-85013432D02*
G01*
X63983370Y-85049529D01*
X64006404Y-85101264D01*
X64004033Y-85157845D01*
X63976752Y-85207471D01*
X63967466Y-85217783D01*
X63872820Y-85381715D01*
X63814326Y-85561742D01*
X63794540Y-85750000D01*
X63814326Y-85938257D01*
X63872820Y-86118284D01*
X63927504Y-86212999D01*
X63944117Y-86274998D01*
X63927505Y-86336998D01*
X63872820Y-86431716D01*
X63814326Y-86611742D01*
X63794540Y-86799999D01*
X63814326Y-86988257D01*
X63872820Y-87168284D01*
X63967466Y-87332216D01*
X64094129Y-87472889D01*
X64247269Y-87584151D01*
X64420197Y-87661144D01*
X64605352Y-87700500D01*
X64605354Y-87700500D01*
X64794646Y-87700500D01*
X64794648Y-87700500D01*
X64918084Y-87674262D01*
X64979803Y-87661144D01*
X65152730Y-87584151D01*
X65177116Y-87566432D01*
X65224216Y-87545462D01*
X65275779Y-87545461D01*
X65322882Y-87566432D01*
X65347270Y-87584151D01*
X65347271Y-87584151D01*
X65347272Y-87584152D01*
X65520197Y-87661144D01*
X65705352Y-87700500D01*
X65705354Y-87700500D01*
X65894646Y-87700500D01*
X65894648Y-87700500D01*
X66018084Y-87674262D01*
X66079803Y-87661144D01*
X66252730Y-87584151D01*
X66311526Y-87541433D01*
X66358637Y-87520460D01*
X66410210Y-87520466D01*
X66434316Y-87531205D01*
X66435365Y-87528851D01*
X66620198Y-87611144D01*
X66805353Y-87650500D01*
X66805355Y-87650500D01*
X66994647Y-87650500D01*
X66994649Y-87650500D01*
X67118084Y-87624262D01*
X67179804Y-87611144D01*
X67352731Y-87534151D01*
X67377117Y-87516433D01*
X67424218Y-87495462D01*
X67475781Y-87495462D01*
X67522882Y-87516432D01*
X67547270Y-87534151D01*
X67547271Y-87534151D01*
X67547272Y-87534152D01*
X67720197Y-87611144D01*
X67905352Y-87650500D01*
X67905354Y-87650500D01*
X68094646Y-87650500D01*
X68094648Y-87650500D01*
X68218083Y-87624262D01*
X68279803Y-87611144D01*
X68452730Y-87534151D01*
X68477117Y-87516432D01*
X68524219Y-87495462D01*
X68575782Y-87495462D01*
X68622886Y-87516435D01*
X68647270Y-87534151D01*
X68820198Y-87611144D01*
X69005353Y-87650500D01*
X69005355Y-87650500D01*
X69194647Y-87650500D01*
X69194649Y-87650500D01*
X69318084Y-87624262D01*
X69379804Y-87611144D01*
X69552731Y-87534151D01*
X69577117Y-87516433D01*
X69624218Y-87495462D01*
X69675781Y-87495462D01*
X69722882Y-87516432D01*
X69747270Y-87534151D01*
X69747271Y-87534151D01*
X69747272Y-87534152D01*
X69920197Y-87611144D01*
X70105352Y-87650500D01*
X70105354Y-87650500D01*
X70294646Y-87650500D01*
X70294648Y-87650500D01*
X70418083Y-87624262D01*
X70479803Y-87611144D01*
X70652730Y-87534151D01*
X70677114Y-87516435D01*
X70805870Y-87422889D01*
X70932533Y-87282216D01*
X71027179Y-87118284D01*
X71027971Y-87115846D01*
X71085674Y-86938256D01*
X71105460Y-86750000D01*
X71085674Y-86561744D01*
X71027179Y-86381716D01*
X71027179Y-86381715D01*
X70972494Y-86286999D01*
X70955881Y-86224998D01*
X70972494Y-86163000D01*
X71027179Y-86068284D01*
X71085674Y-85888256D01*
X71105460Y-85700000D01*
X71085674Y-85511744D01*
X71043425Y-85381715D01*
X71027179Y-85331715D01*
X70943339Y-85186500D01*
X70926726Y-85124500D01*
X70943339Y-85062500D01*
X70988726Y-85017113D01*
X71050726Y-85000500D01*
X75872179Y-85000500D01*
X75936414Y-85018435D01*
X75982068Y-85067051D01*
X75995934Y-85132286D01*
X75974002Y-85195268D01*
X75922615Y-85237780D01*
X75920199Y-85238855D01*
X75920197Y-85238856D01*
X75866564Y-85262735D01*
X75747265Y-85315850D01*
X75594129Y-85427110D01*
X75467466Y-85567783D01*
X75372820Y-85731715D01*
X75314326Y-85911742D01*
X75294540Y-86099999D01*
X75314326Y-86288257D01*
X75372820Y-86468284D01*
X75441939Y-86588000D01*
X75458552Y-86650000D01*
X75441939Y-86712000D01*
X75372820Y-86831715D01*
X75314326Y-87011742D01*
X75294540Y-87200000D01*
X75314326Y-87388257D01*
X75372820Y-87568284D01*
X75441939Y-87688000D01*
X75458552Y-87750000D01*
X75441939Y-87812000D01*
X75372820Y-87931715D01*
X75314326Y-88111742D01*
X75294540Y-88299999D01*
X75314326Y-88488257D01*
X75372820Y-88668284D01*
X75467466Y-88832216D01*
X75594129Y-88972889D01*
X75747269Y-89084151D01*
X75920197Y-89161144D01*
X76105352Y-89200500D01*
X76105354Y-89200500D01*
X76294646Y-89200500D01*
X76294648Y-89200500D01*
X76418083Y-89174262D01*
X76479803Y-89161144D01*
X76652730Y-89084151D01*
X76690648Y-89056602D01*
X76805870Y-88972889D01*
X76907850Y-88859629D01*
X76965821Y-88823405D01*
X77034179Y-88823405D01*
X77092150Y-88859629D01*
X77194129Y-88972889D01*
X77347269Y-89084151D01*
X77520197Y-89161144D01*
X77705352Y-89200500D01*
X77705354Y-89200500D01*
X77894646Y-89200500D01*
X77894648Y-89200500D01*
X78018083Y-89174262D01*
X78079803Y-89161144D01*
X78252730Y-89084151D01*
X78290648Y-89056602D01*
X78405870Y-88972889D01*
X78532533Y-88832216D01*
X78627179Y-88668284D01*
X78639061Y-88631715D01*
X78685674Y-88488256D01*
X78705460Y-88300000D01*
X78685674Y-88111744D01*
X78655332Y-88018363D01*
X78627179Y-87931715D01*
X78558061Y-87812000D01*
X78541448Y-87750000D01*
X78558061Y-87688000D01*
X78627179Y-87568284D01*
X78638269Y-87534152D01*
X78685674Y-87388256D01*
X78705460Y-87200000D01*
X78685674Y-87011744D01*
X78641203Y-86874878D01*
X78627179Y-86831715D01*
X78558061Y-86712000D01*
X78541448Y-86650000D01*
X78558061Y-86588000D01*
X78627179Y-86468284D01*
X78639061Y-86431716D01*
X78685674Y-86288256D01*
X78705460Y-86100000D01*
X78685674Y-85911744D01*
X78645313Y-85787526D01*
X78627179Y-85731715D01*
X78532533Y-85567783D01*
X78405870Y-85427110D01*
X78252734Y-85315850D01*
X78146119Y-85268382D01*
X78079803Y-85238856D01*
X78079800Y-85238855D01*
X78077385Y-85237780D01*
X78025998Y-85195268D01*
X78004066Y-85132286D01*
X78017932Y-85067051D01*
X78063586Y-85018435D01*
X78127821Y-85000500D01*
X79118678Y-85000500D01*
X79180774Y-85017168D01*
X79226175Y-85062691D01*
X79242677Y-85124829D01*
X79231997Y-89120430D01*
X87143674Y-89052163D01*
X87143674Y-85124500D01*
X87160287Y-85062500D01*
X87205674Y-85017113D01*
X87267674Y-85000500D01*
X104996249Y-85000500D01*
X105003735Y-85000726D01*
X105027834Y-85002183D01*
X105098669Y-85006468D01*
X105099066Y-85006493D01*
X105302818Y-85019847D01*
X105317032Y-85021610D01*
X105448459Y-85045695D01*
X105450007Y-85045991D01*
X105612440Y-85078301D01*
X105625102Y-85081523D01*
X105740247Y-85117404D01*
X105759678Y-85123459D01*
X105762645Y-85124425D01*
X105912220Y-85175199D01*
X105923244Y-85179538D01*
X106054556Y-85238637D01*
X106058416Y-85240457D01*
X106197458Y-85309025D01*
X106206762Y-85314119D01*
X106318581Y-85381716D01*
X106331185Y-85389335D01*
X106335926Y-85392350D01*
X106463643Y-85477689D01*
X106471225Y-85483180D01*
X106507682Y-85511742D01*
X106586211Y-85573265D01*
X106591487Y-85577640D01*
X106706550Y-85678547D01*
X106712472Y-85684094D01*
X106815904Y-85787526D01*
X106821451Y-85793448D01*
X106922358Y-85908511D01*
X106926741Y-85913797D01*
X107016818Y-86028773D01*
X107022309Y-86036355D01*
X107107648Y-86164072D01*
X107110663Y-86168813D01*
X107185878Y-86293234D01*
X107190973Y-86302540D01*
X107259519Y-86441536D01*
X107261383Y-86445489D01*
X107320458Y-86576750D01*
X107324801Y-86587783D01*
X107375573Y-86737353D01*
X107376539Y-86740320D01*
X107418470Y-86874878D01*
X107421702Y-86887578D01*
X107453976Y-87049832D01*
X107454328Y-87051672D01*
X107478386Y-87182954D01*
X107480151Y-87197195D01*
X107493498Y-87400828D01*
X107493538Y-87401450D01*
X107499274Y-87496264D01*
X107499500Y-87503752D01*
X107499500Y-112496248D01*
X107499274Y-112503736D01*
X107493538Y-112598548D01*
X107493498Y-112599170D01*
X107480151Y-112802803D01*
X107478386Y-112817044D01*
X107454328Y-112948326D01*
X107453976Y-112950166D01*
X107421702Y-113112420D01*
X107418470Y-113125120D01*
X107376539Y-113259678D01*
X107375573Y-113262645D01*
X107324801Y-113412215D01*
X107320458Y-113423248D01*
X107261383Y-113554509D01*
X107259519Y-113558462D01*
X107190973Y-113697458D01*
X107185878Y-113706764D01*
X107110663Y-113831185D01*
X107107648Y-113835926D01*
X107022309Y-113963643D01*
X107016818Y-113971225D01*
X106926741Y-114086201D01*
X106922358Y-114091487D01*
X106821451Y-114206550D01*
X106815904Y-114212472D01*
X106712472Y-114315904D01*
X106706550Y-114321451D01*
X106591487Y-114422358D01*
X106586201Y-114426741D01*
X106471225Y-114516818D01*
X106463643Y-114522309D01*
X106335926Y-114607648D01*
X106331185Y-114610663D01*
X106206764Y-114685878D01*
X106197458Y-114690973D01*
X106058462Y-114759519D01*
X106054509Y-114761383D01*
X105923248Y-114820458D01*
X105912215Y-114824801D01*
X105762645Y-114875573D01*
X105759678Y-114876539D01*
X105625120Y-114918470D01*
X105612420Y-114921702D01*
X105450166Y-114953976D01*
X105448326Y-114954328D01*
X105317044Y-114978386D01*
X105302803Y-114980151D01*
X105099170Y-114993498D01*
X105098548Y-114993538D01*
X105003736Y-114999274D01*
X104996248Y-114999500D01*
X57004053Y-114999500D01*
X56995942Y-114999234D01*
X56916781Y-114994045D01*
X56916046Y-114993995D01*
X56738425Y-114981291D01*
X56723080Y-114979224D01*
X56611675Y-114957064D01*
X56609508Y-114956613D01*
X56469777Y-114926217D01*
X56456276Y-114922470D01*
X56342338Y-114883793D01*
X56338863Y-114882556D01*
X56211196Y-114834938D01*
X56199687Y-114829969D01*
X56134947Y-114798043D01*
X56089348Y-114775556D01*
X56084779Y-114773183D01*
X55967520Y-114709154D01*
X55958056Y-114703424D01*
X55854729Y-114634383D01*
X55849310Y-114630548D01*
X55793396Y-114588691D01*
X55743278Y-114551173D01*
X55735848Y-114545150D01*
X55642022Y-114462867D01*
X55636100Y-114457320D01*
X55542678Y-114363898D01*
X55537131Y-114357976D01*
X55505450Y-114321851D01*
X55454844Y-114264145D01*
X55448830Y-114256727D01*
X55369450Y-114150688D01*
X55365615Y-114145269D01*
X55296574Y-114041942D01*
X55290844Y-114032478D01*
X55253257Y-113963643D01*
X55226798Y-113915187D01*
X55224461Y-113910687D01*
X55170024Y-113800300D01*
X55165060Y-113788802D01*
X55117420Y-113661074D01*
X55116228Y-113657725D01*
X55077522Y-113543703D01*
X55073786Y-113530240D01*
X55043374Y-113390437D01*
X55042945Y-113388378D01*
X55020772Y-113276904D01*
X55018709Y-113261587D01*
X55006002Y-113083931D01*
X55005960Y-113083313D01*
X55000765Y-113004051D01*
X55000500Y-112995941D01*
X55000500Y-112964649D01*
X54997532Y-112952695D01*
X54906873Y-111507869D01*
X100319500Y-111507869D01*
X100325909Y-111567483D01*
X100376204Y-111702331D01*
X100462454Y-111817546D01*
X100577669Y-111903796D01*
X100712517Y-111954091D01*
X100772127Y-111960500D01*
X103467872Y-111960499D01*
X103527483Y-111954091D01*
X103662331Y-111903796D01*
X103777546Y-111817546D01*
X103863796Y-111702331D01*
X103914091Y-111567483D01*
X103920500Y-111507873D01*
X103920499Y-108812128D01*
X103914091Y-108752517D01*
X103863796Y-108617669D01*
X103777546Y-108502454D01*
X103662331Y-108416204D01*
X103527483Y-108365909D01*
X103467873Y-108359500D01*
X103467869Y-108359500D01*
X100772130Y-108359500D01*
X100712515Y-108365909D01*
X100577669Y-108416204D01*
X100462454Y-108502454D01*
X100376204Y-108617668D01*
X100325909Y-108752516D01*
X100319500Y-108812130D01*
X100319500Y-111507869D01*
X54906873Y-111507869D01*
X54799709Y-109799999D01*
X72594540Y-109799999D01*
X72614326Y-109988257D01*
X72672820Y-110168284D01*
X72767466Y-110332216D01*
X72894129Y-110472889D01*
X73047269Y-110584151D01*
X73220197Y-110661144D01*
X73405352Y-110700500D01*
X73405354Y-110700500D01*
X73594646Y-110700500D01*
X73594648Y-110700500D01*
X73718083Y-110674262D01*
X73779803Y-110661144D01*
X73952730Y-110584151D01*
X74105871Y-110472888D01*
X74232533Y-110332216D01*
X74327179Y-110168284D01*
X74385674Y-109988256D01*
X74405460Y-109800000D01*
X74385674Y-109611744D01*
X74355332Y-109518363D01*
X74327179Y-109431715D01*
X74251133Y-109299999D01*
X89894540Y-109299999D01*
X89914326Y-109488257D01*
X89972820Y-109668284D01*
X90067466Y-109832216D01*
X90194129Y-109972889D01*
X90347269Y-110084151D01*
X90520197Y-110161144D01*
X90705352Y-110200500D01*
X90705354Y-110200500D01*
X90894646Y-110200500D01*
X90894648Y-110200500D01*
X91018084Y-110174262D01*
X91079803Y-110161144D01*
X91252730Y-110084151D01*
X91252729Y-110084151D01*
X91405870Y-109972889D01*
X91532533Y-109832216D01*
X91627179Y-109668284D01*
X91645551Y-109611742D01*
X91685674Y-109488256D01*
X91705460Y-109300000D01*
X91685674Y-109111744D01*
X91627179Y-108931716D01*
X91627179Y-108931715D01*
X91532533Y-108767783D01*
X91405870Y-108627110D01*
X91252730Y-108515848D01*
X91079802Y-108438855D01*
X90894648Y-108399500D01*
X90894646Y-108399500D01*
X90705354Y-108399500D01*
X90705352Y-108399500D01*
X90520197Y-108438855D01*
X90347269Y-108515848D01*
X90194129Y-108627110D01*
X90067466Y-108767783D01*
X89972820Y-108931715D01*
X89914326Y-109111742D01*
X89894540Y-109299999D01*
X74251133Y-109299999D01*
X74232533Y-109267783D01*
X74105870Y-109127110D01*
X73952730Y-109015848D01*
X73779802Y-108938855D01*
X73594648Y-108899500D01*
X73594646Y-108899500D01*
X73405354Y-108899500D01*
X73405352Y-108899500D01*
X73220197Y-108938855D01*
X73047269Y-109015848D01*
X72894129Y-109127110D01*
X72767466Y-109267783D01*
X72672820Y-109431715D01*
X72614326Y-109611742D01*
X72594540Y-109799999D01*
X54799709Y-109799999D01*
X54715000Y-108450000D01*
X67794540Y-108450000D01*
X67814326Y-108638257D01*
X67872820Y-108818284D01*
X67967466Y-108982216D01*
X68094129Y-109122889D01*
X68247269Y-109234151D01*
X68420197Y-109311144D01*
X68605352Y-109350500D01*
X68605354Y-109350500D01*
X68794646Y-109350500D01*
X68794648Y-109350500D01*
X68918084Y-109324262D01*
X68979803Y-109311144D01*
X69152730Y-109234151D01*
X69152730Y-109234150D01*
X69305870Y-109122889D01*
X69432533Y-108982216D01*
X69527179Y-108818284D01*
X69529180Y-108812127D01*
X69585674Y-108638256D01*
X69605460Y-108450000D01*
X69585674Y-108261744D01*
X69552987Y-108161144D01*
X69527179Y-108081715D01*
X69432533Y-107917783D01*
X69305870Y-107777110D01*
X69152730Y-107665848D01*
X68979802Y-107588855D01*
X68794648Y-107549500D01*
X68794646Y-107549500D01*
X68605354Y-107549500D01*
X68605352Y-107549500D01*
X68420197Y-107588855D01*
X68247269Y-107665848D01*
X68094129Y-107777110D01*
X67967466Y-107917783D01*
X67872820Y-108081715D01*
X67814326Y-108261742D01*
X67794540Y-108450000D01*
X54715000Y-108450000D01*
X54642840Y-107300000D01*
X74494540Y-107300000D01*
X74514326Y-107488257D01*
X74572820Y-107668284D01*
X74667466Y-107832216D01*
X74794129Y-107972889D01*
X74947269Y-108084151D01*
X75120197Y-108161144D01*
X75305352Y-108200500D01*
X75305354Y-108200500D01*
X75494646Y-108200500D01*
X75494648Y-108200500D01*
X75618083Y-108174262D01*
X75679803Y-108161144D01*
X75852730Y-108084151D01*
X76005871Y-107972888D01*
X76132533Y-107832216D01*
X76227179Y-107668284D01*
X76285674Y-107488256D01*
X76305460Y-107300000D01*
X76285674Y-107111744D01*
X76240291Y-106972070D01*
X76227179Y-106931715D01*
X76132533Y-106767783D01*
X76005870Y-106627110D01*
X75852730Y-106515848D01*
X75679802Y-106438855D01*
X75494648Y-106399500D01*
X75494646Y-106399500D01*
X75305354Y-106399500D01*
X75305352Y-106399500D01*
X75120197Y-106438855D01*
X74947269Y-106515848D01*
X74794129Y-106627110D01*
X74667466Y-106767783D01*
X74572820Y-106931715D01*
X74514326Y-107111742D01*
X74494540Y-107300000D01*
X54642840Y-107300000D01*
X54544211Y-105728155D01*
X54558323Y-105662477D01*
X54604617Y-105613795D01*
X54669504Y-105596401D01*
X54733940Y-105615397D01*
X54750478Y-105625789D01*
X54920745Y-105685368D01*
X55100000Y-105705565D01*
X55279255Y-105685368D01*
X55449522Y-105625789D01*
X55602262Y-105529816D01*
X55729816Y-105402262D01*
X55825789Y-105249522D01*
X55885368Y-105079255D01*
X55905565Y-104900000D01*
X55885368Y-104720745D01*
X55825789Y-104550478D01*
X55729816Y-104397738D01*
X55636816Y-104304738D01*
X55609939Y-104264513D01*
X55600500Y-104217060D01*
X55600500Y-99749999D01*
X55994540Y-99749999D01*
X56014326Y-99938257D01*
X56072820Y-100118284D01*
X56167466Y-100282216D01*
X56294129Y-100422889D01*
X56447269Y-100534151D01*
X56620197Y-100611144D01*
X56805352Y-100650500D01*
X56805354Y-100650500D01*
X56899903Y-100650500D01*
X56947356Y-100659939D01*
X56987584Y-100686819D01*
X57191799Y-100891034D01*
X57202494Y-100903229D01*
X57221717Y-100928282D01*
X57337471Y-101017102D01*
X57337475Y-101017105D01*
X57347160Y-101024537D01*
X57420198Y-101054790D01*
X57493238Y-101085044D01*
X57618698Y-101101561D01*
X57649999Y-101105682D01*
X57649999Y-101105681D01*
X57650000Y-101105682D01*
X57681302Y-101101560D01*
X57697487Y-101100500D01*
X57812292Y-101100500D01*
X57868587Y-101114015D01*
X57912610Y-101151614D01*
X57934765Y-101205102D01*
X57930223Y-101262817D01*
X57914326Y-101311740D01*
X57894540Y-101500000D01*
X57914326Y-101688257D01*
X57972820Y-101868284D01*
X58013071Y-101938000D01*
X58029684Y-102000000D01*
X58013071Y-102062000D01*
X57972820Y-102131715D01*
X57914326Y-102311742D01*
X57894540Y-102500000D01*
X57914326Y-102688257D01*
X57972820Y-102868284D01*
X58013071Y-102938000D01*
X58029684Y-103000000D01*
X58013071Y-103062000D01*
X57972820Y-103131715D01*
X57914326Y-103311742D01*
X57894540Y-103500000D01*
X57914326Y-103688257D01*
X57972820Y-103868284D01*
X58052504Y-104006301D01*
X58069117Y-104068300D01*
X58052505Y-104130300D01*
X58022820Y-104181716D01*
X57964326Y-104361742D01*
X57944540Y-104550000D01*
X57964326Y-104738257D01*
X58022820Y-104918284D01*
X58063071Y-104987999D01*
X58079684Y-105049998D01*
X58063072Y-105111998D01*
X58022820Y-105181716D01*
X57964326Y-105361742D01*
X57944540Y-105550000D01*
X57964326Y-105738257D01*
X58022820Y-105918284D01*
X58117466Y-106082216D01*
X58244129Y-106222889D01*
X58397269Y-106334151D01*
X58570197Y-106411144D01*
X58755352Y-106450500D01*
X58755354Y-106450500D01*
X58944646Y-106450500D01*
X58944648Y-106450500D01*
X59068083Y-106424262D01*
X59129803Y-106411144D01*
X59302730Y-106334151D01*
X59327117Y-106316432D01*
X59374219Y-106295462D01*
X59425781Y-106295462D01*
X59472882Y-106316432D01*
X59497270Y-106334151D01*
X59497271Y-106334151D01*
X59497272Y-106334152D01*
X59670197Y-106411144D01*
X59855352Y-106450500D01*
X59855354Y-106450500D01*
X60044646Y-106450500D01*
X60044648Y-106450500D01*
X60168083Y-106424262D01*
X60229803Y-106411144D01*
X60402730Y-106334151D01*
X60427117Y-106316432D01*
X60474219Y-106295462D01*
X60525781Y-106295462D01*
X60572882Y-106316432D01*
X60597270Y-106334151D01*
X60597271Y-106334151D01*
X60597272Y-106334152D01*
X60770197Y-106411144D01*
X60955352Y-106450500D01*
X60955354Y-106450500D01*
X61144646Y-106450500D01*
X61144648Y-106450500D01*
X61268083Y-106424262D01*
X61329803Y-106411144D01*
X61502730Y-106334151D01*
X61502730Y-106334150D01*
X61655870Y-106222889D01*
X61782533Y-106082216D01*
X61877179Y-105918284D01*
X61877179Y-105918283D01*
X61935674Y-105738256D01*
X61955460Y-105550000D01*
X61935674Y-105361744D01*
X61877179Y-105181716D01*
X61877178Y-105181714D01*
X61836928Y-105111999D01*
X61820315Y-105049998D01*
X61836926Y-104988001D01*
X61877179Y-104918284D01*
X61935674Y-104738256D01*
X61955460Y-104550000D01*
X61935674Y-104361744D01*
X61883550Y-104201323D01*
X61877179Y-104181715D01*
X61797494Y-104043697D01*
X61780881Y-103981696D01*
X61797493Y-103919700D01*
X61827179Y-103868284D01*
X61885674Y-103688256D01*
X61905460Y-103500000D01*
X61885674Y-103311744D01*
X61827179Y-103131716D01*
X61786927Y-103061999D01*
X61770315Y-103000000D01*
X61786928Y-102938000D01*
X61788946Y-102934504D01*
X61827179Y-102868284D01*
X61885674Y-102688256D01*
X61905460Y-102500000D01*
X61885674Y-102311744D01*
X61827179Y-102131716D01*
X61786927Y-102061999D01*
X61770315Y-102000000D01*
X61786928Y-101938000D01*
X61805853Y-101905221D01*
X61827179Y-101868284D01*
X61885674Y-101688256D01*
X61905460Y-101500000D01*
X61885674Y-101311744D01*
X61885673Y-101311740D01*
X61869777Y-101262817D01*
X61865235Y-101205102D01*
X61887390Y-101151614D01*
X61931413Y-101114015D01*
X61987708Y-101100500D01*
X62075500Y-101100500D01*
X62137500Y-101117113D01*
X62182887Y-101162500D01*
X62199500Y-101224500D01*
X62199500Y-103452513D01*
X62198439Y-103468699D01*
X62194317Y-103500000D01*
X62197548Y-103524536D01*
X62199433Y-103538855D01*
X62199500Y-103539360D01*
X62199500Y-103539361D01*
X62214956Y-103656762D01*
X62275463Y-103802840D01*
X62371716Y-103928281D01*
X62396768Y-103947503D01*
X62408964Y-103958199D01*
X62571662Y-104120897D01*
X62603756Y-104176484D01*
X62603756Y-104240672D01*
X62571662Y-104296259D01*
X62470185Y-104397735D01*
X62374511Y-104550000D01*
X62374211Y-104550478D01*
X62345610Y-104632216D01*
X62314631Y-104720748D01*
X62294434Y-104899999D01*
X62314631Y-105079251D01*
X62314631Y-105079253D01*
X62314632Y-105079255D01*
X62374211Y-105249522D01*
X62394754Y-105282216D01*
X62470185Y-105402264D01*
X62597735Y-105529814D01*
X62597737Y-105529815D01*
X62597738Y-105529816D01*
X62750478Y-105625789D01*
X62920745Y-105685368D01*
X63100000Y-105705565D01*
X63279255Y-105685368D01*
X63449522Y-105625789D01*
X63602262Y-105529816D01*
X63729816Y-105402262D01*
X63825789Y-105249522D01*
X63885368Y-105079255D01*
X63905565Y-104900000D01*
X63897928Y-104832216D01*
X63887356Y-104738384D01*
X63898856Y-104670698D01*
X63944604Y-104619506D01*
X64010576Y-104600500D01*
X64117059Y-104600500D01*
X64164512Y-104609939D01*
X64185088Y-104623687D01*
X64185908Y-104622383D01*
X64232000Y-104651344D01*
X64350478Y-104725789D01*
X64520745Y-104785368D01*
X64700000Y-104805565D01*
X64879255Y-104785368D01*
X64938665Y-104764579D01*
X64989651Y-104758028D01*
X65038918Y-104772721D01*
X65077991Y-104806135D01*
X65171716Y-104928281D01*
X65196768Y-104947503D01*
X65208964Y-104958199D01*
X67141799Y-106891034D01*
X67152494Y-106903229D01*
X67171717Y-106928282D01*
X67228784Y-106972070D01*
X67297159Y-107024536D01*
X67443238Y-107085044D01*
X67568698Y-107101561D01*
X67599999Y-107105682D01*
X67599999Y-107105681D01*
X67600000Y-107105682D01*
X67631302Y-107101560D01*
X67647487Y-107100500D01*
X72552513Y-107100500D01*
X72568697Y-107101560D01*
X72600000Y-107105682D01*
X72756762Y-107085044D01*
X72902841Y-107024536D01*
X72971216Y-106972070D01*
X73028282Y-106928282D01*
X73047509Y-106903223D01*
X73058190Y-106891043D01*
X74812415Y-105136819D01*
X74852644Y-105109939D01*
X74900097Y-105100500D01*
X74994648Y-105100500D01*
X75179799Y-105061145D01*
X75179799Y-105061144D01*
X75179803Y-105061144D01*
X75260605Y-105025167D01*
X75324000Y-105015126D01*
X75383924Y-105038127D01*
X75447270Y-105084151D01*
X75447271Y-105084151D01*
X75447272Y-105084152D01*
X75620197Y-105161144D01*
X75805352Y-105200500D01*
X75805354Y-105200500D01*
X75994646Y-105200500D01*
X75994648Y-105200500D01*
X76118084Y-105174262D01*
X76179803Y-105161144D01*
X76352730Y-105084151D01*
X76505871Y-104972888D01*
X76614802Y-104851907D01*
X76665556Y-104817995D01*
X76726346Y-104812409D01*
X76782435Y-104836506D01*
X76865183Y-104900000D01*
X76865184Y-104900001D01*
X76885838Y-104915849D01*
X76897159Y-104924536D01*
X77043238Y-104985044D01*
X77168698Y-105001561D01*
X77199999Y-105005682D01*
X77199999Y-105005681D01*
X77200000Y-105005682D01*
X77231302Y-105001560D01*
X77247487Y-105000500D01*
X79477792Y-105000500D01*
X79543502Y-105019342D01*
X79589242Y-105070142D01*
X79601113Y-105137461D01*
X79594540Y-105199999D01*
X79614326Y-105388257D01*
X79672820Y-105568284D01*
X79731042Y-105669126D01*
X79746976Y-105718164D01*
X79741586Y-105769444D01*
X79715805Y-105814098D01*
X79667466Y-105867783D01*
X79572820Y-106031715D01*
X79514326Y-106211742D01*
X79494540Y-106400000D01*
X79514326Y-106588257D01*
X79572820Y-106768284D01*
X79667466Y-106932216D01*
X79794129Y-107072889D01*
X79947269Y-107184151D01*
X80120197Y-107261144D01*
X80305352Y-107300500D01*
X80305354Y-107300500D01*
X80494646Y-107300500D01*
X80494648Y-107300500D01*
X80618084Y-107274262D01*
X80679803Y-107261144D01*
X80852730Y-107184151D01*
X81005871Y-107072888D01*
X81008344Y-107070142D01*
X81034110Y-107041527D01*
X81075824Y-107011220D01*
X81126259Y-107000500D01*
X83477792Y-107000500D01*
X83543502Y-107019342D01*
X83589242Y-107070142D01*
X83601113Y-107137461D01*
X83594540Y-107199999D01*
X83614326Y-107388257D01*
X83672820Y-107568284D01*
X83767466Y-107732216D01*
X83894129Y-107872889D01*
X84047269Y-107984151D01*
X84220197Y-108061144D01*
X84405352Y-108100500D01*
X84405354Y-108100500D01*
X84594646Y-108100500D01*
X84594648Y-108100500D01*
X84718083Y-108074262D01*
X84779803Y-108061144D01*
X84952730Y-107984151D01*
X85105871Y-107872888D01*
X85232533Y-107732216D01*
X85327179Y-107568284D01*
X85385674Y-107388256D01*
X85405460Y-107200000D01*
X85405459Y-107199998D01*
X85406822Y-107187038D01*
X85408745Y-107187240D01*
X85412725Y-107153593D01*
X85441932Y-107107301D01*
X87469234Y-105079999D01*
X100314450Y-105079999D01*
X100334616Y-105349100D01*
X100380470Y-105550000D01*
X100394666Y-105612195D01*
X100493257Y-105863398D01*
X100628185Y-106097102D01*
X100796439Y-106308085D01*
X100994259Y-106491635D01*
X101217226Y-106643651D01*
X101460359Y-106760738D01*
X101718228Y-106840280D01*
X101985071Y-106880500D01*
X102254929Y-106880500D01*
X102521772Y-106840280D01*
X102779641Y-106760738D01*
X103022775Y-106643651D01*
X103245741Y-106491635D01*
X103443561Y-106308085D01*
X103611815Y-106097102D01*
X103746743Y-105863398D01*
X103845334Y-105612195D01*
X103905383Y-105349103D01*
X103925549Y-105080000D01*
X103920687Y-105015126D01*
X103914180Y-104928282D01*
X103905383Y-104810897D01*
X103845334Y-104547805D01*
X103746743Y-104296602D01*
X103611815Y-104062898D01*
X103443561Y-103851915D01*
X103390671Y-103802840D01*
X103245743Y-103668366D01*
X103153802Y-103605682D01*
X103022775Y-103516349D01*
X102779641Y-103399262D01*
X102685376Y-103370185D01*
X102521771Y-103319719D01*
X102254929Y-103279500D01*
X101985071Y-103279500D01*
X101718228Y-103319719D01*
X101460359Y-103399262D01*
X101217228Y-103516347D01*
X100994257Y-103668366D01*
X100796439Y-103851915D01*
X100628184Y-104062899D01*
X100493257Y-104296601D01*
X100394666Y-104547804D01*
X100334616Y-104810899D01*
X100314450Y-105079999D01*
X87469234Y-105079999D01*
X87637364Y-104911869D01*
X87665875Y-104890579D01*
X87699259Y-104878263D01*
X87779803Y-104861144D01*
X87779804Y-104861143D01*
X87779806Y-104861143D01*
X87952730Y-104784151D01*
X88105870Y-104672889D01*
X88153937Y-104619506D01*
X88232533Y-104532216D01*
X88327179Y-104368284D01*
X88385674Y-104188256D01*
X88405460Y-104000000D01*
X88385674Y-103811744D01*
X88351024Y-103705102D01*
X88327179Y-103631715D01*
X88232533Y-103467783D01*
X88105870Y-103327111D01*
X87952730Y-103215848D01*
X87944506Y-103212187D01*
X87892142Y-103168246D01*
X87871020Y-103103234D01*
X87887557Y-103036911D01*
X87927179Y-102968284D01*
X87957686Y-102874392D01*
X87987936Y-102825030D01*
X88037299Y-102794780D01*
X88095015Y-102790238D01*
X88148502Y-102812393D01*
X88247269Y-102884151D01*
X88420197Y-102961144D01*
X88605352Y-103000500D01*
X88605354Y-103000500D01*
X88699903Y-103000500D01*
X88747356Y-103009939D01*
X88787584Y-103036819D01*
X90241799Y-104491034D01*
X90252494Y-104503229D01*
X90271717Y-104528282D01*
X90365835Y-104600500D01*
X90372588Y-104605682D01*
X90397159Y-104624536D01*
X90543238Y-104685044D01*
X90668698Y-104701561D01*
X90699999Y-104705682D01*
X90699999Y-104705681D01*
X90700000Y-104705682D01*
X90731302Y-104701560D01*
X90747487Y-104700500D01*
X91373741Y-104700500D01*
X91424176Y-104711220D01*
X91465890Y-104741527D01*
X91494128Y-104772888D01*
X91647269Y-104884151D01*
X91820197Y-104961144D01*
X92005352Y-105000500D01*
X92005354Y-105000500D01*
X92194646Y-105000500D01*
X92194648Y-105000500D01*
X92324551Y-104972888D01*
X92379803Y-104961144D01*
X92552730Y-104884151D01*
X92597106Y-104851910D01*
X92705870Y-104772889D01*
X92713352Y-104764580D01*
X92832533Y-104632216D01*
X92927179Y-104468284D01*
X92985674Y-104288256D01*
X93005460Y-104100000D01*
X92985674Y-103911744D01*
X92927179Y-103731716D01*
X92927179Y-103731715D01*
X92832533Y-103567783D01*
X92705870Y-103427110D01*
X92552730Y-103315848D01*
X92379802Y-103238855D01*
X92194648Y-103199500D01*
X92194646Y-103199500D01*
X92005354Y-103199500D01*
X92005352Y-103199500D01*
X91820197Y-103238855D01*
X91647269Y-103315848D01*
X91494128Y-103427111D01*
X91465890Y-103458473D01*
X91424176Y-103488780D01*
X91373741Y-103499500D01*
X91000097Y-103499500D01*
X90952644Y-103490061D01*
X90912416Y-103463181D01*
X89641934Y-102192699D01*
X89612725Y-102146402D01*
X89608746Y-102112759D01*
X89606822Y-102112962D01*
X89602881Y-102075463D01*
X89585674Y-101911744D01*
X89557689Y-101825615D01*
X89537285Y-101762818D01*
X89532743Y-101705102D01*
X89554898Y-101651615D01*
X89598921Y-101614015D01*
X89655216Y-101600500D01*
X89752513Y-101600500D01*
X89768697Y-101601560D01*
X89800000Y-101605682D01*
X89956762Y-101585044D01*
X90102841Y-101524536D01*
X90115326Y-101514956D01*
X90228282Y-101428282D01*
X90247509Y-101403223D01*
X90258190Y-101391043D01*
X91649234Y-99999999D01*
X100314450Y-99999999D01*
X100334616Y-100269100D01*
X100379964Y-100467783D01*
X100394666Y-100532195D01*
X100493257Y-100783398D01*
X100628185Y-101017102D01*
X100796439Y-101228085D01*
X100994259Y-101411635D01*
X101217226Y-101563651D01*
X101460359Y-101680738D01*
X101718228Y-101760280D01*
X101985071Y-101800500D01*
X102254929Y-101800500D01*
X102521772Y-101760280D01*
X102779641Y-101680738D01*
X103022775Y-101563651D01*
X103245741Y-101411635D01*
X103443561Y-101228085D01*
X103611815Y-101017102D01*
X103746743Y-100783398D01*
X103845334Y-100532195D01*
X103905383Y-100269103D01*
X103925549Y-100000000D01*
X103905383Y-99730897D01*
X103845334Y-99467805D01*
X103746743Y-99216602D01*
X103611815Y-98982898D01*
X103443561Y-98771915D01*
X103388950Y-98721243D01*
X103245743Y-98588366D01*
X103188205Y-98549137D01*
X103022775Y-98436349D01*
X102779641Y-98319262D01*
X102700098Y-98294726D01*
X102521771Y-98239719D01*
X102254929Y-98199500D01*
X101985071Y-98199500D01*
X101718228Y-98239719D01*
X101460359Y-98319262D01*
X101217228Y-98436347D01*
X100994257Y-98588366D01*
X100796439Y-98771915D01*
X100628184Y-98982899D01*
X100493257Y-99216601D01*
X100394666Y-99467804D01*
X100334616Y-99730899D01*
X100314450Y-99999999D01*
X91649234Y-99999999D01*
X91746112Y-99903121D01*
X91798573Y-99871910D01*
X91859572Y-99869514D01*
X92005352Y-99900500D01*
X92005354Y-99900500D01*
X92194646Y-99900500D01*
X92194648Y-99900500D01*
X92318083Y-99874262D01*
X92379803Y-99861144D01*
X92552730Y-99784151D01*
X92599735Y-99750000D01*
X92705870Y-99672889D01*
X92710468Y-99667783D01*
X92832533Y-99532216D01*
X92927179Y-99368284D01*
X92985674Y-99188256D01*
X93005460Y-99000000D01*
X92985674Y-98811744D01*
X92927179Y-98631716D01*
X92927179Y-98631715D01*
X92832533Y-98467783D01*
X92705870Y-98327110D01*
X92552730Y-98215848D01*
X92379802Y-98138855D01*
X92194648Y-98099500D01*
X92194646Y-98099500D01*
X92005354Y-98099500D01*
X92005352Y-98099500D01*
X91820197Y-98138855D01*
X91647269Y-98215848D01*
X91494129Y-98327110D01*
X91367465Y-98467785D01*
X91272821Y-98631714D01*
X91259769Y-98671883D01*
X91229520Y-98721243D01*
X90412181Y-99538583D01*
X90362818Y-99568833D01*
X90305102Y-99573375D01*
X90251615Y-99551220D01*
X90214015Y-99507197D01*
X90200500Y-99450902D01*
X90200500Y-95100097D01*
X90209939Y-95052644D01*
X90236819Y-95012416D01*
X90329236Y-94919999D01*
X100314450Y-94919999D01*
X100334616Y-95189100D01*
X100393605Y-95447548D01*
X100394666Y-95452195D01*
X100493257Y-95703398D01*
X100628185Y-95937102D01*
X100796439Y-96148085D01*
X100994259Y-96331635D01*
X101217226Y-96483651D01*
X101460359Y-96600738D01*
X101718228Y-96680280D01*
X101985071Y-96720500D01*
X102254929Y-96720500D01*
X102521772Y-96680280D01*
X102779641Y-96600738D01*
X103022775Y-96483651D01*
X103245741Y-96331635D01*
X103443561Y-96148085D01*
X103611815Y-95937102D01*
X103746743Y-95703398D01*
X103845334Y-95452195D01*
X103905383Y-95189103D01*
X103925549Y-94920000D01*
X103905383Y-94650897D01*
X103845334Y-94387805D01*
X103746743Y-94136602D01*
X103611815Y-93902898D01*
X103443561Y-93691915D01*
X103421794Y-93671718D01*
X103245743Y-93508366D01*
X103186218Y-93467783D01*
X103022775Y-93356349D01*
X102779641Y-93239262D01*
X102668372Y-93204940D01*
X102521771Y-93159719D01*
X102254929Y-93119500D01*
X101985071Y-93119500D01*
X101718228Y-93159719D01*
X101460359Y-93239262D01*
X101217228Y-93356347D01*
X100994257Y-93508366D01*
X100796439Y-93691915D01*
X100628184Y-93902899D01*
X100493257Y-94136601D01*
X100394666Y-94387804D01*
X100334616Y-94650899D01*
X100314450Y-94919999D01*
X90329236Y-94919999D01*
X90512417Y-94736819D01*
X90552645Y-94709939D01*
X90600098Y-94700500D01*
X91591844Y-94700500D01*
X91630162Y-94706569D01*
X91664728Y-94724181D01*
X91747270Y-94784151D01*
X91747271Y-94784151D01*
X91747272Y-94784152D01*
X91920197Y-94861144D01*
X92105352Y-94900500D01*
X92105354Y-94900500D01*
X92294646Y-94900500D01*
X92294648Y-94900500D01*
X92418083Y-94874262D01*
X92479803Y-94861144D01*
X92652730Y-94784151D01*
X92675259Y-94767783D01*
X92805870Y-94672889D01*
X92810468Y-94667783D01*
X92932533Y-94532216D01*
X93027179Y-94368284D01*
X93085674Y-94188256D01*
X93105460Y-94000000D01*
X93085674Y-93811744D01*
X93033413Y-93650901D01*
X93027179Y-93631715D01*
X92932533Y-93467783D01*
X92805870Y-93327110D01*
X92652730Y-93215848D01*
X92479802Y-93138855D01*
X92294648Y-93099500D01*
X92294646Y-93099500D01*
X92105354Y-93099500D01*
X92105352Y-93099500D01*
X91920197Y-93138855D01*
X91747269Y-93215848D01*
X91594129Y-93327110D01*
X91475851Y-93458472D01*
X91434136Y-93488780D01*
X91383701Y-93499500D01*
X90347487Y-93499500D01*
X90331302Y-93498439D01*
X90327376Y-93497922D01*
X90299999Y-93494317D01*
X90143237Y-93514956D01*
X89997161Y-93575462D01*
X89980488Y-93588256D01*
X89923850Y-93631716D01*
X89883806Y-93662442D01*
X89871715Y-93671720D01*
X89852494Y-93696769D01*
X89841802Y-93708960D01*
X89812180Y-93738582D01*
X89762820Y-93768831D01*
X89705103Y-93773375D01*
X89651615Y-93751220D01*
X89614015Y-93707196D01*
X89600500Y-93650901D01*
X89600500Y-92300097D01*
X89609939Y-92252644D01*
X89636819Y-92212416D01*
X92009236Y-89839999D01*
X100314450Y-89839999D01*
X100334616Y-90109100D01*
X100334617Y-90109103D01*
X100394666Y-90372195D01*
X100493257Y-90623398D01*
X100628185Y-90857102D01*
X100796439Y-91068085D01*
X100994259Y-91251635D01*
X101217226Y-91403651D01*
X101460359Y-91520738D01*
X101718228Y-91600280D01*
X101985071Y-91640500D01*
X102254929Y-91640500D01*
X102521772Y-91600280D01*
X102779641Y-91520738D01*
X103022775Y-91403651D01*
X103245741Y-91251635D01*
X103443561Y-91068085D01*
X103611815Y-90857102D01*
X103746743Y-90623398D01*
X103845334Y-90372195D01*
X103905383Y-90109103D01*
X103925549Y-89840000D01*
X103905383Y-89570897D01*
X103845334Y-89307805D01*
X103746743Y-89056602D01*
X103611815Y-88822898D01*
X103443561Y-88611915D01*
X103357126Y-88531715D01*
X103245743Y-88428366D01*
X103156885Y-88367784D01*
X103022775Y-88276349D01*
X102779641Y-88159262D01*
X102700098Y-88134726D01*
X102521771Y-88079719D01*
X102254929Y-88039500D01*
X101985071Y-88039500D01*
X101718228Y-88079719D01*
X101460359Y-88159262D01*
X101217228Y-88276347D01*
X100994257Y-88428366D01*
X100796439Y-88611915D01*
X100628184Y-88822899D01*
X100493257Y-89056601D01*
X100394666Y-89307804D01*
X100334616Y-89570899D01*
X100314450Y-89839999D01*
X92009236Y-89839999D01*
X92012416Y-89836819D01*
X92052644Y-89809939D01*
X92100097Y-89800500D01*
X92194648Y-89800500D01*
X92318084Y-89774262D01*
X92379803Y-89761144D01*
X92552730Y-89684151D01*
X92705871Y-89572888D01*
X92832533Y-89432216D01*
X92927179Y-89268284D01*
X92985674Y-89088256D01*
X93005460Y-88900000D01*
X92985674Y-88711744D01*
X92927179Y-88531716D01*
X92927179Y-88531715D01*
X92832533Y-88367783D01*
X92705870Y-88227110D01*
X92552730Y-88115848D01*
X92379802Y-88038855D01*
X92194648Y-87999500D01*
X92194646Y-87999500D01*
X92005354Y-87999500D01*
X92005352Y-87999500D01*
X91820197Y-88038855D01*
X91647269Y-88115848D01*
X91494129Y-88227110D01*
X91367466Y-88367783D01*
X91272820Y-88531715D01*
X91214326Y-88711742D01*
X91193178Y-88912961D01*
X91191255Y-88912758D01*
X91187270Y-88946413D01*
X91158065Y-88992698D01*
X88608965Y-91541798D01*
X88596774Y-91552490D01*
X88571719Y-91571716D01*
X88497893Y-91667929D01*
X88497892Y-91667930D01*
X88475463Y-91697159D01*
X88414956Y-91843237D01*
X88394317Y-91999999D01*
X88398439Y-92031301D01*
X88399500Y-92047487D01*
X88399500Y-93445728D01*
X88384473Y-93504896D01*
X88343035Y-93549723D01*
X88285229Y-93569346D01*
X88225064Y-93559008D01*
X88179803Y-93538856D01*
X88179802Y-93538855D01*
X88179798Y-93538854D01*
X87981898Y-93496790D01*
X87981994Y-93496338D01*
X87946435Y-93488780D01*
X87904720Y-93458472D01*
X87878939Y-93413818D01*
X87864335Y-93368871D01*
X87769689Y-93204939D01*
X87643026Y-93064266D01*
X87489886Y-92953004D01*
X87316958Y-92876011D01*
X87131804Y-92836656D01*
X87131802Y-92836656D01*
X86942510Y-92836656D01*
X86942508Y-92836656D01*
X86757353Y-92876011D01*
X86584425Y-92953004D01*
X86431285Y-93064266D01*
X86304622Y-93204939D01*
X86209976Y-93368871D01*
X86151482Y-93548898D01*
X86131696Y-93737155D01*
X86151482Y-93925413D01*
X86209976Y-94105440D01*
X86304622Y-94269372D01*
X86431285Y-94410045D01*
X86584425Y-94521307D01*
X86757353Y-94598300D01*
X86955258Y-94640366D01*
X86955161Y-94640817D01*
X86990721Y-94648376D01*
X87032436Y-94678684D01*
X87058217Y-94723338D01*
X87072820Y-94768284D01*
X87167466Y-94932216D01*
X87294129Y-95072888D01*
X87361438Y-95121791D01*
X87401832Y-95171673D01*
X87411874Y-95235070D01*
X87394540Y-95399999D01*
X87414326Y-95588257D01*
X87472820Y-95768284D01*
X87567466Y-95932216D01*
X87694129Y-96072889D01*
X87847269Y-96184151D01*
X88020197Y-96261144D01*
X88205352Y-96300500D01*
X88275500Y-96300500D01*
X88337500Y-96317113D01*
X88382887Y-96362500D01*
X88399500Y-96424500D01*
X88399500Y-96634830D01*
X88381227Y-96699620D01*
X88331795Y-96745315D01*
X88265771Y-96758448D01*
X88202615Y-96735148D01*
X88051488Y-96625348D01*
X87878560Y-96548355D01*
X87693406Y-96509000D01*
X87693404Y-96509000D01*
X87504112Y-96509000D01*
X87504110Y-96509000D01*
X87318955Y-96548355D01*
X87146027Y-96625348D01*
X86992887Y-96736610D01*
X86866224Y-96877283D01*
X86771578Y-97041215D01*
X86713084Y-97221242D01*
X86700813Y-97337998D01*
X86693298Y-97409500D01*
X86703190Y-97503627D01*
X86713084Y-97597757D01*
X86771578Y-97777784D01*
X86866224Y-97941716D01*
X86911976Y-97992528D01*
X86939258Y-98042154D01*
X86941630Y-98098735D01*
X86918596Y-98150470D01*
X86874961Y-98186568D01*
X86819826Y-98199500D01*
X77862290Y-98199500D01*
X77802309Y-98184028D01*
X77757296Y-98141472D01*
X77730442Y-98098735D01*
X77729816Y-98097738D01*
X77676329Y-98044251D01*
X77647676Y-97999491D01*
X77640394Y-97946843D01*
X77655823Y-97895983D01*
X77691124Y-97856255D01*
X77805871Y-97772888D01*
X77860926Y-97711744D01*
X77932533Y-97632216D01*
X78027179Y-97468284D01*
X78046279Y-97409500D01*
X78085674Y-97288256D01*
X78105460Y-97100000D01*
X78094199Y-96992857D01*
X78102560Y-96933419D01*
X78137859Y-96884870D01*
X78169284Y-96869565D01*
X78167896Y-96866446D01*
X78352730Y-96784151D01*
X78505870Y-96672889D01*
X78537681Y-96637560D01*
X78632533Y-96532216D01*
X78727179Y-96368284D01*
X78785674Y-96188256D01*
X78805460Y-96000000D01*
X78785674Y-95811744D01*
X78727179Y-95631716D01*
X78727179Y-95631715D01*
X78632533Y-95467783D01*
X78505870Y-95327110D01*
X78352730Y-95215848D01*
X78179802Y-95138855D01*
X78131155Y-95128515D01*
X78082095Y-95106093D01*
X78047198Y-95064961D01*
X78033066Y-95012904D01*
X78042374Y-94959775D01*
X78085044Y-94856762D01*
X78100500Y-94739361D01*
X78105682Y-94700000D01*
X78101560Y-94668697D01*
X78100500Y-94652513D01*
X78100500Y-94147418D01*
X78109939Y-94099965D01*
X78136816Y-94059739D01*
X78401397Y-93795158D01*
X78461707Y-93761900D01*
X78530465Y-93765954D01*
X78586453Y-93806073D01*
X78612394Y-93869877D01*
X78613961Y-93884786D01*
X78614326Y-93888257D01*
X78672820Y-94068284D01*
X78767466Y-94232216D01*
X78894129Y-94372889D01*
X79047269Y-94484151D01*
X79220197Y-94561144D01*
X79405352Y-94600500D01*
X79405354Y-94600500D01*
X79594646Y-94600500D01*
X79594648Y-94600500D01*
X79718084Y-94574262D01*
X79779803Y-94561144D01*
X79952730Y-94484151D01*
X80003374Y-94447356D01*
X80105870Y-94372889D01*
X80136515Y-94338855D01*
X80232533Y-94232216D01*
X80327179Y-94068284D01*
X80385674Y-93888256D01*
X80405460Y-93700000D01*
X80385674Y-93511744D01*
X80347699Y-93394869D01*
X80327179Y-93331715D01*
X80251133Y-93200000D01*
X83494540Y-93200000D01*
X83504432Y-93294127D01*
X83514326Y-93388257D01*
X83572820Y-93568284D01*
X83667466Y-93732216D01*
X83794129Y-93872889D01*
X83947269Y-93984151D01*
X84120197Y-94061144D01*
X84305352Y-94100500D01*
X84305354Y-94100500D01*
X84494646Y-94100500D01*
X84494648Y-94100500D01*
X84637268Y-94070185D01*
X84679803Y-94061144D01*
X84852730Y-93984151D01*
X84866411Y-93974211D01*
X85005870Y-93872889D01*
X85132533Y-93732216D01*
X85227179Y-93568284D01*
X85240286Y-93527944D01*
X85285674Y-93388256D01*
X85305460Y-93200000D01*
X85285674Y-93011744D01*
X85253265Y-92911999D01*
X85227179Y-92831715D01*
X85132533Y-92667783D01*
X85005870Y-92527110D01*
X84852730Y-92415848D01*
X84679802Y-92338855D01*
X84494648Y-92299500D01*
X84494646Y-92299500D01*
X84305354Y-92299500D01*
X84305352Y-92299500D01*
X84120197Y-92338855D01*
X83947269Y-92415848D01*
X83794129Y-92527110D01*
X83667466Y-92667783D01*
X83572820Y-92831715D01*
X83514326Y-93011742D01*
X83498773Y-93159720D01*
X83494540Y-93200000D01*
X80251133Y-93200000D01*
X80232533Y-93167783D01*
X80105870Y-93027110D01*
X79952731Y-92915849D01*
X79889157Y-92887543D01*
X79844049Y-92853304D01*
X79818870Y-92802578D01*
X79818871Y-92745947D01*
X79844051Y-92695222D01*
X79889158Y-92660984D01*
X79950551Y-92633651D01*
X80103692Y-92522388D01*
X80230354Y-92381716D01*
X80325000Y-92217784D01*
X80383495Y-92037756D01*
X80403281Y-91849500D01*
X80383495Y-91661244D01*
X80353153Y-91567863D01*
X80325000Y-91481215D01*
X80230354Y-91317283D01*
X80103691Y-91176610D01*
X79950551Y-91065348D01*
X79777623Y-90988355D01*
X79592469Y-90949000D01*
X79592467Y-90949000D01*
X79403175Y-90949000D01*
X79403173Y-90949000D01*
X79218018Y-90988355D01*
X79045090Y-91065348D01*
X78891950Y-91176610D01*
X78765287Y-91317283D01*
X78670641Y-91481215D01*
X78612147Y-91661242D01*
X78590999Y-91862461D01*
X78589076Y-91862258D01*
X78585091Y-91895913D01*
X78555886Y-91942198D01*
X77108965Y-93389119D01*
X77096774Y-93399811D01*
X77071721Y-93419036D01*
X77071719Y-93419037D01*
X77071718Y-93419039D01*
X76988163Y-93527930D01*
X76988159Y-93527934D01*
X76988150Y-93527944D01*
X76975465Y-93544477D01*
X76914955Y-93690560D01*
X76894317Y-93847320D01*
X76898439Y-93878622D01*
X76899500Y-93894808D01*
X76899500Y-94399903D01*
X76890061Y-94447356D01*
X76863181Y-94487584D01*
X76012617Y-95338146D01*
X75952302Y-95371408D01*
X75883544Y-95367352D01*
X75827556Y-95327232D01*
X75801616Y-95263429D01*
X75785674Y-95111744D01*
X75750289Y-95002841D01*
X75727179Y-94931715D01*
X75632533Y-94767783D01*
X75505870Y-94627110D01*
X75352730Y-94515848D01*
X75179802Y-94438855D01*
X74994648Y-94399500D01*
X74994646Y-94399500D01*
X74805354Y-94399500D01*
X74805352Y-94399500D01*
X74620197Y-94438855D01*
X74447269Y-94515848D01*
X74294129Y-94627110D01*
X74167466Y-94767783D01*
X74072820Y-94931715D01*
X74014326Y-95111742D01*
X73994540Y-95300000D01*
X74014326Y-95488257D01*
X74072820Y-95668284D01*
X74167466Y-95832216D01*
X74294129Y-95972889D01*
X74447269Y-96084151D01*
X74620197Y-96161144D01*
X74805352Y-96200500D01*
X74805354Y-96200500D01*
X74994646Y-96200500D01*
X74994648Y-96200500D01*
X75118083Y-96174262D01*
X75179803Y-96161144D01*
X75352730Y-96084151D01*
X75384397Y-96061144D01*
X75502615Y-95975254D01*
X75565771Y-95951954D01*
X75631795Y-95965087D01*
X75681227Y-96010782D01*
X75699500Y-96075572D01*
X75699500Y-99175500D01*
X75682887Y-99237500D01*
X75637500Y-99282887D01*
X75575500Y-99299500D01*
X75405352Y-99299500D01*
X75220197Y-99338855D01*
X75047269Y-99415848D01*
X74894129Y-99527110D01*
X74767466Y-99667783D01*
X74672820Y-99831715D01*
X74614326Y-100011742D01*
X74594539Y-100200005D01*
X74595015Y-100204529D01*
X74584973Y-100267923D01*
X74544579Y-100317803D01*
X74394129Y-100427110D01*
X74267466Y-100567783D01*
X74172820Y-100731715D01*
X74114326Y-100911742D01*
X74103253Y-101017100D01*
X74094540Y-101100000D01*
X74114326Y-101288256D01*
X74114326Y-101288258D01*
X74115689Y-101301218D01*
X74115087Y-101301281D01*
X74118519Y-101344901D01*
X74096363Y-101398387D01*
X74052340Y-101435985D01*
X73996046Y-101449500D01*
X71550097Y-101449500D01*
X71502644Y-101440061D01*
X71462416Y-101413181D01*
X70858199Y-100808964D01*
X70847503Y-100796768D01*
X70828281Y-100771716D01*
X70702841Y-100675464D01*
X70556761Y-100614955D01*
X70527807Y-100611144D01*
X70400000Y-100594317D01*
X70372163Y-100597982D01*
X70368697Y-100598439D01*
X70352513Y-100599500D01*
X64347487Y-100599500D01*
X64331302Y-100598439D01*
X64327376Y-100597922D01*
X64299999Y-100594317D01*
X64172193Y-100611144D01*
X64143238Y-100614955D01*
X63982077Y-100681711D01*
X63981600Y-100680560D01*
X63936652Y-100698321D01*
X63869655Y-100686130D01*
X63819199Y-100640398D01*
X63800500Y-100574918D01*
X63800500Y-100547487D01*
X63801561Y-100531301D01*
X63805682Y-100499999D01*
X63801441Y-100467784D01*
X63785044Y-100343238D01*
X63724536Y-100197159D01*
X63693538Y-100156762D01*
X63691928Y-100154664D01*
X63628282Y-100071717D01*
X63603229Y-100052494D01*
X63591034Y-100041799D01*
X63411416Y-99862181D01*
X63381166Y-99812818D01*
X63376624Y-99755102D01*
X63398779Y-99701615D01*
X63442802Y-99664015D01*
X63499097Y-99650500D01*
X63544648Y-99650500D01*
X63668083Y-99624262D01*
X63729803Y-99611144D01*
X63902730Y-99534151D01*
X63967296Y-99487241D01*
X64055870Y-99422889D01*
X64069907Y-99407300D01*
X64182533Y-99282216D01*
X64277179Y-99118284D01*
X64335674Y-98938256D01*
X64355460Y-98750000D01*
X64335674Y-98561744D01*
X64302119Y-98458472D01*
X64277179Y-98381715D01*
X64182533Y-98217783D01*
X64055870Y-98077110D01*
X63902730Y-97965848D01*
X63729802Y-97888855D01*
X63544648Y-97849500D01*
X63544646Y-97849500D01*
X63355354Y-97849500D01*
X63355352Y-97849500D01*
X63170197Y-97888855D01*
X62997269Y-97965848D01*
X62844129Y-98077110D01*
X62717465Y-98217785D01*
X62622822Y-98381713D01*
X62622821Y-98381715D01*
X62622821Y-98381716D01*
X62612389Y-98413820D01*
X62586610Y-98458472D01*
X62544895Y-98488780D01*
X62494460Y-98499500D01*
X62008461Y-98499500D01*
X61946461Y-98482887D01*
X61901074Y-98437500D01*
X61884461Y-98375500D01*
X61901074Y-98313500D01*
X61927179Y-98268284D01*
X61943587Y-98217785D01*
X61985674Y-98088256D01*
X62005460Y-97900000D01*
X61985674Y-97711744D01*
X61927179Y-97531716D01*
X61902087Y-97488256D01*
X61886928Y-97461999D01*
X61870315Y-97399998D01*
X61886926Y-97338001D01*
X61927179Y-97268284D01*
X61985674Y-97088256D01*
X62005460Y-96900000D01*
X61985674Y-96711744D01*
X61927179Y-96531716D01*
X61886927Y-96461999D01*
X61870315Y-96400000D01*
X61886928Y-96338000D01*
X61898987Y-96317113D01*
X61927179Y-96268284D01*
X61985674Y-96088256D01*
X62005460Y-95900000D01*
X61985674Y-95711744D01*
X61947520Y-95594318D01*
X61927179Y-95531715D01*
X61832533Y-95367783D01*
X61705870Y-95227110D01*
X61552730Y-95115848D01*
X61379802Y-95038855D01*
X61194648Y-94999500D01*
X61194646Y-94999500D01*
X61005354Y-94999500D01*
X61005352Y-94999500D01*
X60820197Y-95038855D01*
X60647268Y-95115849D01*
X60622880Y-95133567D01*
X60575777Y-95154537D01*
X60524216Y-95154536D01*
X60477114Y-95133564D01*
X60452730Y-95115848D01*
X60279802Y-95038855D01*
X60094648Y-94999500D01*
X60094646Y-94999500D01*
X59905354Y-94999500D01*
X59905352Y-94999500D01*
X59720197Y-95038855D01*
X59547272Y-95115846D01*
X59472885Y-95169892D01*
X59425781Y-95190863D01*
X59374219Y-95190863D01*
X59327115Y-95169892D01*
X59252727Y-95115846D01*
X59079802Y-95038855D01*
X58894648Y-94999500D01*
X58894646Y-94999500D01*
X58705354Y-94999500D01*
X58705352Y-94999500D01*
X58520197Y-95038855D01*
X58347269Y-95115848D01*
X58194129Y-95227110D01*
X58067466Y-95367783D01*
X57972820Y-95531715D01*
X57914326Y-95711742D01*
X57894540Y-95900000D01*
X57914326Y-96088257D01*
X57972820Y-96268284D01*
X58013071Y-96338000D01*
X58029684Y-96400000D01*
X58013071Y-96462000D01*
X57972820Y-96531715D01*
X57914326Y-96711742D01*
X57894540Y-96899999D01*
X57914326Y-97088257D01*
X57972820Y-97268284D01*
X58013071Y-97338000D01*
X58029684Y-97400000D01*
X58013071Y-97462000D01*
X57972820Y-97531715D01*
X57914326Y-97711742D01*
X57894540Y-97899999D01*
X57914326Y-98088257D01*
X57972820Y-98268284D01*
X58067464Y-98432213D01*
X58071187Y-98436348D01*
X58176736Y-98553571D01*
X58202516Y-98598223D01*
X58207906Y-98649501D01*
X58191974Y-98698539D01*
X58172820Y-98731715D01*
X58146144Y-98813818D01*
X58120363Y-98858472D01*
X58078648Y-98888780D01*
X58028213Y-98899500D01*
X57955352Y-98899500D01*
X57770197Y-98938855D01*
X57597271Y-99015847D01*
X57582291Y-99026731D01*
X57535187Y-99047701D01*
X57483626Y-99047700D01*
X57436524Y-99026728D01*
X57352730Y-98965848D01*
X57179802Y-98888855D01*
X56994648Y-98849500D01*
X56994646Y-98849500D01*
X56805354Y-98849500D01*
X56805352Y-98849500D01*
X56620197Y-98888855D01*
X56447269Y-98965848D01*
X56294129Y-99077110D01*
X56167466Y-99217783D01*
X56072820Y-99381715D01*
X56014326Y-99561742D01*
X55994540Y-99749999D01*
X55600500Y-99749999D01*
X55600500Y-95282941D01*
X55609939Y-95235488D01*
X55623687Y-95214911D01*
X55622383Y-95214092D01*
X55650155Y-95169892D01*
X55725789Y-95049522D01*
X55785368Y-94879255D01*
X55805565Y-94700000D01*
X55785368Y-94520745D01*
X55725789Y-94350478D01*
X55629816Y-94197738D01*
X55629815Y-94197737D01*
X55629814Y-94197735D01*
X55502264Y-94070185D01*
X55365341Y-93984151D01*
X55349522Y-93974211D01*
X55179255Y-93914632D01*
X55179253Y-93914631D01*
X55179251Y-93914631D01*
X55000000Y-93894434D01*
X54820747Y-93914631D01*
X54705948Y-93954801D01*
X54645601Y-93960233D01*
X54589885Y-93936423D01*
X54552102Y-93889055D01*
X54541273Y-93829442D01*
X54886189Y-88700000D01*
X57544540Y-88700000D01*
X57564326Y-88888257D01*
X57622820Y-89068284D01*
X57717466Y-89232216D01*
X57844129Y-89372889D01*
X57997269Y-89484151D01*
X58170197Y-89561144D01*
X58355352Y-89600500D01*
X58355354Y-89600500D01*
X58544646Y-89600500D01*
X58544648Y-89600500D01*
X58683918Y-89570897D01*
X58729803Y-89561144D01*
X58902730Y-89484151D01*
X59055871Y-89372888D01*
X59060016Y-89368285D01*
X59084110Y-89341527D01*
X59125824Y-89311220D01*
X59176259Y-89300500D01*
X62289853Y-89300500D01*
X62337306Y-89309939D01*
X62377534Y-89336819D01*
X68245839Y-95205125D01*
X68277354Y-95258627D01*
X68278980Y-95320700D01*
X68250308Y-95375778D01*
X68167466Y-95467783D01*
X68072820Y-95631715D01*
X68014326Y-95811742D01*
X67994540Y-96000000D01*
X68014326Y-96188257D01*
X68072820Y-96368284D01*
X68167466Y-96532216D01*
X68294129Y-96672888D01*
X68429121Y-96770965D01*
X68471207Y-96824832D01*
X68478352Y-96892815D01*
X68448386Y-96954254D01*
X68404118Y-97003419D01*
X68337661Y-97077226D01*
X68243017Y-97241155D01*
X68184523Y-97421182D01*
X68164737Y-97609440D01*
X68184523Y-97797697D01*
X68243017Y-97977724D01*
X68337663Y-98141656D01*
X68464326Y-98282329D01*
X68617466Y-98393591D01*
X68790394Y-98470584D01*
X68975549Y-98509940D01*
X68975551Y-98509940D01*
X69164843Y-98509940D01*
X69164845Y-98509940D01*
X69292118Y-98482887D01*
X69350000Y-98470584D01*
X69522927Y-98393591D01*
X69676068Y-98282328D01*
X69686722Y-98270494D01*
X69742612Y-98234886D01*
X69808866Y-98233150D01*
X69866551Y-98265786D01*
X71008065Y-99407300D01*
X71037269Y-99453583D01*
X71041255Y-99487241D01*
X71043178Y-99487039D01*
X71044540Y-99499999D01*
X71044540Y-99500000D01*
X71052252Y-99573375D01*
X71064326Y-99688257D01*
X71122820Y-99868284D01*
X71217466Y-100032216D01*
X71344129Y-100172889D01*
X71497269Y-100284151D01*
X71670197Y-100361144D01*
X71855352Y-100400500D01*
X71855354Y-100400500D01*
X72044646Y-100400500D01*
X72044648Y-100400500D01*
X72168084Y-100374262D01*
X72229803Y-100361144D01*
X72402730Y-100284151D01*
X72496740Y-100215849D01*
X72555870Y-100172889D01*
X72682533Y-100032216D01*
X72777179Y-99868284D01*
X72795201Y-99812818D01*
X72835674Y-99688256D01*
X72855460Y-99500000D01*
X72835674Y-99311744D01*
X72804760Y-99216601D01*
X72777179Y-99131715D01*
X72682533Y-98967783D01*
X72555870Y-98827110D01*
X72402730Y-98715848D01*
X72229802Y-98638855D01*
X72044648Y-98599500D01*
X72044646Y-98599500D01*
X71950097Y-98599500D01*
X71902644Y-98590061D01*
X71862416Y-98563181D01*
X71536268Y-98237033D01*
X71507613Y-98192270D01*
X71500331Y-98139623D01*
X71515760Y-98088762D01*
X71551060Y-98049037D01*
X71655871Y-97972888D01*
X71782533Y-97832216D01*
X71877179Y-97668284D01*
X71935674Y-97488256D01*
X71955460Y-97300000D01*
X71935674Y-97111744D01*
X71879426Y-96938630D01*
X71877179Y-96931715D01*
X71782533Y-96767783D01*
X71655872Y-96627112D01*
X71628005Y-96606866D01*
X71592701Y-96567136D01*
X71577273Y-96516276D01*
X71584556Y-96463628D01*
X71613207Y-96418870D01*
X71629816Y-96402262D01*
X71725789Y-96249522D01*
X71747227Y-96188256D01*
X71748876Y-96183545D01*
X71775019Y-96140158D01*
X71816331Y-96110846D01*
X71865917Y-96100500D01*
X71894648Y-96100500D01*
X72024551Y-96072888D01*
X72079803Y-96061144D01*
X72252730Y-95984151D01*
X72268232Y-95972888D01*
X72405870Y-95872889D01*
X72532533Y-95732216D01*
X72627179Y-95568284D01*
X72639061Y-95531715D01*
X72685674Y-95388256D01*
X72705460Y-95200000D01*
X72685674Y-95011744D01*
X72649528Y-94900500D01*
X72627179Y-94831715D01*
X72532533Y-94667783D01*
X72405871Y-94527112D01*
X72402715Y-94524819D01*
X72363401Y-94477298D01*
X72351844Y-94416715D01*
X72370902Y-94358058D01*
X72415861Y-94315838D01*
X72475599Y-94300500D01*
X72544648Y-94300500D01*
X72691093Y-94269372D01*
X72729803Y-94261144D01*
X72902730Y-94184151D01*
X72927116Y-94166433D01*
X72974217Y-94145462D01*
X73025780Y-94145462D01*
X73072885Y-94166435D01*
X73097269Y-94184151D01*
X73270197Y-94261144D01*
X73455352Y-94300500D01*
X73455354Y-94300500D01*
X73644646Y-94300500D01*
X73644648Y-94300500D01*
X73791093Y-94269372D01*
X73829803Y-94261144D01*
X74002730Y-94184151D01*
X74155871Y-94072888D01*
X74282533Y-93932216D01*
X74377179Y-93768284D01*
X74435674Y-93588256D01*
X74455460Y-93400000D01*
X74435674Y-93211744D01*
X74405332Y-93118363D01*
X74377179Y-93031715D01*
X74308061Y-92911999D01*
X74291448Y-92849999D01*
X74308059Y-92788001D01*
X74377179Y-92668284D01*
X74435674Y-92488256D01*
X74455460Y-92300000D01*
X74435674Y-92111744D01*
X74377179Y-91931716D01*
X74377179Y-91931715D01*
X74308061Y-91812000D01*
X74291448Y-91750000D01*
X74308061Y-91688000D01*
X74377179Y-91568284D01*
X74382311Y-91552490D01*
X74435674Y-91388256D01*
X74455460Y-91200000D01*
X74435674Y-91011744D01*
X74405332Y-90918363D01*
X74377179Y-90831715D01*
X74308061Y-90712000D01*
X74291448Y-90650000D01*
X74308061Y-90588000D01*
X74377179Y-90468284D01*
X74408400Y-90372195D01*
X74435674Y-90288256D01*
X74455460Y-90100000D01*
X74435674Y-89911744D01*
X74377179Y-89731716D01*
X74377179Y-89731715D01*
X74283060Y-89568697D01*
X74266447Y-89506696D01*
X74283059Y-89444699D01*
X74327179Y-89368284D01*
X74385674Y-89188256D01*
X74405460Y-89000000D01*
X74385674Y-88811744D01*
X74327179Y-88631716D01*
X74327179Y-88631715D01*
X74258061Y-88512000D01*
X74241448Y-88450000D01*
X74258061Y-88388000D01*
X74327179Y-88268284D01*
X74357338Y-88175464D01*
X74385674Y-88088256D01*
X74405460Y-87900000D01*
X74385674Y-87711744D01*
X74338460Y-87566435D01*
X74327179Y-87531715D01*
X74232533Y-87367783D01*
X74105870Y-87227110D01*
X73952730Y-87115848D01*
X73779802Y-87038855D01*
X73594648Y-86999500D01*
X73594646Y-86999500D01*
X73405354Y-86999500D01*
X73405352Y-86999500D01*
X73220197Y-87038855D01*
X73047273Y-87115846D01*
X73043918Y-87118284D01*
X73022883Y-87133566D01*
X72975781Y-87154537D01*
X72924219Y-87154537D01*
X72877116Y-87133566D01*
X72852730Y-87115849D01*
X72852726Y-87115846D01*
X72679802Y-87038855D01*
X72494648Y-86999500D01*
X72494646Y-86999500D01*
X72305354Y-86999500D01*
X72305352Y-86999500D01*
X72120197Y-87038855D01*
X71947269Y-87115848D01*
X71794129Y-87227110D01*
X71667466Y-87367783D01*
X71572820Y-87531715D01*
X71514326Y-87711742D01*
X71494540Y-87900000D01*
X71514326Y-88088257D01*
X71572820Y-88268284D01*
X71641939Y-88388000D01*
X71658552Y-88450000D01*
X71641939Y-88512000D01*
X71572820Y-88631715D01*
X71514326Y-88811742D01*
X71494540Y-89000000D01*
X71514326Y-89188257D01*
X71572820Y-89368284D01*
X71666938Y-89531301D01*
X71683551Y-89593301D01*
X71666939Y-89655300D01*
X71622820Y-89731716D01*
X71564326Y-89911742D01*
X71544540Y-90100000D01*
X71564326Y-90288257D01*
X71622820Y-90468284D01*
X71691939Y-90588000D01*
X71708552Y-90650000D01*
X71691939Y-90712000D01*
X71622820Y-90831715D01*
X71564326Y-91011742D01*
X71544540Y-91199999D01*
X71564326Y-91388257D01*
X71622820Y-91568284D01*
X71691939Y-91688000D01*
X71708552Y-91750000D01*
X71691939Y-91812000D01*
X71622820Y-91931715D01*
X71564326Y-92111742D01*
X71544540Y-92299999D01*
X71564326Y-92488257D01*
X71622820Y-92668284D01*
X71691939Y-92788000D01*
X71708552Y-92850000D01*
X71691939Y-92912000D01*
X71622820Y-93031715D01*
X71564326Y-93211742D01*
X71544540Y-93400000D01*
X71564326Y-93588257D01*
X71622820Y-93768284D01*
X71717466Y-93932216D01*
X71841694Y-94070184D01*
X71844129Y-94072888D01*
X71846873Y-94074881D01*
X71847285Y-94075181D01*
X71886599Y-94122702D01*
X71898156Y-94183285D01*
X71879098Y-94241942D01*
X71834139Y-94284162D01*
X71774401Y-94299500D01*
X71705352Y-94299500D01*
X71520197Y-94338855D01*
X71347269Y-94415848D01*
X71194129Y-94527110D01*
X71067466Y-94667783D01*
X70972820Y-94831715D01*
X70940166Y-94932216D01*
X70918305Y-94999500D01*
X70910299Y-95024139D01*
X70907976Y-95023384D01*
X70888794Y-95070426D01*
X70832518Y-95110511D01*
X70650480Y-95174209D01*
X70497738Y-95270183D01*
X70370182Y-95397740D01*
X70362899Y-95409332D01*
X70323877Y-95448353D01*
X70271789Y-95466579D01*
X70216951Y-95460400D01*
X70170225Y-95431040D01*
X63048149Y-88308964D01*
X63037453Y-88296768D01*
X63018231Y-88271716D01*
X62892790Y-88175463D01*
X62746712Y-88114956D01*
X62629311Y-88099500D01*
X62624730Y-88098897D01*
X62589950Y-88094317D01*
X62562113Y-88097982D01*
X62558647Y-88098439D01*
X62542463Y-88099500D01*
X59176259Y-88099500D01*
X59125824Y-88088780D01*
X59084110Y-88058473D01*
X59055871Y-88027111D01*
X58902730Y-87915848D01*
X58729802Y-87838855D01*
X58544648Y-87799500D01*
X58544646Y-87799500D01*
X58355354Y-87799500D01*
X58355352Y-87799500D01*
X58170197Y-87838855D01*
X57997269Y-87915848D01*
X57844129Y-88027110D01*
X57717466Y-88167783D01*
X57622820Y-88331715D01*
X57564326Y-88511742D01*
X57544540Y-88700000D01*
X54886189Y-88700000D01*
X54997342Y-87046975D01*
X55000500Y-87034442D01*
X55000500Y-87004198D01*
X55000781Y-86995855D01*
X55002381Y-86972119D01*
X55002342Y-86971876D01*
X55005980Y-86916371D01*
X55018709Y-86738407D01*
X55020771Y-86723099D01*
X55042955Y-86611573D01*
X55043364Y-86609606D01*
X55073788Y-86469749D01*
X55077519Y-86456305D01*
X55116243Y-86342230D01*
X55117404Y-86338967D01*
X55165068Y-86211177D01*
X55170017Y-86199713D01*
X55224481Y-86089272D01*
X55226777Y-86084851D01*
X55290855Y-85967501D01*
X55296562Y-85958075D01*
X55365639Y-85854694D01*
X55369425Y-85849344D01*
X55448850Y-85743246D01*
X55454823Y-85735878D01*
X55537161Y-85641989D01*
X55542648Y-85636131D01*
X55636131Y-85542648D01*
X55641989Y-85537161D01*
X55735878Y-85454823D01*
X55743246Y-85448850D01*
X55849344Y-85369425D01*
X55854694Y-85365639D01*
X55958075Y-85296562D01*
X55967501Y-85290855D01*
X56084851Y-85226777D01*
X56089272Y-85224481D01*
X56199713Y-85170017D01*
X56211177Y-85165068D01*
X56338967Y-85117404D01*
X56342230Y-85116243D01*
X56456305Y-85077519D01*
X56469749Y-85073788D01*
X56609606Y-85043364D01*
X56611573Y-85042955D01*
X56723099Y-85020771D01*
X56738407Y-85018709D01*
X56916193Y-85005992D01*
X56995957Y-85000764D01*
X57004065Y-85000500D01*
X63884601Y-85000500D01*
X63939736Y-85013432D01*
G37*
%TD.AperFunction*%
%TD*%
M02*
