%TF.GenerationSoftware,KiCad,Pcbnew,7.0.1-0*%
%TF.CreationDate,2023-11-13T20:43:58+01:00*%
%TF.ProjectId,luz,6c757a2e-6b69-4636-9164-5f7063625858,rev?*%
%TF.SameCoordinates,Original*%
%TF.FileFunction,Soldermask,Bot*%
%TF.FilePolarity,Negative*%
%FSLAX46Y46*%
G04 Gerber Fmt 4.6, Leading zero omitted, Abs format (unit mm)*
G04 Created by KiCad (PCBNEW 7.0.1-0) date 2023-11-13 20:43:58*
%MOMM*%
%LPD*%
G01*
G04 APERTURE LIST*
G04 Aperture macros list*
%AMRoundRect*
0 Rectangle with rounded corners*
0 $1 Rounding radius*
0 $2 $3 $4 $5 $6 $7 $8 $9 X,Y pos of 4 corners*
0 Add a 4 corners polygon primitive as box body*
4,1,4,$2,$3,$4,$5,$6,$7,$8,$9,$2,$3,0*
0 Add four circle primitives for the rounded corners*
1,1,$1+$1,$2,$3*
1,1,$1+$1,$4,$5*
1,1,$1+$1,$6,$7*
1,1,$1+$1,$8,$9*
0 Add four rect primitives between the rounded corners*
20,1,$1+$1,$2,$3,$4,$5,0*
20,1,$1+$1,$4,$5,$6,$7,0*
20,1,$1+$1,$6,$7,$8,$9,0*
20,1,$1+$1,$8,$9,$2,$3,0*%
G04 Aperture macros list end*
%ADD10C,0.010000*%
%ADD11C,1.500000*%
%ADD12R,4.000000X4.000000*%
%ADD13C,2.600000*%
%ADD14R,2.600000X2.600000*%
%ADD15RoundRect,0.102000X-0.700000X0.350000X-0.700000X-0.350000X0.700000X-0.350000X0.700000X0.350000X0*%
G04 APERTURE END LIST*
%TO.C,J2*%
D10*
X56012500Y-102637060D02*
X54412500Y-102637060D01*
X54412500Y-102237060D01*
X56012500Y-102237060D01*
X56012500Y-102637060D01*
G36*
X56012500Y-102637060D02*
G01*
X54412500Y-102637060D01*
X54412500Y-102237060D01*
X56012500Y-102237060D01*
X56012500Y-102637060D01*
G37*
X56012500Y-102137060D02*
X54412500Y-102137060D01*
X54412500Y-101737060D01*
X56012500Y-101737060D01*
X56012500Y-102137060D01*
G36*
X56012500Y-102137060D02*
G01*
X54412500Y-102137060D01*
X54412500Y-101737060D01*
X56012500Y-101737060D01*
X56012500Y-102137060D01*
G37*
X56012500Y-101637060D02*
X54412500Y-101637060D01*
X54412500Y-101237060D01*
X56012500Y-101237060D01*
X56012500Y-101637060D01*
G36*
X56012500Y-101637060D02*
G01*
X54412500Y-101637060D01*
X54412500Y-101237060D01*
X56012500Y-101237060D01*
X56012500Y-101637060D01*
G37*
X56012500Y-101137060D02*
X54412500Y-101137060D01*
X54412500Y-100737060D01*
X56012500Y-100737060D01*
X56012500Y-101137060D01*
G36*
X56012500Y-101137060D02*
G01*
X54412500Y-101137060D01*
X54412500Y-100737060D01*
X56012500Y-100737060D01*
X56012500Y-101137060D01*
G37*
X56012500Y-100637060D02*
X54412500Y-100637060D01*
X54412500Y-100237060D01*
X56012500Y-100237060D01*
X56012500Y-100637060D01*
G36*
X56012500Y-100637060D02*
G01*
X54412500Y-100637060D01*
X54412500Y-100237060D01*
X56012500Y-100237060D01*
X56012500Y-100637060D01*
G37*
X56012500Y-100137060D02*
X54412500Y-100137060D01*
X54412500Y-99737060D01*
X56012500Y-99737060D01*
X56012500Y-100137060D01*
G36*
X56012500Y-100137060D02*
G01*
X54412500Y-100137060D01*
X54412500Y-99737060D01*
X56012500Y-99737060D01*
X56012500Y-100137060D01*
G37*
X56012500Y-99637060D02*
X54412500Y-99637060D01*
X54412500Y-99237060D01*
X56012500Y-99237060D01*
X56012500Y-99637060D01*
G36*
X56012500Y-99637060D02*
G01*
X54412500Y-99637060D01*
X54412500Y-99237060D01*
X56012500Y-99237060D01*
X56012500Y-99637060D01*
G37*
X56012500Y-99137060D02*
X54412500Y-99137060D01*
X54412500Y-98737060D01*
X56012500Y-98737060D01*
X56012500Y-99137060D01*
G36*
X56012500Y-99137060D02*
G01*
X54412500Y-99137060D01*
X54412500Y-98737060D01*
X56012500Y-98737060D01*
X56012500Y-99137060D01*
G37*
X56012500Y-98637060D02*
X54412500Y-98637060D01*
X54412500Y-98237060D01*
X56012500Y-98237060D01*
X56012500Y-98637060D01*
G36*
X56012500Y-98637060D02*
G01*
X54412500Y-98637060D01*
X54412500Y-98237060D01*
X56012500Y-98237060D01*
X56012500Y-98637060D01*
G37*
X56012500Y-98137060D02*
X54412500Y-98137060D01*
X54412500Y-97737060D01*
X56012500Y-97737060D01*
X56012500Y-98137060D01*
G36*
X56012500Y-98137060D02*
G01*
X54412500Y-98137060D01*
X54412500Y-97737060D01*
X56012500Y-97737060D01*
X56012500Y-98137060D01*
G37*
X56012500Y-97637060D02*
X54412500Y-97637060D01*
X54412500Y-97237060D01*
X56012500Y-97237060D01*
X56012500Y-97637060D01*
G36*
X56012500Y-97637060D02*
G01*
X54412500Y-97637060D01*
X54412500Y-97237060D01*
X56012500Y-97237060D01*
X56012500Y-97637060D01*
G37*
X56012500Y-97137060D02*
X54412500Y-97137060D01*
X54412500Y-96737060D01*
X56012500Y-96737060D01*
X56012500Y-97137060D01*
G36*
X56012500Y-97137060D02*
G01*
X54412500Y-97137060D01*
X54412500Y-96737060D01*
X56012500Y-96737060D01*
X56012500Y-97137060D01*
G37*
%TD*%
D11*
%TO.C,TP10*%
X78300000Y-104100000D03*
%TD*%
%TO.C,TP9*%
X76300000Y-102400000D03*
%TD*%
D12*
%TO.C,TP8*%
X60700000Y-112000000D03*
%TD*%
%TO.C,TP7*%
X67900000Y-112000000D03*
%TD*%
D11*
%TO.C,TP6*%
X76200000Y-91440000D03*
%TD*%
D13*
%TO.C,J3*%
X102120000Y-89840000D03*
X102120000Y-94920000D03*
X102120000Y-100000000D03*
X102120000Y-105080000D03*
D14*
X102120000Y-110160000D03*
%TD*%
D11*
%TO.C,TP2*%
X81280000Y-91440000D03*
%TD*%
%TO.C,TP3*%
X83820000Y-91440000D03*
%TD*%
%TO.C,TP4*%
X86360000Y-91440000D03*
%TD*%
%TO.C,TP5*%
X88900000Y-91440000D03*
%TD*%
%TO.C,TP1*%
X78740000Y-91440000D03*
%TD*%
D15*
%TO.C,J2*%
X55262500Y-96087060D03*
%TD*%
M02*
