%TF.GenerationSoftware,KiCad,Pcbnew,7.0.1-0*%
%TF.CreationDate,2023-11-20T21:41:34+01:00*%
%TF.ProjectId,luz,6c757a2e-6b69-4636-9164-5f7063625858,rev?*%
%TF.SameCoordinates,Original*%
%TF.FileFunction,Copper,L1,Top*%
%TF.FilePolarity,Positive*%
%FSLAX46Y46*%
G04 Gerber Fmt 4.6, Leading zero omitted, Abs format (unit mm)*
G04 Created by KiCad (PCBNEW 7.0.1-0) date 2023-11-20 21:41:34*
%MOMM*%
%LPD*%
G01*
G04 APERTURE LIST*
G04 Aperture macros list*
%AMRoundRect*
0 Rectangle with rounded corners*
0 $1 Rounding radius*
0 $2 $3 $4 $5 $6 $7 $8 $9 X,Y pos of 4 corners*
0 Add a 4 corners polygon primitive as box body*
4,1,4,$2,$3,$4,$5,$6,$7,$8,$9,$2,$3,0*
0 Add four circle primitives for the rounded corners*
1,1,$1+$1,$2,$3*
1,1,$1+$1,$4,$5*
1,1,$1+$1,$6,$7*
1,1,$1+$1,$8,$9*
0 Add four rect primitives between the rounded corners*
20,1,$1+$1,$2,$3,$4,$5,0*
20,1,$1+$1,$4,$5,$6,$7,0*
20,1,$1+$1,$6,$7,$8,$9,0*
20,1,$1+$1,$8,$9,$2,$3,0*%
%AMRotRect*
0 Rectangle, with rotation*
0 The origin of the aperture is its center*
0 $1 length*
0 $2 width*
0 $3 Rotation angle, in degrees counterclockwise*
0 Add horizontal line*
21,1,$1,$2,0,0,$3*%
%AMFreePoly0*
4,1,19,0.500000,-0.750000,0.000000,-0.750000,0.000000,-0.744911,-0.071157,-0.744911,-0.207708,-0.704816,-0.327430,-0.627875,-0.420627,-0.520320,-0.479746,-0.390866,-0.500000,-0.250000,-0.500000,0.250000,-0.479746,0.390866,-0.420627,0.520320,-0.327430,0.627875,-0.207708,0.704816,-0.071157,0.744911,0.000000,0.744911,0.000000,0.750000,0.500000,0.750000,0.500000,-0.750000,0.500000,-0.750000,
$1*%
%AMFreePoly1*
4,1,19,0.000000,0.744911,0.071157,0.744911,0.207708,0.704816,0.327430,0.627875,0.420627,0.520320,0.479746,0.390866,0.500000,0.250000,0.500000,-0.250000,0.479746,-0.390866,0.420627,-0.520320,0.327430,-0.627875,0.207708,-0.704816,0.071157,-0.744911,0.000000,-0.744911,0.000000,-0.750000,-0.500000,-0.750000,-0.500000,0.750000,0.000000,0.750000,0.000000,0.744911,0.000000,0.744911,
$1*%
G04 Aperture macros list end*
%TA.AperFunction,SMDPad,CuDef*%
%ADD10R,1.700000X0.800000*%
%TD*%
%TA.AperFunction,ComponentPad*%
%ADD11C,2.600000*%
%TD*%
%TA.AperFunction,ComponentPad*%
%ADD12R,2.600000X2.600000*%
%TD*%
%TA.AperFunction,SMDPad,CuDef*%
%ADD13RoundRect,0.150000X-0.587500X-0.150000X0.587500X-0.150000X0.587500X0.150000X-0.587500X0.150000X0*%
%TD*%
%TA.AperFunction,SMDPad,CuDef*%
%ADD14RoundRect,0.140000X-0.140000X-0.170000X0.140000X-0.170000X0.140000X0.170000X-0.140000X0.170000X0*%
%TD*%
%TA.AperFunction,SMDPad,CuDef*%
%ADD15O,1.888011X0.573990*%
%TD*%
%TA.AperFunction,SMDPad,CuDef*%
%ADD16RoundRect,0.135000X-0.135000X-0.185000X0.135000X-0.185000X0.135000X0.185000X-0.135000X0.185000X0*%
%TD*%
%TA.AperFunction,SMDPad,CuDef*%
%ADD17RoundRect,0.135000X0.185000X-0.135000X0.185000X0.135000X-0.185000X0.135000X-0.185000X-0.135000X0*%
%TD*%
%TA.AperFunction,SMDPad,CuDef*%
%ADD18FreePoly0,270.000000*%
%TD*%
%TA.AperFunction,SMDPad,CuDef*%
%ADD19FreePoly1,270.000000*%
%TD*%
%TA.AperFunction,SMDPad,CuDef*%
%ADD20R,0.850013X0.300000*%
%TD*%
%TA.AperFunction,SMDPad,CuDef*%
%ADD21R,1.250013X0.300000*%
%TD*%
%TA.AperFunction,SMDPad,CuDef*%
%ADD22R,1.800000X0.500000*%
%TD*%
%TA.AperFunction,SMDPad,CuDef*%
%ADD23R,2.800000X1.000000*%
%TD*%
%TA.AperFunction,SMDPad,CuDef*%
%ADD24RoundRect,0.135000X-0.185000X0.135000X-0.185000X-0.135000X0.185000X-0.135000X0.185000X0.135000X0*%
%TD*%
%TA.AperFunction,SMDPad,CuDef*%
%ADD25RoundRect,0.150000X-0.150000X0.512500X-0.150000X-0.512500X0.150000X-0.512500X0.150000X0.512500X0*%
%TD*%
%TA.AperFunction,SMDPad,CuDef*%
%ADD26RotRect,2.800000X2.800000X225.000000*%
%TD*%
%TA.AperFunction,SMDPad,CuDef*%
%ADD27RotRect,0.280010X0.664999X225.000000*%
%TD*%
%TA.AperFunction,SMDPad,CuDef*%
%ADD28RotRect,0.664999X0.280010X225.000000*%
%TD*%
%TA.AperFunction,SMDPad,CuDef*%
%ADD29RoundRect,0.135000X0.135000X0.185000X-0.135000X0.185000X-0.135000X-0.185000X0.135000X-0.185000X0*%
%TD*%
%TA.AperFunction,SMDPad,CuDef*%
%ADD30R,1.200000X4.000000*%
%TD*%
%TA.AperFunction,SMDPad,CuDef*%
%ADD31RoundRect,0.218750X0.256250X-0.218750X0.256250X0.218750X-0.256250X0.218750X-0.256250X-0.218750X0*%
%TD*%
%TA.AperFunction,SMDPad,CuDef*%
%ADD32RoundRect,0.112500X-0.187500X-0.112500X0.187500X-0.112500X0.187500X0.112500X-0.187500X0.112500X0*%
%TD*%
%TA.AperFunction,SMDPad,CuDef*%
%ADD33RoundRect,0.218750X0.218750X0.256250X-0.218750X0.256250X-0.218750X-0.256250X0.218750X-0.256250X0*%
%TD*%
%TA.AperFunction,SMDPad,CuDef*%
%ADD34RoundRect,0.140000X-0.170000X0.140000X-0.170000X-0.140000X0.170000X-0.140000X0.170000X0.140000X0*%
%TD*%
%TA.AperFunction,SMDPad,CuDef*%
%ADD35RoundRect,0.225000X0.250000X-0.225000X0.250000X0.225000X-0.250000X0.225000X-0.250000X-0.225000X0*%
%TD*%
%TA.AperFunction,SMDPad,CuDef*%
%ADD36RoundRect,0.140000X0.140000X0.170000X-0.140000X0.170000X-0.140000X-0.170000X0.140000X-0.170000X0*%
%TD*%
%TA.AperFunction,ViaPad*%
%ADD37C,0.800000*%
%TD*%
%TA.AperFunction,ViaPad*%
%ADD38C,0.600000*%
%TD*%
%TA.AperFunction,Conductor*%
%ADD39C,0.300000*%
%TD*%
%TA.AperFunction,Conductor*%
%ADD40C,0.500000*%
%TD*%
%TA.AperFunction,Conductor*%
%ADD41C,0.200000*%
%TD*%
G04 APERTURE END LIST*
%TA.AperFunction,EtchedComponent*%
%TO.C,JP2*%
G36*
X55770000Y-102560000D02*
G01*
X55170000Y-102560000D01*
X55170000Y-102060000D01*
X55770000Y-102060000D01*
X55770000Y-102560000D01*
G37*
%TD.AperFunction*%
%TA.AperFunction,EtchedComponent*%
%TO.C,JP1*%
G36*
X59530000Y-104440000D02*
G01*
X58930000Y-104440000D01*
X58930000Y-103940000D01*
X59530000Y-103940000D01*
X59530000Y-104440000D01*
G37*
%TD.AperFunction*%
%TD*%
D10*
%TO.P,S2,2*%
%TO.N,GND*%
X62164457Y-113260000D03*
%TO.P,S2,1*%
%TO.N,Net-(U5-EN)*%
X62164457Y-109860000D03*
%TD*%
%TO.P,S1,1*%
%TO.N,GND*%
X62164457Y-100580000D03*
%TO.P,S1,2*%
%TO.N,Net-(U5-IO0)*%
X62164457Y-103980000D03*
%TD*%
D11*
%TO.P,J2,4,Pin_4*%
%TO.N,GND*%
X76500000Y-99450000D03*
%TO.P,J2,3,Pin_3*%
%TO.N,Net-(J2-Pin_3)*%
X76500000Y-104450000D03*
%TO.P,J2,2,Pin_2*%
%TO.N,Net-(J2-Pin_2)*%
X76500000Y-109450000D03*
D12*
%TO.P,J2,1,Pin_1*%
%TO.N,VDCOUT*%
X76500000Y-114450000D03*
%TD*%
D13*
%TO.P,Q4,3,D*%
%TO.N,Net-(J2-Pin_2)*%
X69600000Y-111600000D03*
%TO.P,Q4,2,S*%
%TO.N,GND*%
X67725000Y-112550000D03*
%TO.P,Q4,1,G*%
%TO.N,C1*%
X67725000Y-110650000D03*
%TD*%
D14*
%TO.P,C7,1*%
%TO.N,Net-(U2-VCCD)*%
X57280000Y-108610000D03*
%TO.P,C7,2*%
%TO.N,GND*%
X58240000Y-108610000D03*
%TD*%
D15*
%TO.P,U3,1,S1*%
%TO.N,FETs*%
X45499009Y-106405004D03*
%TO.P,U3,2,G1*%
%TO.N,Net-(D3-A)*%
X45499009Y-105135001D03*
%TO.P,U3,3,S2*%
%TO.N,FETs*%
X45499009Y-103864999D03*
%TO.P,U3,4,G2*%
%TO.N,Net-(D3-A)*%
X45499009Y-102594996D03*
%TO.P,U3,8,D1*%
%TO.N,VBUS*%
X40100991Y-106405004D03*
%TO.P,U3,7,D1*%
X40100991Y-105135001D03*
%TO.P,U3,6,D2*%
%TO.N,VDCOUT*%
X40100991Y-103864999D03*
%TO.P,U3,5,D2*%
X40100991Y-102594996D03*
%TD*%
D16*
%TO.P,R22,2*%
%TO.N,GND*%
X56080000Y-100170000D03*
%TO.P,R22,1*%
%TO.N,Net-(JP2-A)*%
X55060000Y-100170000D03*
%TD*%
D17*
%TO.P,R21,1*%
%TO.N,ICOA*%
X57270000Y-103840000D03*
%TO.P,R21,2*%
%TO.N,+3V3*%
X57270000Y-102820000D03*
%TD*%
D18*
%TO.P,JP2,1,A*%
%TO.N,Net-(JP2-A)*%
X55470000Y-101660000D03*
D19*
%TO.P,JP2,2,B*%
%TO.N,ICOA*%
X55470000Y-102960000D03*
%TD*%
D20*
%TO.P,U1,A1,GND*%
%TO.N,GND*%
X35329515Y-109749936D03*
%TO.P,U1,A2,TX1+*%
%TO.N,unconnected-(U1-TX1+-PadA2)*%
X35329515Y-109250064D03*
%TO.P,U1,A3,TX1-*%
%TO.N,unconnected-(U1-TX1--PadA3)*%
X35329515Y-108749936D03*
%TO.P,U1,A4,VBUS*%
%TO.N,VBUS*%
X35329515Y-108250064D03*
%TO.P,U1,A5,CC*%
%TO.N,CC1*%
X35329515Y-107749936D03*
%TO.P,U1,A6,D+*%
%TO.N,unconnected-(U1-D+-PadA6)*%
X35329515Y-107250064D03*
%TO.P,U1,A7,D-*%
%TO.N,unconnected-(U1-D--PadA7)*%
X35329515Y-106749936D03*
%TO.P,U1,A8,SBU1*%
%TO.N,unconnected-(U1-SBU1-PadA8)*%
X35329515Y-106250064D03*
%TO.P,U1,A9,VBUS*%
%TO.N,VBUS*%
X35329515Y-105749936D03*
%TO.P,U1,A10,RX2-*%
%TO.N,unconnected-(U1-RX2--PadA10)*%
X35329515Y-105250064D03*
%TO.P,U1,A11,RX2+*%
%TO.N,unconnected-(U1-RX2+-PadA11)*%
X35329515Y-104749936D03*
%TO.P,U1,A12,GND*%
%TO.N,GND*%
X35329515Y-104250064D03*
D21*
%TO.P,U1,B1,GND*%
X33419431Y-104250064D03*
%TO.P,U1,B2,TX2+*%
%TO.N,unconnected-(U1-TX2+-PadB2)*%
X33419431Y-104749936D03*
%TO.P,U1,B3,TX2-*%
%TO.N,unconnected-(U1-TX2--PadB3)*%
X33419431Y-105250064D03*
%TO.P,U1,B4,VBUS*%
%TO.N,VBUS*%
X33419431Y-105749936D03*
%TO.P,U1,B5,Vconn*%
%TO.N,unconnected-(U1-Vconn-PadB5)*%
X33419431Y-106250064D03*
%TO.P,U1,B6,D+*%
%TO.N,unconnected-(U1-D+-PadB6)*%
X33419431Y-106749936D03*
%TO.P,U1,B7,D-*%
%TO.N,unconnected-(U1-D--PadB7)*%
X33419431Y-107250064D03*
%TO.P,U1,B8,SBU2*%
%TO.N,unconnected-(U1-SBU2-PadB8)*%
X33419431Y-107749936D03*
%TO.P,U1,B9,VBUS*%
%TO.N,VBUS*%
X33419431Y-108250064D03*
%TO.P,U1,B10,RX1-*%
%TO.N,unconnected-(U1-RX1--PadB10)*%
X33419431Y-108749936D03*
%TO.P,U1,B11,RX1+*%
%TO.N,unconnected-(U1-RX1+-PadB11)*%
X33419431Y-109250064D03*
%TO.P,U1,B12,GND*%
%TO.N,GND*%
X33419431Y-109749936D03*
D22*
%TO.P,U1,26,GND*%
X33694514Y-103425070D03*
%TO.P,U1,25,GND*%
X33694514Y-110574930D03*
D23*
X34194564Y-111589916D03*
%TO.P,U1,26,GND*%
X34194564Y-102410084D03*
%TD*%
D17*
%TO.P,R19,1*%
%TO.N,Net-(JP1-A)*%
X58430000Y-102030000D03*
%TO.P,R19,2*%
%TO.N,GND*%
X58430000Y-101010000D03*
%TD*%
D24*
%TO.P,R18,1*%
%TO.N,GND*%
X59440000Y-101010000D03*
%TO.P,R18,2*%
%TO.N,Net-(JP1-A)*%
X59440000Y-102030000D03*
%TD*%
D16*
%TO.P,R17,1*%
%TO.N,VBMAX*%
X57120000Y-106530000D03*
%TO.P,R17,2*%
%TO.N,+3V3*%
X58140000Y-106530000D03*
%TD*%
D18*
%TO.P,JP1,1,A*%
%TO.N,Net-(JP1-A)*%
X59230000Y-103540000D03*
D19*
%TO.P,JP1,2,B*%
%TO.N,VBMAX*%
X59230000Y-104840000D03*
%TD*%
D25*
%TO.P,U4,6,BOOT*%
%TO.N,Net-(U4-BOOT)*%
X40550000Y-112500000D03*
%TO.P,U4,5,EN*%
%TO.N,unconnected-(U4-EN-Pad5)*%
X39600000Y-112500000D03*
%TO.P,U4,4,FB*%
%TO.N,Net-(U4-FB)*%
X38650000Y-112500000D03*
%TO.P,U4,3,VIN*%
%TO.N,VBUS*%
X38650000Y-110225000D03*
%TO.P,U4,2,SW*%
%TO.N,Net-(U4-SW)*%
X39600000Y-110225000D03*
%TO.P,U4,1,GND*%
%TO.N,GND*%
X40550000Y-110225000D03*
%TD*%
D26*
%TO.P,U2,25,EPAD*%
%TO.N,GND*%
X53800000Y-108050000D03*
D27*
%TO.P,U2,24,VCCD*%
%TO.N,Net-(U2-VCCD)*%
X56076858Y-108559182D03*
%TO.P,U2,23,VDDD*%
%TO.N,+3V3*%
X55723395Y-108912645D03*
%TO.P,U2,22,GND*%
%TO.N,GND*%
X55369752Y-109266289D03*
%TO.P,U2,21,DNU2*%
%TO.N,unconnected-(U2-DNU2-Pad21)*%
X55016289Y-109619752D03*
%TO.P,U2,20,DNU1*%
%TO.N,unconnected-(U2-DNU1-Pad20)*%
X54662645Y-109973395D03*
%TO.P,U2,19,GND*%
%TO.N,GND*%
X54309182Y-110326858D03*
D28*
%TO.P,U2,18,VBUS_IN*%
%TO.N,VBUS*%
X53290818Y-110326858D03*
%TO.P,U2,17,D+*%
%TO.N,unconnected-(U2-D+-Pad17)*%
X52937355Y-109973395D03*
%TO.P,U2,16,D-*%
%TO.N,unconnected-(U2-D--Pad16)*%
X52583711Y-109619752D03*
%TO.P,U2,15,CC1*%
%TO.N,CC1*%
X52230248Y-109266289D03*
%TO.P,U2,14,CC2*%
%TO.N,unconnected-(U2-CC2-Pad14)*%
X51876605Y-108912645D03*
%TO.P,U2,13,HPI_SCL*%
%TO.N,SCL*%
X51523142Y-108559182D03*
D27*
%TO.P,U2,12,HPI_SDA*%
%TO.N,SDA*%
X51523142Y-107540818D03*
%TO.P,U2,11,VDC_OUT*%
%TO.N,VDCOUT*%
X51876605Y-107187355D03*
%TO.P,U2,10,FLIP*%
%TO.N,Net-(U2-FLIP)*%
X52230248Y-106833711D03*
%TO.P,U2,9,FAULT*%
%TO.N,Net-(D4-K)*%
X52583711Y-106480248D03*
%TO.P,U2,8,GPIO_1*%
%TO.N,unconnected-(U2-GPIO_1-Pad8)*%
X52937355Y-106126605D03*
%TO.P,U2,7,HPI_INT*%
%TO.N,HPIINT*%
X53290818Y-105773142D03*
D28*
%TO.P,U2,6,ISNK_FINE*%
%TO.N,GND*%
X54309182Y-105773142D03*
%TO.P,U2,5,ISNK_COARSE*%
%TO.N,ICOA*%
X54662645Y-106126605D03*
%TO.P,U2,4,SAFE_PWR_EN*%
%TO.N,unconnected-(U2-SAFE_PWR_EN-Pad4)*%
X55016289Y-106480248D03*
%TO.P,U2,3,VBUS_FET_EN*%
%TO.N,VBUS_EN*%
X55369752Y-106833711D03*
%TO.P,U2,2,VBUS_MAX*%
%TO.N,VBMAX*%
X55723395Y-107187355D03*
%TO.P,U2,1,VBUS_MIN*%
%TO.N,+3V3*%
X56076858Y-107540818D03*
%TD*%
D16*
%TO.P,R16,2*%
%TO.N,Net-(U4-FB)*%
X37620000Y-114000000D03*
%TO.P,R16,1*%
%TO.N,GND*%
X36600000Y-114000000D03*
%TD*%
D29*
%TO.P,R15,1*%
%TO.N,Net-(U5-IO27)*%
X62519999Y-105270000D03*
%TO.P,R15,2*%
%TO.N,Net-(D1-A)*%
X61499999Y-105270000D03*
%TD*%
D16*
%TO.P,R12,1*%
%TO.N,GND*%
X43290000Y-114100000D03*
%TO.P,R12,2*%
%TO.N,VMon*%
X44310000Y-114100000D03*
%TD*%
%TO.P,R11,1*%
%TO.N,VMon*%
X45290000Y-114100000D03*
%TO.P,R11,2*%
%TO.N,VDCOUT*%
X46310000Y-114100000D03*
%TD*%
D24*
%TO.P,R10,1*%
%TO.N,Net-(U4-FB)*%
X38600000Y-113890000D03*
%TO.P,R10,2*%
%TO.N,+3V3*%
X38600000Y-114910000D03*
%TD*%
D29*
%TO.P,R9,1*%
%TO.N,SCL*%
X58250000Y-113600000D03*
%TO.P,R9,2*%
%TO.N,+3V3*%
X57230000Y-113600000D03*
%TD*%
D24*
%TO.P,R8,1*%
%TO.N,+3V3*%
X59420000Y-107660000D03*
%TO.P,R8,2*%
%TO.N,SDA*%
X59420000Y-108680000D03*
%TD*%
D29*
%TO.P,R7,1*%
%TO.N,HPIINT*%
X58260000Y-112570000D03*
%TO.P,R7,2*%
%TO.N,+3V3*%
X57240000Y-112570000D03*
%TD*%
D24*
%TO.P,R6,1*%
%TO.N,+3V3*%
X60490000Y-107670000D03*
%TO.P,R6,2*%
%TO.N,Net-(U5-EN)*%
X60490000Y-108690000D03*
%TD*%
D16*
%TO.P,R5,1*%
%TO.N,+3V3*%
X51130000Y-101790000D03*
%TO.P,R5,2*%
%TO.N,Net-(D4-A)*%
X52150000Y-101790000D03*
%TD*%
%TO.P,R4,2*%
%TO.N,Net-(D3-A)*%
X48370000Y-103950000D03*
%TO.P,R4,1*%
%TO.N,FETs*%
X47350000Y-103950000D03*
%TD*%
%TO.P,R3,1*%
%TO.N,Net-(D3-A)*%
X48530000Y-102900000D03*
%TO.P,R3,2*%
%TO.N,VBUS_EN*%
X49550000Y-102900000D03*
%TD*%
D29*
%TO.P,R2,1*%
%TO.N,Net-(D3-A)*%
X42960000Y-101150000D03*
%TO.P,R2,2*%
%TO.N,VBUS*%
X41940000Y-101150000D03*
%TD*%
D24*
%TO.P,R1,1*%
%TO.N,+3V3*%
X52080000Y-103220000D03*
%TO.P,R1,2*%
%TO.N,Net-(U2-FLIP)*%
X52080000Y-104240000D03*
%TD*%
D13*
%TO.P,Q1,1,G*%
%TO.N,C2*%
X67825000Y-104550000D03*
%TO.P,Q1,2,S*%
%TO.N,GND*%
X67825000Y-106450000D03*
%TO.P,Q1,3,D*%
%TO.N,Net-(J2-Pin_3)*%
X69700000Y-105500000D03*
%TD*%
D30*
%TO.P,L1,2,2*%
%TO.N,+3V3*%
X45324105Y-111200000D03*
%TO.P,L1,1,1*%
%TO.N,Net-(U4-SW)*%
X42275895Y-111200000D03*
%TD*%
D31*
%TO.P,D4,1,K*%
%TO.N,Net-(D4-K)*%
X53380000Y-103957500D03*
%TO.P,D4,2,A*%
%TO.N,Net-(D4-A)*%
X53380000Y-102382500D03*
%TD*%
D32*
%TO.P,D3,1,K*%
%TO.N,FETs*%
X47550000Y-106300000D03*
%TO.P,D3,2,A*%
%TO.N,Net-(D3-A)*%
X49650000Y-106300000D03*
%TD*%
D33*
%TO.P,D1,1,K*%
%TO.N,GND*%
X63337500Y-106560000D03*
%TO.P,D1,2,A*%
%TO.N,Net-(D1-A)*%
X61762500Y-106560000D03*
%TD*%
D34*
%TO.P,C22,1*%
%TO.N,+3V3*%
X52390000Y-111910000D03*
%TO.P,C22,2*%
%TO.N,GND*%
X52390000Y-112870000D03*
%TD*%
D35*
%TO.P,C12,1*%
%TO.N,GND*%
X48110000Y-112595000D03*
%TO.P,C12,2*%
%TO.N,+3V3*%
X48110000Y-111045000D03*
%TD*%
D34*
%TO.P,C11,1*%
%TO.N,VDCOUT*%
X43900000Y-100220000D03*
%TO.P,C11,2*%
%TO.N,Net-(D3-A)*%
X43900000Y-101180000D03*
%TD*%
D14*
%TO.P,C10,1*%
%TO.N,VBUS*%
X41940000Y-100150000D03*
%TO.P,C10,2*%
%TO.N,Net-(D3-A)*%
X42900000Y-100150000D03*
%TD*%
D35*
%TO.P,C9,1*%
%TO.N,GND*%
X49620000Y-112595000D03*
%TO.P,C9,2*%
%TO.N,+3V3*%
X49620000Y-111045000D03*
%TD*%
D14*
%TO.P,C8,1*%
%TO.N,Net-(U4-BOOT)*%
X41320000Y-114100000D03*
%TO.P,C8,2*%
%TO.N,Net-(U4-SW)*%
X42280000Y-114100000D03*
%TD*%
%TO.P,C6,2*%
%TO.N,GND*%
X58230000Y-111550000D03*
%TO.P,C6,1*%
%TO.N,+3V3*%
X57270000Y-111550000D03*
%TD*%
%TO.P,C5,1*%
%TO.N,+3V3*%
X57270000Y-109600000D03*
%TO.P,C5,2*%
%TO.N,GND*%
X58230000Y-109600000D03*
%TD*%
%TO.P,C4,1*%
%TO.N,+3V3*%
X57270000Y-110600000D03*
%TO.P,C4,2*%
%TO.N,GND*%
X58230000Y-110600000D03*
%TD*%
D35*
%TO.P,C3,1*%
%TO.N,GND*%
X51143310Y-112584999D03*
%TO.P,C3,2*%
%TO.N,+3V3*%
X51143310Y-111034999D03*
%TD*%
%TO.P,C2,1*%
%TO.N,GND*%
X37000000Y-111675000D03*
%TO.P,C2,2*%
%TO.N,VBUS*%
X37000000Y-110125000D03*
%TD*%
D36*
%TO.P,C1,1*%
%TO.N,GND*%
X62440000Y-108640000D03*
%TO.P,C1,2*%
%TO.N,Net-(U5-EN)*%
X61480000Y-108640000D03*
%TD*%
D37*
%TO.N,GND*%
X33500000Y-113000000D03*
X34500000Y-113000000D03*
X33500000Y-101000000D03*
X34500000Y-101000000D03*
%TO.N,VMon*%
X43950000Y-112695000D03*
%TO.N,VDCOUT*%
X47600000Y-114400000D03*
%TO.N,C1*%
X63700000Y-108600000D03*
%TO.N,C2*%
X62900000Y-101600000D03*
D38*
%TO.N,Net-(U5-EN)*%
X42200000Y-115000000D03*
D37*
%TO.N,VDCOUT*%
X40000000Y-101500000D03*
X40000000Y-100500000D03*
X38000000Y-103500000D03*
X38000000Y-101500000D03*
%TO.N,C2*%
X68000000Y-105500000D03*
%TO.N,C1*%
X68000000Y-111500000D03*
%TO.N,+3V3*%
X64500000Y-113000000D03*
%TO.N,VDCOUT*%
X39000000Y-101500000D03*
X38000000Y-102500000D03*
X38000000Y-100500000D03*
X37000000Y-101500000D03*
X37000000Y-103500000D03*
X37000000Y-102500000D03*
X39000000Y-100500000D03*
X37000000Y-100500000D03*
%TO.N,GND*%
X33500000Y-115000000D03*
X34500000Y-115000000D03*
X34500000Y-114000000D03*
X33500000Y-114000000D03*
X34500000Y-99000000D03*
X33500000Y-99000000D03*
X34500000Y-100000000D03*
X33500000Y-100000000D03*
X79500000Y-101700000D03*
X79500000Y-103500000D03*
X79500000Y-102600000D03*
X79500000Y-100800000D03*
X79500000Y-113300000D03*
X79500000Y-114200000D03*
X79500000Y-115100000D03*
X79500000Y-116000000D03*
%TO.N,Net-(U5-EN)*%
X62960000Y-111630000D03*
%TO.N,Net-(U5-IO0)*%
X63600000Y-102500000D03*
%TO.N,Net-(U5-IO27)*%
X47590000Y-101740000D03*
X63590000Y-105190000D03*
%TO.N,+3V3*%
X56300000Y-112600000D03*
X59260000Y-106540000D03*
X57310000Y-101680000D03*
%TO.N,VBUS_EN*%
X57260000Y-104940000D03*
%TO.N,HPIINT*%
X59550000Y-112200000D03*
X54550000Y-104450000D03*
%TO.N,+3V3*%
X50140000Y-101300000D03*
%TO.N,VDCOUT*%
X50550000Y-102920000D03*
%TO.N,SDA*%
X50330000Y-104130000D03*
%TO.N,SCL*%
X50300000Y-105180000D03*
%TO.N,VBUS_EN*%
X49000000Y-101750000D03*
%TO.N,SDA*%
X59750000Y-110250000D03*
%TO.N,SCL*%
X59400000Y-114050000D03*
%TO.N,CC1*%
X47650000Y-107850000D03*
%TO.N,+3V3*%
X39800000Y-114100000D03*
X46700000Y-112800000D03*
X46700000Y-111200000D03*
X46700000Y-109500000D03*
%TO.N,CC1*%
X36400000Y-107600000D03*
%TD*%
D39*
%TO.N,GND*%
X35329515Y-109749936D02*
X35329515Y-110454965D01*
X35329515Y-110454965D02*
X34194564Y-111589916D01*
X35329515Y-104250064D02*
X35329515Y-103545035D01*
X35329515Y-103545035D02*
X34194564Y-102410084D01*
%TO.N,VBUS*%
X36104521Y-105600000D02*
X36104521Y-105750064D01*
X37150000Y-107950000D02*
X37150000Y-105850000D01*
X37150000Y-105850000D02*
X36900000Y-105600000D01*
X36750000Y-108350000D02*
X37150000Y-107950000D01*
X36089339Y-108350000D02*
X36750000Y-108350000D01*
X35989403Y-108250064D02*
X36089339Y-108350000D01*
X36104521Y-105750064D02*
X35800000Y-105750064D01*
X36900000Y-105600000D02*
X36104521Y-105600000D01*
D40*
%TO.N,GND*%
X33694514Y-110574930D02*
X33694514Y-110025019D01*
X33519559Y-109850064D02*
X33419431Y-109850064D01*
X33694514Y-110025019D02*
X33519559Y-109850064D01*
D39*
X33419431Y-109749936D02*
X35329515Y-109749936D01*
D41*
%TO.N,VDCOUT*%
X46310000Y-114100000D02*
X47300000Y-114100000D01*
X47300000Y-114100000D02*
X47600000Y-114400000D01*
%TO.N,VMon*%
X44310000Y-114100000D02*
X45290000Y-114100000D01*
X44310000Y-114100000D02*
X44310000Y-113055000D01*
X44310000Y-113055000D02*
X43950000Y-112695000D01*
D40*
%TO.N,+3V3*%
X56300000Y-112600000D02*
X57210000Y-112600000D01*
X57210000Y-112600000D02*
X57240000Y-112570000D01*
D41*
%TO.N,Net-(U5-IO0)*%
X62164457Y-103315543D02*
X62784457Y-103315543D01*
X62784457Y-103315543D02*
X63600000Y-102500000D01*
%TO.N,VDCOUT*%
X43900000Y-100220000D02*
X43900000Y-100217746D01*
X43900000Y-100217746D02*
X43222254Y-99540000D01*
X40960000Y-99540000D02*
X40000000Y-100500000D01*
X43222254Y-99540000D02*
X40960000Y-99540000D01*
D40*
%TO.N,GND*%
X34194564Y-102410084D02*
X34194564Y-104044500D01*
X34194564Y-104044500D02*
X34300000Y-104149936D01*
D39*
X33419431Y-104250064D02*
X35329515Y-104250064D01*
D41*
%TO.N,Net-(D3-A)*%
X48530000Y-102900000D02*
X47320000Y-102900000D01*
X47320000Y-102900000D02*
X47014996Y-102594996D01*
X48370000Y-103950000D02*
X48370000Y-103060000D01*
X48370000Y-103060000D02*
X48530000Y-102900000D01*
%TO.N,Net-(U4-SW)*%
X42280000Y-114100000D02*
X42275895Y-114095895D01*
X42275895Y-114095895D02*
X42275895Y-111200000D01*
%TO.N,C1*%
X68000000Y-111500000D02*
X68000000Y-110687500D01*
X68000000Y-110687500D02*
X67962500Y-110650000D01*
%TO.N,C2*%
X67975000Y-105475000D02*
X68000000Y-105500000D01*
X67975000Y-104550000D02*
X67975000Y-105475000D01*
%TO.N,Net-(JP1-A)*%
X59230000Y-103540000D02*
X59230000Y-102240000D01*
X59230000Y-102240000D02*
X59440000Y-102030000D01*
X58430000Y-102030000D02*
X59440000Y-102030000D01*
%TO.N,Net-(JP2-A)*%
X55060000Y-100170000D02*
X55060000Y-101250000D01*
X55060000Y-101250000D02*
X55470000Y-101660000D01*
%TO.N,SCL*%
X59400000Y-113890000D02*
X59080000Y-113570000D01*
X59400000Y-114050000D02*
X59400000Y-113890000D01*
X59080000Y-113570000D02*
X58280000Y-113570000D01*
%TO.N,HPIINT*%
X59550000Y-112200000D02*
X58630000Y-112200000D01*
X58630000Y-112200000D02*
X58260000Y-112570000D01*
%TO.N,+3V3*%
X57270000Y-113640000D02*
X57270000Y-111550000D01*
%TO.N,SDA*%
X59750000Y-110250000D02*
X59750000Y-109010000D01*
X59750000Y-109010000D02*
X59420000Y-108680000D01*
%TO.N,+3V3*%
X59420000Y-107660000D02*
X59420000Y-106700000D01*
X59420000Y-106700000D02*
X59260000Y-106540000D01*
X60490000Y-107670000D02*
X59430000Y-107670000D01*
X59430000Y-107670000D02*
X59420000Y-107660000D01*
%TO.N,Net-(U5-EN)*%
X62164457Y-109860000D02*
X62164457Y-110834457D01*
X62164457Y-110834457D02*
X62960000Y-111630000D01*
X61480000Y-108640000D02*
X61480000Y-109175543D01*
X61480000Y-109175543D02*
X62164457Y-109860000D01*
X60490000Y-108690000D02*
X61430000Y-108690000D01*
X61430000Y-108690000D02*
X61480000Y-108640000D01*
%TO.N,Net-(U5-IO0)*%
X62164457Y-103980000D02*
X62164457Y-103315543D01*
%TO.N,Net-(U5-IO27)*%
X63510000Y-105270000D02*
X63590000Y-105190000D01*
X62519999Y-105270000D02*
X63510000Y-105270000D01*
%TO.N,Net-(D1-A)*%
X61762500Y-106560000D02*
X61762500Y-105532501D01*
X61762500Y-105532501D02*
X61499999Y-105270000D01*
D40*
%TO.N,+3V3*%
X51143310Y-111034999D02*
X51514999Y-111034999D01*
X51514999Y-111034999D02*
X52390000Y-111910000D01*
X48110000Y-111045000D02*
X51133309Y-111045000D01*
X51133309Y-111045000D02*
X51143310Y-111034999D01*
D41*
X46860000Y-111040000D02*
X46700000Y-111200000D01*
%TO.N,VBMAX*%
X55723395Y-107187355D02*
X56380750Y-106530000D01*
X56380750Y-106530000D02*
X57120000Y-106530000D01*
%TO.N,+3V3*%
X46710000Y-112790000D02*
X46700000Y-112800000D01*
X57270000Y-109600000D02*
X57270000Y-111550000D01*
X57270000Y-109600000D02*
X56410750Y-109600000D01*
X56410750Y-109600000D02*
X55723395Y-108912645D01*
%TO.N,Net-(U2-VCCD)*%
X57280000Y-108610000D02*
X56127676Y-108610000D01*
X56127676Y-108610000D02*
X56076858Y-108559182D01*
%TO.N,GND*%
X55369752Y-109266289D02*
X54153463Y-108050000D01*
X54153463Y-108050000D02*
X53800000Y-108050000D01*
X54309182Y-110326858D02*
X53800000Y-109817676D01*
X53800000Y-109817676D02*
X53800000Y-108050000D01*
%TO.N,+3V3*%
X59250000Y-106530000D02*
X59260000Y-106540000D01*
X58140000Y-106530000D02*
X59250000Y-106530000D01*
X56076858Y-107540818D02*
X57044365Y-107540818D01*
X57044365Y-107540818D02*
X58055183Y-106530000D01*
X58055183Y-106530000D02*
X58140000Y-106530000D01*
X57270000Y-101720000D02*
X57310000Y-101680000D01*
X57270000Y-102820000D02*
X57270000Y-101720000D01*
%TO.N,ICOA*%
X55470000Y-102960000D02*
X56350000Y-103840000D01*
X56350000Y-103840000D02*
X57270000Y-103840000D01*
%TO.N,HPIINT*%
X54550000Y-104450000D02*
X54250000Y-104450000D01*
X54250000Y-104450000D02*
X53290818Y-105409182D01*
%TO.N,ICOA*%
X56670000Y-104119250D02*
X56990750Y-104119250D01*
X56990750Y-104119250D02*
X57270000Y-103840000D01*
X54662645Y-106126605D02*
X56670000Y-104119250D01*
%TO.N,VBMAX*%
X57120000Y-106530000D02*
X58810000Y-104840000D01*
X58810000Y-104840000D02*
X59230000Y-104840000D01*
%TO.N,VBUS_EN*%
X55650400Y-106553063D02*
X55650400Y-106549600D01*
X55650400Y-106549600D02*
X57260000Y-104940000D01*
X55369752Y-106833711D02*
X55650400Y-106553063D01*
%TO.N,HPIINT*%
X53290818Y-105773142D02*
X53290818Y-105409182D01*
%TO.N,+3V3*%
X50630000Y-101790000D02*
X50140000Y-101300000D01*
X51130000Y-101790000D02*
X50630000Y-101790000D01*
X52080000Y-103220000D02*
X52080000Y-102740000D01*
X52080000Y-102740000D02*
X51130000Y-101790000D01*
%TO.N,Net-(D4-A)*%
X53380000Y-102382500D02*
X52742500Y-102382500D01*
X52742500Y-102382500D02*
X52150000Y-101790000D01*
%TO.N,Net-(D4-K)*%
X52583711Y-106480248D02*
X52200000Y-106096537D01*
X52200000Y-106096537D02*
X52200000Y-105137500D01*
X52200000Y-105137500D02*
X53380000Y-103957500D01*
%TO.N,Net-(U2-FLIP)*%
X52230248Y-106833711D02*
X51800000Y-106403463D01*
X51800000Y-106403463D02*
X51800000Y-104520000D01*
X51800000Y-104520000D02*
X52080000Y-104240000D01*
%TO.N,VDCOUT*%
X51290000Y-103660000D02*
X50550000Y-102920000D01*
X51400000Y-106710750D02*
X51400000Y-103770000D01*
X51876605Y-107187355D02*
X51400000Y-106710750D01*
X51400000Y-103770000D02*
X51290000Y-103660000D01*
%TO.N,SDA*%
X51000000Y-104800000D02*
X50330000Y-104130000D01*
X51000000Y-107017676D02*
X51000000Y-104800000D01*
X51523142Y-107540818D02*
X51000000Y-107017676D01*
%TO.N,SCL*%
X50300000Y-107336040D02*
X50300000Y-105180000D01*
X51523142Y-108559182D02*
X50300000Y-107336040D01*
%TO.N,VBUS*%
X38650000Y-110225000D02*
X38650000Y-109836154D01*
X38650000Y-109836154D02*
X39923654Y-108562500D01*
X39923654Y-108562500D02*
X48862500Y-108562500D01*
X51900000Y-110000000D02*
X52507506Y-110607506D01*
X50300000Y-110000000D02*
X51900000Y-110000000D01*
X53010170Y-110607506D02*
X53290818Y-110326858D01*
X48862500Y-108562500D02*
X50300000Y-110000000D01*
X52507506Y-110607506D02*
X53010170Y-110607506D01*
%TO.N,CC1*%
X47650000Y-107850000D02*
X49000000Y-107850000D01*
X49000000Y-107850000D02*
X50696756Y-109546756D01*
X50696756Y-109546756D02*
X51949781Y-109546756D01*
X51949781Y-109546756D02*
X52230248Y-109266289D01*
%TO.N,VBUS_EN*%
X49000000Y-101750000D02*
X49000000Y-102350000D01*
X49000000Y-102350000D02*
X49550000Y-102900000D01*
%TO.N,Net-(D3-A)*%
X44344996Y-102594996D02*
X43800000Y-102050000D01*
X45499009Y-102594996D02*
X44344996Y-102594996D01*
X43800000Y-102050000D02*
X43800000Y-101280000D01*
X43800000Y-101280000D02*
X43900000Y-101180000D01*
X43900000Y-101180000D02*
X42990000Y-101180000D01*
X42990000Y-101180000D02*
X42960000Y-101150000D01*
X42900000Y-100150000D02*
X42900000Y-101090000D01*
X42900000Y-101090000D02*
X42960000Y-101150000D01*
%TO.N,VBUS*%
X41940000Y-100150000D02*
X41940000Y-101150000D01*
X40100991Y-105135001D02*
X40758002Y-105135001D01*
X41940000Y-103953003D02*
X41940000Y-101150000D01*
X40758002Y-105135001D02*
X41940000Y-103953003D01*
%TO.N,Net-(D3-A)*%
X49150000Y-106300000D02*
X48500000Y-105650000D01*
X49650000Y-106300000D02*
X49150000Y-106300000D01*
X48500000Y-105650000D02*
X48500000Y-104080000D01*
X48500000Y-104080000D02*
X48370000Y-103950000D01*
%TO.N,FETs*%
X45499009Y-106405004D02*
X47444996Y-106405004D01*
X47444996Y-106405004D02*
X47550000Y-106300000D01*
%TO.N,Net-(D3-A)*%
X47014996Y-102594996D02*
X45499009Y-102594996D01*
X45499009Y-105135001D02*
X47184999Y-105135001D01*
X47184999Y-105135001D02*
X48370000Y-103950000D01*
%TO.N,FETs*%
X45499009Y-103864999D02*
X47264999Y-103864999D01*
X47264999Y-103864999D02*
X47350000Y-103950000D01*
%TO.N,Net-(U4-BOOT)*%
X40550000Y-112500000D02*
X40550000Y-113330000D01*
X40550000Y-113330000D02*
X41320000Y-114100000D01*
%TO.N,+3V3*%
X38990000Y-114910000D02*
X39800000Y-114100000D01*
X38600000Y-114910000D02*
X38990000Y-114910000D01*
%TO.N,Net-(U4-FB)*%
X38600000Y-113890000D02*
X37730000Y-113890000D01*
X37730000Y-113890000D02*
X37620000Y-114000000D01*
X38650000Y-112500000D02*
X38650000Y-113840000D01*
X38650000Y-113840000D02*
X38600000Y-113890000D01*
D40*
%TO.N,GND*%
X40550000Y-110225000D02*
X40550000Y-110786028D01*
X37287500Y-111387500D02*
X37000000Y-111675000D01*
X40550000Y-110786028D02*
X39948528Y-111387500D01*
X39948528Y-111387500D02*
X37287500Y-111387500D01*
%TO.N,Net-(U4-SW)*%
X39600000Y-110225000D02*
X39600000Y-109663972D01*
X39600000Y-109663972D02*
X40151472Y-109112500D01*
X42275895Y-110175895D02*
X42275895Y-111200000D01*
X40151472Y-109112500D02*
X41212500Y-109112500D01*
X41212500Y-109112500D02*
X42275895Y-110175895D01*
D39*
%TO.N,VBUS*%
X35329515Y-108250064D02*
X35989403Y-108250064D01*
D41*
%TO.N,CC1*%
X35329515Y-107749936D02*
X36250064Y-107749936D01*
X36250064Y-107749936D02*
X36400000Y-107600000D01*
D39*
%TO.N,VBUS*%
X33419431Y-108250064D02*
X35329515Y-108250064D01*
X33419431Y-105749936D02*
X35329515Y-105749936D01*
%TD*%
%TA.AperFunction,Conductor*%
%TO.N,GND*%
G36*
X79948297Y-96100385D02*
G01*
X79948864Y-96100499D01*
X79995934Y-96100499D01*
X80004041Y-96100763D01*
X80083585Y-96105977D01*
X80083766Y-96105990D01*
X80261586Y-96118708D01*
X80276903Y-96120771D01*
X80388377Y-96142944D01*
X80390436Y-96143373D01*
X80530239Y-96173785D01*
X80543702Y-96177521D01*
X80657724Y-96216227D01*
X80661073Y-96217419D01*
X80788814Y-96265064D01*
X80800302Y-96270025D01*
X80865051Y-96301955D01*
X80910628Y-96324431D01*
X80915211Y-96326811D01*
X81032484Y-96390847D01*
X81041948Y-96396577D01*
X81145245Y-96465598D01*
X81150663Y-96469432D01*
X81219531Y-96520985D01*
X81256736Y-96548836D01*
X81264156Y-96554852D01*
X81356836Y-96636130D01*
X81357975Y-96637129D01*
X81363896Y-96642675D01*
X81421083Y-96699862D01*
X81452422Y-96752755D01*
X81454503Y-96814199D01*
X81426814Y-96869091D01*
X81376163Y-96903937D01*
X81315000Y-96910170D01*
X81258360Y-96886258D01*
X81128617Y-96787630D01*
X80965461Y-96712146D01*
X80789887Y-96673500D01*
X80655184Y-96673500D01*
X80655183Y-96673500D01*
X80521279Y-96688062D01*
X80350915Y-96745464D01*
X80196873Y-96838148D01*
X80066358Y-96961779D01*
X79965469Y-97110578D01*
X79898929Y-97277585D01*
X79869845Y-97454988D01*
X79879577Y-97634500D01*
X79904172Y-97723080D01*
X79927673Y-97807723D01*
X79969776Y-97887139D01*
X80011881Y-97966557D01*
X80128265Y-98103574D01*
X80271382Y-98212369D01*
X80434538Y-98287853D01*
X80434539Y-98287853D01*
X80434541Y-98287854D01*
X80610113Y-98326500D01*
X80744816Y-98326500D01*
X80744817Y-98326500D01*
X80811768Y-98319218D01*
X80878721Y-98311937D01*
X81049085Y-98254535D01*
X81203126Y-98161851D01*
X81333642Y-98038220D01*
X81434529Y-97889423D01*
X81501070Y-97722416D01*
X81530155Y-97545010D01*
X81520422Y-97365499D01*
X81472327Y-97192277D01*
X81415363Y-97084831D01*
X81394235Y-97044979D01*
X81379798Y-96985624D01*
X81395450Y-96926579D01*
X81437395Y-96882171D01*
X81495453Y-96863178D01*
X81555534Y-96874209D01*
X81603058Y-96912587D01*
X81630558Y-96949323D01*
X81634393Y-96954743D01*
X81703420Y-97058050D01*
X81709150Y-97067513D01*
X81773190Y-97184793D01*
X81775570Y-97189376D01*
X81829965Y-97299678D01*
X81834935Y-97311188D01*
X81882567Y-97438893D01*
X81883804Y-97442368D01*
X81922468Y-97556268D01*
X81926215Y-97569769D01*
X81956625Y-97709562D01*
X81957076Y-97711728D01*
X81979224Y-97823071D01*
X81981291Y-97838418D01*
X81994007Y-98016223D01*
X81994057Y-98016956D01*
X81999234Y-98095925D01*
X81999500Y-98104037D01*
X81999500Y-115895947D01*
X81999234Y-115904058D01*
X81994045Y-115983217D01*
X81993995Y-115983952D01*
X81981291Y-116161573D01*
X81979224Y-116176918D01*
X81957064Y-116288323D01*
X81956613Y-116290490D01*
X81926217Y-116430221D01*
X81922470Y-116443722D01*
X81883793Y-116557660D01*
X81882556Y-116561135D01*
X81834938Y-116688802D01*
X81829969Y-116700311D01*
X81775564Y-116810635D01*
X81773183Y-116815219D01*
X81709154Y-116932478D01*
X81703424Y-116941942D01*
X81634381Y-117045272D01*
X81630546Y-117050691D01*
X81551185Y-117156706D01*
X81545146Y-117164155D01*
X81462860Y-117257984D01*
X81457313Y-117263906D01*
X81363906Y-117357313D01*
X81357984Y-117362860D01*
X81264155Y-117445146D01*
X81256706Y-117451185D01*
X81150691Y-117530546D01*
X81145272Y-117534381D01*
X81041942Y-117603424D01*
X81032478Y-117609154D01*
X80915219Y-117673183D01*
X80910635Y-117675564D01*
X80800311Y-117729969D01*
X80788802Y-117734938D01*
X80661135Y-117782556D01*
X80657660Y-117783793D01*
X80543722Y-117822470D01*
X80530221Y-117826217D01*
X80390490Y-117856613D01*
X80388323Y-117857064D01*
X80276918Y-117879224D01*
X80261573Y-117881291D01*
X80083952Y-117893995D01*
X80083217Y-117894045D01*
X80004058Y-117899234D01*
X79995947Y-117899500D01*
X76824000Y-117899500D01*
X76762000Y-117882887D01*
X76716613Y-117837500D01*
X76710797Y-117815797D01*
X76700000Y-117805000D01*
X33999786Y-117805000D01*
X33959928Y-117798420D01*
X33946255Y-117793779D01*
X33916783Y-117783774D01*
X33913317Y-117782539D01*
X33785699Y-117734939D01*
X33774189Y-117729970D01*
X33663840Y-117675552D01*
X33659257Y-117673172D01*
X33542032Y-117609162D01*
X33532568Y-117603432D01*
X33429202Y-117534365D01*
X33423783Y-117530530D01*
X33317804Y-117451195D01*
X33310355Y-117445156D01*
X33216497Y-117362845D01*
X33210575Y-117357298D01*
X33117196Y-117263919D01*
X33111649Y-117257997D01*
X33111638Y-117257984D01*
X33029332Y-117164132D01*
X33023316Y-117156712D01*
X32943950Y-117050691D01*
X32940148Y-117045319D01*
X32871053Y-116941911D01*
X32865335Y-116932466D01*
X32801335Y-116815259D01*
X32798964Y-116810692D01*
X32787130Y-116786696D01*
X32744512Y-116700274D01*
X32739558Y-116688802D01*
X32691932Y-116561111D01*
X32690776Y-116557865D01*
X32689799Y-116554988D01*
X33369845Y-116554988D01*
X33379577Y-116734500D01*
X33414319Y-116859626D01*
X33427673Y-116907723D01*
X33445803Y-116941920D01*
X33511881Y-117066557D01*
X33628265Y-117203574D01*
X33771382Y-117312369D01*
X33934538Y-117387853D01*
X33934539Y-117387853D01*
X33934541Y-117387854D01*
X34110113Y-117426500D01*
X34244816Y-117426500D01*
X34244817Y-117426500D01*
X34311768Y-117419218D01*
X34378721Y-117411937D01*
X34549085Y-117354535D01*
X34703126Y-117261851D01*
X34833642Y-117138220D01*
X34934529Y-116989423D01*
X35001070Y-116822416D01*
X35030155Y-116645010D01*
X35020422Y-116465499D01*
X34972327Y-116292277D01*
X34888119Y-116133444D01*
X34888118Y-116133442D01*
X34771734Y-115996425D01*
X34628617Y-115887630D01*
X34465461Y-115812146D01*
X34289887Y-115773500D01*
X34155184Y-115773500D01*
X34155183Y-115773500D01*
X34021279Y-115788062D01*
X33850915Y-115845464D01*
X33696873Y-115938148D01*
X33566358Y-116061779D01*
X33465469Y-116210578D01*
X33398929Y-116377585D01*
X33369845Y-116554988D01*
X32689799Y-116554988D01*
X32652014Y-116443677D01*
X32648276Y-116430204D01*
X32617908Y-116290601D01*
X32617457Y-116288436D01*
X32601970Y-116210578D01*
X32595269Y-116176889D01*
X32593205Y-116161569D01*
X32580528Y-115984315D01*
X32580492Y-115983802D01*
X32575262Y-115904007D01*
X32574998Y-115895908D01*
X32574998Y-111444518D01*
X32593892Y-111378725D01*
X32644816Y-111332982D01*
X32712252Y-111321228D01*
X32746689Y-111324930D01*
X33444514Y-111324930D01*
X33444514Y-110824930D01*
X33944514Y-110824930D01*
X33944514Y-111324930D01*
X34642338Y-111324930D01*
X34701889Y-111318527D01*
X34836603Y-111268282D01*
X34951702Y-111182118D01*
X35037866Y-111067019D01*
X35088111Y-110932305D01*
X35094514Y-110872754D01*
X35094514Y-110824930D01*
X33944514Y-110824930D01*
X33444514Y-110824930D01*
X33444514Y-110448930D01*
X33461127Y-110386930D01*
X33506514Y-110341543D01*
X33568514Y-110324930D01*
X35010514Y-110324930D01*
X35072514Y-110341543D01*
X35096391Y-110365420D01*
X35098195Y-110363617D01*
X35134514Y-110399936D01*
X35179515Y-110399936D01*
X35179515Y-109899936D01*
X33393431Y-109899936D01*
X33331431Y-109883323D01*
X33286044Y-109837936D01*
X33269431Y-109775936D01*
X33269431Y-109724564D01*
X33286044Y-109662564D01*
X33331431Y-109617177D01*
X33393431Y-109600564D01*
X34073182Y-109600564D01*
X34079557Y-109599936D01*
X34869389Y-109599936D01*
X34875764Y-109600564D01*
X35355515Y-109600564D01*
X35417515Y-109617177D01*
X35462902Y-109662564D01*
X35479515Y-109724564D01*
X35479515Y-110399936D01*
X35770500Y-110399936D01*
X35832500Y-110416549D01*
X35877887Y-110461936D01*
X35894500Y-110523936D01*
X35894500Y-110776001D01*
X35901501Y-110829186D01*
X35918116Y-110891192D01*
X35937540Y-110938083D01*
X35938645Y-110940750D01*
X35971303Y-110983310D01*
X35971307Y-110983315D01*
X36016684Y-111028692D01*
X36016688Y-111028695D01*
X36016690Y-111028697D01*
X36059250Y-111061355D01*
X36108812Y-111081885D01*
X36170812Y-111098498D01*
X36197405Y-111101998D01*
X36223999Y-111105500D01*
X36224000Y-111105500D01*
X38975500Y-111105500D01*
X38975501Y-111105500D01*
X38998843Y-111102427D01*
X39028688Y-111098498D01*
X39090688Y-111081885D01*
X39140250Y-111061355D01*
X39147086Y-111056108D01*
X39210204Y-111031102D01*
X39277033Y-111043083D01*
X39282847Y-111045925D01*
X39348607Y-111078073D01*
X39374757Y-111081883D01*
X39416737Y-111088000D01*
X39781394Y-111088000D01*
X39842832Y-111104290D01*
X39869085Y-111130134D01*
X39871240Y-111127980D01*
X39998442Y-111255182D01*
X40139799Y-111338780D01*
X40297511Y-111384599D01*
X40299999Y-111384795D01*
X40300000Y-111384795D01*
X40300000Y-110099000D01*
X40316613Y-110037000D01*
X40362000Y-109991613D01*
X40424000Y-109975000D01*
X40676000Y-109975000D01*
X40738000Y-109991613D01*
X40783387Y-110037000D01*
X40800000Y-110099000D01*
X40800000Y-111384795D01*
X40802488Y-111384599D01*
X40960200Y-111338780D01*
X41101557Y-111255182D01*
X41217680Y-111139059D01*
X41218255Y-111138088D01*
X41250027Y-111102427D01*
X41284006Y-111085784D01*
X41283680Y-111084995D01*
X41303943Y-111076602D01*
X41363550Y-111067760D01*
X41420286Y-111088061D01*
X41460753Y-111132710D01*
X41475395Y-111191163D01*
X41475395Y-113219749D01*
X41487027Y-113278230D01*
X41531342Y-113344552D01*
X41558051Y-113362398D01*
X41599645Y-113409206D01*
X41606130Y-113438768D01*
X41625639Y-113418211D01*
X41689504Y-113400500D01*
X41851395Y-113400500D01*
X41913395Y-113417113D01*
X41958782Y-113462500D01*
X41975395Y-113524500D01*
X41975395Y-113561703D01*
X41965956Y-113609156D01*
X41939075Y-113649385D01*
X41887680Y-113700779D01*
X41832093Y-113732872D01*
X41767906Y-113732872D01*
X41712319Y-113700778D01*
X41658317Y-113646776D01*
X41637099Y-113636882D01*
X41586703Y-113593840D01*
X41572607Y-113551711D01*
X41549749Y-113573690D01*
X41489160Y-113589500D01*
X41285834Y-113589500D01*
X41238381Y-113580061D01*
X41198153Y-113553181D01*
X41010678Y-113365706D01*
X40982842Y-113323100D01*
X40974465Y-113272901D01*
X40986958Y-113223565D01*
X40995700Y-113205682D01*
X41040573Y-113113893D01*
X41048228Y-113061355D01*
X41050500Y-113045763D01*
X41050500Y-111954237D01*
X41042183Y-111897159D01*
X41040573Y-111886107D01*
X40989198Y-111781017D01*
X40989197Y-111781016D01*
X40989197Y-111781015D01*
X40906484Y-111698302D01*
X40848013Y-111669718D01*
X40801393Y-111646927D01*
X40801391Y-111646926D01*
X40801390Y-111646926D01*
X40733263Y-111637000D01*
X40733260Y-111637000D01*
X40366740Y-111637000D01*
X40366737Y-111637000D01*
X40298609Y-111646926D01*
X40193515Y-111698302D01*
X40162681Y-111729137D01*
X40107094Y-111761231D01*
X40042906Y-111761231D01*
X39987319Y-111729137D01*
X39956484Y-111698302D01*
X39898013Y-111669718D01*
X39851393Y-111646927D01*
X39851391Y-111646926D01*
X39851390Y-111646926D01*
X39783263Y-111637000D01*
X39783260Y-111637000D01*
X39416740Y-111637000D01*
X39416737Y-111637000D01*
X39348609Y-111646926D01*
X39243515Y-111698302D01*
X39212681Y-111729137D01*
X39157094Y-111761231D01*
X39092906Y-111761231D01*
X39037319Y-111729137D01*
X39006484Y-111698302D01*
X38948013Y-111669718D01*
X38901393Y-111646927D01*
X38901391Y-111646926D01*
X38901390Y-111646926D01*
X38833263Y-111637000D01*
X38833260Y-111637000D01*
X38466740Y-111637000D01*
X38466737Y-111637000D01*
X38398609Y-111646926D01*
X38293515Y-111698302D01*
X38210802Y-111781015D01*
X38159426Y-111886109D01*
X38149500Y-111954237D01*
X38149500Y-113045763D01*
X38159426Y-113113890D01*
X38159426Y-113113891D01*
X38159427Y-113113893D01*
X38169175Y-113133832D01*
X38210802Y-113218984D01*
X38263613Y-113271795D01*
X38294193Y-113322188D01*
X38298048Y-113381007D01*
X38274309Y-113434961D01*
X38228339Y-113471857D01*
X38219595Y-113475934D01*
X38142681Y-113552849D01*
X38087094Y-113584943D01*
X38022906Y-113584943D01*
X37967319Y-113552849D01*
X37950405Y-113535935D01*
X37843172Y-113485931D01*
X37794317Y-113479500D01*
X37794316Y-113479500D01*
X37445684Y-113479500D01*
X37445683Y-113479500D01*
X37396827Y-113485931D01*
X37289594Y-113535935D01*
X37205935Y-113619594D01*
X37155931Y-113726827D01*
X37149500Y-113775683D01*
X37149500Y-114224317D01*
X37155931Y-114273172D01*
X37205935Y-114380405D01*
X37289594Y-114464064D01*
X37289595Y-114464064D01*
X37289596Y-114464065D01*
X37305506Y-114471484D01*
X37396827Y-114514068D01*
X37445683Y-114520500D01*
X37445684Y-114520500D01*
X37794316Y-114520500D01*
X37794317Y-114520500D01*
X37810601Y-114518356D01*
X37843173Y-114514068D01*
X37947560Y-114465390D01*
X38006454Y-114453943D01*
X38063829Y-114471484D01*
X38106253Y-114513907D01*
X38123795Y-114571282D01*
X38112348Y-114630176D01*
X38085931Y-114686827D01*
X38079500Y-114735683D01*
X38079500Y-115084317D01*
X38085931Y-115133172D01*
X38135935Y-115240405D01*
X38219594Y-115324064D01*
X38326827Y-115374068D01*
X38375683Y-115380500D01*
X38375684Y-115380500D01*
X38824316Y-115380500D01*
X38824317Y-115380500D01*
X38848744Y-115377284D01*
X38873173Y-115374068D01*
X38980404Y-115324065D01*
X39064065Y-115240404D01*
X39064066Y-115240400D01*
X39064872Y-115239595D01*
X39083067Y-115211905D01*
X39110493Y-115188832D01*
X39123139Y-115181002D01*
X39138325Y-115172996D01*
X39162765Y-115162206D01*
X39167659Y-115157311D01*
X39190063Y-115139564D01*
X39195952Y-115135919D01*
X39212053Y-115114595D01*
X39223313Y-115101656D01*
X39597073Y-114727896D01*
X39644894Y-114698160D01*
X39700936Y-114692640D01*
X39800000Y-114705682D01*
X39956762Y-114685044D01*
X40102841Y-114624536D01*
X40228282Y-114528282D01*
X40324536Y-114402841D01*
X40385044Y-114256762D01*
X40405682Y-114100000D01*
X40385044Y-113943238D01*
X40373836Y-113916181D01*
X40365925Y-113849334D01*
X40394107Y-113788200D01*
X40450080Y-113750800D01*
X40517345Y-113748157D01*
X40576079Y-113781050D01*
X40803181Y-114008152D01*
X40830061Y-114048380D01*
X40839500Y-114095832D01*
X40839500Y-114309897D01*
X40846028Y-114359488D01*
X40896776Y-114468317D01*
X40981683Y-114553224D01*
X41090512Y-114603972D01*
X41098029Y-114604961D01*
X41140099Y-114610500D01*
X41499900Y-114610499D01*
X41549487Y-114603972D01*
X41601713Y-114579618D01*
X41660408Y-114568161D01*
X41717642Y-114585510D01*
X41760099Y-114627631D01*
X41777902Y-114684725D01*
X41766910Y-114743512D01*
X41714835Y-114857540D01*
X41694353Y-115000000D01*
X41714834Y-115142457D01*
X41774623Y-115273374D01*
X41861875Y-115374068D01*
X41868872Y-115382143D01*
X41989947Y-115459953D01*
X42128039Y-115500500D01*
X42271961Y-115500500D01*
X42410053Y-115459953D01*
X42531128Y-115382143D01*
X42625377Y-115273373D01*
X42685165Y-115142457D01*
X42705647Y-115000000D01*
X42704277Y-114990473D01*
X42713747Y-114922365D01*
X42758051Y-114869774D01*
X42823563Y-114848875D01*
X42890137Y-114866096D01*
X42900803Y-114872404D01*
X43040000Y-114912844D01*
X43040000Y-113352904D01*
X43045340Y-113316908D01*
X43060899Y-113284012D01*
X43064762Y-113278231D01*
X43070578Y-113248989D01*
X43076395Y-113219749D01*
X43076395Y-109180251D01*
X43064762Y-109121769D01*
X43020743Y-109055891D01*
X42999994Y-108993085D01*
X43014487Y-108928547D01*
X43060096Y-108880642D01*
X43123845Y-108863000D01*
X44476155Y-108863000D01*
X44539904Y-108880642D01*
X44585513Y-108928547D01*
X44600006Y-108993085D01*
X44579257Y-109055891D01*
X44535237Y-109121769D01*
X44523605Y-109180251D01*
X44523605Y-112126781D01*
X44504906Y-112192261D01*
X44454449Y-112237993D01*
X44387451Y-112250184D01*
X44324119Y-112225157D01*
X44252840Y-112170463D01*
X44106762Y-112109956D01*
X43950000Y-112089317D01*
X43793237Y-112109956D01*
X43647159Y-112170463D01*
X43521717Y-112266717D01*
X43425463Y-112392159D01*
X43364956Y-112538237D01*
X43344317Y-112695000D01*
X43364956Y-112851762D01*
X43425463Y-112997840D01*
X43531656Y-113136234D01*
X43529179Y-113138134D01*
X43544948Y-113157385D01*
X43557608Y-113212594D01*
X43544395Y-113267674D01*
X43540000Y-113272931D01*
X43540000Y-114912844D01*
X43679195Y-114872404D01*
X43817287Y-114790737D01*
X43930733Y-114677290D01*
X43936545Y-114667463D01*
X43978920Y-114624591D01*
X44036503Y-114606765D01*
X44067743Y-114612800D01*
X44067905Y-114611577D01*
X44135683Y-114620500D01*
X44135684Y-114620500D01*
X44484316Y-114620500D01*
X44484317Y-114620500D01*
X44508744Y-114617283D01*
X44533173Y-114614068D01*
X44640404Y-114564065D01*
X44676187Y-114528282D01*
X44712319Y-114492151D01*
X44767906Y-114460057D01*
X44832094Y-114460057D01*
X44887681Y-114492151D01*
X44959594Y-114564064D01*
X44959595Y-114564064D01*
X44959596Y-114564065D01*
X45005585Y-114585510D01*
X45066827Y-114614068D01*
X45115683Y-114620500D01*
X45115684Y-114620500D01*
X45464316Y-114620500D01*
X45464317Y-114620500D01*
X45488744Y-114617283D01*
X45513173Y-114614068D01*
X45620404Y-114564065D01*
X45663969Y-114520500D01*
X45712319Y-114472151D01*
X45767906Y-114440057D01*
X45832094Y-114440057D01*
X45887681Y-114472151D01*
X45979594Y-114564064D01*
X45979595Y-114564064D01*
X45979596Y-114564065D01*
X46025585Y-114585510D01*
X46086827Y-114614068D01*
X46135683Y-114620500D01*
X46135684Y-114620500D01*
X46484316Y-114620500D01*
X46484317Y-114620500D01*
X46508744Y-114617283D01*
X46533173Y-114614068D01*
X46640404Y-114564065D01*
X46724065Y-114480404D01*
X46726202Y-114475820D01*
X46727940Y-114472095D01*
X46773697Y-114419919D01*
X46840322Y-114400500D01*
X46885639Y-114400500D01*
X46942896Y-114414511D01*
X46987214Y-114453376D01*
X47008578Y-114508315D01*
X47014956Y-114556762D01*
X47075463Y-114702840D01*
X47171717Y-114828282D01*
X47229219Y-114872404D01*
X47297159Y-114924536D01*
X47443238Y-114985044D01*
X47600000Y-115005682D01*
X47756762Y-114985044D01*
X47902841Y-114924536D01*
X48028282Y-114828282D01*
X48124536Y-114702841D01*
X48185044Y-114556762D01*
X48205682Y-114400000D01*
X48185044Y-114243238D01*
X48131540Y-114114068D01*
X48118289Y-114082076D01*
X48121038Y-114080937D01*
X48105515Y-114041657D01*
X48117705Y-113974658D01*
X48163437Y-113924199D01*
X48228918Y-113905500D01*
X48556001Y-113905500D01*
X48581910Y-113902089D01*
X48609188Y-113898498D01*
X48671188Y-113881885D01*
X48720750Y-113861355D01*
X48763310Y-113828697D01*
X48808697Y-113783310D01*
X48841355Y-113740750D01*
X48861885Y-113691188D01*
X48878498Y-113629188D01*
X48885218Y-113578140D01*
X48907908Y-113521344D01*
X48954988Y-113482302D01*
X49015003Y-113470514D01*
X49046612Y-113480445D01*
X49047758Y-113476988D01*
X49222393Y-113534856D01*
X49321685Y-113545000D01*
X49370000Y-113545000D01*
X49370000Y-113544999D01*
X49870000Y-113544999D01*
X49918315Y-113544999D01*
X50017605Y-113534856D01*
X50178484Y-113481546D01*
X50324663Y-113391381D01*
X50389761Y-113372919D01*
X50454858Y-113391381D01*
X50584823Y-113471545D01*
X50745703Y-113524855D01*
X50844995Y-113534999D01*
X50893310Y-113534999D01*
X50893310Y-112834999D01*
X50621931Y-112834999D01*
X50621090Y-112835561D01*
X50573637Y-112845000D01*
X49870000Y-112845000D01*
X49870000Y-113544999D01*
X49370000Y-113544999D01*
X49370000Y-112845000D01*
X47984000Y-112845000D01*
X47922000Y-112828387D01*
X47876613Y-112783000D01*
X47860000Y-112721000D01*
X47860000Y-112469000D01*
X47876613Y-112407000D01*
X47922000Y-112361613D01*
X47984000Y-112345000D01*
X50141379Y-112345000D01*
X50142220Y-112344438D01*
X50189673Y-112334999D01*
X51269310Y-112334999D01*
X51331310Y-112351612D01*
X51376697Y-112396999D01*
X51393310Y-112458999D01*
X51393310Y-113534998D01*
X51441625Y-113534998D01*
X51540915Y-113524855D01*
X51685265Y-113477022D01*
X51752866Y-113474071D01*
X51811952Y-113507049D01*
X51824621Y-113519719D01*
X51963805Y-113602032D01*
X52119082Y-113647144D01*
X52139999Y-113648790D01*
X52140000Y-113648790D01*
X52140000Y-113120000D01*
X52640000Y-113120000D01*
X52640000Y-113648790D01*
X52660915Y-113647145D01*
X52816194Y-113602032D01*
X52955379Y-113519718D01*
X53069718Y-113405379D01*
X53152031Y-113266196D01*
X53194504Y-113120000D01*
X52640000Y-113120000D01*
X52140000Y-113120000D01*
X52140000Y-112744000D01*
X52156613Y-112682000D01*
X52202000Y-112636613D01*
X52264000Y-112620000D01*
X53194504Y-112620000D01*
X53152031Y-112473803D01*
X53069718Y-112334620D01*
X52945096Y-112209998D01*
X52923270Y-112190518D01*
X52902283Y-112147393D01*
X52899232Y-112099529D01*
X52899383Y-112098385D01*
X52900500Y-112089901D01*
X52900499Y-111730100D01*
X52893972Y-111680513D01*
X52843224Y-111571684D01*
X52843223Y-111571683D01*
X52843223Y-111571682D01*
X52758316Y-111486775D01*
X52649487Y-111436027D01*
X52599902Y-111429500D01*
X52599901Y-111429500D01*
X52597965Y-111429500D01*
X52594173Y-111428745D01*
X52591843Y-111428439D01*
X52591863Y-111428286D01*
X52550512Y-111420061D01*
X52510284Y-111393181D01*
X51856367Y-110739264D01*
X51847101Y-110728896D01*
X51832021Y-110709986D01*
X51824878Y-110701029D01*
X51824877Y-110701028D01*
X51818742Y-110693335D01*
X51793441Y-110636793D01*
X51798647Y-110575067D01*
X51833062Y-110523562D01*
X51888096Y-110495131D01*
X51950017Y-110496868D01*
X52003370Y-110528341D01*
X52246056Y-110771027D01*
X52256013Y-110784864D01*
X52263547Y-110791732D01*
X52263548Y-110791734D01*
X52276935Y-110803938D01*
X52297822Y-110822980D01*
X52301963Y-110826935D01*
X52315394Y-110840366D01*
X52326834Y-110849428D01*
X52346571Y-110867421D01*
X52346572Y-110867421D01*
X52346573Y-110867422D01*
X52351085Y-110869170D01*
X52353029Y-110869923D01*
X52378316Y-110883251D01*
X52384025Y-110887162D01*
X52410020Y-110893275D01*
X52426416Y-110898352D01*
X52451333Y-110908006D01*
X52458257Y-110908006D01*
X52486646Y-110911299D01*
X52493387Y-110912885D01*
X52519839Y-110909194D01*
X52536971Y-110908006D01*
X52940927Y-110908006D01*
X52957747Y-110910749D01*
X52967932Y-110910278D01*
X52967935Y-110910279D01*
X53014250Y-110908137D01*
X53019975Y-110908006D01*
X53038994Y-110908006D01*
X53053488Y-110906323D01*
X53080162Y-110905091D01*
X53086500Y-110902292D01*
X53113803Y-110893838D01*
X53120603Y-110892567D01*
X53143314Y-110878504D01*
X53143496Y-110878408D01*
X53955629Y-110878408D01*
X54125559Y-111048339D01*
X54172196Y-111085922D01*
X54302980Y-111145650D01*
X54445296Y-111166111D01*
X54587612Y-111145650D01*
X54718396Y-111085922D01*
X54765033Y-111048339D01*
X54798849Y-111014522D01*
X54798849Y-111014521D01*
X54309182Y-110524855D01*
X53955629Y-110878408D01*
X53143496Y-110878408D01*
X53158490Y-110870504D01*
X53170154Y-110865354D01*
X53196044Y-110857173D01*
X53232935Y-110849836D01*
X53282514Y-110816708D01*
X53500543Y-110598678D01*
X53556127Y-110566587D01*
X53620314Y-110566587D01*
X53675902Y-110598681D01*
X53757631Y-110680410D01*
X54235192Y-110202850D01*
X54290779Y-110170756D01*
X54354967Y-110170756D01*
X54410554Y-110202850D01*
X54470860Y-110263156D01*
X54497739Y-110303382D01*
X54501224Y-110320903D01*
X54996845Y-110816525D01*
X54996846Y-110816525D01*
X55030663Y-110782709D01*
X55068246Y-110736072D01*
X55127974Y-110605288D01*
X55148434Y-110462973D01*
X55129217Y-110329306D01*
X55131029Y-110284220D01*
X55148853Y-110242768D01*
X55152489Y-110237325D01*
X55152495Y-110237320D01*
X55185623Y-110187741D01*
X55185623Y-110187737D01*
X55189947Y-110181267D01*
X55224158Y-110147056D01*
X55230631Y-110142730D01*
X55230635Y-110142730D01*
X55280214Y-110109602D01*
X55280219Y-110109596D01*
X55285662Y-110105960D01*
X55327114Y-110088136D01*
X55372200Y-110086324D01*
X55505867Y-110105541D01*
X55648182Y-110085081D01*
X55778966Y-110025353D01*
X55825603Y-109987770D01*
X55859419Y-109953953D01*
X55859419Y-109953952D01*
X55363797Y-109458331D01*
X55346276Y-109454846D01*
X55306050Y-109427967D01*
X55245744Y-109367661D01*
X55213650Y-109312074D01*
X55213650Y-109247888D01*
X55245743Y-109192300D01*
X55282069Y-109155973D01*
X55337656Y-109123878D01*
X55401844Y-109123878D01*
X55457432Y-109155972D01*
X56057415Y-109755956D01*
X56087741Y-109755956D01*
X56132536Y-109764330D01*
X56171282Y-109788321D01*
X56201067Y-109815475D01*
X56205207Y-109819429D01*
X56218638Y-109832860D01*
X56230078Y-109841922D01*
X56249815Y-109859915D01*
X56249816Y-109859915D01*
X56249817Y-109859916D01*
X56256276Y-109862418D01*
X56281559Y-109875745D01*
X56287270Y-109879657D01*
X56313267Y-109885771D01*
X56329658Y-109890846D01*
X56354577Y-109900500D01*
X56361502Y-109900500D01*
X56389892Y-109903794D01*
X56396631Y-109905379D01*
X56423082Y-109901689D01*
X56440214Y-109900500D01*
X56736156Y-109900500D01*
X56802782Y-109919920D01*
X56834168Y-109955709D01*
X56890778Y-110012319D01*
X56922872Y-110067906D01*
X56922872Y-110132094D01*
X56890778Y-110187681D01*
X56846775Y-110231683D01*
X56796027Y-110340512D01*
X56789500Y-110390097D01*
X56789500Y-110809897D01*
X56796028Y-110859488D01*
X56846776Y-110968317D01*
X56865778Y-110987319D01*
X56897872Y-111042906D01*
X56897872Y-111107094D01*
X56865778Y-111162681D01*
X56846775Y-111181683D01*
X56796027Y-111290512D01*
X56789500Y-111340097D01*
X56789500Y-111759897D01*
X56796028Y-111809488D01*
X56846776Y-111918317D01*
X56866278Y-111937819D01*
X56896528Y-111987182D01*
X56901070Y-112044898D01*
X56878915Y-112098385D01*
X56834892Y-112135985D01*
X56778597Y-112149500D01*
X56741419Y-112149500D01*
X56701560Y-112142919D01*
X56665935Y-112123877D01*
X56602841Y-112075464D01*
X56602840Y-112075463D01*
X56602838Y-112075462D01*
X56456762Y-112014956D01*
X56300000Y-111994317D01*
X56143237Y-112014956D01*
X55997159Y-112075463D01*
X55871717Y-112171717D01*
X55775463Y-112297159D01*
X55714956Y-112443237D01*
X55694317Y-112600000D01*
X55714956Y-112756762D01*
X55775463Y-112902840D01*
X55871717Y-113028282D01*
X55994001Y-113122113D01*
X55997159Y-113124536D01*
X56143238Y-113185044D01*
X56300000Y-113205682D01*
X56456762Y-113185044D01*
X56574600Y-113136234D01*
X56617924Y-113118289D01*
X56618100Y-113118715D01*
X56662031Y-113100742D01*
X56726589Y-113110100D01*
X56777464Y-113150929D01*
X56800576Y-113211930D01*
X56789530Y-113276221D01*
X56765931Y-113326828D01*
X56759500Y-113375683D01*
X56759500Y-113824317D01*
X56765931Y-113873172D01*
X56815935Y-113980405D01*
X56899594Y-114064064D01*
X56899595Y-114064064D01*
X56899596Y-114064065D01*
X56967720Y-114095832D01*
X57006827Y-114114068D01*
X57055683Y-114120500D01*
X57055684Y-114120500D01*
X57404316Y-114120500D01*
X57404317Y-114120500D01*
X57428744Y-114117283D01*
X57453173Y-114114068D01*
X57560404Y-114064065D01*
X57606347Y-114018122D01*
X57652319Y-113972151D01*
X57707906Y-113940057D01*
X57772094Y-113940057D01*
X57827681Y-113972151D01*
X57919594Y-114064064D01*
X57919595Y-114064064D01*
X57919596Y-114064065D01*
X57987720Y-114095832D01*
X58026827Y-114114068D01*
X58075683Y-114120500D01*
X58075684Y-114120500D01*
X58424316Y-114120500D01*
X58424317Y-114120500D01*
X58448744Y-114117283D01*
X58473173Y-114114068D01*
X58580404Y-114064065D01*
X58593268Y-114051200D01*
X58652790Y-114018122D01*
X58720806Y-114021462D01*
X58776801Y-114060216D01*
X58803888Y-114122696D01*
X58814956Y-114206762D01*
X58875463Y-114352840D01*
X58971717Y-114478282D01*
X59083513Y-114564065D01*
X59097159Y-114574536D01*
X59243238Y-114635044D01*
X59400000Y-114655682D01*
X59556762Y-114635044D01*
X59702841Y-114574536D01*
X59828282Y-114478282D01*
X59924536Y-114352841D01*
X59985044Y-114206762D01*
X60005682Y-114050000D01*
X59985044Y-113893238D01*
X59924536Y-113747159D01*
X59903386Y-113719596D01*
X59828282Y-113621717D01*
X59702840Y-113525463D01*
X59665509Y-113510000D01*
X60814457Y-113510000D01*
X60814457Y-113707824D01*
X60820859Y-113767375D01*
X60871104Y-113902089D01*
X60957268Y-114017188D01*
X61072367Y-114103352D01*
X61207081Y-114153597D01*
X61266633Y-114160000D01*
X61914457Y-114160000D01*
X61914457Y-113510000D01*
X62414457Y-113510000D01*
X62414457Y-114160000D01*
X63062281Y-114160000D01*
X63121832Y-114153597D01*
X63256546Y-114103352D01*
X63371645Y-114017188D01*
X63457809Y-113902089D01*
X63508054Y-113767375D01*
X63514457Y-113707824D01*
X63514457Y-113510000D01*
X62414457Y-113510000D01*
X61914457Y-113510000D01*
X60814457Y-113510000D01*
X59665509Y-113510000D01*
X59556762Y-113464956D01*
X59417879Y-113446671D01*
X59379221Y-113434944D01*
X59346384Y-113411413D01*
X59341450Y-113406479D01*
X59331497Y-113392645D01*
X59289681Y-113354524D01*
X59285540Y-113350569D01*
X59272110Y-113337139D01*
X59260678Y-113328083D01*
X59240934Y-113310084D01*
X59234468Y-113307579D01*
X59209192Y-113294256D01*
X59203481Y-113290344D01*
X59203480Y-113290343D01*
X59203478Y-113290342D01*
X59177484Y-113284228D01*
X59161087Y-113279151D01*
X59136173Y-113269500D01*
X59129249Y-113269500D01*
X59100859Y-113266206D01*
X59094119Y-113264621D01*
X59094118Y-113264621D01*
X59082757Y-113266206D01*
X59067666Y-113268311D01*
X59050535Y-113269500D01*
X58765332Y-113269500D01*
X58717879Y-113260061D01*
X58677651Y-113233181D01*
X58622151Y-113177681D01*
X58590057Y-113122094D01*
X58590057Y-113057906D01*
X58617716Y-113010000D01*
X60814457Y-113010000D01*
X61914457Y-113010000D01*
X61914457Y-112360000D01*
X61266633Y-112360000D01*
X61207081Y-112366402D01*
X61072367Y-112416647D01*
X60957268Y-112502811D01*
X60871104Y-112617910D01*
X60820859Y-112752624D01*
X60814457Y-112812176D01*
X60814457Y-113010000D01*
X58617716Y-113010000D01*
X58622151Y-113002319D01*
X58674064Y-112950405D01*
X58674065Y-112950404D01*
X58724068Y-112843173D01*
X58730500Y-112794316D01*
X58730500Y-112624500D01*
X58747113Y-112562500D01*
X58792500Y-112517113D01*
X58854500Y-112500500D01*
X58962518Y-112500500D01*
X59017362Y-112513288D01*
X59060893Y-112549013D01*
X59121718Y-112628282D01*
X59247159Y-112724536D01*
X59393238Y-112785044D01*
X59550000Y-112805682D01*
X59706762Y-112785044D01*
X59852841Y-112724536D01*
X59978282Y-112628282D01*
X60074536Y-112502841D01*
X60135044Y-112356762D01*
X60155682Y-112200000D01*
X60135044Y-112043238D01*
X60074536Y-111897159D01*
X60007264Y-111809488D01*
X59978282Y-111771717D01*
X59852840Y-111675463D01*
X59706762Y-111614956D01*
X59550000Y-111594317D01*
X59393237Y-111614956D01*
X59247159Y-111675463D01*
X59118254Y-111774376D01*
X59082627Y-111793419D01*
X59042768Y-111800000D01*
X58104000Y-111800000D01*
X58042000Y-111783387D01*
X57996613Y-111738000D01*
X57980000Y-111676000D01*
X57980000Y-110850000D01*
X58480000Y-110850000D01*
X58480000Y-111300000D01*
X59008790Y-111300000D01*
X59007145Y-111279084D01*
X58957904Y-111109595D01*
X58957904Y-111040405D01*
X59007144Y-110870917D01*
X59008790Y-110850000D01*
X58480000Y-110850000D01*
X57980000Y-110850000D01*
X57980000Y-108811362D01*
X57989439Y-108763909D01*
X57990000Y-108763069D01*
X57990000Y-107805496D01*
X57843803Y-107847968D01*
X57704623Y-107930279D01*
X57579988Y-108054915D01*
X57560512Y-108076734D01*
X57517393Y-108097716D01*
X57469536Y-108100768D01*
X57459903Y-108099500D01*
X57100102Y-108099500D01*
X57050511Y-108106028D01*
X56941682Y-108156776D01*
X56844168Y-108254290D01*
X56812782Y-108290080D01*
X56746156Y-108309500D01*
X56390835Y-108309500D01*
X56323796Y-108289816D01*
X56278041Y-108237012D01*
X56268097Y-108167854D01*
X56285040Y-108050000D01*
X56275403Y-107982964D01*
X56285347Y-107913806D01*
X56331102Y-107861002D01*
X56398141Y-107841318D01*
X56975122Y-107841318D01*
X56991942Y-107844061D01*
X57002127Y-107843590D01*
X57002130Y-107843591D01*
X57048445Y-107841449D01*
X57054170Y-107841318D01*
X57073189Y-107841318D01*
X57087683Y-107839635D01*
X57114357Y-107838403D01*
X57120695Y-107835604D01*
X57147998Y-107827150D01*
X57154798Y-107825879D01*
X57177508Y-107811816D01*
X57192690Y-107803814D01*
X57217130Y-107793024D01*
X57222024Y-107788129D01*
X57244428Y-107770382D01*
X57250317Y-107766737D01*
X57266418Y-107745413D01*
X57277678Y-107732474D01*
X57923334Y-107086819D01*
X57963563Y-107059939D01*
X58011016Y-107050500D01*
X58314317Y-107050500D01*
X58341069Y-107046978D01*
X58363173Y-107044068D01*
X58470404Y-106994065D01*
X58554065Y-106910404D01*
X58555868Y-106906536D01*
X58596023Y-106858148D01*
X58654751Y-106835677D01*
X58716950Y-106844903D01*
X58766627Y-106883454D01*
X58831717Y-106968282D01*
X58944790Y-107055045D01*
X58957159Y-107064536D01*
X58972266Y-107070793D01*
X59020665Y-107106688D01*
X59046430Y-107161161D01*
X59043474Y-107221348D01*
X59012495Y-107273035D01*
X58955934Y-107329596D01*
X58905931Y-107436827D01*
X58899500Y-107485683D01*
X58899500Y-107786291D01*
X58882724Y-107848572D01*
X58836937Y-107894001D01*
X58774526Y-107910287D01*
X58712379Y-107893023D01*
X58636196Y-107847968D01*
X58490000Y-107805496D01*
X58490000Y-109350000D01*
X59008790Y-109350000D01*
X59007145Y-109329086D01*
X58998667Y-109299905D01*
X58996555Y-109239053D01*
X59023663Y-109184532D01*
X59073456Y-109149487D01*
X59133928Y-109142370D01*
X59195683Y-109150500D01*
X59195684Y-109150500D01*
X59325500Y-109150500D01*
X59387500Y-109167113D01*
X59432887Y-109212500D01*
X59449500Y-109274500D01*
X59449500Y-109662518D01*
X59436712Y-109717362D01*
X59400986Y-109760894D01*
X59321719Y-109821716D01*
X59230345Y-109940797D01*
X59180618Y-109979368D01*
X59118361Y-109988561D01*
X59059609Y-109966008D01*
X59019495Y-109917518D01*
X59008351Y-109855580D01*
X59008790Y-109850000D01*
X58480000Y-109850000D01*
X58480000Y-110350000D01*
X59058591Y-110350000D01*
X59106044Y-110359439D01*
X59146273Y-110386319D01*
X59173151Y-110426546D01*
X59189800Y-110466740D01*
X59225463Y-110552840D01*
X59321717Y-110678282D01*
X59435010Y-110765214D01*
X59447159Y-110774536D01*
X59593238Y-110835044D01*
X59750000Y-110855682D01*
X59906762Y-110835044D01*
X60052841Y-110774536D01*
X60178282Y-110678282D01*
X60274536Y-110552841D01*
X60335044Y-110406762D01*
X60355682Y-110250000D01*
X60335044Y-110093238D01*
X60274536Y-109947159D01*
X60178282Y-109821718D01*
X60099013Y-109760893D01*
X60063288Y-109717362D01*
X60050500Y-109662518D01*
X60050500Y-109271149D01*
X60065786Y-109211506D01*
X60107876Y-109166567D01*
X60166393Y-109147414D01*
X60197680Y-109153284D01*
X60197905Y-109151577D01*
X60265683Y-109160500D01*
X60265684Y-109160500D01*
X60714316Y-109160500D01*
X60714317Y-109160500D01*
X60738744Y-109157283D01*
X60763173Y-109154068D01*
X60870404Y-109104065D01*
X60923785Y-109050683D01*
X60979370Y-109018591D01*
X61043558Y-109018591D01*
X61099146Y-109050686D01*
X61143039Y-109094580D01*
X61168790Y-109132170D01*
X61179224Y-109176524D01*
X61179367Y-109179612D01*
X61179500Y-109185348D01*
X61179500Y-109204362D01*
X61181181Y-109218850D01*
X61181972Y-109235958D01*
X61182357Y-109244290D01*
X61182746Y-109252688D01*
X61178339Y-109291661D01*
X61161980Y-109327308D01*
X61125589Y-109381769D01*
X61113957Y-109440251D01*
X61113957Y-110279749D01*
X61125589Y-110338230D01*
X61169904Y-110404552D01*
X61236226Y-110448867D01*
X61294708Y-110460500D01*
X61294709Y-110460500D01*
X61739957Y-110460500D01*
X61801957Y-110477113D01*
X61847344Y-110522500D01*
X61863957Y-110584500D01*
X61863957Y-110765214D01*
X61861213Y-110782034D01*
X61863825Y-110838536D01*
X61863957Y-110844262D01*
X61863957Y-110863276D01*
X61865638Y-110877764D01*
X61866872Y-110904450D01*
X61869670Y-110910787D01*
X61878123Y-110938083D01*
X61879395Y-110944891D01*
X61893454Y-110967597D01*
X61901459Y-110982784D01*
X61912249Y-111007220D01*
X61917145Y-111012116D01*
X61934891Y-111034520D01*
X61938538Y-111040409D01*
X61945842Y-111045925D01*
X61959853Y-111056505D01*
X61972808Y-111067779D01*
X62332101Y-111427072D01*
X62361839Y-111474894D01*
X62367359Y-111530938D01*
X62354317Y-111629999D01*
X62374956Y-111786762D01*
X62435463Y-111932840D01*
X62531717Y-112058282D01*
X62635118Y-112137624D01*
X62672912Y-112185565D01*
X62683250Y-112245729D01*
X62663627Y-112303535D01*
X62618800Y-112344973D01*
X62559632Y-112360000D01*
X62414457Y-112360000D01*
X62414457Y-113010000D01*
X63514457Y-113010000D01*
X63514457Y-113000000D01*
X63894317Y-113000000D01*
X63914956Y-113156762D01*
X63975463Y-113302840D01*
X64071717Y-113428282D01*
X64157778Y-113494318D01*
X64197159Y-113524536D01*
X64343238Y-113585044D01*
X64500000Y-113605682D01*
X64656762Y-113585044D01*
X64802841Y-113524536D01*
X64928282Y-113428282D01*
X65024536Y-113302841D01*
X65085044Y-113156762D01*
X65105682Y-113000000D01*
X65085044Y-112843238D01*
X65024536Y-112697159D01*
X64965330Y-112620000D01*
X64928282Y-112571717D01*
X64802840Y-112475463D01*
X64656762Y-112414956D01*
X64500000Y-112394317D01*
X64343237Y-112414956D01*
X64197159Y-112475463D01*
X64071717Y-112571717D01*
X63975463Y-112697159D01*
X63914956Y-112843237D01*
X63894317Y-113000000D01*
X63514457Y-113000000D01*
X63514457Y-112812176D01*
X63508054Y-112752624D01*
X63457809Y-112617910D01*
X63371645Y-112502811D01*
X63256543Y-112416645D01*
X63222176Y-112403827D01*
X63173557Y-112370836D01*
X63145583Y-112319168D01*
X63144535Y-112260422D01*
X63170648Y-112207788D01*
X63218054Y-112173087D01*
X63262841Y-112154536D01*
X63388282Y-112058282D01*
X63484536Y-111932841D01*
X63545044Y-111786762D01*
X63565682Y-111630000D01*
X63545044Y-111473238D01*
X63484536Y-111327159D01*
X63479985Y-111321228D01*
X63388282Y-111201717D01*
X63262840Y-111105463D01*
X63116762Y-111044956D01*
X62959999Y-111024317D01*
X62860938Y-111037359D01*
X62804894Y-111031839D01*
X62757072Y-111002101D01*
X62588234Y-110833263D01*
X66787000Y-110833263D01*
X66796926Y-110901390D01*
X66796926Y-110901391D01*
X66796927Y-110901393D01*
X66802545Y-110912884D01*
X66848302Y-111006484D01*
X66931015Y-111089197D01*
X66931016Y-111089197D01*
X66931017Y-111089198D01*
X67036107Y-111140573D01*
X67063360Y-111144543D01*
X67104237Y-111150500D01*
X67104240Y-111150500D01*
X67309212Y-111150500D01*
X67367665Y-111165142D01*
X67412314Y-111205609D01*
X67432615Y-111262346D01*
X67423773Y-111321952D01*
X67414956Y-111343237D01*
X67394317Y-111500000D01*
X67414956Y-111656762D01*
X67475463Y-111802840D01*
X67571717Y-111928282D01*
X67684674Y-112014956D01*
X67697159Y-112024536D01*
X67843238Y-112085044D01*
X68000000Y-112105682D01*
X68156762Y-112085044D01*
X68302841Y-112024536D01*
X68428282Y-111928282D01*
X68452111Y-111897227D01*
X68472124Y-111871146D01*
X68520064Y-111833353D01*
X68580229Y-111823014D01*
X68638035Y-111842637D01*
X68679473Y-111887464D01*
X68694500Y-111946632D01*
X68694500Y-112776001D01*
X68701501Y-112829186D01*
X68718116Y-112891192D01*
X68738643Y-112940746D01*
X68738645Y-112940750D01*
X68768807Y-112980057D01*
X68771307Y-112983315D01*
X68816684Y-113028692D01*
X68816688Y-113028695D01*
X68816690Y-113028697D01*
X68859250Y-113061355D01*
X68908812Y-113081885D01*
X68970812Y-113098498D01*
X68987858Y-113100742D01*
X69023999Y-113105500D01*
X69024000Y-113105500D01*
X74875500Y-113105500D01*
X74937500Y-113122113D01*
X74982887Y-113167500D01*
X74999500Y-113229500D01*
X74999500Y-115769749D01*
X75011132Y-115828230D01*
X75055447Y-115894552D01*
X75121769Y-115938867D01*
X75180251Y-115950500D01*
X75180252Y-115950500D01*
X77819748Y-115950500D01*
X77819749Y-115950500D01*
X77848989Y-115944683D01*
X77878231Y-115938867D01*
X77944552Y-115894552D01*
X77988867Y-115828231D01*
X78000500Y-115769748D01*
X78000500Y-113229500D01*
X78017113Y-113167500D01*
X78062500Y-113122113D01*
X78124500Y-113105500D01*
X78676001Y-113105500D01*
X78696198Y-113102841D01*
X78729188Y-113098498D01*
X78791188Y-113081885D01*
X78840750Y-113061355D01*
X78883310Y-113028697D01*
X78928697Y-112983310D01*
X78961355Y-112940750D01*
X78981885Y-112891188D01*
X78998498Y-112829188D01*
X79004310Y-112785043D01*
X79005500Y-112776001D01*
X79005500Y-107823999D01*
X78999438Y-107777955D01*
X78998498Y-107770812D01*
X78981885Y-107708812D01*
X78961355Y-107659250D01*
X78928697Y-107616690D01*
X78928695Y-107616688D01*
X78928692Y-107616684D01*
X78883315Y-107571307D01*
X78882060Y-107570344D01*
X78840750Y-107538645D01*
X78840748Y-107538644D01*
X78827799Y-107528708D01*
X78827879Y-107528603D01*
X78796123Y-107505532D01*
X78769839Y-107453947D01*
X78769839Y-107396053D01*
X78796123Y-107344468D01*
X78827879Y-107321396D01*
X78827799Y-107321292D01*
X78840747Y-107311356D01*
X78840750Y-107311355D01*
X78883310Y-107278697D01*
X78928697Y-107233310D01*
X78961355Y-107190750D01*
X78981885Y-107141188D01*
X78998498Y-107079188D01*
X79005500Y-107026000D01*
X79005500Y-101724000D01*
X78998498Y-101670812D01*
X78981885Y-101608812D01*
X78961355Y-101559250D01*
X78928697Y-101516690D01*
X78928695Y-101516688D01*
X78928692Y-101516684D01*
X78883315Y-101471307D01*
X78883310Y-101471303D01*
X78840750Y-101438645D01*
X78840746Y-101438643D01*
X78791192Y-101418116D01*
X78729186Y-101401501D01*
X78676001Y-101394500D01*
X78676000Y-101394500D01*
X69024000Y-101394500D01*
X69023999Y-101394500D01*
X68970813Y-101401501D01*
X68908807Y-101418116D01*
X68859253Y-101438643D01*
X68859250Y-101438644D01*
X68859250Y-101438645D01*
X68853263Y-101443239D01*
X68816684Y-101471307D01*
X68771307Y-101516684D01*
X68738643Y-101559253D01*
X68718116Y-101608807D01*
X68701501Y-101670813D01*
X68694500Y-101723999D01*
X68694500Y-103949076D01*
X68678939Y-104009217D01*
X68636161Y-104054264D01*
X68576904Y-104072911D01*
X68516039Y-104060476D01*
X68513891Y-104059426D01*
X68445763Y-104049500D01*
X68445760Y-104049500D01*
X67204240Y-104049500D01*
X67204237Y-104049500D01*
X67136109Y-104059426D01*
X67031015Y-104110802D01*
X66948302Y-104193515D01*
X66896926Y-104298609D01*
X66887000Y-104366737D01*
X66887000Y-104733263D01*
X66896926Y-104801390D01*
X66896926Y-104801391D01*
X66896927Y-104801393D01*
X66914910Y-104838178D01*
X66948302Y-104906484D01*
X67031015Y-104989197D01*
X67031016Y-104989197D01*
X67031017Y-104989198D01*
X67136107Y-105040573D01*
X67163360Y-105044543D01*
X67204237Y-105050500D01*
X67204240Y-105050500D01*
X67350633Y-105050500D01*
X67409086Y-105065142D01*
X67453735Y-105105609D01*
X67474036Y-105162346D01*
X67465194Y-105221952D01*
X67414956Y-105343237D01*
X67394317Y-105500000D01*
X67414956Y-105656762D01*
X67475463Y-105802840D01*
X67571717Y-105928282D01*
X67682607Y-106013370D01*
X67697159Y-106024536D01*
X67843238Y-106085044D01*
X68000000Y-106105682D01*
X68156762Y-106085044D01*
X68302841Y-106024536D01*
X68428282Y-105928282D01*
X68469534Y-105874521D01*
X68472124Y-105871146D01*
X68520064Y-105833353D01*
X68580229Y-105823014D01*
X68638035Y-105842637D01*
X68679473Y-105887464D01*
X68694500Y-105946632D01*
X68694500Y-107026001D01*
X68701501Y-107079186D01*
X68718116Y-107141192D01*
X68738517Y-107190441D01*
X68738645Y-107190750D01*
X68763874Y-107223628D01*
X68771307Y-107233315D01*
X68816684Y-107278692D01*
X68816688Y-107278695D01*
X68816690Y-107278697D01*
X68859250Y-107311355D01*
X68859252Y-107311355D01*
X68872201Y-107321292D01*
X68872120Y-107321396D01*
X68903877Y-107344469D01*
X68930160Y-107396053D01*
X68930160Y-107453947D01*
X68903877Y-107505531D01*
X68872120Y-107528603D01*
X68872201Y-107528708D01*
X68859251Y-107538644D01*
X68859250Y-107538645D01*
X68848155Y-107547159D01*
X68816684Y-107571307D01*
X68771307Y-107616684D01*
X68738643Y-107659253D01*
X68718116Y-107708807D01*
X68701501Y-107770813D01*
X68694500Y-107823999D01*
X68694500Y-110097962D01*
X68678939Y-110158103D01*
X68636162Y-110203150D01*
X68576905Y-110221796D01*
X68516040Y-110209363D01*
X68471688Y-110187681D01*
X68413893Y-110159427D01*
X68413891Y-110159426D01*
X68413890Y-110159426D01*
X68345763Y-110149500D01*
X68345760Y-110149500D01*
X67104240Y-110149500D01*
X67104237Y-110149500D01*
X67036109Y-110159426D01*
X66931015Y-110210802D01*
X66848302Y-110293515D01*
X66796926Y-110398609D01*
X66787000Y-110466737D01*
X66787000Y-110833263D01*
X62588234Y-110833263D01*
X62501276Y-110746305D01*
X62474396Y-110706077D01*
X62464957Y-110658624D01*
X62464957Y-110584500D01*
X62481570Y-110522500D01*
X62526957Y-110477113D01*
X62588957Y-110460500D01*
X63034206Y-110460500D01*
X63063446Y-110454683D01*
X63092688Y-110448867D01*
X63159009Y-110404552D01*
X63203324Y-110338231D01*
X63213367Y-110287740D01*
X63214957Y-110279749D01*
X63214957Y-109440251D01*
X63203324Y-109381769D01*
X63157502Y-109313192D01*
X63118971Y-109270058D01*
X63105212Y-109209615D01*
X63122430Y-109150065D01*
X63147352Y-109107926D01*
X63197597Y-109060662D01*
X63265322Y-109047559D01*
X63329569Y-109072673D01*
X63370482Y-109104066D01*
X63397159Y-109124536D01*
X63543238Y-109185044D01*
X63700000Y-109205682D01*
X63856762Y-109185044D01*
X64002841Y-109124536D01*
X64128282Y-109028282D01*
X64224536Y-108902841D01*
X64285044Y-108756762D01*
X64305682Y-108600000D01*
X64285044Y-108443238D01*
X64224536Y-108297159D01*
X64207348Y-108274759D01*
X64128282Y-108171717D01*
X64002840Y-108075463D01*
X63856762Y-108014956D01*
X63700000Y-107994317D01*
X63543237Y-108014956D01*
X63397159Y-108075463D01*
X63297025Y-108152298D01*
X63232777Y-108177412D01*
X63165051Y-108164308D01*
X63114807Y-108117043D01*
X63089718Y-108074620D01*
X62975379Y-107960281D01*
X62836196Y-107877968D01*
X62690000Y-107835496D01*
X62690000Y-108766000D01*
X62673387Y-108828000D01*
X62628000Y-108873387D01*
X62566000Y-108890000D01*
X62314000Y-108890000D01*
X62252000Y-108873387D01*
X62206613Y-108828000D01*
X62190000Y-108766000D01*
X62190000Y-107835496D01*
X62043803Y-107877968D01*
X61904623Y-107960279D01*
X61779988Y-108084915D01*
X61760512Y-108106734D01*
X61717393Y-108127716D01*
X61669536Y-108130768D01*
X61659903Y-108129500D01*
X61300102Y-108129500D01*
X61250511Y-108136028D01*
X61141684Y-108186775D01*
X61049145Y-108279314D01*
X60993559Y-108311406D01*
X60929374Y-108311408D01*
X60873787Y-108279317D01*
X60862154Y-108267685D01*
X60830057Y-108212097D01*
X60830056Y-108147908D01*
X60862150Y-108092318D01*
X60870402Y-108084065D01*
X60870404Y-108084065D01*
X60954065Y-108000404D01*
X61004068Y-107893173D01*
X61010500Y-107844316D01*
X61010500Y-107495684D01*
X61007883Y-107475809D01*
X61004068Y-107446827D01*
X60983025Y-107401701D01*
X60954065Y-107339596D01*
X60954064Y-107339595D01*
X60954064Y-107339594D01*
X60870405Y-107255935D01*
X60763172Y-107205931D01*
X60714317Y-107199500D01*
X60714316Y-107199500D01*
X60265684Y-107199500D01*
X60265683Y-107199500D01*
X60216827Y-107205931D01*
X60109596Y-107255934D01*
X60047680Y-107317850D01*
X59992092Y-107349943D01*
X59927905Y-107349943D01*
X59872319Y-107317850D01*
X59800404Y-107245935D01*
X59798204Y-107244909D01*
X59792095Y-107242060D01*
X59739919Y-107196303D01*
X59720500Y-107129678D01*
X59720500Y-106968387D01*
X59727081Y-106928529D01*
X59746124Y-106892901D01*
X59753373Y-106883454D01*
X59784536Y-106842841D01*
X59845044Y-106696762D01*
X59865682Y-106540000D01*
X59845044Y-106383238D01*
X59784536Y-106237159D01*
X59768548Y-106216323D01*
X59688282Y-106111717D01*
X59562840Y-106015463D01*
X59416762Y-105954956D01*
X59260000Y-105934317D01*
X59103237Y-105954956D01*
X58957159Y-106015463D01*
X58831717Y-106111717D01*
X58778567Y-106180986D01*
X58735035Y-106216712D01*
X58680191Y-106229500D01*
X58670322Y-106229500D01*
X58603697Y-106210081D01*
X58557940Y-106157905D01*
X58554064Y-106149594D01*
X58470405Y-106065935D01*
X58363172Y-106015931D01*
X58343715Y-106013370D01*
X58281236Y-105986284D01*
X58242482Y-105930289D01*
X58239140Y-105862273D01*
X58272219Y-105802751D01*
X58562534Y-105512435D01*
X58604126Y-105485001D01*
X58653164Y-105476154D01*
X58701721Y-105487324D01*
X58752762Y-105510634D01*
X58752763Y-105510634D01*
X58752767Y-105510636D01*
X58808588Y-105527026D01*
X58808589Y-105527026D01*
X58808592Y-105527027D01*
X58950907Y-105547489D01*
X59009093Y-105547489D01*
X59021605Y-105545690D01*
X59039252Y-105544428D01*
X59420748Y-105544428D01*
X59438395Y-105545690D01*
X59450907Y-105547489D01*
X59509092Y-105547489D01*
X59509093Y-105547489D01*
X59651408Y-105527027D01*
X59669823Y-105521620D01*
X59707236Y-105510635D01*
X59742967Y-105494317D01*
X61029499Y-105494317D01*
X61035930Y-105543172D01*
X61085934Y-105650405D01*
X61169593Y-105734064D01*
X61248426Y-105770825D01*
X61294397Y-105807721D01*
X61318137Y-105861674D01*
X61314282Y-105920494D01*
X61283703Y-105970888D01*
X61200342Y-106054249D01*
X61140048Y-106172581D01*
X61124500Y-106270752D01*
X61124500Y-106849248D01*
X61140048Y-106947418D01*
X61140048Y-106947419D01*
X61140049Y-106947420D01*
X61200342Y-107065751D01*
X61294249Y-107159658D01*
X61412580Y-107219951D01*
X61426231Y-107222113D01*
X61510752Y-107235500D01*
X61510754Y-107235500D01*
X62014246Y-107235500D01*
X62014248Y-107235500D01*
X62063332Y-107227725D01*
X62112420Y-107219951D01*
X62230751Y-107159658D01*
X62277791Y-107112617D01*
X62324756Y-107083176D01*
X62379863Y-107077140D01*
X62432094Y-107095722D01*
X62471007Y-107135206D01*
X62551113Y-107265080D01*
X62669918Y-107383885D01*
X62812926Y-107472093D01*
X62972416Y-107524943D01*
X63070857Y-107535000D01*
X63087500Y-107535000D01*
X63087500Y-106810000D01*
X63587500Y-106810000D01*
X63587500Y-107534999D01*
X63604143Y-107534999D01*
X63702582Y-107524943D01*
X63862073Y-107472093D01*
X64005081Y-107383885D01*
X64123885Y-107265081D01*
X64212093Y-107122073D01*
X64264943Y-106962583D01*
X64275000Y-106864143D01*
X64275000Y-106810000D01*
X63587500Y-106810000D01*
X63087500Y-106810000D01*
X63087500Y-106434000D01*
X63104113Y-106372000D01*
X63149500Y-106326613D01*
X63211500Y-106310000D01*
X64274999Y-106310000D01*
X64274999Y-106255857D01*
X64264943Y-106157417D01*
X64212093Y-105997926D01*
X64123885Y-105854918D01*
X64038285Y-105769318D01*
X64007705Y-105718924D01*
X64003850Y-105660104D01*
X64027588Y-105606153D01*
X64114536Y-105492841D01*
X64175044Y-105346762D01*
X64195682Y-105190000D01*
X64175044Y-105033238D01*
X64114536Y-104887159D01*
X64018282Y-104761717D01*
X63892840Y-104665463D01*
X63746762Y-104604956D01*
X63590000Y-104584317D01*
X63433240Y-104604955D01*
X63357439Y-104636353D01*
X63295410Y-104644931D01*
X63237099Y-104622107D01*
X63197376Y-104573701D01*
X63186370Y-104512057D01*
X63201019Y-104469816D01*
X63208375Y-104432840D01*
X63214957Y-104399748D01*
X63214957Y-103560252D01*
X63211914Y-103544956D01*
X63203324Y-103501769D01*
X63194957Y-103489247D01*
X63187713Y-103478406D01*
X63167876Y-103425703D01*
X63173395Y-103369658D01*
X63203132Y-103321837D01*
X63397073Y-103127896D01*
X63444894Y-103098160D01*
X63500936Y-103092640D01*
X63600000Y-103105682D01*
X63756762Y-103085044D01*
X63902841Y-103024536D01*
X64028282Y-102928282D01*
X64124536Y-102802841D01*
X64185044Y-102656762D01*
X64205682Y-102500000D01*
X64205249Y-102496714D01*
X64198318Y-102444064D01*
X64185044Y-102343238D01*
X64124536Y-102197159D01*
X64073582Y-102130754D01*
X64028282Y-102071717D01*
X63902840Y-101975463D01*
X63756762Y-101914956D01*
X63592140Y-101893283D01*
X63532838Y-101868720D01*
X63493764Y-101817796D01*
X63485386Y-101754161D01*
X63505682Y-101600000D01*
X63485044Y-101443238D01*
X63443391Y-101342681D01*
X63434920Y-101279773D01*
X63452924Y-101235186D01*
X63508054Y-101087377D01*
X63514457Y-101027824D01*
X63514457Y-100830000D01*
X62414457Y-100830000D01*
X62414457Y-101204250D01*
X62407876Y-101244109D01*
X62388832Y-101279737D01*
X62375463Y-101297159D01*
X62314956Y-101443237D01*
X62294317Y-101599999D01*
X62314956Y-101756762D01*
X62375463Y-101902840D01*
X62471717Y-102028282D01*
X62570331Y-102103950D01*
X62597159Y-102124536D01*
X62743238Y-102185044D01*
X62900000Y-102205682D01*
X62900002Y-102205681D01*
X62907859Y-102206716D01*
X62967160Y-102231279D01*
X63006235Y-102282202D01*
X63014613Y-102345840D01*
X62994317Y-102500000D01*
X63007359Y-102599060D01*
X63001839Y-102655103D01*
X62972101Y-102702926D01*
X62696302Y-102978726D01*
X62656077Y-103005604D01*
X62608624Y-103015043D01*
X62223673Y-103015043D01*
X62194490Y-103010972D01*
X62160645Y-103014108D01*
X62156272Y-103014514D01*
X62144833Y-103015043D01*
X62136613Y-103015043D01*
X62130881Y-103016113D01*
X62128527Y-103016554D01*
X62117197Y-103018134D01*
X62078976Y-103021676D01*
X62055580Y-103029518D01*
X62022952Y-103049720D01*
X62012951Y-103055290D01*
X61978588Y-103072401D01*
X61959610Y-103088160D01*
X61936483Y-103118785D01*
X61929169Y-103127592D01*
X61903310Y-103155958D01*
X61891301Y-103177518D01*
X61880800Y-103214427D01*
X61877161Y-103225284D01*
X61860594Y-103268048D01*
X61847344Y-103317500D01*
X61801957Y-103362887D01*
X61739957Y-103379500D01*
X61294708Y-103379500D01*
X61236226Y-103391132D01*
X61169904Y-103435447D01*
X61125589Y-103501769D01*
X61113957Y-103560251D01*
X61113957Y-104399749D01*
X61125589Y-104458230D01*
X61169904Y-104524552D01*
X61201212Y-104545471D01*
X61233683Y-104567168D01*
X61234640Y-104567807D01*
X61277259Y-104616673D01*
X61289388Y-104680368D01*
X61267710Y-104741477D01*
X61218154Y-104783291D01*
X61169593Y-104805935D01*
X61085934Y-104889594D01*
X61035930Y-104996827D01*
X61029499Y-105045683D01*
X61029499Y-105494317D01*
X59742967Y-105494317D01*
X59838021Y-105450907D01*
X59838023Y-105450906D01*
X59886971Y-105419449D01*
X59995632Y-105325295D01*
X60033737Y-105281320D01*
X60111469Y-105160366D01*
X60135640Y-105107438D01*
X60176147Y-104969483D01*
X60184428Y-104911889D01*
X60184428Y-104340000D01*
X60182277Y-104329188D01*
X60175330Y-104294263D01*
X60168867Y-104261769D01*
X60166943Y-104258890D01*
X60148428Y-104214192D01*
X60148428Y-104165808D01*
X60166943Y-104121109D01*
X60168867Y-104118231D01*
X60180564Y-104059426D01*
X60184428Y-104040002D01*
X60184428Y-103468112D01*
X60181038Y-103444536D01*
X60176147Y-103410517D01*
X60135640Y-103272562D01*
X60111469Y-103219634D01*
X60033737Y-103098680D01*
X59995632Y-103054705D01*
X59949859Y-103015043D01*
X59886970Y-102960550D01*
X59838021Y-102929092D01*
X59707236Y-102869364D01*
X59651411Y-102852973D01*
X59636852Y-102850880D01*
X59582572Y-102829149D01*
X59544284Y-102784962D01*
X59530500Y-102728142D01*
X59530500Y-102624500D01*
X59547113Y-102562500D01*
X59592500Y-102517113D01*
X59654500Y-102500500D01*
X59664317Y-102500500D01*
X59693074Y-102496714D01*
X59713173Y-102494068D01*
X59820404Y-102444065D01*
X59904065Y-102360404D01*
X59954068Y-102253173D01*
X59960500Y-102204316D01*
X59960500Y-101855684D01*
X59954068Y-101806827D01*
X59951577Y-101787905D01*
X59952800Y-101787743D01*
X59946765Y-101756503D01*
X59964591Y-101698920D01*
X60007463Y-101656545D01*
X60017290Y-101650733D01*
X60130737Y-101537287D01*
X60212404Y-101399195D01*
X60252844Y-101260000D01*
X57791168Y-101260000D01*
X57751310Y-101253419D01*
X57715682Y-101234376D01*
X57612840Y-101155463D01*
X57466762Y-101094956D01*
X57310000Y-101074317D01*
X57153237Y-101094956D01*
X57007159Y-101155463D01*
X56881717Y-101251717D01*
X56785463Y-101377159D01*
X56724956Y-101523237D01*
X56704317Y-101680000D01*
X56724956Y-101836762D01*
X56785463Y-101982840D01*
X56881118Y-102107501D01*
X56881718Y-102108282D01*
X56920985Y-102138413D01*
X56956712Y-102181945D01*
X56969500Y-102236789D01*
X56969500Y-102289678D01*
X56950081Y-102356303D01*
X56897905Y-102402060D01*
X56889594Y-102405935D01*
X56805935Y-102489594D01*
X56755931Y-102596827D01*
X56749500Y-102645683D01*
X56749500Y-102994317D01*
X56755931Y-103043172D01*
X56805935Y-103150405D01*
X56897849Y-103242319D01*
X56929943Y-103297906D01*
X56929943Y-103362093D01*
X56897850Y-103417681D01*
X56889596Y-103425934D01*
X56889596Y-103425935D01*
X56812347Y-103503183D01*
X56772122Y-103530061D01*
X56724669Y-103539500D01*
X56525833Y-103539500D01*
X56478380Y-103530061D01*
X56438152Y-103503181D01*
X56368867Y-103433896D01*
X56339367Y-103386768D01*
X56333426Y-103331486D01*
X56348748Y-103288872D01*
X56347785Y-103288432D01*
X56354547Y-103273625D01*
X56375640Y-103227438D01*
X56416147Y-103089483D01*
X56424428Y-103031889D01*
X56424428Y-102460000D01*
X56421773Y-102446654D01*
X56408867Y-102381771D01*
X56408867Y-102381769D01*
X56406943Y-102378890D01*
X56388428Y-102334192D01*
X56388428Y-102285808D01*
X56406943Y-102241109D01*
X56408867Y-102238231D01*
X56418370Y-102190455D01*
X56424428Y-102160002D01*
X56424428Y-101588112D01*
X56420314Y-101559500D01*
X56416147Y-101530517D01*
X56375640Y-101392562D01*
X56351469Y-101339634D01*
X56273737Y-101218680D01*
X56235632Y-101174705D01*
X56199317Y-101143238D01*
X56126970Y-101080550D01*
X56078021Y-101049092D01*
X55947236Y-100989364D01*
X55891411Y-100972973D01*
X55784671Y-100957626D01*
X55749093Y-100952511D01*
X55690907Y-100952511D01*
X55678395Y-100954310D01*
X55660748Y-100955572D01*
X55484500Y-100955572D01*
X55422500Y-100938959D01*
X55377113Y-100893572D01*
X55360500Y-100831572D01*
X55360500Y-100830000D01*
X60814457Y-100830000D01*
X60814457Y-101027824D01*
X60820859Y-101087375D01*
X60871104Y-101222089D01*
X60957268Y-101337188D01*
X61072367Y-101423352D01*
X61207081Y-101473597D01*
X61266633Y-101480000D01*
X61914457Y-101480000D01*
X61914457Y-100830000D01*
X60814457Y-100830000D01*
X55360500Y-100830000D01*
X55360500Y-100760000D01*
X57617156Y-100760000D01*
X58180000Y-100760000D01*
X58680000Y-100760000D01*
X59190000Y-100760000D01*
X59190000Y-100240069D01*
X59690000Y-100240069D01*
X59690000Y-100760000D01*
X60252844Y-100760000D01*
X60212404Y-100620804D01*
X60130735Y-100482709D01*
X60017290Y-100369264D01*
X59950898Y-100330000D01*
X60814457Y-100330000D01*
X61914457Y-100330000D01*
X61914457Y-99680000D01*
X62414457Y-99680000D01*
X62414457Y-100330000D01*
X63514457Y-100330000D01*
X63514457Y-100132176D01*
X63508054Y-100072624D01*
X63457809Y-99937910D01*
X63371645Y-99822811D01*
X63256546Y-99736647D01*
X63121832Y-99686402D01*
X63062281Y-99680000D01*
X62414457Y-99680000D01*
X61914457Y-99680000D01*
X61266633Y-99680000D01*
X61207081Y-99686402D01*
X61072367Y-99736647D01*
X60957268Y-99822811D01*
X60871104Y-99937910D01*
X60820859Y-100072624D01*
X60814457Y-100132176D01*
X60814457Y-100330000D01*
X59950898Y-100330000D01*
X59879192Y-100287593D01*
X59725127Y-100242833D01*
X59690000Y-100240069D01*
X59190000Y-100240069D01*
X59154872Y-100242833D01*
X59000808Y-100287593D01*
X58998120Y-100289183D01*
X58935000Y-100306450D01*
X58871880Y-100289183D01*
X58869191Y-100287593D01*
X58715127Y-100242833D01*
X58680000Y-100240069D01*
X58680000Y-100760000D01*
X58180000Y-100760000D01*
X58180000Y-100240069D01*
X58144872Y-100242833D01*
X57990807Y-100287593D01*
X57852709Y-100369264D01*
X57739264Y-100482709D01*
X57657595Y-100620804D01*
X57617156Y-100760000D01*
X55360500Y-100760000D01*
X55360500Y-100715331D01*
X55369939Y-100667878D01*
X55396816Y-100627652D01*
X55474065Y-100550404D01*
X55524068Y-100443173D01*
X55530500Y-100394316D01*
X55530500Y-99945684D01*
X55524068Y-99896827D01*
X55474065Y-99789596D01*
X55474064Y-99789595D01*
X55474064Y-99789594D01*
X55390405Y-99705935D01*
X55283172Y-99655931D01*
X55234317Y-99649500D01*
X55234316Y-99649500D01*
X54885684Y-99649500D01*
X54885683Y-99649500D01*
X54836827Y-99655931D01*
X54729594Y-99705935D01*
X54645935Y-99789594D01*
X54595931Y-99896827D01*
X54589500Y-99945683D01*
X54589500Y-100394317D01*
X54595931Y-100443172D01*
X54645934Y-100550403D01*
X54645935Y-100550404D01*
X54723183Y-100627652D01*
X54750061Y-100667878D01*
X54759500Y-100715331D01*
X54759500Y-101070304D01*
X54748295Y-101121815D01*
X54716703Y-101164016D01*
X54704372Y-101174700D01*
X54678767Y-101204250D01*
X54666263Y-101218680D01*
X54600046Y-101321717D01*
X54588530Y-101339636D01*
X54564359Y-101392562D01*
X54523853Y-101530514D01*
X54515572Y-101588112D01*
X54515572Y-102160002D01*
X54531132Y-102238230D01*
X54533056Y-102241109D01*
X54551571Y-102285809D01*
X54551571Y-102334191D01*
X54533056Y-102378891D01*
X54531132Y-102381769D01*
X54515684Y-102459437D01*
X54515572Y-102460000D01*
X54515572Y-103031889D01*
X54518136Y-103049720D01*
X54523853Y-103089485D01*
X54564359Y-103227437D01*
X54571156Y-103242319D01*
X54588531Y-103280366D01*
X54666263Y-103401320D01*
X54704368Y-103445295D01*
X54755092Y-103489247D01*
X54813029Y-103539449D01*
X54861978Y-103570907D01*
X54992763Y-103630635D01*
X55048588Y-103647026D01*
X55048589Y-103647026D01*
X55048592Y-103647027D01*
X55190907Y-103667489D01*
X55249093Y-103667489D01*
X55261605Y-103665690D01*
X55279252Y-103664428D01*
X55660748Y-103664428D01*
X55678395Y-103665690D01*
X55690907Y-103667489D01*
X55701156Y-103667489D01*
X55748609Y-103676928D01*
X55788837Y-103703808D01*
X56088550Y-104003521D01*
X56098508Y-104017360D01*
X56132484Y-104048334D01*
X56167675Y-104104204D01*
X56169200Y-104170216D01*
X56136626Y-104227651D01*
X55117122Y-105247155D01*
X55076894Y-105274035D01*
X55029441Y-105283474D01*
X54996845Y-105283474D01*
X54396862Y-105883457D01*
X54341275Y-105915551D01*
X54277087Y-105915551D01*
X54221500Y-105883457D01*
X54198865Y-105860822D01*
X54166771Y-105805235D01*
X54166771Y-105741047D01*
X54198865Y-105685460D01*
X54798849Y-105085477D01*
X54798849Y-105077116D01*
X54811637Y-105022272D01*
X54847363Y-104978740D01*
X54978282Y-104878282D01*
X54979144Y-104877159D01*
X55074536Y-104752841D01*
X55135044Y-104606762D01*
X55155682Y-104450000D01*
X55135044Y-104293238D01*
X55074536Y-104147159D01*
X54978282Y-104021717D01*
X54852840Y-103925463D01*
X54706762Y-103864956D01*
X54550000Y-103844317D01*
X54393237Y-103864956D01*
X54232076Y-103931711D01*
X54230937Y-103928961D01*
X54191657Y-103944485D01*
X54124658Y-103932295D01*
X54074199Y-103886563D01*
X54055500Y-103821082D01*
X54055500Y-103705752D01*
X54043430Y-103629546D01*
X54039951Y-103607580D01*
X53979658Y-103489249D01*
X53885751Y-103395342D01*
X53767420Y-103335049D01*
X53767419Y-103335048D01*
X53767418Y-103335048D01*
X53669248Y-103319500D01*
X53669246Y-103319500D01*
X53090754Y-103319500D01*
X53090752Y-103319500D01*
X52992581Y-103335048D01*
X52874247Y-103395343D01*
X52812181Y-103457410D01*
X52762818Y-103487660D01*
X52705102Y-103492202D01*
X52651615Y-103470047D01*
X52614015Y-103426024D01*
X52600500Y-103369729D01*
X52600500Y-103045683D01*
X52591577Y-102977905D01*
X52595488Y-102977390D01*
X52590185Y-102943937D01*
X52616890Y-102881007D01*
X52672885Y-102841792D01*
X52741153Y-102838211D01*
X52800944Y-102871353D01*
X52874249Y-102944658D01*
X52992580Y-103004951D01*
X53020165Y-103009320D01*
X53090752Y-103020500D01*
X53090754Y-103020500D01*
X53669246Y-103020500D01*
X53669248Y-103020500D01*
X53729404Y-103010972D01*
X53767420Y-103004951D01*
X53885751Y-102944658D01*
X53979658Y-102850751D01*
X54039951Y-102732420D01*
X54050310Y-102667018D01*
X54055500Y-102634248D01*
X54055500Y-102130752D01*
X54043160Y-102052840D01*
X54039951Y-102032580D01*
X53979658Y-101914249D01*
X53885751Y-101820342D01*
X53767420Y-101760049D01*
X53767419Y-101760048D01*
X53767418Y-101760048D01*
X53669248Y-101744500D01*
X53669246Y-101744500D01*
X53090754Y-101744500D01*
X53090752Y-101744500D01*
X52992581Y-101760048D01*
X52874247Y-101820343D01*
X52832181Y-101862410D01*
X52782818Y-101892660D01*
X52725102Y-101897202D01*
X52671615Y-101875047D01*
X52634015Y-101831024D01*
X52620500Y-101774729D01*
X52620500Y-101565683D01*
X52614068Y-101516827D01*
X52593909Y-101473597D01*
X52564065Y-101409596D01*
X52564064Y-101409595D01*
X52564064Y-101409594D01*
X52480405Y-101325935D01*
X52373172Y-101275931D01*
X52324317Y-101269500D01*
X52324316Y-101269500D01*
X51975684Y-101269500D01*
X51975683Y-101269500D01*
X51926827Y-101275931D01*
X51819594Y-101325935D01*
X51727681Y-101417849D01*
X51672094Y-101449943D01*
X51607906Y-101449943D01*
X51552319Y-101417849D01*
X51460405Y-101325935D01*
X51353172Y-101275931D01*
X51304317Y-101269500D01*
X51304316Y-101269500D01*
X50955684Y-101269500D01*
X50955683Y-101269500D01*
X50906827Y-101275931D01*
X50905285Y-101276651D01*
X50848823Y-101288202D01*
X50793238Y-101272982D01*
X50750537Y-101234279D01*
X50729943Y-101180453D01*
X50725044Y-101143238D01*
X50664536Y-100997159D01*
X50658555Y-100989364D01*
X50568282Y-100871717D01*
X50442840Y-100775463D01*
X50296762Y-100714956D01*
X50140000Y-100694317D01*
X49983237Y-100714956D01*
X49837159Y-100775463D01*
X49711717Y-100871717D01*
X49615463Y-100997159D01*
X49554956Y-101143237D01*
X49550025Y-101180689D01*
X49525461Y-101239990D01*
X49474538Y-101279064D01*
X49410900Y-101287441D01*
X49351601Y-101262878D01*
X49302841Y-101225464D01*
X49302840Y-101225463D01*
X49302838Y-101225462D01*
X49156762Y-101164956D01*
X49000000Y-101144317D01*
X48843237Y-101164956D01*
X48697159Y-101225463D01*
X48571717Y-101321717D01*
X48475464Y-101447158D01*
X48445990Y-101518316D01*
X48417080Y-101588112D01*
X48411001Y-101602787D01*
X48371927Y-101653710D01*
X48312626Y-101678273D01*
X48248988Y-101669895D01*
X48198065Y-101630821D01*
X48184117Y-101597149D01*
X48181291Y-101598320D01*
X48175043Y-101583237D01*
X48114536Y-101437159D01*
X48093303Y-101409487D01*
X48018282Y-101311717D01*
X47892840Y-101215463D01*
X47746762Y-101154956D01*
X47590000Y-101134317D01*
X47433237Y-101154956D01*
X47287159Y-101215463D01*
X47161717Y-101311717D01*
X47065463Y-101437159D01*
X47004956Y-101583237D01*
X46984317Y-101740000D01*
X47004956Y-101896762D01*
X47065463Y-102042840D01*
X47103406Y-102092289D01*
X47127938Y-102151352D01*
X47119774Y-102214784D01*
X47081087Y-102265710D01*
X47022168Y-102290585D01*
X47002669Y-102293306D01*
X46985531Y-102294496D01*
X46599899Y-102294496D01*
X46556566Y-102286678D01*
X46518696Y-102264209D01*
X46422288Y-102180671D01*
X46294775Y-102122437D01*
X46190885Y-102107501D01*
X44807133Y-102107501D01*
X44703242Y-102122437D01*
X44575729Y-102180671D01*
X44545064Y-102207243D01*
X44490219Y-102234695D01*
X44428927Y-102232506D01*
X44376181Y-102201210D01*
X44136819Y-101961848D01*
X44109939Y-101921620D01*
X44100500Y-101874167D01*
X44100500Y-101760475D01*
X44119919Y-101693850D01*
X44172095Y-101648093D01*
X44245067Y-101614065D01*
X44268316Y-101603224D01*
X44353224Y-101518316D01*
X44403972Y-101409487D01*
X44410500Y-101359901D01*
X44410499Y-101000100D01*
X44403972Y-100950513D01*
X44353224Y-100841684D01*
X44353223Y-100841683D01*
X44353223Y-100841682D01*
X44299222Y-100787681D01*
X44267128Y-100732094D01*
X44267128Y-100667906D01*
X44299222Y-100612319D01*
X44353224Y-100558316D01*
X44403972Y-100449487D01*
X44404803Y-100443172D01*
X44410500Y-100399901D01*
X44410499Y-100040100D01*
X44403972Y-99990513D01*
X44353224Y-99881684D01*
X44353223Y-99881683D01*
X44353223Y-99881682D01*
X44268316Y-99796775D01*
X44159487Y-99746027D01*
X44109902Y-99739500D01*
X44109901Y-99739500D01*
X43898087Y-99739500D01*
X43850634Y-99730061D01*
X43810406Y-99703181D01*
X43483704Y-99376479D01*
X43473751Y-99362645D01*
X43431935Y-99324524D01*
X43427794Y-99320569D01*
X43414364Y-99307139D01*
X43402932Y-99298083D01*
X43383188Y-99280084D01*
X43376722Y-99277579D01*
X43351446Y-99264256D01*
X43345735Y-99260344D01*
X43345734Y-99260343D01*
X43345732Y-99260342D01*
X43319738Y-99254228D01*
X43303341Y-99249151D01*
X43278427Y-99239500D01*
X43271503Y-99239500D01*
X43243113Y-99236206D01*
X43236373Y-99234621D01*
X43236372Y-99234621D01*
X43225011Y-99236206D01*
X43209920Y-99238311D01*
X43192789Y-99239500D01*
X41029243Y-99239500D01*
X41012422Y-99236756D01*
X40969308Y-99238749D01*
X40955919Y-99239368D01*
X40950195Y-99239500D01*
X40931183Y-99239500D01*
X40916695Y-99241181D01*
X40890007Y-99242415D01*
X40883666Y-99245215D01*
X40856378Y-99253665D01*
X40849568Y-99254938D01*
X40826859Y-99268998D01*
X40811678Y-99277000D01*
X40795979Y-99283932D01*
X40745889Y-99294500D01*
X36223999Y-99294500D01*
X36170813Y-99301501D01*
X36108807Y-99318116D01*
X36059253Y-99338643D01*
X36016684Y-99371307D01*
X35971307Y-99416684D01*
X35938643Y-99459253D01*
X35918116Y-99508807D01*
X35901501Y-99570813D01*
X35894500Y-99623999D01*
X35894500Y-103476064D01*
X35877887Y-103538064D01*
X35832500Y-103583451D01*
X35770500Y-103600064D01*
X35479515Y-103600064D01*
X35479515Y-104275436D01*
X35462902Y-104337436D01*
X35417515Y-104382823D01*
X35355515Y-104399436D01*
X34875764Y-104399436D01*
X34869389Y-104400064D01*
X34079557Y-104400064D01*
X34073182Y-104399436D01*
X34064186Y-104399436D01*
X33393431Y-104399436D01*
X33331431Y-104382823D01*
X33286044Y-104337436D01*
X33269431Y-104275436D01*
X33269431Y-104224064D01*
X33286044Y-104162064D01*
X33331431Y-104116677D01*
X33393431Y-104100064D01*
X35179515Y-104100064D01*
X35179515Y-103600064D01*
X35134514Y-103600064D01*
X35098195Y-103636383D01*
X35096391Y-103634579D01*
X35072514Y-103658457D01*
X35010514Y-103675070D01*
X33568514Y-103675070D01*
X33506514Y-103658457D01*
X33461127Y-103613070D01*
X33444514Y-103551070D01*
X33444514Y-102675070D01*
X33944514Y-102675070D01*
X33944514Y-103175070D01*
X35094514Y-103175070D01*
X35094514Y-103127246D01*
X35088111Y-103067694D01*
X35037866Y-102932980D01*
X34951702Y-102817881D01*
X34836603Y-102731717D01*
X34701889Y-102681472D01*
X34642338Y-102675070D01*
X33944514Y-102675070D01*
X33444514Y-102675070D01*
X32746689Y-102675070D01*
X32712252Y-102678772D01*
X32644816Y-102667018D01*
X32593892Y-102621275D01*
X32574998Y-102555482D01*
X32574998Y-98004065D01*
X32575263Y-97995956D01*
X32580490Y-97916193D01*
X32593207Y-97738407D01*
X32595269Y-97723099D01*
X32617453Y-97611573D01*
X32617862Y-97609606D01*
X32648286Y-97469749D01*
X32652017Y-97456305D01*
X32690741Y-97342230D01*
X32691902Y-97338967D01*
X32739566Y-97211177D01*
X32744520Y-97199704D01*
X32798960Y-97089310D01*
X32801286Y-97084831D01*
X32865357Y-96967494D01*
X32871063Y-96958070D01*
X32940136Y-96854694D01*
X32943907Y-96849365D01*
X33023348Y-96743245D01*
X33029323Y-96735874D01*
X33111659Y-96641988D01*
X33117146Y-96636130D01*
X33210631Y-96542645D01*
X33216474Y-96537171D01*
X33310383Y-96454815D01*
X33317716Y-96448870D01*
X33423887Y-96369391D01*
X33429200Y-96365632D01*
X33532572Y-96296562D01*
X33541981Y-96290864D01*
X33659349Y-96226777D01*
X33663826Y-96224452D01*
X33774205Y-96170019D01*
X33785662Y-96165072D01*
X33913463Y-96117405D01*
X33916770Y-96116227D01*
X34030791Y-96077523D01*
X34044244Y-96073789D01*
X34184151Y-96043354D01*
X34186167Y-96042934D01*
X34297581Y-96020772D01*
X34312893Y-96018710D01*
X34490910Y-96005978D01*
X34491361Y-96005946D01*
X34570288Y-96000773D01*
X34578655Y-96000509D01*
X79948297Y-96100385D01*
G37*
%TD.AperFunction*%
%TD*%
%TA.AperFunction,Conductor*%
%TO.N,VBUS*%
G36*
X41238000Y-104616613D02*
G01*
X41283387Y-104662000D01*
X41300000Y-104724000D01*
X41300000Y-104809233D01*
X41298629Y-104823139D01*
X41299046Y-104823181D01*
X41295597Y-104858194D01*
X41295258Y-104861646D01*
X41294500Y-104869337D01*
X41294500Y-106876001D01*
X41298939Y-106909719D01*
X41300000Y-106925904D01*
X41300000Y-108536232D01*
X41282606Y-108599566D01*
X41235304Y-108645131D01*
X41171365Y-108660145D01*
X41155471Y-108659550D01*
X41136865Y-108662000D01*
X40183734Y-108662000D01*
X40169850Y-108661220D01*
X40134435Y-108657229D01*
X40078283Y-108667854D01*
X40073713Y-108668631D01*
X40011230Y-108678049D01*
X40006323Y-108679663D01*
X39950457Y-108709190D01*
X39946319Y-108711279D01*
X39889408Y-108738686D01*
X39885184Y-108741683D01*
X39840531Y-108786336D01*
X39837194Y-108789551D01*
X39790864Y-108832539D01*
X39779439Y-108847428D01*
X39304264Y-109322603D01*
X39293898Y-109331867D01*
X39266031Y-109354090D01*
X39233824Y-109401328D01*
X39231144Y-109405104D01*
X39193633Y-109455931D01*
X39185183Y-109472671D01*
X39179007Y-109481732D01*
X39177062Y-109480406D01*
X39162884Y-109503934D01*
X39160803Y-109506014D01*
X39109426Y-109611108D01*
X39099500Y-109679237D01*
X39099500Y-110776000D01*
X39082887Y-110838000D01*
X39037500Y-110883387D01*
X38975500Y-110900000D01*
X36224000Y-110900000D01*
X36162000Y-110883387D01*
X36116613Y-110838000D01*
X36100000Y-110776000D01*
X36100000Y-108307581D01*
X36119419Y-108240956D01*
X36171595Y-108195199D01*
X36240185Y-108184642D01*
X36399999Y-108205682D01*
X36399999Y-108205681D01*
X36400000Y-108205682D01*
X36556762Y-108185044D01*
X36702841Y-108124536D01*
X36828282Y-108028282D01*
X36924536Y-107902841D01*
X36985044Y-107756762D01*
X37005682Y-107600000D01*
X36985044Y-107443238D01*
X36924536Y-107297159D01*
X36854204Y-107205500D01*
X36828282Y-107171717D01*
X36702840Y-107075463D01*
X36556762Y-107014956D01*
X36399999Y-106994317D01*
X36240185Y-107015358D01*
X36171595Y-107004801D01*
X36119419Y-106959044D01*
X36100000Y-106892419D01*
X36100000Y-104729500D01*
X36116613Y-104667500D01*
X36162000Y-104622113D01*
X36224000Y-104605500D01*
X41016669Y-104605500D01*
X41016670Y-104605500D01*
X41027811Y-104604402D01*
X41062825Y-104600954D01*
X41062866Y-104601370D01*
X41076773Y-104600000D01*
X41176000Y-104600000D01*
X41238000Y-104616613D01*
G37*
%TD.AperFunction*%
%TD*%
%TA.AperFunction,Conductor*%
%TO.N,+3V3*%
G36*
X48618000Y-108879613D02*
G01*
X48663387Y-108925000D01*
X48680000Y-108987000D01*
X48680000Y-109990549D01*
X48666403Y-110047004D01*
X48628593Y-110091079D01*
X48574864Y-110113106D01*
X48516997Y-110108255D01*
X48507608Y-110105143D01*
X48408315Y-110095000D01*
X48360000Y-110095000D01*
X48360000Y-111171000D01*
X48343387Y-111233000D01*
X48298000Y-111278387D01*
X48236000Y-111295000D01*
X47135001Y-111295000D01*
X47135001Y-111318315D01*
X47145143Y-111417605D01*
X47198453Y-111578486D01*
X47287426Y-111722732D01*
X47407265Y-111842571D01*
X47507840Y-111904606D01*
X47547323Y-111943519D01*
X47565904Y-111995748D01*
X47559870Y-112050855D01*
X47530426Y-112097825D01*
X47511472Y-112116779D01*
X47450280Y-112236875D01*
X47434500Y-112336510D01*
X47434500Y-112853490D01*
X47450280Y-112953124D01*
X47511472Y-113073221D01*
X47606778Y-113168527D01*
X47606780Y-113168528D01*
X47726874Y-113229719D01*
X47760086Y-113234979D01*
X47826510Y-113245500D01*
X47826512Y-113245500D01*
X48393488Y-113245500D01*
X48393490Y-113245500D01*
X48493126Y-113229719D01*
X48499706Y-113226367D01*
X48560869Y-113212948D01*
X48620790Y-113231125D01*
X48664190Y-113276263D01*
X48680000Y-113336852D01*
X48680000Y-113576000D01*
X48663387Y-113638000D01*
X48618000Y-113683387D01*
X48556000Y-113700000D01*
X46755831Y-113700000D01*
X46708378Y-113690561D01*
X46668149Y-113663680D01*
X46640404Y-113635934D01*
X46533172Y-113585931D01*
X46478503Y-113578734D01*
X46426720Y-113559507D01*
X46388425Y-113519701D01*
X46371216Y-113467214D01*
X46378508Y-113412461D01*
X46417702Y-113307378D01*
X46424105Y-113247824D01*
X46424105Y-111450000D01*
X45198105Y-111450000D01*
X45136105Y-111433387D01*
X45090718Y-111388000D01*
X45074105Y-111326000D01*
X45074105Y-111074000D01*
X45090718Y-111012000D01*
X45136105Y-110966613D01*
X45198105Y-110950000D01*
X46424105Y-110950000D01*
X46424105Y-110795000D01*
X47135000Y-110795000D01*
X47860000Y-110795000D01*
X47860000Y-110095001D01*
X47811685Y-110095001D01*
X47712394Y-110105143D01*
X47551513Y-110158453D01*
X47407267Y-110247426D01*
X47287426Y-110367267D01*
X47198453Y-110511513D01*
X47145143Y-110672393D01*
X47135000Y-110771685D01*
X47135000Y-110795000D01*
X46424105Y-110795000D01*
X46424105Y-109152176D01*
X46417702Y-109092622D01*
X46394470Y-109030333D01*
X46387619Y-108971546D01*
X46408796Y-108916280D01*
X46453177Y-108877124D01*
X46510652Y-108863000D01*
X48556000Y-108863000D01*
X48618000Y-108879613D01*
G37*
%TD.AperFunction*%
%TD*%
%TA.AperFunction,Conductor*%
%TO.N,VDCOUT*%
G36*
X41238000Y-99516613D02*
G01*
X41283387Y-99562000D01*
X41300000Y-99624000D01*
X41300000Y-104116670D01*
X41290561Y-104164123D01*
X41263681Y-104204351D01*
X41104351Y-104363681D01*
X41064123Y-104390561D01*
X41016670Y-104400000D01*
X36224000Y-104400000D01*
X36162000Y-104383387D01*
X36116613Y-104338000D01*
X36100000Y-104276000D01*
X36100000Y-99624000D01*
X36116613Y-99562000D01*
X36162000Y-99516613D01*
X36224000Y-99500000D01*
X41176000Y-99500000D01*
X41238000Y-99516613D01*
G37*
%TD.AperFunction*%
%TD*%
%TA.AperFunction,Conductor*%
%TO.N,FETs*%
G36*
X46738000Y-103416613D02*
G01*
X46783387Y-103462000D01*
X46800000Y-103524000D01*
X46800000Y-104710501D01*
X46783387Y-104772501D01*
X46738000Y-104817888D01*
X46676000Y-104834501D01*
X46599899Y-104834501D01*
X46556566Y-104826683D01*
X46518696Y-104804214D01*
X46422288Y-104720676D01*
X46294775Y-104662442D01*
X46190885Y-104647506D01*
X44807133Y-104647506D01*
X44703242Y-104662442D01*
X44575727Y-104720677D01*
X44469787Y-104812474D01*
X44393997Y-104930406D01*
X44354504Y-105064909D01*
X44354504Y-105205093D01*
X44393997Y-105339595D01*
X44469787Y-105457527D01*
X44575727Y-105549324D01*
X44703242Y-105607559D01*
X44807133Y-105622496D01*
X46190885Y-105622496D01*
X46294775Y-105607559D01*
X46294774Y-105607559D01*
X46422289Y-105549325D01*
X46518695Y-105465788D01*
X46556566Y-105443319D01*
X46599899Y-105435501D01*
X46676000Y-105435501D01*
X46738000Y-105452114D01*
X46783387Y-105497501D01*
X46800000Y-105559501D01*
X46800000Y-106876000D01*
X46783387Y-106938000D01*
X46738000Y-106983387D01*
X46676000Y-107000000D01*
X41624000Y-107000000D01*
X41562000Y-106983387D01*
X41516613Y-106938000D01*
X41500000Y-106876000D01*
X41500000Y-104869336D01*
X41509439Y-104821883D01*
X41536319Y-104781655D01*
X41670468Y-104647506D01*
X42103520Y-104214453D01*
X42117352Y-104204502D01*
X42124225Y-104196962D01*
X42124228Y-104196961D01*
X42155478Y-104162680D01*
X42159369Y-104158604D01*
X42172175Y-104145800D01*
X42172179Y-104145793D01*
X42172870Y-104145103D01*
X42181926Y-104133668D01*
X42199916Y-104113936D01*
X42202416Y-104107479D01*
X42215747Y-104082189D01*
X42219657Y-104076483D01*
X42225774Y-104050474D01*
X42230845Y-104034096D01*
X42240500Y-104009176D01*
X42240500Y-104002251D01*
X42243794Y-103973861D01*
X42243819Y-103973752D01*
X42245379Y-103967122D01*
X42241689Y-103940670D01*
X42240500Y-103923539D01*
X42240500Y-103524000D01*
X42257113Y-103462000D01*
X42302500Y-103416613D01*
X42364500Y-103400000D01*
X46676000Y-103400000D01*
X46738000Y-103416613D01*
G37*
%TD.AperFunction*%
%TD*%
%TA.AperFunction,Conductor*%
%TO.N,Net-(J2-Pin_3)*%
G36*
X78738000Y-101616613D02*
G01*
X78783387Y-101662000D01*
X78800000Y-101724000D01*
X78800000Y-107026000D01*
X78783387Y-107088000D01*
X78738000Y-107133387D01*
X78676000Y-107150000D01*
X69024000Y-107150000D01*
X68962000Y-107133387D01*
X68916613Y-107088000D01*
X68900000Y-107026000D01*
X68900000Y-101724000D01*
X68916613Y-101662000D01*
X68962000Y-101616613D01*
X69024000Y-101600000D01*
X78676000Y-101600000D01*
X78738000Y-101616613D01*
G37*
%TD.AperFunction*%
%TD*%
%TA.AperFunction,Conductor*%
%TO.N,Net-(J2-Pin_2)*%
G36*
X78738000Y-107716613D02*
G01*
X78783387Y-107762000D01*
X78800000Y-107824000D01*
X78800000Y-112776000D01*
X78783387Y-112838000D01*
X78738000Y-112883387D01*
X78676000Y-112900000D01*
X69024000Y-112900000D01*
X68962000Y-112883387D01*
X68916613Y-112838000D01*
X68900000Y-112776000D01*
X68900000Y-107824000D01*
X68916613Y-107762000D01*
X68962000Y-107716613D01*
X69024000Y-107700000D01*
X78676000Y-107700000D01*
X78738000Y-107716613D01*
G37*
%TD.AperFunction*%
%TD*%
M02*
