%TF.GenerationSoftware,KiCad,Pcbnew,7.0.1-0*%
%TF.CreationDate,2023-11-20T21:41:34+01:00*%
%TF.ProjectId,luz,6c757a2e-6b69-4636-9164-5f7063625858,rev?*%
%TF.SameCoordinates,Original*%
%TF.FileFunction,Paste,Bot*%
%TF.FilePolarity,Positive*%
%FSLAX46Y46*%
G04 Gerber Fmt 4.6, Leading zero omitted, Abs format (unit mm)*
G04 Created by KiCad (PCBNEW 7.0.1-0) date 2023-11-20 21:41:34*
%MOMM*%
%LPD*%
G01*
G04 APERTURE LIST*
%ADD10R,0.900000X0.900000*%
%ADD11R,1.500000X0.900000*%
%ADD12R,0.900000X1.500000*%
G04 APERTURE END LIST*
D10*
%TO.C,U5*%
X51200000Y-107385000D03*
X52600000Y-108785000D03*
X51200000Y-108785000D03*
X49800000Y-108785000D03*
X52600000Y-110185000D03*
X51200000Y-110185000D03*
X52600000Y-107385000D03*
X49800000Y-110185000D03*
X49800000Y-107385000D03*
D11*
X61450000Y-116505000D03*
X61450000Y-115235000D03*
X61450000Y-113965000D03*
X61450000Y-112695000D03*
X61450000Y-111425000D03*
X61450000Y-110155000D03*
X61450000Y-108885000D03*
X61450000Y-107615000D03*
X61450000Y-106345000D03*
X61450000Y-105075000D03*
X61450000Y-103805000D03*
X61450000Y-102535000D03*
X61450000Y-101265000D03*
X61450000Y-99995000D03*
D12*
X58420000Y-98745000D03*
X57150000Y-98745000D03*
X55880000Y-98745000D03*
X54610000Y-98745000D03*
X53340000Y-98745000D03*
X52070000Y-98745000D03*
X50800000Y-98745000D03*
X49530000Y-98745000D03*
X48260000Y-98745000D03*
X46990000Y-98745000D03*
D11*
X43950000Y-99995000D03*
X43950000Y-101265000D03*
X43950000Y-102535000D03*
X43950000Y-103805000D03*
X43950000Y-105075000D03*
X43950000Y-106345000D03*
X43950000Y-107615000D03*
X43950000Y-108885000D03*
X43950000Y-110155000D03*
X43950000Y-111425000D03*
X43950000Y-112695000D03*
X43950000Y-113965000D03*
X43950000Y-115235000D03*
X43950000Y-116505000D03*
%TD*%
M02*
