%TF.GenerationSoftware,KiCad,Pcbnew,7.0.1-0*%
%TF.CreationDate,2023-11-20T21:41:35+01:00*%
%TF.ProjectId,luz,6c757a2e-6b69-4636-9164-5f7063625858,rev?*%
%TF.SameCoordinates,Original*%
%TF.FileFunction,Legend,Bot*%
%TF.FilePolarity,Positive*%
%FSLAX46Y46*%
G04 Gerber Fmt 4.6, Leading zero omitted, Abs format (unit mm)*
G04 Created by KiCad (PCBNEW 7.0.1-0) date 2023-11-20 21:41:35*
%MOMM*%
%LPD*%
G01*
G04 APERTURE LIST*
%ADD10C,0.120000*%
G04 APERTURE END LIST*
%TO.C,kibuzzard-655BB508*%
G36*
X69891590Y-97683185D02*
G01*
X69931595Y-97693980D01*
X69958900Y-97715570D01*
X69969060Y-97752400D01*
X69938580Y-97810185D01*
X69859840Y-97827330D01*
X69810310Y-97826695D01*
X69768400Y-97823520D01*
X69768400Y-97686360D01*
X69805230Y-97681915D01*
X69844600Y-97680010D01*
X69891590Y-97683185D01*
G37*
G36*
X68008339Y-97475064D02*
G01*
X68046915Y-97511735D01*
X68070251Y-97568409D01*
X68078030Y-97640640D01*
X68070886Y-97713030D01*
X68049455Y-97770180D01*
X68012149Y-97807327D01*
X67957380Y-97819710D01*
X67903881Y-97807327D01*
X67865305Y-97770180D01*
X67841969Y-97713030D01*
X67834190Y-97640640D01*
X67841334Y-97568409D01*
X67862765Y-97511735D01*
X67900071Y-97475064D01*
X67954840Y-97462840D01*
X68008339Y-97475064D01*
G37*
G36*
X72979119Y-97803359D02*
G01*
X72937685Y-97750495D01*
X72918988Y-97696238D01*
X72907769Y-97627446D01*
X72904030Y-97544120D01*
X72904605Y-97531420D01*
X72964990Y-97531420D01*
X72984675Y-97590475D01*
X73034840Y-97615240D01*
X73086910Y-97590475D01*
X73105960Y-97531420D01*
X73086910Y-97471730D01*
X73034840Y-97446330D01*
X72984675Y-97471730D01*
X72964990Y-97531420D01*
X72904605Y-97531420D01*
X72907769Y-97461499D01*
X72918988Y-97393131D01*
X72937685Y-97339015D01*
X72979119Y-97286151D01*
X73036110Y-97268530D01*
X73092308Y-97286151D01*
X73133900Y-97339015D01*
X73152950Y-97393131D01*
X73164380Y-97461499D01*
X73168190Y-97544120D01*
X73164380Y-97627446D01*
X73152950Y-97696238D01*
X73133900Y-97750495D01*
X73092308Y-97803359D01*
X73036110Y-97820980D01*
X73034840Y-97820587D01*
X72979119Y-97803359D01*
G37*
G36*
X71709119Y-97803359D02*
G01*
X71667685Y-97750495D01*
X71648988Y-97696238D01*
X71637769Y-97627446D01*
X71634030Y-97544120D01*
X71634605Y-97531420D01*
X71694990Y-97531420D01*
X71714675Y-97590475D01*
X71764840Y-97615240D01*
X71816910Y-97590475D01*
X71835960Y-97531420D01*
X71816910Y-97471730D01*
X71764840Y-97446330D01*
X71714675Y-97471730D01*
X71694990Y-97531420D01*
X71634605Y-97531420D01*
X71637769Y-97461499D01*
X71648988Y-97393131D01*
X71667685Y-97339015D01*
X71709119Y-97286151D01*
X71766110Y-97268530D01*
X71822307Y-97286151D01*
X71863900Y-97339015D01*
X71882950Y-97393131D01*
X71894380Y-97461499D01*
X71898190Y-97544120D01*
X71894380Y-97627446D01*
X71882950Y-97696238D01*
X71863900Y-97750495D01*
X71822307Y-97803359D01*
X71766110Y-97820980D01*
X71764840Y-97820587D01*
X71709119Y-97803359D01*
G37*
G36*
X65359119Y-97803359D02*
G01*
X65317685Y-97750495D01*
X65298988Y-97696238D01*
X65287769Y-97627446D01*
X65284030Y-97544120D01*
X65284605Y-97531420D01*
X65344990Y-97531420D01*
X65364675Y-97590475D01*
X65414840Y-97615240D01*
X65466910Y-97590475D01*
X65485960Y-97531420D01*
X65466910Y-97471730D01*
X65414840Y-97446330D01*
X65364675Y-97471730D01*
X65344990Y-97531420D01*
X65284605Y-97531420D01*
X65287769Y-97461499D01*
X65298988Y-97393131D01*
X65317685Y-97339015D01*
X65359119Y-97286151D01*
X65416110Y-97268530D01*
X65472308Y-97286151D01*
X65513900Y-97339015D01*
X65532950Y-97393131D01*
X65544380Y-97461499D01*
X65548190Y-97544120D01*
X65544380Y-97627446D01*
X65532950Y-97696238D01*
X65513900Y-97750495D01*
X65472308Y-97803359D01*
X65416110Y-97820980D01*
X65414840Y-97820587D01*
X65359119Y-97803359D01*
G37*
G36*
X72399840Y-98413223D02*
G01*
X71766110Y-98413223D01*
X71129840Y-98413223D01*
X70226870Y-98413223D01*
X69871270Y-98413223D01*
X68457760Y-98413223D01*
X67954840Y-98413223D01*
X67392230Y-98413223D01*
X66781360Y-98413223D01*
X65781870Y-98413223D01*
X65416110Y-98413223D01*
X64511870Y-98413223D01*
X64193100Y-98413223D01*
X63890840Y-98413223D01*
X63785007Y-98413223D01*
X63705297Y-98409307D01*
X63626355Y-98397597D01*
X63548940Y-98378206D01*
X63473800Y-98351320D01*
X63401656Y-98317199D01*
X63333204Y-98276170D01*
X63269103Y-98228630D01*
X63209971Y-98175036D01*
X63156377Y-98115903D01*
X63108836Y-98051803D01*
X63067808Y-97983351D01*
X63033686Y-97911207D01*
X63006800Y-97836066D01*
X62987409Y-97758652D01*
X62979511Y-97705410D01*
X63890840Y-97705410D01*
X63908620Y-97805740D01*
X63963230Y-97885115D01*
X64005140Y-97914960D01*
X64057210Y-97937185D01*
X64119757Y-97950996D01*
X64193100Y-97955600D01*
X64254695Y-97951155D01*
X64316925Y-97940360D01*
X64372170Y-97926390D01*
X64411540Y-97912420D01*
X64387570Y-97809550D01*
X64511870Y-97809550D01*
X64511870Y-97939090D01*
X65024950Y-97939090D01*
X65028125Y-97907340D01*
X65027490Y-97880670D01*
X65021616Y-97819710D01*
X65003995Y-97763830D01*
X64977325Y-97712554D01*
X64944305Y-97665405D01*
X64906840Y-97621908D01*
X64866835Y-97581585D01*
X64827332Y-97544120D01*
X65143060Y-97544120D01*
X65147426Y-97641593D01*
X65160523Y-97725730D01*
X65182351Y-97796532D01*
X65212910Y-97854000D01*
X65266532Y-97910444D01*
X65334266Y-97944311D01*
X65416110Y-97955600D01*
X65497954Y-97944311D01*
X65565688Y-97910444D01*
X65619310Y-97854000D01*
X65642947Y-97809550D01*
X65781870Y-97809550D01*
X65781870Y-97939090D01*
X66294950Y-97939090D01*
X66298125Y-97907340D01*
X66297490Y-97880670D01*
X66291616Y-97819710D01*
X66273995Y-97763830D01*
X66247325Y-97712554D01*
X66214305Y-97665405D01*
X66176840Y-97621908D01*
X66136835Y-97581585D01*
X66096830Y-97543644D01*
X66059365Y-97507290D01*
X65999675Y-97438710D01*
X65976180Y-97371400D01*
X66005390Y-97297105D01*
X66079050Y-97271070D01*
X66156520Y-97288850D01*
X66236530Y-97348540D01*
X66314000Y-97239320D01*
X66259231Y-97192965D01*
X66196525Y-97160580D01*
X66130009Y-97141530D01*
X66063810Y-97135180D01*
X65971100Y-97149150D01*
X65892360Y-97191060D01*
X65837750Y-97261545D01*
X65817430Y-97359970D01*
X65832670Y-97438075D01*
X65873310Y-97511100D01*
X65930460Y-97579680D01*
X65995230Y-97643180D01*
X66033330Y-97679375D01*
X66073970Y-97722555D01*
X66106355Y-97767640D01*
X66119690Y-97809550D01*
X65781870Y-97809550D01*
X65642947Y-97809550D01*
X65649869Y-97796532D01*
X65671697Y-97725730D01*
X65684794Y-97641593D01*
X65689160Y-97544120D01*
X65684715Y-97447759D01*
X65671380Y-97364415D01*
X65649155Y-97294089D01*
X65618040Y-97236780D01*
X65563994Y-97180336D01*
X65496684Y-97146469D01*
X65416110Y-97135180D01*
X65334266Y-97146398D01*
X65266532Y-97180053D01*
X65212910Y-97236145D01*
X65182351Y-97293255D01*
X65160523Y-97363621D01*
X65147426Y-97447243D01*
X65143060Y-97544120D01*
X64827332Y-97544120D01*
X64826830Y-97543644D01*
X64789365Y-97507290D01*
X64729675Y-97438710D01*
X64706180Y-97371400D01*
X64735390Y-97297105D01*
X64809050Y-97271070D01*
X64886520Y-97288850D01*
X64966530Y-97348540D01*
X65044000Y-97239320D01*
X64989231Y-97192965D01*
X64926525Y-97160580D01*
X64860009Y-97141530D01*
X64793810Y-97135180D01*
X64701100Y-97149150D01*
X64622360Y-97191060D01*
X64567750Y-97261545D01*
X64547430Y-97359970D01*
X64562670Y-97438075D01*
X64603310Y-97511100D01*
X64660460Y-97579680D01*
X64725230Y-97643180D01*
X64763330Y-97679375D01*
X64803970Y-97722555D01*
X64836355Y-97767640D01*
X64849690Y-97809550D01*
X64511870Y-97809550D01*
X64387570Y-97809550D01*
X64381060Y-97781610D01*
X64305495Y-97808280D01*
X64254536Y-97818758D01*
X64194370Y-97822250D01*
X64126266Y-97813678D01*
X64081975Y-97787960D01*
X64049590Y-97702870D01*
X64061972Y-97650006D01*
X64099120Y-97615875D01*
X64155317Y-97597301D01*
X64224850Y-97591110D01*
X64273110Y-97591110D01*
X64273110Y-97461570D01*
X64214690Y-97461570D01*
X64166430Y-97456490D01*
X64123250Y-97439980D01*
X64092135Y-97409500D01*
X64080070Y-97361240D01*
X64106105Y-97293295D01*
X64177860Y-97268530D01*
X64266125Y-97283135D01*
X64341690Y-97319330D01*
X64397570Y-97205030D01*
X64306765Y-97158675D01*
X64246599Y-97141054D01*
X64179130Y-97135180D01*
X64117376Y-97139307D01*
X64064195Y-97151690D01*
X63983550Y-97198045D01*
X63936560Y-97268530D01*
X63921320Y-97356160D01*
X63947990Y-97446330D01*
X64019110Y-97512370D01*
X63964976Y-97543803D01*
X63924495Y-97587300D01*
X63899254Y-97641593D01*
X63890840Y-97705410D01*
X62979511Y-97705410D01*
X62975699Y-97679710D01*
X62971783Y-97600000D01*
X62975699Y-97520290D01*
X62987409Y-97441348D01*
X63006800Y-97363934D01*
X63033686Y-97288793D01*
X63067808Y-97216649D01*
X63108836Y-97148197D01*
X63156377Y-97084097D01*
X63186048Y-97051360D01*
X66428300Y-97051360D01*
X66781360Y-98148640D01*
X66943920Y-98148640D01*
X66682570Y-97342190D01*
X67021390Y-97342190D01*
X67048774Y-97430574D01*
X67077587Y-97515386D01*
X67107829Y-97596627D01*
X67139500Y-97674295D01*
X67181833Y-97771168D01*
X67222473Y-97859433D01*
X67261420Y-97939090D01*
X67392230Y-97939090D01*
X67430542Y-97859433D01*
X67469277Y-97771168D01*
X67508435Y-97674295D01*
X67521552Y-97639370D01*
X67674170Y-97639370D01*
X67679250Y-97707156D01*
X67694490Y-97768275D01*
X67718937Y-97822091D01*
X67751640Y-97867970D01*
X67792121Y-97905118D01*
X67839905Y-97932740D01*
X67894356Y-97949885D01*
X67954840Y-97955600D01*
X68015324Y-97949885D01*
X68049608Y-97939090D01*
X68332030Y-97939090D01*
X68457760Y-97939090D01*
X68494378Y-97851954D01*
X68533113Y-97764959D01*
X68573965Y-97678105D01*
X68616933Y-97591251D01*
X68662018Y-97504256D01*
X68709220Y-97417120D01*
X68709220Y-97939090D01*
X68850190Y-97939090D01*
X68850190Y-97925120D01*
X69618540Y-97925120D01*
X69720140Y-97942900D01*
X69791578Y-97950520D01*
X69871270Y-97953060D01*
X69974775Y-97942900D01*
X70054150Y-97909245D01*
X70104950Y-97848285D01*
X70112430Y-97809550D01*
X70226870Y-97809550D01*
X70226870Y-97939090D01*
X70739950Y-97939090D01*
X70743125Y-97907340D01*
X70742490Y-97880670D01*
X70738452Y-97838760D01*
X71016810Y-97838760D01*
X71051100Y-97923850D01*
X71129840Y-97953060D01*
X71173020Y-97945440D01*
X71209215Y-97923215D01*
X71234615Y-97887655D01*
X71244140Y-97838760D01*
X71234615Y-97791135D01*
X71209215Y-97756210D01*
X71173020Y-97734620D01*
X71129840Y-97727000D01*
X71051100Y-97756210D01*
X71016810Y-97838760D01*
X70738452Y-97838760D01*
X70736616Y-97819710D01*
X70718995Y-97763830D01*
X70692325Y-97712554D01*
X70659305Y-97665405D01*
X70621840Y-97621908D01*
X70581835Y-97581585D01*
X70542332Y-97544120D01*
X71493060Y-97544120D01*
X71497426Y-97641593D01*
X71510523Y-97725730D01*
X71532351Y-97796532D01*
X71562910Y-97854000D01*
X71616532Y-97910444D01*
X71684266Y-97944311D01*
X71766110Y-97955600D01*
X71847954Y-97944311D01*
X71915688Y-97910444D01*
X71969310Y-97854000D01*
X71977414Y-97838760D01*
X72286810Y-97838760D01*
X72321100Y-97923850D01*
X72399840Y-97953060D01*
X72443020Y-97945440D01*
X72479215Y-97923215D01*
X72504615Y-97887655D01*
X72514140Y-97838760D01*
X72504615Y-97791135D01*
X72479215Y-97756210D01*
X72443020Y-97734620D01*
X72399840Y-97727000D01*
X72321100Y-97756210D01*
X72286810Y-97838760D01*
X71977414Y-97838760D01*
X71999869Y-97796532D01*
X72021697Y-97725730D01*
X72034794Y-97641593D01*
X72039160Y-97544120D01*
X72763060Y-97544120D01*
X72767426Y-97641593D01*
X72780522Y-97725730D01*
X72802351Y-97796532D01*
X72832910Y-97854000D01*
X72886532Y-97910444D01*
X72954266Y-97944311D01*
X73036110Y-97955600D01*
X73117954Y-97944311D01*
X73185688Y-97910444D01*
X73239310Y-97854000D01*
X73269869Y-97796532D01*
X73291698Y-97725730D01*
X73304794Y-97641593D01*
X73309160Y-97544120D01*
X73304715Y-97447759D01*
X73291380Y-97364415D01*
X73269155Y-97294089D01*
X73238040Y-97236780D01*
X73183994Y-97180336D01*
X73116684Y-97146469D01*
X73036110Y-97135180D01*
X72954266Y-97146398D01*
X72886532Y-97180053D01*
X72832910Y-97236145D01*
X72802351Y-97293255D01*
X72780522Y-97363621D01*
X72767426Y-97447243D01*
X72763060Y-97544120D01*
X72039160Y-97544120D01*
X72034715Y-97447759D01*
X72021380Y-97364415D01*
X71999155Y-97294089D01*
X71968040Y-97236780D01*
X71913994Y-97180336D01*
X71846684Y-97146469D01*
X71766110Y-97135180D01*
X71684266Y-97146398D01*
X71616532Y-97180053D01*
X71562910Y-97236145D01*
X71532351Y-97293255D01*
X71510523Y-97363621D01*
X71497426Y-97447243D01*
X71493060Y-97544120D01*
X70542332Y-97544120D01*
X70541830Y-97543644D01*
X70504365Y-97507290D01*
X70444675Y-97438710D01*
X70421180Y-97371400D01*
X70450390Y-97297105D01*
X70524050Y-97271070D01*
X70601520Y-97288850D01*
X70681530Y-97348540D01*
X70759000Y-97239320D01*
X70704231Y-97192965D01*
X70641525Y-97160580D01*
X70575009Y-97141530D01*
X70508810Y-97135180D01*
X70416100Y-97149150D01*
X70337360Y-97191060D01*
X70282750Y-97261545D01*
X70262430Y-97359970D01*
X70277670Y-97438075D01*
X70318310Y-97511100D01*
X70375460Y-97579680D01*
X70440230Y-97643180D01*
X70478330Y-97679375D01*
X70518970Y-97722555D01*
X70551355Y-97767640D01*
X70564690Y-97809550D01*
X70226870Y-97809550D01*
X70112430Y-97809550D01*
X70122730Y-97756210D01*
X70102410Y-97668580D01*
X70047800Y-97611430D01*
X69969060Y-97580315D01*
X69876350Y-97570790D01*
X69818882Y-97573330D01*
X69768400Y-97580950D01*
X69768400Y-97561900D01*
X69796340Y-97487605D01*
X69834440Y-97465221D01*
X69892860Y-97457760D01*
X69978585Y-97464110D01*
X70045260Y-97479350D01*
X70066850Y-97353620D01*
X69984300Y-97335205D01*
X69930007Y-97329014D01*
X69873810Y-97326950D01*
X69806341Y-97331236D01*
X69751255Y-97344095D01*
X69673150Y-97392355D01*
X69631240Y-97468555D01*
X69618540Y-97569520D01*
X69618540Y-97925120D01*
X68850190Y-97925120D01*
X68850190Y-97152960D01*
X68724460Y-97152960D01*
X68688900Y-97211221D01*
X68653340Y-97274245D01*
X68618256Y-97339491D01*
X68584125Y-97404420D01*
X68551740Y-97468237D01*
X68521895Y-97530150D01*
X68495384Y-97587300D01*
X68473000Y-97636830D01*
X68473000Y-97152960D01*
X68332030Y-97152960D01*
X68332030Y-97939090D01*
X68049608Y-97939090D01*
X68069775Y-97932740D01*
X68117717Y-97905118D01*
X68158675Y-97867970D01*
X68191854Y-97822091D01*
X68216460Y-97768275D01*
X68231700Y-97707156D01*
X68236780Y-97639370D01*
X68231541Y-97572536D01*
X68215825Y-97511735D01*
X68190742Y-97458078D01*
X68157405Y-97412675D01*
X68116289Y-97376163D01*
X68067870Y-97349175D01*
X68013577Y-97332506D01*
X67954840Y-97326950D01*
X67895309Y-97332506D01*
X67841175Y-97349175D01*
X67793232Y-97376163D01*
X67752275Y-97412675D01*
X67719096Y-97458078D01*
X67694490Y-97511735D01*
X67679250Y-97572536D01*
X67674170Y-97639370D01*
X67521552Y-97639370D01*
X67537605Y-97596627D01*
X67566061Y-97515386D01*
X67593803Y-97430574D01*
X67620830Y-97342190D01*
X67457000Y-97342190D01*
X67444459Y-97392037D01*
X67429695Y-97445060D01*
X67413344Y-97499829D01*
X67396040Y-97554915D01*
X67378101Y-97609366D01*
X67359845Y-97662230D01*
X67324920Y-97757480D01*
X67288090Y-97662230D01*
X67267929Y-97609366D01*
X67248085Y-97554915D01*
X67228717Y-97499829D01*
X67209985Y-97445060D01*
X67193316Y-97392037D01*
X67180140Y-97342190D01*
X67021390Y-97342190D01*
X66682570Y-97342190D01*
X66588320Y-97051360D01*
X66428300Y-97051360D01*
X63186048Y-97051360D01*
X63209971Y-97024964D01*
X63269103Y-96971370D01*
X63333204Y-96923830D01*
X63401656Y-96882801D01*
X63473800Y-96848680D01*
X63548940Y-96821794D01*
X63626355Y-96802403D01*
X63705297Y-96790693D01*
X63785007Y-96786777D01*
X63890840Y-96786777D01*
X73309160Y-96786777D01*
X73414993Y-96786777D01*
X73494703Y-96790693D01*
X73573645Y-96802403D01*
X73651060Y-96821794D01*
X73726200Y-96848680D01*
X73798344Y-96882801D01*
X73866796Y-96923830D01*
X73930897Y-96971370D01*
X73990029Y-97024964D01*
X74043623Y-97084097D01*
X74091164Y-97148197D01*
X74132192Y-97216649D01*
X74166314Y-97288793D01*
X74193200Y-97363934D01*
X74212591Y-97441348D01*
X74224301Y-97520290D01*
X74228217Y-97600000D01*
X74224301Y-97679710D01*
X74212591Y-97758652D01*
X74193200Y-97836066D01*
X74166314Y-97911207D01*
X74132192Y-97983351D01*
X74091164Y-98051803D01*
X74043623Y-98115903D01*
X73990029Y-98175036D01*
X73930897Y-98228630D01*
X73866796Y-98276170D01*
X73798344Y-98317199D01*
X73726200Y-98351320D01*
X73651060Y-98378206D01*
X73573645Y-98397597D01*
X73494703Y-98409307D01*
X73414993Y-98413223D01*
X73309160Y-98413223D01*
X73036110Y-98413223D01*
X72399840Y-98413223D01*
G37*
%TO.C,kibuzzard-655BB0BF*%
G36*
X71034850Y-113935205D02*
G01*
X71057710Y-113938380D01*
X71057710Y-114466700D01*
X71043740Y-114467970D01*
X71029770Y-114467970D01*
X70940235Y-114447650D01*
X70881815Y-114391770D01*
X70850065Y-114307315D01*
X70842921Y-114256039D01*
X70840540Y-114200000D01*
X70848160Y-114100940D01*
X70874830Y-114015850D01*
X70926900Y-113956795D01*
X71011990Y-113934570D01*
X71034850Y-113935205D01*
G37*
G36*
X71466650Y-114874793D02*
G01*
X71046280Y-114874793D01*
X70681790Y-114874793D01*
X70575957Y-114874793D01*
X70509815Y-114871544D01*
X70444311Y-114861827D01*
X70380075Y-114845737D01*
X70317724Y-114823428D01*
X70257861Y-114795115D01*
X70201062Y-114761070D01*
X70147872Y-114721622D01*
X70098806Y-114677151D01*
X70054334Y-114628084D01*
X70014887Y-114574895D01*
X69980842Y-114518095D01*
X69952529Y-114458232D01*
X69930220Y-114395882D01*
X69914129Y-114331646D01*
X69904413Y-114266141D01*
X69901163Y-114200000D01*
X70681790Y-114200000D01*
X70688616Y-114301124D01*
X70709095Y-114386055D01*
X70741639Y-114455746D01*
X70784660Y-114511150D01*
X70837524Y-114552901D01*
X70899595Y-114581635D01*
X70969604Y-114598304D01*
X71046280Y-114603860D01*
X71128195Y-114599415D01*
X71161740Y-114593700D01*
X71340920Y-114593700D01*
X71466650Y-114593700D01*
X71503268Y-114506564D01*
X71542003Y-114419569D01*
X71582855Y-114332715D01*
X71625823Y-114245861D01*
X71670908Y-114158866D01*
X71718110Y-114071730D01*
X71718110Y-114593700D01*
X71859080Y-114593700D01*
X71859080Y-113846940D01*
X71963220Y-113846940D01*
X72003860Y-113971400D01*
X72072440Y-113939650D01*
X72156260Y-113925680D01*
X72250240Y-113946000D01*
X72313105Y-114002515D01*
X72348665Y-114088875D01*
X72356761Y-114141739D01*
X72359460Y-114200000D01*
X72354521Y-114285725D01*
X72339704Y-114354940D01*
X72315010Y-114407645D01*
X72260082Y-114457651D01*
X72184200Y-114474320D01*
X72153720Y-114473050D01*
X72123240Y-114469240D01*
X72123240Y-114182220D01*
X71967030Y-114182220D01*
X71967030Y-114574650D01*
X72054025Y-114597510D01*
X72119271Y-114607035D01*
X72196900Y-114610210D01*
X72266909Y-114603701D01*
X72329615Y-114584175D01*
X72384384Y-114551790D01*
X72430580Y-114506705D01*
X72467727Y-114448920D01*
X72495350Y-114378435D01*
X72512495Y-114295409D01*
X72518210Y-114200000D01*
X72511542Y-114105544D01*
X72491540Y-114022835D01*
X72460107Y-113952191D01*
X72419150Y-113893930D01*
X72369302Y-113848369D01*
X72311200Y-113815825D01*
X72246747Y-113796299D01*
X72177850Y-113789790D01*
X72095935Y-113796775D01*
X72033070Y-113812650D01*
X71989255Y-113831700D01*
X71963220Y-113846940D01*
X71859080Y-113846940D01*
X71859080Y-113807570D01*
X71733350Y-113807570D01*
X71697790Y-113865831D01*
X71662230Y-113928855D01*
X71627146Y-113994101D01*
X71593015Y-114059030D01*
X71560630Y-114122847D01*
X71530785Y-114184760D01*
X71504274Y-114241910D01*
X71481890Y-114291440D01*
X71481890Y-113807570D01*
X71340920Y-113807570D01*
X71340920Y-114593700D01*
X71161740Y-114593700D01*
X71213920Y-114584810D01*
X71213920Y-113817730D01*
X71113590Y-113802490D01*
X71025960Y-113798680D01*
X70951824Y-113804395D01*
X70884355Y-113821540D01*
X70825141Y-113850909D01*
X70775770Y-113893295D01*
X70736241Y-113948857D01*
X70706555Y-114017755D01*
X70687981Y-114101099D01*
X70681790Y-114200000D01*
X69901163Y-114200000D01*
X69904413Y-114133859D01*
X69914129Y-114068354D01*
X69930220Y-114004118D01*
X69952529Y-113941768D01*
X69980842Y-113881905D01*
X70014887Y-113825105D01*
X70054334Y-113771916D01*
X70098806Y-113722849D01*
X70147872Y-113678378D01*
X70201062Y-113638930D01*
X70257861Y-113604885D01*
X70317724Y-113576572D01*
X70380075Y-113554263D01*
X70444311Y-113538173D01*
X70509815Y-113528456D01*
X70575957Y-113525207D01*
X70681790Y-113525207D01*
X72518210Y-113525207D01*
X72624043Y-113525207D01*
X72690185Y-113528456D01*
X72755689Y-113538173D01*
X72819925Y-113554263D01*
X72882276Y-113576572D01*
X72942139Y-113604885D01*
X72998938Y-113638930D01*
X73052128Y-113678378D01*
X73101194Y-113722849D01*
X73145666Y-113771916D01*
X73185113Y-113825105D01*
X73219158Y-113881905D01*
X73247471Y-113941768D01*
X73269780Y-114004118D01*
X73285871Y-114068354D01*
X73295587Y-114133859D01*
X73298837Y-114200000D01*
X73295587Y-114266141D01*
X73285871Y-114331646D01*
X73269780Y-114395882D01*
X73247471Y-114458232D01*
X73219158Y-114518095D01*
X73185113Y-114574895D01*
X73145666Y-114628084D01*
X73101194Y-114677151D01*
X73052128Y-114721622D01*
X72998938Y-114761070D01*
X72942139Y-114795115D01*
X72882276Y-114823428D01*
X72819925Y-114845737D01*
X72755689Y-114861827D01*
X72690185Y-114871544D01*
X72624043Y-114874793D01*
X72518210Y-114874793D01*
X72196900Y-114874793D01*
X71466650Y-114874793D01*
G37*
%TO.C,kibuzzard-655BB0B1*%
G36*
X69512115Y-113939015D02*
G01*
X69537515Y-113942190D01*
X69537515Y-114178410D01*
X69503225Y-114178410D01*
X69434327Y-114170631D01*
X69387655Y-114147295D01*
X69352095Y-114059030D01*
X69361620Y-114005055D01*
X69390195Y-113967590D01*
X69434327Y-113945683D01*
X69490525Y-113938380D01*
X69512115Y-113939015D01*
G37*
G36*
X68675185Y-114862093D02*
G01*
X68506275Y-114862093D01*
X68400442Y-114862093D01*
X68335545Y-114858905D01*
X68271274Y-114849371D01*
X68208246Y-114833584D01*
X68147070Y-114811694D01*
X68088333Y-114783914D01*
X68032602Y-114750510D01*
X67980414Y-114711805D01*
X67932271Y-114668171D01*
X67888637Y-114620028D01*
X67871937Y-114597510D01*
X68506275Y-114597510D01*
X68675185Y-114597510D01*
X68702014Y-114529248D01*
X68734240Y-114454000D01*
X68769959Y-114375260D01*
X68807265Y-114296520D01*
X68844095Y-114372879D01*
X68880925Y-114452095D01*
X68915215Y-114528771D01*
X68944425Y-114597510D01*
X69113335Y-114597510D01*
X69141275Y-114597510D01*
X69305105Y-114597510D01*
X69336696Y-114522739D01*
X69373050Y-114450825D01*
X69413214Y-114379864D01*
X69456235Y-114307950D01*
X69537515Y-114307950D01*
X69537515Y-114597510D01*
X69693725Y-114597510D01*
X69693725Y-113822810D01*
X69643560Y-113813285D01*
X69588315Y-113806935D01*
X69534975Y-113803760D01*
X69490525Y-113802490D01*
X69426390Y-113806300D01*
X69368605Y-113817730D01*
X69317805Y-113837097D01*
X69274625Y-113864720D01*
X69214300Y-113945365D01*
X69198584Y-113998546D01*
X69193345Y-114060300D01*
X69200330Y-114125705D01*
X69221285Y-114184760D01*
X69258432Y-114233973D01*
X69313995Y-114269850D01*
X69268275Y-114342875D01*
X69221285Y-114426695D01*
X69177470Y-114514325D01*
X69141275Y-114597510D01*
X69113335Y-114597510D01*
X69075870Y-114514960D01*
X69049835Y-114464795D01*
X69021260Y-114410820D01*
X68990621Y-114354146D01*
X68958395Y-114295885D01*
X68926010Y-114237941D01*
X68894895Y-114182220D01*
X69100635Y-113811380D01*
X68931725Y-113811380D01*
X68807265Y-114062840D01*
X68676455Y-113811380D01*
X68518975Y-113811380D01*
X68719635Y-114178410D01*
X68685662Y-114234290D01*
X68652325Y-114292710D01*
X68620416Y-114351606D01*
X68590730Y-114408915D01*
X68563901Y-114463525D01*
X68540565Y-114514325D01*
X68506275Y-114597510D01*
X67871937Y-114597510D01*
X67849931Y-114567839D01*
X67816527Y-114512109D01*
X67788747Y-114453372D01*
X67766858Y-114392196D01*
X67751070Y-114329168D01*
X67741537Y-114264896D01*
X67738348Y-114200000D01*
X67741537Y-114135104D01*
X67751070Y-114070832D01*
X67766858Y-114007804D01*
X67788747Y-113946628D01*
X67816527Y-113887891D01*
X67849931Y-113832161D01*
X67888637Y-113779972D01*
X67932271Y-113731829D01*
X67980414Y-113688195D01*
X68032602Y-113649490D01*
X68088333Y-113616086D01*
X68147070Y-113588306D01*
X68208246Y-113566416D01*
X68271274Y-113550629D01*
X68335545Y-113541095D01*
X68400442Y-113537907D01*
X68506275Y-113537907D01*
X69693725Y-113537907D01*
X69799558Y-113537907D01*
X69864455Y-113541095D01*
X69928726Y-113550629D01*
X69991754Y-113566416D01*
X70052930Y-113588306D01*
X70111667Y-113616086D01*
X70167398Y-113649490D01*
X70219586Y-113688195D01*
X70267729Y-113731829D01*
X70311363Y-113779972D01*
X70350069Y-113832161D01*
X70383473Y-113887891D01*
X70411253Y-113946628D01*
X70433142Y-114007804D01*
X70448930Y-114070832D01*
X70458463Y-114135104D01*
X70461652Y-114200000D01*
X70458463Y-114264896D01*
X70448930Y-114329168D01*
X70433142Y-114392196D01*
X70411253Y-114453372D01*
X70383473Y-114512109D01*
X70350069Y-114567839D01*
X70311363Y-114620028D01*
X70267729Y-114668171D01*
X70219586Y-114711805D01*
X70167398Y-114750510D01*
X70111667Y-114783914D01*
X70052930Y-114811694D01*
X69991754Y-114833584D01*
X69928726Y-114849371D01*
X69864455Y-114858905D01*
X69799558Y-114862093D01*
X69693725Y-114862093D01*
X69141275Y-114862093D01*
X68675185Y-114862093D01*
G37*
%TO.C,kibuzzard-655BB09E*%
G36*
X66056770Y-114857648D02*
G01*
X65887860Y-114857648D01*
X65782027Y-114857648D01*
X65717566Y-114854482D01*
X65653726Y-114845012D01*
X65591121Y-114829330D01*
X65530356Y-114807588D01*
X65472013Y-114779994D01*
X65416657Y-114746815D01*
X65364819Y-114708369D01*
X65316999Y-114665028D01*
X65273658Y-114617208D01*
X65255752Y-114593065D01*
X65887860Y-114593065D01*
X66056770Y-114593065D01*
X66083599Y-114524803D01*
X66115825Y-114449555D01*
X66151544Y-114370815D01*
X66188850Y-114292075D01*
X66225680Y-114368434D01*
X66262510Y-114447650D01*
X66296800Y-114524326D01*
X66326010Y-114593065D01*
X66494920Y-114593065D01*
X66457455Y-114510515D01*
X66431420Y-114460350D01*
X66402845Y-114406375D01*
X66372206Y-114349701D01*
X66339980Y-114291440D01*
X66307595Y-114233496D01*
X66276480Y-114177775D01*
X66410352Y-113936475D01*
X66540640Y-113936475D01*
X66747650Y-113936475D01*
X66747650Y-114593065D01*
X66905130Y-114593065D01*
X66905130Y-113936475D01*
X67112140Y-113936475D01*
X67112140Y-113806935D01*
X66540640Y-113806935D01*
X66540640Y-113936475D01*
X66410352Y-113936475D01*
X66482220Y-113806935D01*
X66313310Y-113806935D01*
X66188850Y-114058395D01*
X66058040Y-113806935D01*
X65900560Y-113806935D01*
X66101220Y-114173965D01*
X66067247Y-114229845D01*
X66033910Y-114288265D01*
X66002001Y-114347161D01*
X65972315Y-114404470D01*
X65945486Y-114459080D01*
X65922150Y-114509880D01*
X65887860Y-114593065D01*
X65255752Y-114593065D01*
X65235212Y-114565370D01*
X65202033Y-114510013D01*
X65174439Y-114451671D01*
X65152696Y-114390905D01*
X65137015Y-114328301D01*
X65127545Y-114264461D01*
X65124378Y-114200000D01*
X65127545Y-114135539D01*
X65137015Y-114071699D01*
X65152696Y-114009095D01*
X65174439Y-113948329D01*
X65202033Y-113889987D01*
X65235212Y-113834630D01*
X65273658Y-113782792D01*
X65316999Y-113734972D01*
X65364819Y-113691631D01*
X65416657Y-113653185D01*
X65472013Y-113620006D01*
X65530356Y-113592412D01*
X65591121Y-113570670D01*
X65653726Y-113554988D01*
X65717566Y-113545518D01*
X65782027Y-113542352D01*
X65887860Y-113542352D01*
X67112140Y-113542352D01*
X67217973Y-113542352D01*
X67282434Y-113545518D01*
X67346274Y-113554988D01*
X67408879Y-113570670D01*
X67469644Y-113592412D01*
X67527987Y-113620006D01*
X67583343Y-113653185D01*
X67635181Y-113691631D01*
X67683001Y-113734972D01*
X67726342Y-113782792D01*
X67764788Y-113834630D01*
X67797967Y-113889987D01*
X67825561Y-113948329D01*
X67847304Y-114009095D01*
X67862985Y-114071699D01*
X67872455Y-114135539D01*
X67875622Y-114200000D01*
X67872455Y-114264461D01*
X67862985Y-114328301D01*
X67847304Y-114390905D01*
X67825561Y-114451671D01*
X67797967Y-114510013D01*
X67764788Y-114565370D01*
X67726342Y-114617208D01*
X67683001Y-114665028D01*
X67635181Y-114708369D01*
X67583343Y-114746815D01*
X67527987Y-114779994D01*
X67469644Y-114807588D01*
X67408879Y-114829330D01*
X67346274Y-114845012D01*
X67282434Y-114854482D01*
X67217973Y-114857648D01*
X67112140Y-114857648D01*
X66747650Y-114857648D01*
X66056770Y-114857648D01*
G37*
%TO.C,kibuzzard-655BB076*%
G36*
X63782195Y-114874793D02*
G01*
X63398655Y-114874793D01*
X63292822Y-114874793D01*
X63226680Y-114871544D01*
X63161176Y-114861827D01*
X63096940Y-114845737D01*
X63034589Y-114823428D01*
X62974726Y-114795115D01*
X62917927Y-114761070D01*
X62864737Y-114721622D01*
X62815671Y-114677151D01*
X62771199Y-114628084D01*
X62731752Y-114574895D01*
X62697707Y-114518095D01*
X62669394Y-114458232D01*
X62647085Y-114395882D01*
X62630994Y-114331646D01*
X62621278Y-114266141D01*
X62618028Y-114200000D01*
X62621278Y-114133859D01*
X62630994Y-114068354D01*
X62647085Y-114004118D01*
X62669394Y-113941768D01*
X62697707Y-113881905D01*
X62731752Y-113825105D01*
X62744757Y-113807570D01*
X63398655Y-113807570D01*
X63415641Y-113888215D01*
X63436120Y-113977750D01*
X63459932Y-114074111D01*
X63486920Y-114175235D01*
X63506605Y-114244662D01*
X63527560Y-114314935D01*
X63549785Y-114386055D01*
X63572927Y-114456822D01*
X63596634Y-114526037D01*
X63620905Y-114593700D01*
X63782195Y-114593700D01*
X63813627Y-114500355D01*
X63846965Y-114395580D01*
X63857807Y-114360020D01*
X64080645Y-114360020D01*
X64098425Y-114460350D01*
X64153035Y-114539725D01*
X64194945Y-114569570D01*
X64247015Y-114591795D01*
X64309562Y-114605606D01*
X64382905Y-114610210D01*
X64444500Y-114605765D01*
X64506730Y-114594970D01*
X64561975Y-114581000D01*
X64601345Y-114567030D01*
X64570865Y-114436220D01*
X64495300Y-114462890D01*
X64444341Y-114473367D01*
X64384175Y-114476860D01*
X64316071Y-114468288D01*
X64271780Y-114442570D01*
X64239395Y-114357480D01*
X64251777Y-114304616D01*
X64288925Y-114270485D01*
X64345122Y-114251911D01*
X64414655Y-114245720D01*
X64462915Y-114245720D01*
X64462915Y-114116180D01*
X64404495Y-114116180D01*
X64356235Y-114111100D01*
X64313055Y-114094590D01*
X64281940Y-114064110D01*
X64269875Y-114015850D01*
X64295910Y-113947905D01*
X64367665Y-113923140D01*
X64455930Y-113937745D01*
X64531495Y-113973940D01*
X64587375Y-113859640D01*
X64496570Y-113813285D01*
X64436404Y-113795664D01*
X64368935Y-113789790D01*
X64307181Y-113793917D01*
X64254000Y-113806300D01*
X64173355Y-113852655D01*
X64126365Y-113923140D01*
X64111125Y-114010770D01*
X64137795Y-114100940D01*
X64208915Y-114166980D01*
X64154781Y-114198412D01*
X64114300Y-114241910D01*
X64089059Y-114296202D01*
X64080645Y-114360020D01*
X63857807Y-114360020D01*
X63869402Y-114321991D01*
X63890992Y-114248542D01*
X63911735Y-114175235D01*
X63931349Y-114103339D01*
X63949553Y-114034124D01*
X63966345Y-113967590D01*
X63987300Y-113878690D01*
X64001905Y-113807570D01*
X63836805Y-113807570D01*
X63827280Y-113873451D01*
X63813945Y-113949175D01*
X63797911Y-114031090D01*
X63780290Y-114115545D01*
X63761240Y-114200635D01*
X63740920Y-114284455D01*
X63720124Y-114363354D01*
X63699645Y-114433680D01*
X63679325Y-114364306D01*
X63659005Y-114285725D01*
X63639320Y-114201905D01*
X63620905Y-114116815D01*
X63603760Y-114032201D01*
X63587885Y-113949810D01*
X63573915Y-113873610D01*
X63562485Y-113807570D01*
X63398655Y-113807570D01*
X62744757Y-113807570D01*
X62771199Y-113771916D01*
X62815671Y-113722849D01*
X62864737Y-113678378D01*
X62917927Y-113638930D01*
X62974726Y-113604885D01*
X63034589Y-113576572D01*
X63096940Y-113554263D01*
X63161176Y-113538173D01*
X63226680Y-113528456D01*
X63292822Y-113525207D01*
X63398655Y-113525207D01*
X64601345Y-113525207D01*
X64707178Y-113525207D01*
X64773320Y-113528456D01*
X64838824Y-113538173D01*
X64903060Y-113554263D01*
X64965411Y-113576572D01*
X65025274Y-113604885D01*
X65082073Y-113638930D01*
X65135263Y-113678378D01*
X65184329Y-113722849D01*
X65228801Y-113771916D01*
X65268248Y-113825105D01*
X65302293Y-113881905D01*
X65330606Y-113941768D01*
X65352915Y-114004118D01*
X65369006Y-114068354D01*
X65378722Y-114133859D01*
X65381972Y-114200000D01*
X65378722Y-114266141D01*
X65369006Y-114331646D01*
X65352915Y-114395882D01*
X65330606Y-114458232D01*
X65302293Y-114518095D01*
X65268248Y-114574895D01*
X65228801Y-114628084D01*
X65184329Y-114677151D01*
X65135263Y-114721622D01*
X65082073Y-114761070D01*
X65025274Y-114795115D01*
X64965411Y-114823428D01*
X64903060Y-114845737D01*
X64838824Y-114861827D01*
X64773320Y-114871544D01*
X64707178Y-114874793D01*
X64601345Y-114874793D01*
X64382905Y-114874793D01*
X63782195Y-114874793D01*
G37*
D10*
%TO.C,U5*%
X43580000Y-98375000D02*
X44580000Y-98375000D01*
X43580000Y-117700000D02*
X43200000Y-117700000D01*
X61820000Y-98375000D02*
X60820000Y-98375000D01*
X61820000Y-124115000D02*
X61820000Y-117700000D01*
X43580000Y-99155000D02*
X43580000Y-98375000D01*
X43580000Y-124115000D02*
X61820000Y-124115000D01*
X61820000Y-99155000D02*
X61820000Y-98375000D01*
X43580000Y-124115000D02*
X43580000Y-117700000D01*
%TO.C,TP5*%
X72550000Y-116000000D02*
G75*
G03*
X72550000Y-116000000I-950000J0D01*
G01*
%TO.C,TP4*%
X70010000Y-116000000D02*
G75*
G03*
X70010000Y-116000000I-950000J0D01*
G01*
%TO.C,TP3*%
X67470000Y-116000000D02*
G75*
G03*
X67470000Y-116000000I-950000J0D01*
G01*
%TO.C,TP2*%
X64930000Y-116000000D02*
G75*
G03*
X64930000Y-116000000I-950000J0D01*
G01*
%TD*%
M02*
