%TF.GenerationSoftware,KiCad,Pcbnew,7.0.1-0*%
%TF.CreationDate,2023-11-13T20:43:58+01:00*%
%TF.ProjectId,luz,6c757a2e-6b69-4636-9164-5f7063625858,rev?*%
%TF.SameCoordinates,Original*%
%TF.FileFunction,Paste,Top*%
%TF.FilePolarity,Positive*%
%FSLAX46Y46*%
G04 Gerber Fmt 4.6, Leading zero omitted, Abs format (unit mm)*
G04 Created by KiCad (PCBNEW 7.0.1-0) date 2023-11-13 20:43:58*
%MOMM*%
%LPD*%
G01*
G04 APERTURE LIST*
G04 Aperture macros list*
%AMRoundRect*
0 Rectangle with rounded corners*
0 $1 Rounding radius*
0 $2 $3 $4 $5 $6 $7 $8 $9 X,Y pos of 4 corners*
0 Add a 4 corners polygon primitive as box body*
4,1,4,$2,$3,$4,$5,$6,$7,$8,$9,$2,$3,0*
0 Add four circle primitives for the rounded corners*
1,1,$1+$1,$2,$3*
1,1,$1+$1,$4,$5*
1,1,$1+$1,$6,$7*
1,1,$1+$1,$8,$9*
0 Add four rect primitives between the rounded corners*
20,1,$1+$1,$2,$3,$4,$5,0*
20,1,$1+$1,$4,$5,$6,$7,0*
20,1,$1+$1,$6,$7,$8,$9,0*
20,1,$1+$1,$8,$9,$2,$3,0*%
G04 Aperture macros list end*
%ADD10C,0.010000*%
%ADD11RoundRect,0.135000X0.185000X-0.135000X0.185000X0.135000X-0.185000X0.135000X-0.185000X-0.135000X0*%
%ADD12RoundRect,0.135000X0.035355X-0.226274X0.226274X-0.035355X-0.035355X0.226274X-0.226274X0.035355X0*%
%ADD13RoundRect,0.135000X-0.185000X0.135000X-0.185000X-0.135000X0.185000X-0.135000X0.185000X0.135000X0*%
%ADD14RoundRect,0.218750X0.256250X-0.218750X0.256250X0.218750X-0.256250X0.218750X-0.256250X-0.218750X0*%
%ADD15RoundRect,0.150000X-0.587500X-0.150000X0.587500X-0.150000X0.587500X0.150000X-0.587500X0.150000X0*%
%ADD16RoundRect,0.140000X-0.140000X-0.170000X0.140000X-0.170000X0.140000X0.170000X-0.140000X0.170000X0*%
%ADD17RoundRect,0.140000X0.170000X-0.140000X0.170000X0.140000X-0.170000X0.140000X-0.170000X-0.140000X0*%
%ADD18RoundRect,0.135000X-0.135000X-0.185000X0.135000X-0.185000X0.135000X0.185000X-0.135000X0.185000X0*%
%ADD19RoundRect,0.140000X0.140000X0.170000X-0.140000X0.170000X-0.140000X-0.170000X0.140000X-0.170000X0*%
%ADD20RoundRect,0.081200X0.723800X0.208800X-0.723800X0.208800X-0.723800X-0.208800X0.723800X-0.208800X0*%
%ADD21RoundRect,0.030000X-0.220000X0.585000X-0.220000X-0.585000X0.220000X-0.585000X0.220000X0.585000X0*%
%ADD22RoundRect,0.250000X-0.445477X0.000000X0.000000X-0.445477X0.445477X0.000000X0.000000X0.445477X0*%
%ADD23RoundRect,0.050000X-0.309359X0.238649X0.238649X-0.309359X0.309359X-0.238649X-0.238649X0.309359X0*%
%ADD24RoundRect,0.050000X-0.309359X-0.238649X-0.238649X-0.309359X0.309359X0.238649X0.238649X0.309359X0*%
%ADD25R,3.000000X1.500000*%
%ADD26RoundRect,0.135000X0.135000X0.185000X-0.135000X0.185000X-0.135000X-0.185000X0.135000X-0.185000X0*%
%ADD27RoundRect,0.218750X-0.218750X-0.256250X0.218750X-0.256250X0.218750X0.256250X-0.218750X0.256250X0*%
%ADD28R,0.800000X1.700000*%
%ADD29RoundRect,0.140000X-0.170000X0.140000X-0.170000X-0.140000X0.170000X-0.140000X0.170000X0.140000X0*%
%ADD30RoundRect,0.147500X0.172500X-0.147500X0.172500X0.147500X-0.172500X0.147500X-0.172500X-0.147500X0*%
%ADD31RoundRect,0.147500X0.147500X0.172500X-0.147500X0.172500X-0.147500X-0.172500X0.147500X-0.172500X0*%
%ADD32RoundRect,0.250000X-0.295000X-0.295000X0.295000X-0.295000X0.295000X0.295000X-0.295000X0.295000X0*%
%ADD33RoundRect,0.062500X-0.350000X-0.062500X0.350000X-0.062500X0.350000X0.062500X-0.350000X0.062500X0*%
%ADD34RoundRect,0.062500X-0.062500X-0.350000X0.062500X-0.350000X0.062500X0.350000X-0.062500X0.350000X0*%
%ADD35R,1.400000X0.700000*%
%ADD36R,1.500000X0.300000*%
%ADD37R,1.000000X1.800000*%
%ADD38RoundRect,0.150000X-0.512500X-0.150000X0.512500X-0.150000X0.512500X0.150000X-0.512500X0.150000X0*%
%ADD39RoundRect,0.112500X0.187500X0.112500X-0.187500X0.112500X-0.187500X-0.112500X0.187500X-0.112500X0*%
%ADD40R,1.150000X1.000000*%
G04 APERTURE END LIST*
%TO.C,Q5*%
D10*
X66165000Y-90400000D02*
X64695000Y-90400000D01*
X64695000Y-88470000D01*
X66165000Y-88470000D01*
X66165000Y-90400000D01*
G36*
X66165000Y-90400000D02*
G01*
X64695000Y-90400000D01*
X64695000Y-88470000D01*
X66165000Y-88470000D01*
X66165000Y-90400000D01*
G37*
X66165000Y-93530000D02*
X64695000Y-93530000D01*
X64695000Y-91600000D01*
X66165000Y-91600000D01*
X66165000Y-93530000D01*
G36*
X66165000Y-93530000D02*
G01*
X64695000Y-93530000D01*
X64695000Y-91600000D01*
X66165000Y-91600000D01*
X66165000Y-93530000D01*
G37*
X68435000Y-90400000D02*
X66965000Y-90400000D01*
X66965000Y-88470000D01*
X68435000Y-88470000D01*
X68435000Y-90400000D01*
G36*
X68435000Y-90400000D02*
G01*
X66965000Y-90400000D01*
X66965000Y-88470000D01*
X68435000Y-88470000D01*
X68435000Y-90400000D01*
G37*
X68435000Y-93530000D02*
X66965000Y-93530000D01*
X66965000Y-91600000D01*
X68435000Y-91600000D01*
X68435000Y-93530000D01*
G36*
X68435000Y-93530000D02*
G01*
X66965000Y-93530000D01*
X66965000Y-91600000D01*
X68435000Y-91600000D01*
X68435000Y-93530000D01*
G37*
X70705000Y-90400000D02*
X69235000Y-90400000D01*
X69235000Y-88470000D01*
X70705000Y-88470000D01*
X70705000Y-90400000D01*
G36*
X70705000Y-90400000D02*
G01*
X69235000Y-90400000D01*
X69235000Y-88470000D01*
X70705000Y-88470000D01*
X70705000Y-90400000D01*
G37*
X70705000Y-93530000D02*
X69235000Y-93530000D01*
X69235000Y-91600000D01*
X70705000Y-91600000D01*
X70705000Y-93530000D01*
G36*
X70705000Y-93530000D02*
G01*
X69235000Y-93530000D01*
X69235000Y-91600000D01*
X70705000Y-91600000D01*
X70705000Y-93530000D01*
G37*
%TD*%
D11*
%TO.C,R16*%
X63900000Y-101600000D03*
X63900000Y-100580000D03*
%TD*%
%TO.C,R15*%
X67300000Y-103619999D03*
X67300000Y-102599999D03*
%TD*%
D12*
%TO.C,R14*%
X85639376Y-95260624D03*
X86360624Y-94539376D03*
%TD*%
%TO.C,R13*%
X86378752Y-95960624D03*
X87100000Y-95239376D03*
%TD*%
D13*
%TO.C,R12*%
X90000000Y-97490000D03*
X90000000Y-98510000D03*
%TD*%
D11*
%TO.C,R11*%
X89000000Y-98510000D03*
X89000000Y-97490000D03*
%TD*%
D13*
%TO.C,R10*%
X88500000Y-105219999D03*
X88500000Y-104199999D03*
%TD*%
D14*
%TO.C,D6*%
X88200000Y-106400001D03*
X88200000Y-107975001D03*
%TD*%
D15*
%TO.C,Q3*%
X95357500Y-89860000D03*
X93482500Y-90810000D03*
X93482500Y-88910000D03*
%TD*%
%TO.C,Q4*%
X95357500Y-105060000D03*
X93482500Y-106010000D03*
X93482500Y-104110000D03*
%TD*%
%TO.C,Q2*%
X95320000Y-94960000D03*
X93445000Y-95910000D03*
X93445000Y-94010000D03*
%TD*%
%TO.C,Q1*%
X95320000Y-99960000D03*
X93445000Y-100910000D03*
X93445000Y-99010000D03*
%TD*%
D16*
%TO.C,C15*%
X82520000Y-92200000D03*
X83480000Y-92200000D03*
%TD*%
D17*
%TO.C,C4*%
X89400000Y-90740000D03*
X89400000Y-91700000D03*
%TD*%
D13*
%TO.C,R9*%
X75900000Y-105190000D03*
X75900000Y-106210000D03*
%TD*%
D18*
%TO.C,R7*%
X70490000Y-105850000D03*
X71510000Y-105850000D03*
%TD*%
D16*
%TO.C,C8*%
X77720000Y-93200000D03*
X78680000Y-93200000D03*
%TD*%
D19*
%TO.C,C22*%
X75880000Y-98400000D03*
X74920000Y-98400000D03*
%TD*%
D16*
%TO.C,C20*%
X74920000Y-96400000D03*
X75880000Y-96400000D03*
%TD*%
D20*
%TO.C,U3*%
X86047500Y-109705000D03*
X86047500Y-108435000D03*
X86047500Y-107165000D03*
X86047500Y-105895000D03*
X78837500Y-105895000D03*
X78837500Y-107165000D03*
X78837500Y-108435000D03*
X78837500Y-109705000D03*
%TD*%
D13*
%TO.C,R4*%
X74000000Y-100090000D03*
X74000000Y-101110000D03*
%TD*%
D21*
%TO.C,D2*%
X64500000Y-108240000D03*
X63850000Y-106360000D03*
X65150000Y-106360000D03*
%TD*%
D22*
%TO.C,U2*%
X82623573Y-95792366D03*
X81633624Y-96782315D03*
X80643674Y-97772265D03*
X79653725Y-98762214D03*
X83613522Y-96782315D03*
X82623573Y-97772265D03*
X81633624Y-98762214D03*
X80643674Y-99752163D03*
X84603472Y-97772265D03*
X83613522Y-98762214D03*
X82623573Y-99752163D03*
X81633624Y-100742113D03*
X85593421Y-98762214D03*
X84603472Y-99752163D03*
X83613522Y-100742113D03*
X82623573Y-101732062D03*
D23*
X82031371Y-94493057D03*
X81748528Y-94775900D03*
X81465686Y-95058742D03*
X81182843Y-95341585D03*
X80900000Y-95624428D03*
X80617158Y-95907270D03*
X80334315Y-96190113D03*
X80051472Y-96472956D03*
X79768629Y-96755799D03*
X79485787Y-97038641D03*
X79202944Y-97321484D03*
X78920101Y-97604327D03*
X78637259Y-97887169D03*
X78354416Y-98170012D03*
D24*
X78354416Y-99354416D03*
X78637259Y-99637259D03*
X78920101Y-99920101D03*
X79202944Y-100202944D03*
X79485787Y-100485787D03*
X79768629Y-100768629D03*
X80051472Y-101051472D03*
X80334315Y-101334315D03*
X80617158Y-101617158D03*
X80900000Y-101900000D03*
X81182843Y-102182843D03*
X81465686Y-102465686D03*
X81748528Y-102748528D03*
X82031371Y-103031371D03*
D23*
X83215775Y-103031371D03*
X83498618Y-102748528D03*
X83781460Y-102465686D03*
X84064303Y-102182843D03*
X84347146Y-101900000D03*
X84629988Y-101617158D03*
X84912831Y-101334315D03*
X85195674Y-101051472D03*
X85478517Y-100768629D03*
X85761359Y-100485787D03*
X86044202Y-100202944D03*
X86327045Y-99920101D03*
X86609887Y-99637259D03*
X86892730Y-99354416D03*
D24*
X86892730Y-98170012D03*
X86609887Y-97887169D03*
X86327045Y-97604327D03*
X86044202Y-97321484D03*
X85761359Y-97038641D03*
X85478517Y-96755799D03*
X85195674Y-96472956D03*
X84912831Y-96190113D03*
X84629988Y-95907270D03*
X84347146Y-95624428D03*
X84064303Y-95341585D03*
X83781460Y-95058742D03*
X83498618Y-94775900D03*
X83215775Y-94493057D03*
%TD*%
D17*
%TO.C,C19*%
X76700000Y-93240000D03*
X76700000Y-94200000D03*
%TD*%
D25*
%TO.C,Q5*%
X61100000Y-88714000D03*
X61100000Y-93286000D03*
%TD*%
D17*
%TO.C,C12*%
X67850000Y-96060000D03*
X67850000Y-95100000D03*
%TD*%
D26*
%TO.C,R3*%
X73760000Y-98500000D03*
X72740000Y-98500000D03*
%TD*%
D27*
%TO.C,D4*%
X71112501Y-102632972D03*
X72687501Y-102632972D03*
%TD*%
D19*
%TO.C,C18*%
X77880000Y-102100000D03*
X76920000Y-102100000D03*
%TD*%
%TO.C,C16*%
X83500000Y-91200000D03*
X82540000Y-91200000D03*
%TD*%
D28*
%TO.C,S1*%
X89262500Y-110000000D03*
X92662500Y-110000000D03*
%TD*%
D17*
%TO.C,C13*%
X65350000Y-96030000D03*
X65350000Y-95070000D03*
%TD*%
D29*
%TO.C,C5*%
X84700000Y-90740000D03*
X84700000Y-91700000D03*
%TD*%
D21*
%TO.C,D1*%
X67200000Y-108240000D03*
X66550000Y-106360000D03*
X67850000Y-106360000D03*
%TD*%
D17*
%TO.C,C14*%
X72500000Y-105680000D03*
X72500000Y-104720000D03*
%TD*%
D11*
%TO.C,R2*%
X72700000Y-96480000D03*
X72700000Y-97500000D03*
%TD*%
%TO.C,R8*%
X74800000Y-106210000D03*
X74800000Y-105190000D03*
%TD*%
D28*
%TO.C,S2*%
X75200000Y-110100000D03*
X71800000Y-110100000D03*
%TD*%
D17*
%TO.C,C11*%
X66800000Y-96030000D03*
X66800000Y-95070000D03*
%TD*%
D18*
%TO.C,R6*%
X70490000Y-104750000D03*
X71510000Y-104750000D03*
%TD*%
%TO.C,R1*%
X70690000Y-98500000D03*
X71710000Y-98500000D03*
%TD*%
D11*
%TO.C,R5*%
X74000001Y-103042972D03*
X74000001Y-102022972D03*
%TD*%
D16*
%TO.C,C6*%
X80363674Y-93152163D03*
X81323674Y-93152163D03*
%TD*%
D30*
%TO.C,L1*%
X81343674Y-92137163D03*
X81343674Y-91167163D03*
%TD*%
D31*
%TO.C,L2*%
X76785000Y-95300000D03*
X75815000Y-95300000D03*
%TD*%
D16*
%TO.C,C9*%
X77720000Y-94200000D03*
X78680000Y-94200000D03*
%TD*%
%TO.C,C3*%
X90420000Y-107900000D03*
X91380000Y-107900000D03*
%TD*%
D17*
%TO.C,C1*%
X76900000Y-103980000D03*
X76900000Y-103020000D03*
%TD*%
D32*
%TO.C,U1*%
X66400000Y-98725000D03*
X66400000Y-100075000D03*
X67750000Y-98725000D03*
X67750000Y-100075000D03*
D33*
X65112500Y-98150000D03*
X65112500Y-98650000D03*
X65112500Y-99150000D03*
X65112500Y-99650000D03*
X65112500Y-100150000D03*
X65112500Y-100650000D03*
D34*
X65825000Y-101362500D03*
X66325000Y-101362500D03*
X66825000Y-101362500D03*
X67325000Y-101362500D03*
X67825000Y-101362500D03*
X68325000Y-101362500D03*
D33*
X69037500Y-100650000D03*
X69037500Y-100150000D03*
X69037500Y-99650000D03*
X69037500Y-99150000D03*
X69037500Y-98650000D03*
X69037500Y-98150000D03*
D34*
X68325000Y-97437500D03*
X67825000Y-97437500D03*
X67325000Y-97437500D03*
X66825000Y-97437500D03*
X66325000Y-97437500D03*
X65825000Y-97437500D03*
%TD*%
D16*
%TO.C,C21*%
X74940000Y-97400000D03*
X75900000Y-97400000D03*
%TD*%
D27*
%TO.C,D3*%
X71112500Y-100700000D03*
X72687500Y-100700000D03*
%TD*%
D35*
%TO.C,J2*%
X55262500Y-103287060D03*
D36*
X55212500Y-96937060D03*
X55212500Y-97437060D03*
X55212500Y-97937060D03*
X55212500Y-98437060D03*
X55212500Y-98937060D03*
X55212500Y-99437060D03*
X55212500Y-99937060D03*
X55212500Y-100437060D03*
X55212500Y-100937060D03*
X55212500Y-101437060D03*
X55212500Y-101937060D03*
X55212500Y-102437060D03*
%TD*%
D29*
%TO.C,C10*%
X73700000Y-96520000D03*
X73700000Y-97480000D03*
%TD*%
D16*
%TO.C,C17*%
X87500000Y-96500000D03*
X88460000Y-96500000D03*
%TD*%
%TO.C,C7*%
X80383674Y-90152163D03*
X81343674Y-90152163D03*
%TD*%
D29*
%TO.C,C2*%
X77900000Y-103040000D03*
X77900000Y-104000000D03*
%TD*%
D37*
%TO.C,ANT1*%
X81393674Y-86952163D03*
X84493674Y-86952163D03*
%TD*%
D38*
%TO.C,U4*%
X75925000Y-90050000D03*
X75925000Y-91000000D03*
X75925000Y-91950000D03*
X78200000Y-91950000D03*
X78200000Y-90050000D03*
%TD*%
D39*
%TO.C,D5*%
X72100000Y-107400000D03*
X70000000Y-107400000D03*
%TD*%
D40*
%TO.C,Y1*%
X87900000Y-90720000D03*
X86150000Y-90720000D03*
X86150000Y-92120000D03*
X87900000Y-92120000D03*
%TD*%
M02*
