%TF.GenerationSoftware,KiCad,Pcbnew,7.0.1-0*%
%TF.CreationDate,2023-12-26T16:16:11+01:00*%
%TF.ProjectId,luz,6c757a2e-6b69-4636-9164-5f7063625858,0.0.3a*%
%TF.SameCoordinates,Original*%
%TF.FileFunction,Legend,Top*%
%TF.FilePolarity,Positive*%
%FSLAX46Y46*%
G04 Gerber Fmt 4.6, Leading zero omitted, Abs format (unit mm)*
G04 Created by KiCad (PCBNEW 7.0.1-0) date 2023-12-26 16:16:11*
%MOMM*%
%LPD*%
G01*
G04 APERTURE LIST*
%ADD10C,0.150000*%
%ADD11C,0.120000*%
%ADD12C,0.254000*%
%ADD13C,0.300000*%
%ADD14C,0.059995*%
%ADD15C,0.127000*%
%ADD16C,0.150013*%
%ADD17C,0.152400*%
G04 APERTURE END LIST*
D10*
%TO.C,*%
D11*
%TO.C,R14*%
X67646359Y-103730000D02*
X67953641Y-103730000D01*
X67646359Y-102970000D02*
X67953641Y-102970000D01*
%TO.C,R13*%
X67953641Y-110380000D02*
X67646359Y-110380000D01*
X67953641Y-109620000D02*
X67646359Y-109620000D01*
%TO.C,kibuzzard-658ADB24*%
G36*
X54069713Y-98575745D02*
G01*
X54069713Y-99130735D01*
X54069713Y-99927025D01*
X54069713Y-100177215D01*
X54069713Y-100729665D01*
X54069713Y-100835498D01*
X54066488Y-100901142D01*
X54056845Y-100966153D01*
X54040876Y-101029906D01*
X54018734Y-101091787D01*
X53990634Y-101151199D01*
X53956846Y-101207571D01*
X53917695Y-101260360D01*
X53873559Y-101309057D01*
X53824862Y-101353194D01*
X53772073Y-101392345D01*
X53715701Y-101426133D01*
X53656288Y-101454233D01*
X53594408Y-101476374D01*
X53530655Y-101492343D01*
X53465643Y-101501987D01*
X53400000Y-101505212D01*
X53334357Y-101501987D01*
X53269345Y-101492343D01*
X53205592Y-101476374D01*
X53143712Y-101454233D01*
X53084299Y-101426133D01*
X53027927Y-101392345D01*
X52975138Y-101353194D01*
X52926441Y-101309057D01*
X52882305Y-101260360D01*
X52843154Y-101207571D01*
X52809366Y-101151199D01*
X52781266Y-101091787D01*
X52759124Y-101029906D01*
X52743155Y-100966153D01*
X52733512Y-100901142D01*
X52730287Y-100835498D01*
X52730287Y-100729665D01*
X52730287Y-100526465D01*
X52994870Y-100526465D01*
X52996140Y-100570915D01*
X52999315Y-100624255D01*
X53005665Y-100679500D01*
X53015190Y-100729665D01*
X53789890Y-100729665D01*
X53789890Y-100573455D01*
X53500330Y-100573455D01*
X53500330Y-100492175D01*
X53572244Y-100449154D01*
X53643205Y-100408990D01*
X53715119Y-100372636D01*
X53789890Y-100341045D01*
X53789890Y-100177215D01*
X53706705Y-100213410D01*
X53619075Y-100257225D01*
X53535255Y-100304215D01*
X53462230Y-100349935D01*
X53426353Y-100294373D01*
X53377140Y-100257225D01*
X53318085Y-100236270D01*
X53252680Y-100229285D01*
X53190926Y-100234524D01*
X53137745Y-100250240D01*
X53057100Y-100310565D01*
X53029477Y-100353745D01*
X53010110Y-100404545D01*
X52998680Y-100462330D01*
X52994870Y-100526465D01*
X52730287Y-100526465D01*
X52730287Y-99906705D01*
X52994870Y-99906705D01*
X52998680Y-99994335D01*
X53013920Y-100094665D01*
X53781000Y-100094665D01*
X53795605Y-100008940D01*
X53800050Y-99927025D01*
X53794494Y-99850349D01*
X53777825Y-99780340D01*
X53749091Y-99718269D01*
X53707340Y-99665405D01*
X53651936Y-99622384D01*
X53582245Y-99589840D01*
X53497314Y-99569361D01*
X53396190Y-99562535D01*
X53297289Y-99568726D01*
X53213945Y-99587300D01*
X53145047Y-99616986D01*
X53089485Y-99656515D01*
X53047099Y-99705886D01*
X53017730Y-99765100D01*
X53000585Y-99832569D01*
X52994870Y-99906705D01*
X52730287Y-99906705D01*
X52730287Y-99511735D01*
X53003760Y-99511735D01*
X53088779Y-99479068D01*
X53171118Y-99445413D01*
X53250775Y-99410770D01*
X53329727Y-99373728D01*
X53409948Y-99332877D01*
X53491440Y-99288215D01*
X53789890Y-99288215D01*
X53789890Y-99130735D01*
X53490170Y-99130735D01*
X53428734Y-99096445D01*
X53368885Y-99064695D01*
X53309671Y-99035167D01*
X53250140Y-99007545D01*
X53190132Y-98981510D01*
X53129490Y-98956745D01*
X53067577Y-98932615D01*
X53003760Y-98908485D01*
X53003760Y-99069775D01*
X53095200Y-99100890D01*
X53145682Y-99118352D01*
X53195530Y-99136450D01*
X53289510Y-99173280D01*
X53363170Y-99205665D01*
X53280461Y-99243130D01*
X53189815Y-99279325D01*
X53095994Y-99313297D01*
X53003760Y-99344095D01*
X53003760Y-99511735D01*
X52730287Y-99511735D01*
X52730287Y-98665915D01*
X53003760Y-98665915D01*
X53212040Y-98665915D01*
X53293955Y-98664010D01*
X53363170Y-98658295D01*
X53429845Y-98650040D01*
X53504140Y-98639245D01*
X53504140Y-98575745D01*
X53595580Y-98575745D01*
X53623520Y-98648770D01*
X53699720Y-98681155D01*
X53777190Y-98648770D01*
X53805130Y-98575745D01*
X53777190Y-98502720D01*
X53699720Y-98470335D01*
X53623520Y-98502720D01*
X53620847Y-98509705D01*
X53595580Y-98575745D01*
X53504140Y-98575745D01*
X53504140Y-98509705D01*
X53430480Y-98500180D01*
X53363805Y-98492560D01*
X53293955Y-98487480D01*
X53212040Y-98485575D01*
X53003760Y-98485575D01*
X53003760Y-98665915D01*
X52730287Y-98665915D01*
X52730287Y-98470335D01*
X52730287Y-98364502D01*
X52733512Y-98298858D01*
X52743155Y-98233847D01*
X52759124Y-98170094D01*
X52781266Y-98108213D01*
X52809366Y-98048801D01*
X52843154Y-97992429D01*
X52882305Y-97939640D01*
X52926441Y-97890943D01*
X52975138Y-97846806D01*
X53027927Y-97807655D01*
X53084299Y-97773867D01*
X53143712Y-97745767D01*
X53205592Y-97723626D01*
X53269345Y-97707657D01*
X53334357Y-97698013D01*
X53400000Y-97694788D01*
X53465643Y-97698013D01*
X53530655Y-97707657D01*
X53594408Y-97723626D01*
X53656288Y-97745767D01*
X53715701Y-97773867D01*
X53772073Y-97807655D01*
X53824862Y-97846806D01*
X53873559Y-97890943D01*
X53917695Y-97939640D01*
X53956846Y-97992429D01*
X53990634Y-98048801D01*
X54018734Y-98108213D01*
X54040876Y-98170094D01*
X54056845Y-98233847D01*
X54066488Y-98298858D01*
X54069713Y-98364502D01*
X54069713Y-98470335D01*
X54069713Y-98575745D01*
G37*
G36*
X53452229Y-99723666D02*
G01*
X53503505Y-99730810D01*
X53587960Y-99762560D01*
X53643840Y-99820980D01*
X53664160Y-99910515D01*
X53664160Y-99924485D01*
X53662890Y-99938455D01*
X53134570Y-99938455D01*
X53131395Y-99915595D01*
X53130760Y-99892735D01*
X53152985Y-99807645D01*
X53212040Y-99755575D01*
X53297130Y-99728905D01*
X53396190Y-99721285D01*
X53452229Y-99723666D01*
G37*
G36*
X53339675Y-100423595D02*
G01*
X53363011Y-100470267D01*
X53370790Y-100539165D01*
X53370790Y-100573455D01*
X53134570Y-100573455D01*
X53131395Y-100548055D01*
X53130760Y-100526465D01*
X53138062Y-100470267D01*
X53159970Y-100426135D01*
X53197435Y-100397560D01*
X53251410Y-100388035D01*
X53339675Y-100423595D01*
G37*
%TO.C,C9*%
X50130000Y-111960580D02*
X50130000Y-111679420D01*
X49110000Y-111960580D02*
X49110000Y-111679420D01*
D12*
%TO.C,U3*%
X40800000Y-107000000D02*
X42164999Y-107000000D01*
X40800000Y-107000000D02*
X40800000Y-106921438D01*
X44800000Y-107000000D02*
X43435001Y-107000000D01*
X44800000Y-107000000D02*
X44800000Y-106921438D01*
X40800000Y-105888570D02*
X40800000Y-105651435D01*
X44800000Y-105888570D02*
X44800000Y-105651435D01*
X40800000Y-104618567D02*
X40800000Y-104381433D01*
X44800000Y-104618567D02*
X44800000Y-104381433D01*
X40800000Y-103348565D02*
X40800000Y-103111430D01*
X44800000Y-103348565D02*
X44800000Y-103111430D01*
X40800000Y-102078562D02*
X40800000Y-102000000D01*
X44800000Y-102078562D02*
X44800000Y-102000000D01*
X40800000Y-102000000D02*
X44800000Y-102000000D01*
X43435001Y-106999999D02*
G75*
G03*
X42164999Y-106999365I-635001J317D01*
G01*
D13*
X45490120Y-107294006D02*
G75*
G03*
X45490120Y-107294006I-150115J0D01*
G01*
D14*
X45880011Y-106950013D02*
G75*
G03*
X45880011Y-106950013I-29998J0D01*
G01*
D13*
X44220117Y-106405004D02*
G75*
G03*
X44220117Y-106405004I-150114J0D01*
G01*
D11*
%TO.C,R9*%
X57893641Y-113980000D02*
X57586359Y-113980000D01*
X57893641Y-113220000D02*
X57586359Y-113220000D01*
%TO.C,C2*%
X37510000Y-111040580D02*
X37510000Y-110759420D01*
X36490000Y-111040580D02*
X36490000Y-110759420D01*
D14*
%TO.C,U1*%
X35744552Y-111989967D02*
G75*
G03*
X35744552Y-111989967I-29972J0D01*
G01*
D12*
X21974498Y-111399949D02*
X21974498Y-111099949D01*
X32574498Y-111399949D02*
X21974498Y-111399949D01*
X32574498Y-111299949D02*
X32574498Y-111399949D01*
X32574498Y-111199949D02*
X32574498Y-111299949D01*
X32574498Y-110889434D02*
X32574498Y-111199949D01*
X28349581Y-110297054D02*
X30000584Y-110297054D01*
X30000584Y-110297054D02*
X30000584Y-108773051D01*
X32574498Y-109964542D02*
X32574498Y-110260605D01*
X32574498Y-109464542D02*
X32574498Y-109535509D01*
X32574498Y-108964542D02*
X32574498Y-109035509D01*
X28349581Y-108773051D02*
X28349581Y-110297054D01*
X30000584Y-108773051D02*
X28349581Y-108773051D01*
X32574498Y-108464542D02*
X32574498Y-108535509D01*
X32574498Y-107964542D02*
X32574498Y-108035509D01*
X32574498Y-107464542D02*
X32574498Y-107535509D01*
X32540564Y-106991415D02*
X22182474Y-106999949D01*
X32574498Y-106964542D02*
X32574498Y-107035509D01*
X32574498Y-106464542D02*
X32574498Y-106535509D01*
X32574498Y-105964542D02*
X32574498Y-106035509D01*
X32574498Y-105464542D02*
X32574498Y-105535509D01*
X28349581Y-105217043D02*
X30000584Y-105217043D01*
X30000584Y-105217043D02*
X30000584Y-103693040D01*
X32574498Y-104964542D02*
X32574498Y-105035509D01*
X32574498Y-104464542D02*
X32574498Y-104535509D01*
X32574498Y-103739573D02*
X32574498Y-104035509D01*
X28349581Y-103693040D02*
X28349581Y-105217043D01*
X30000584Y-103693040D02*
X28349581Y-103693040D01*
X36025502Y-103189942D02*
X36025502Y-110887554D01*
X21974498Y-102899949D02*
X21974498Y-111099949D01*
X21974498Y-102899949D02*
X21974498Y-102599949D01*
X32574498Y-102799949D02*
X32574498Y-103110744D01*
X21974498Y-102599949D02*
X21974498Y-102499949D01*
X21974498Y-102499949D02*
X32574498Y-102499949D01*
X32574498Y-102499949D02*
X32574498Y-102799949D01*
D11*
%TO.C,D4*%
X52645000Y-104655000D02*
X54115000Y-104655000D01*
X54115000Y-104655000D02*
X54115000Y-102370000D01*
X52645000Y-102370000D02*
X52645000Y-104655000D01*
%TO.C,R1*%
X52460000Y-103576359D02*
X52460000Y-103883641D01*
X51700000Y-103576359D02*
X51700000Y-103883641D01*
%TO.C,C6*%
X57642164Y-111910000D02*
X57857836Y-111910000D01*
X57642164Y-111190000D02*
X57857836Y-111190000D01*
%TO.C,R7*%
X57903641Y-112950000D02*
X57596359Y-112950000D01*
X57903641Y-112190000D02*
X57596359Y-112190000D01*
%TO.C,kibuzzard-655BB458*%
G36*
X69856039Y-98742921D02*
G01*
X69907315Y-98750065D01*
X69991770Y-98781815D01*
X70047650Y-98840235D01*
X70067970Y-98929770D01*
X70067970Y-98943740D01*
X70066700Y-98957710D01*
X69538380Y-98957710D01*
X69535205Y-98934850D01*
X69534570Y-98911990D01*
X69556795Y-98826900D01*
X69615850Y-98774830D01*
X69700940Y-98748160D01*
X69800000Y-98740540D01*
X69856039Y-98742921D01*
G37*
G36*
X70474793Y-98946280D02*
G01*
X70474793Y-99366650D01*
X70474793Y-100096900D01*
X70474793Y-100418210D01*
X70474793Y-100524043D01*
X70471544Y-100590185D01*
X70461827Y-100655689D01*
X70445737Y-100719925D01*
X70423428Y-100782276D01*
X70395115Y-100842139D01*
X70361070Y-100898938D01*
X70321622Y-100952128D01*
X70277151Y-101001194D01*
X70228084Y-101045666D01*
X70174895Y-101085113D01*
X70118095Y-101119158D01*
X70058232Y-101147471D01*
X69995882Y-101169780D01*
X69931646Y-101185871D01*
X69866141Y-101195587D01*
X69800000Y-101198837D01*
X69733859Y-101195587D01*
X69668354Y-101185871D01*
X69604118Y-101169780D01*
X69541768Y-101147471D01*
X69481905Y-101119158D01*
X69425105Y-101085113D01*
X69371916Y-101045666D01*
X69322849Y-101001194D01*
X69278378Y-100952128D01*
X69238930Y-100898938D01*
X69204885Y-100842139D01*
X69176572Y-100782276D01*
X69154263Y-100719925D01*
X69138173Y-100655689D01*
X69128456Y-100590185D01*
X69125207Y-100524043D01*
X69125207Y-100418210D01*
X69125207Y-100077850D01*
X69389790Y-100077850D01*
X69396299Y-100146747D01*
X69415825Y-100211200D01*
X69448369Y-100269302D01*
X69493930Y-100319150D01*
X69552191Y-100360107D01*
X69622835Y-100391540D01*
X69705544Y-100411542D01*
X69800000Y-100418210D01*
X69895409Y-100412495D01*
X69978435Y-100395350D01*
X70048920Y-100367727D01*
X70106705Y-100330580D01*
X70151790Y-100284384D01*
X70184175Y-100229615D01*
X70203701Y-100166909D01*
X70210210Y-100096900D01*
X70207035Y-100019271D01*
X70197510Y-99954025D01*
X70174650Y-99867030D01*
X69782220Y-99867030D01*
X69782220Y-100023240D01*
X70069240Y-100023240D01*
X70073050Y-100053720D01*
X70074320Y-100084200D01*
X70057651Y-100160082D01*
X70007645Y-100215010D01*
X69954940Y-100239704D01*
X69885725Y-100254521D01*
X69800000Y-100259460D01*
X69741739Y-100256761D01*
X69688875Y-100248665D01*
X69602515Y-100213105D01*
X69546000Y-100150240D01*
X69525680Y-100056260D01*
X69539650Y-99972440D01*
X69571400Y-99903860D01*
X69446940Y-99863220D01*
X69431700Y-99889255D01*
X69412650Y-99933070D01*
X69396775Y-99995935D01*
X69389790Y-100077850D01*
X69125207Y-100077850D01*
X69125207Y-99759080D01*
X69407570Y-99759080D01*
X70193700Y-99759080D01*
X70193700Y-99618110D01*
X69671730Y-99618110D01*
X69758866Y-99570908D01*
X69845861Y-99525823D01*
X69932715Y-99482855D01*
X70019569Y-99442003D01*
X70106564Y-99403268D01*
X70193700Y-99366650D01*
X70193700Y-99240920D01*
X69407570Y-99240920D01*
X69407570Y-99381890D01*
X69891440Y-99381890D01*
X69841910Y-99404274D01*
X69784760Y-99430785D01*
X69722847Y-99460630D01*
X69659030Y-99493015D01*
X69594101Y-99527146D01*
X69528855Y-99562230D01*
X69465831Y-99597790D01*
X69407570Y-99633350D01*
X69407570Y-99759080D01*
X69125207Y-99759080D01*
X69125207Y-98925960D01*
X69398680Y-98925960D01*
X69402490Y-99013590D01*
X69417730Y-99113920D01*
X70184810Y-99113920D01*
X70199415Y-99028195D01*
X70203860Y-98946280D01*
X70198304Y-98869604D01*
X70181635Y-98799595D01*
X70152901Y-98737524D01*
X70111150Y-98684660D01*
X70055746Y-98641639D01*
X69986055Y-98609095D01*
X69901124Y-98588616D01*
X69800000Y-98581790D01*
X69701099Y-98587981D01*
X69617755Y-98606555D01*
X69548857Y-98636241D01*
X69493295Y-98675770D01*
X69450909Y-98725141D01*
X69421540Y-98784355D01*
X69404395Y-98851824D01*
X69398680Y-98925960D01*
X69125207Y-98925960D01*
X69125207Y-98581790D01*
X69125207Y-98475957D01*
X69128456Y-98409815D01*
X69138173Y-98344311D01*
X69154263Y-98280075D01*
X69176572Y-98217724D01*
X69204885Y-98157861D01*
X69238930Y-98101062D01*
X69278378Y-98047872D01*
X69322849Y-97998806D01*
X69371916Y-97954334D01*
X69425105Y-97914887D01*
X69481905Y-97880842D01*
X69541768Y-97852529D01*
X69604118Y-97830220D01*
X69668354Y-97814129D01*
X69733859Y-97804413D01*
X69800000Y-97801163D01*
X69866141Y-97804413D01*
X69931646Y-97814129D01*
X69995882Y-97830220D01*
X70058232Y-97852529D01*
X70118095Y-97880842D01*
X70174895Y-97914887D01*
X70228084Y-97954334D01*
X70277151Y-97998806D01*
X70321622Y-98047872D01*
X70361070Y-98101062D01*
X70395115Y-98157861D01*
X70423428Y-98217724D01*
X70445737Y-98280075D01*
X70461827Y-98344311D01*
X70471544Y-98409815D01*
X70474793Y-98475957D01*
X70474793Y-98581790D01*
X70474793Y-98946280D01*
G37*
%TO.C,Q4*%
X68737500Y-113810000D02*
X69387500Y-113810000D01*
X68737500Y-113810000D02*
X68087500Y-113810000D01*
X68737500Y-110690000D02*
X69387500Y-110690000D01*
X68737500Y-110690000D02*
X67062500Y-110690000D01*
%TO.C,Q1*%
X68800000Y-107160000D02*
X69450000Y-107160000D01*
X68800000Y-107160000D02*
X68150000Y-107160000D01*
X68800000Y-104040000D02*
X69450000Y-104040000D01*
X68800000Y-104040000D02*
X67125000Y-104040000D01*
%TO.C,J2*%
X78180000Y-99450000D02*
G75*
G03*
X78180000Y-99450000I-1680000J0D01*
G01*
X78180000Y-104450000D02*
G75*
G03*
X78180000Y-104450000I-1680000J0D01*
G01*
X78180000Y-109450000D02*
G75*
G03*
X78180000Y-109450000I-1680000J0D01*
G01*
X77184000Y-112915000D02*
G75*
G03*
X75816958Y-112914574I-684000J-1535000D01*
G01*
X78179999Y-114450000D02*
G75*
G03*
X78034755Y-113766682I-1679999J0D01*
G01*
X78034999Y-115134000D02*
G75*
G03*
X78180252Y-114421195I-1535000J683999D01*
G01*
X74965001Y-113766001D02*
G75*
G03*
X74964574Y-115133042I1534992J-684000D01*
G01*
X75816001Y-115984999D02*
G75*
G03*
X77183042Y-115985426I684000J1534992D01*
G01*
X71239000Y-96889000D02*
X81160000Y-96889000D01*
X75431000Y-98175000D02*
X75477000Y-98222000D01*
X75225000Y-98380000D02*
X75261000Y-98415000D01*
X77739000Y-100484000D02*
X77774000Y-100519000D01*
X77523000Y-100677000D02*
X77569000Y-100724000D01*
X75431000Y-103175000D02*
X75477000Y-103222000D01*
X75225000Y-103380000D02*
X75261000Y-103415000D01*
X77739000Y-105484000D02*
X77774000Y-105519000D01*
X77523000Y-105677000D02*
X77569000Y-105724000D01*
X75431000Y-108175000D02*
X75477000Y-108222000D01*
X75225000Y-108380000D02*
X75261000Y-108415000D01*
X77739000Y-110484000D02*
X77774000Y-110519000D01*
X77523000Y-110677000D02*
X77569000Y-110724000D01*
X81160000Y-117010000D02*
X81160000Y-96889000D01*
X80600000Y-117010000D02*
X80600000Y-96889000D01*
X79100000Y-117010000D02*
X79100000Y-96889000D01*
X74199000Y-117010000D02*
X74199000Y-96889000D01*
X71239000Y-117010000D02*
X71239000Y-96889000D01*
X71239000Y-117010000D02*
X81160000Y-117010000D01*
X81400000Y-117250000D02*
X81400000Y-116750000D01*
X80660000Y-117250000D02*
X81400000Y-117250000D01*
%TO.C,C4*%
X57642164Y-110960000D02*
X57857836Y-110960000D01*
X57642164Y-110240000D02*
X57857836Y-110240000D01*
D15*
%TO.C,S1*%
X60914457Y-100780000D02*
X60914457Y-103780000D01*
X63414457Y-100780000D02*
X63414457Y-103780000D01*
D11*
%TO.C,R3*%
X48886359Y-102520000D02*
X49193641Y-102520000D01*
X48886359Y-103280000D02*
X49193641Y-103280000D01*
%TO.C,R15*%
X62163640Y-105650000D02*
X61856358Y-105650000D01*
X62163640Y-104890000D02*
X61856358Y-104890000D01*
%TO.C,C12*%
X48620000Y-111960580D02*
X48620000Y-111679420D01*
X47600000Y-111960580D02*
X47600000Y-111679420D01*
%TO.C,R12*%
X43646359Y-114480000D02*
X43953641Y-114480000D01*
X43646359Y-113720000D02*
X43953641Y-113720000D01*
%TO.C,R4*%
X47706359Y-103570000D02*
X48013641Y-103570000D01*
X47706359Y-104330000D02*
X48013641Y-104330000D01*
%TO.C,R2*%
X42603641Y-101530000D02*
X42296359Y-101530000D01*
X42603641Y-100770000D02*
X42296359Y-100770000D01*
%TO.C,C10*%
X42312164Y-99790000D02*
X42527836Y-99790000D01*
X42312164Y-100510000D02*
X42527836Y-100510000D01*
%TO.C,R5*%
X51486359Y-101410000D02*
X51793641Y-101410000D01*
X51486359Y-102170000D02*
X51793641Y-102170000D01*
%TO.C,kibuzzard-655BB97E*%
G36*
X61217350Y-98974295D02*
G01*
X61253545Y-99056210D01*
X61240845Y-99112725D01*
X61208460Y-99147015D01*
X61163375Y-99163525D01*
X61111305Y-99167970D01*
X61072570Y-99166700D01*
X61036375Y-99162890D01*
X61036375Y-98949530D01*
X61120195Y-98949530D01*
X61217350Y-98974295D01*
G37*
G36*
X61149405Y-98637745D02*
G01*
X61184965Y-98650445D01*
X61209095Y-98677115D01*
X61217985Y-98722200D01*
X61187505Y-98793955D01*
X61097335Y-98819990D01*
X61036375Y-98819990D01*
X61036375Y-98639650D01*
X61070665Y-98635840D01*
X61107495Y-98634570D01*
X61149405Y-98637745D01*
G37*
G36*
X61828855Y-98647270D02*
G01*
X61866320Y-98705690D01*
X61884100Y-98792685D01*
X61887434Y-98844596D01*
X61888545Y-98900000D01*
X61887434Y-98955245D01*
X61884100Y-99006680D01*
X61866320Y-99093675D01*
X61828220Y-99152730D01*
X61764085Y-99174320D01*
X61699315Y-99152730D01*
X61661850Y-99094310D01*
X61644070Y-99007315D01*
X61640736Y-98955404D01*
X61639625Y-98900000D01*
X61640736Y-98844755D01*
X61644070Y-98793320D01*
X61661850Y-98706325D01*
X61699315Y-98647270D01*
X61764085Y-98625680D01*
X61828855Y-98647270D01*
G37*
G36*
X62463855Y-98647270D02*
G01*
X62501320Y-98705690D01*
X62519100Y-98792685D01*
X62522434Y-98844596D01*
X62523545Y-98900000D01*
X62522434Y-98955245D01*
X62519100Y-99006680D01*
X62501320Y-99093675D01*
X62463220Y-99152730D01*
X62399085Y-99174320D01*
X62334315Y-99152730D01*
X62296850Y-99094310D01*
X62279070Y-99007315D01*
X62275736Y-98955404D01*
X62274625Y-98900000D01*
X62275736Y-98844755D01*
X62279070Y-98793320D01*
X62296850Y-98706325D01*
X62334315Y-98647270D01*
X62399085Y-98625680D01*
X62463855Y-98647270D01*
G37*
G36*
X62400355Y-99574793D02*
G01*
X61765355Y-99574793D01*
X61098605Y-99574793D01*
X60880165Y-99574793D01*
X60774332Y-99574793D01*
X60708190Y-99571544D01*
X60642686Y-99561827D01*
X60578450Y-99545737D01*
X60516099Y-99523428D01*
X60456236Y-99495115D01*
X60399437Y-99461070D01*
X60346247Y-99421622D01*
X60297181Y-99377151D01*
X60252709Y-99328084D01*
X60217790Y-99281000D01*
X60880165Y-99281000D01*
X60935093Y-99291001D01*
X60990655Y-99298145D01*
X61045583Y-99302431D01*
X61098605Y-99303860D01*
X61161311Y-99300844D01*
X61219890Y-99291795D01*
X61272595Y-99275602D01*
X61317680Y-99251155D01*
X61383085Y-99174955D01*
X61401183Y-99121456D01*
X61407215Y-99056210D01*
X61400071Y-99002870D01*
X61378640Y-98952070D01*
X61337206Y-98907620D01*
X61322284Y-98900000D01*
X61480875Y-98900000D01*
X61485439Y-98995369D01*
X61499131Y-99078276D01*
X61521952Y-99148722D01*
X61553900Y-99206705D01*
X61609851Y-99264208D01*
X61680336Y-99298709D01*
X61765355Y-99310210D01*
X61848328Y-99298709D01*
X61917755Y-99264208D01*
X61973635Y-99206705D01*
X62005861Y-99148722D01*
X62028880Y-99078276D01*
X62042691Y-98995369D01*
X62047295Y-98900000D01*
X62115875Y-98900000D01*
X62120439Y-98995369D01*
X62134131Y-99078276D01*
X62156952Y-99148722D01*
X62188900Y-99206705D01*
X62244851Y-99264208D01*
X62315336Y-99298709D01*
X62400355Y-99310210D01*
X62483328Y-99298709D01*
X62552755Y-99264208D01*
X62608635Y-99206705D01*
X62640861Y-99148722D01*
X62663880Y-99078276D01*
X62677691Y-98995369D01*
X62682295Y-98900000D01*
X62677771Y-98804631D01*
X62664198Y-98721724D01*
X62641576Y-98651278D01*
X62633837Y-98637110D01*
X62748335Y-98637110D01*
X62955345Y-98637110D01*
X62955345Y-99293700D01*
X63112825Y-99293700D01*
X63112825Y-98637110D01*
X63319835Y-98637110D01*
X63319835Y-98507570D01*
X62748335Y-98507570D01*
X62748335Y-98637110D01*
X62633837Y-98637110D01*
X62609905Y-98593295D01*
X62554307Y-98535792D01*
X62484034Y-98501291D01*
X62399085Y-98489790D01*
X62316676Y-98501291D01*
X62247249Y-98535792D01*
X62190805Y-98593295D01*
X62158023Y-98651278D01*
X62134608Y-98721724D01*
X62120558Y-98804631D01*
X62115875Y-98900000D01*
X62047295Y-98900000D01*
X62042771Y-98804631D01*
X62029198Y-98721724D01*
X62006576Y-98651278D01*
X61974905Y-98593295D01*
X61919307Y-98535792D01*
X61849034Y-98501291D01*
X61764085Y-98489790D01*
X61681676Y-98501291D01*
X61612249Y-98535792D01*
X61555805Y-98593295D01*
X61523023Y-98651278D01*
X61499608Y-98721724D01*
X61485558Y-98804631D01*
X61480875Y-98900000D01*
X61322284Y-98900000D01*
X61270055Y-98873330D01*
X61343080Y-98804750D01*
X61363559Y-98758395D01*
X61370385Y-98705690D01*
X61358955Y-98632030D01*
X61315775Y-98565355D01*
X61228145Y-98517095D01*
X61164010Y-98503284D01*
X61083365Y-98498680D01*
X60977955Y-98504395D01*
X60880165Y-98517730D01*
X60880165Y-99281000D01*
X60217790Y-99281000D01*
X60213262Y-99274895D01*
X60179217Y-99218095D01*
X60150904Y-99158232D01*
X60128595Y-99095882D01*
X60112504Y-99031646D01*
X60102788Y-98966141D01*
X60099538Y-98900000D01*
X60102788Y-98833859D01*
X60112504Y-98768354D01*
X60128595Y-98704118D01*
X60150904Y-98641768D01*
X60179217Y-98581905D01*
X60213262Y-98525105D01*
X60252709Y-98471916D01*
X60297181Y-98422849D01*
X60346247Y-98378378D01*
X60399437Y-98338930D01*
X60456236Y-98304885D01*
X60516099Y-98276572D01*
X60578450Y-98254263D01*
X60642686Y-98238173D01*
X60708190Y-98228456D01*
X60774332Y-98225207D01*
X60880165Y-98225207D01*
X63319835Y-98225207D01*
X63425668Y-98225207D01*
X63491810Y-98228456D01*
X63557314Y-98238173D01*
X63621551Y-98254263D01*
X63683901Y-98276572D01*
X63743764Y-98304885D01*
X63800563Y-98338930D01*
X63853753Y-98378378D01*
X63902819Y-98422849D01*
X63947291Y-98471916D01*
X63986738Y-98525105D01*
X64020783Y-98581905D01*
X64049096Y-98641768D01*
X64071405Y-98704118D01*
X64087496Y-98768354D01*
X64097212Y-98833859D01*
X64100462Y-98900000D01*
X64097212Y-98966141D01*
X64087496Y-99031646D01*
X64071405Y-99095882D01*
X64049096Y-99158232D01*
X64020783Y-99218095D01*
X63986738Y-99274895D01*
X63947291Y-99328084D01*
X63902819Y-99377151D01*
X63853753Y-99421622D01*
X63800563Y-99461070D01*
X63743764Y-99495115D01*
X63683901Y-99523428D01*
X63621551Y-99545737D01*
X63557314Y-99561827D01*
X63491810Y-99571544D01*
X63425668Y-99574793D01*
X63319835Y-99574793D01*
X63112825Y-99574793D01*
X62400355Y-99574793D01*
G37*
%TO.C,C3*%
X51653310Y-111950579D02*
X51653310Y-111669419D01*
X50633310Y-111950579D02*
X50633310Y-111669419D01*
%TO.C,D1*%
X61750000Y-107295000D02*
X64035000Y-107295000D01*
X64035000Y-105825000D02*
X61750000Y-105825000D01*
X64035000Y-107295000D02*
X64035000Y-105825000D01*
%TO.C,R10*%
X38980000Y-114246359D02*
X38980000Y-114553641D01*
X38220000Y-114246359D02*
X38220000Y-114553641D01*
%TO.C,kibuzzard-655BBA1E*%
G36*
X65620295Y-109521060D02*
G01*
X65684430Y-109576940D01*
X65654585Y-109639487D01*
X65626010Y-109679810D01*
X65553620Y-109709020D01*
X65486310Y-109677905D01*
X65463450Y-109606150D01*
X65485675Y-109534395D01*
X65552350Y-109504550D01*
X65620295Y-109521060D01*
G37*
G36*
X65998755Y-109516615D02*
G01*
X66026060Y-109607420D01*
X66000025Y-109693145D01*
X65923190Y-109729340D01*
X65853975Y-109710290D01*
X65788570Y-109655680D01*
X65822225Y-109576940D01*
X65853975Y-109522965D01*
X65888900Y-109492485D01*
X65933350Y-109482960D01*
X65998755Y-109516615D01*
G37*
G36*
X66613223Y-109609960D02*
G01*
X66613223Y-109975720D01*
X66613223Y-110838050D01*
X66613223Y-111431140D01*
X66613223Y-111880720D01*
X66613223Y-112722730D01*
X66613223Y-113064360D01*
X66613223Y-113170193D01*
X66609307Y-113249903D01*
X66597597Y-113328845D01*
X66578206Y-113406260D01*
X66551320Y-113481400D01*
X66517199Y-113553544D01*
X66476170Y-113621996D01*
X66428630Y-113686097D01*
X66375036Y-113745229D01*
X66315903Y-113798823D01*
X66251803Y-113846364D01*
X66183351Y-113887392D01*
X66111207Y-113921514D01*
X66036066Y-113948400D01*
X65958652Y-113967791D01*
X65879710Y-113979501D01*
X65800000Y-113983417D01*
X65720290Y-113979501D01*
X65641348Y-113967791D01*
X65563934Y-113948400D01*
X65488793Y-113921514D01*
X65416649Y-113887392D01*
X65348197Y-113846364D01*
X65284097Y-113798823D01*
X65224964Y-113745229D01*
X65171370Y-113686097D01*
X65123830Y-113621996D01*
X65082801Y-113553544D01*
X65048680Y-113481400D01*
X65021794Y-113406260D01*
X65002403Y-113328845D01*
X64990693Y-113249903D01*
X64986777Y-113170193D01*
X64986777Y-113064360D01*
X64986777Y-112707490D01*
X65335180Y-112707490D01*
X65342006Y-112781944D01*
X65362485Y-112850365D01*
X65396140Y-112911325D01*
X65442495Y-112963395D01*
X65501074Y-113005781D01*
X65571400Y-113037690D01*
X65652998Y-113057693D01*
X65745390Y-113064360D01*
X65838179Y-113058883D01*
X65919698Y-113042453D01*
X65989944Y-113015068D01*
X66048920Y-112976730D01*
X66108187Y-112909561D01*
X66143747Y-112824894D01*
X66155600Y-112722730D01*
X66151314Y-112653356D01*
X66138455Y-112592555D01*
X66100990Y-112503020D01*
X65977800Y-112542390D01*
X66005740Y-112606525D01*
X66019710Y-112707490D01*
X66001771Y-112798136D01*
X65947955Y-112859255D01*
X65893133Y-112885008D01*
X65824342Y-112900459D01*
X65741580Y-112905610D01*
X65670460Y-112901324D01*
X65612040Y-112888465D01*
X65528855Y-112844015D01*
X65484405Y-112781785D01*
X65471070Y-112710030D01*
X65484405Y-112615415D01*
X65516790Y-112544930D01*
X65392330Y-112504290D01*
X65377090Y-112530325D01*
X65358040Y-112572870D01*
X65342165Y-112631925D01*
X65335180Y-112707490D01*
X64986777Y-112707490D01*
X64986777Y-112143610D01*
X65352960Y-112143610D01*
X65402490Y-112198220D01*
X65448210Y-112265530D01*
X65487580Y-112336650D01*
X65516790Y-112402690D01*
X65646330Y-112351890D01*
X65615215Y-112274420D01*
X65570130Y-112193140D01*
X66009550Y-112193140D01*
X66009550Y-112358240D01*
X66139090Y-112358240D01*
X66139090Y-111880720D01*
X66009550Y-111880720D01*
X66009550Y-112036930D01*
X65352960Y-112036930D01*
X65352960Y-112143610D01*
X64986777Y-112143610D01*
X64986777Y-111588620D01*
X65251360Y-111588620D01*
X66348640Y-111588620D01*
X66348640Y-111431140D01*
X65251360Y-111431140D01*
X65251360Y-111588620D01*
X64986777Y-111588620D01*
X64986777Y-110819000D01*
X65335180Y-110819000D01*
X65341689Y-110887898D01*
X65361215Y-110952350D01*
X65393759Y-111010452D01*
X65439320Y-111060300D01*
X65497581Y-111101258D01*
X65568225Y-111132690D01*
X65650934Y-111152693D01*
X65745390Y-111159360D01*
X65840799Y-111153645D01*
X65923825Y-111136500D01*
X65994310Y-111108877D01*
X66052095Y-111071730D01*
X66097180Y-111025534D01*
X66129565Y-110970765D01*
X66149091Y-110908059D01*
X66155600Y-110838050D01*
X66152425Y-110760421D01*
X66142900Y-110695175D01*
X66120040Y-110608180D01*
X65727610Y-110608180D01*
X65727610Y-110764390D01*
X66014630Y-110764390D01*
X66018440Y-110794870D01*
X66019710Y-110825350D01*
X66003041Y-110901232D01*
X65953035Y-110956160D01*
X65900330Y-110980854D01*
X65831115Y-110995671D01*
X65745390Y-111000610D01*
X65687129Y-110997911D01*
X65634265Y-110989815D01*
X65547905Y-110954255D01*
X65491390Y-110891390D01*
X65471070Y-110797410D01*
X65485040Y-110713590D01*
X65516790Y-110645010D01*
X65392330Y-110604370D01*
X65377090Y-110630405D01*
X65358040Y-110674220D01*
X65342165Y-110737085D01*
X65335180Y-110819000D01*
X64986777Y-110819000D01*
X64986777Y-110238610D01*
X65352960Y-110238610D01*
X65402490Y-110293220D01*
X65448210Y-110360530D01*
X65487580Y-110431650D01*
X65516790Y-110497690D01*
X65646330Y-110446890D01*
X65615215Y-110369420D01*
X65570130Y-110288140D01*
X66009550Y-110288140D01*
X66009550Y-110453240D01*
X66139090Y-110453240D01*
X66139090Y-109975720D01*
X66009550Y-109975720D01*
X66009550Y-110131930D01*
X65352960Y-110131930D01*
X65352960Y-110238610D01*
X64986777Y-110238610D01*
X64986777Y-109603610D01*
X65333910Y-109603610D01*
X65339307Y-109669015D01*
X65355500Y-109722990D01*
X65410110Y-109800460D01*
X65484405Y-109843005D01*
X65563780Y-109856340D01*
X65655220Y-109836020D01*
X65697130Y-109806810D01*
X65736500Y-109759820D01*
X65780156Y-109811572D01*
X65829845Y-109847450D01*
X65884296Y-109868405D01*
X65942240Y-109875390D01*
X66031775Y-109856340D01*
X66099085Y-109802365D01*
X66140995Y-109718545D01*
X66151949Y-109666951D01*
X66155600Y-109609960D01*
X66150520Y-109539793D01*
X66135280Y-109481690D01*
X66083845Y-109397235D01*
X66013360Y-109350245D01*
X65935890Y-109335640D01*
X65878740Y-109343101D01*
X65826670Y-109365485D01*
X65779045Y-109405966D01*
X65735230Y-109467720D01*
X65695384Y-109418190D01*
X65646965Y-109383900D01*
X65593784Y-109363897D01*
X65539650Y-109357230D01*
X65455195Y-109373899D01*
X65389790Y-109423905D01*
X65347880Y-109502169D01*
X65333910Y-109603610D01*
X64986777Y-109603610D01*
X64986777Y-109335640D01*
X64986777Y-109229807D01*
X64990693Y-109150097D01*
X65002403Y-109071155D01*
X65021794Y-108993740D01*
X65048680Y-108918600D01*
X65082801Y-108846456D01*
X65123830Y-108778004D01*
X65171370Y-108713903D01*
X65224964Y-108654771D01*
X65284097Y-108601177D01*
X65348197Y-108553636D01*
X65416649Y-108512608D01*
X65488793Y-108478486D01*
X65563934Y-108451600D01*
X65641348Y-108432209D01*
X65720290Y-108420499D01*
X65800000Y-108416583D01*
X65879710Y-108420499D01*
X65958652Y-108432209D01*
X66036066Y-108451600D01*
X66111207Y-108478486D01*
X66183351Y-108512608D01*
X66251803Y-108553636D01*
X66315903Y-108601177D01*
X66375036Y-108654771D01*
X66428630Y-108713903D01*
X66476170Y-108778004D01*
X66517199Y-108846456D01*
X66551320Y-108918600D01*
X66578206Y-108993740D01*
X66597597Y-109071155D01*
X66609307Y-109150097D01*
X66613223Y-109229807D01*
X66613223Y-109335640D01*
X66613223Y-109609960D01*
G37*
%TO.C,kibuzzard-655BB485*%
G36*
X69855245Y-115686531D02*
G01*
X69906680Y-115689865D01*
X69993675Y-115707645D01*
X70052730Y-115745745D01*
X70074320Y-115809880D01*
X70052730Y-115874650D01*
X69994310Y-115912115D01*
X69907315Y-115929895D01*
X69855404Y-115933229D01*
X69800000Y-115934340D01*
X69744755Y-115933229D01*
X69693320Y-115929895D01*
X69606325Y-115912115D01*
X69547270Y-115874650D01*
X69525680Y-115809880D01*
X69547270Y-115745110D01*
X69605690Y-115707645D01*
X69692685Y-115689865D01*
X69744596Y-115686531D01*
X69800000Y-115685420D01*
X69855245Y-115686531D01*
G37*
G36*
X70474793Y-114461140D02*
G01*
X70474793Y-115177420D01*
X70474793Y-115808610D01*
X70474793Y-116526160D01*
X70474793Y-116745870D01*
X70474793Y-116851703D01*
X70471544Y-116917845D01*
X70461827Y-116983349D01*
X70445737Y-117047585D01*
X70423428Y-117109936D01*
X70395115Y-117169799D01*
X70361070Y-117226598D01*
X70321622Y-117279788D01*
X70277151Y-117328854D01*
X70228084Y-117373326D01*
X70174895Y-117412773D01*
X70118095Y-117446818D01*
X70058232Y-117475131D01*
X69995882Y-117497440D01*
X69931646Y-117513531D01*
X69866141Y-117523247D01*
X69800000Y-117526497D01*
X69733859Y-117523247D01*
X69668354Y-117513531D01*
X69604118Y-117497440D01*
X69541768Y-117475131D01*
X69481905Y-117446818D01*
X69425105Y-117412773D01*
X69371916Y-117373326D01*
X69322849Y-117328854D01*
X69278378Y-117279788D01*
X69238930Y-117226598D01*
X69204885Y-117169799D01*
X69176572Y-117109936D01*
X69154263Y-117047585D01*
X69138173Y-116983349D01*
X69128456Y-116917845D01*
X69125207Y-116851703D01*
X69125207Y-116745870D01*
X69407570Y-116745870D01*
X69478690Y-116731265D01*
X69567590Y-116710310D01*
X69634124Y-116693518D01*
X69703339Y-116675314D01*
X69775235Y-116655700D01*
X69848542Y-116634957D01*
X69921991Y-116613367D01*
X69995580Y-116590930D01*
X70100355Y-116557592D01*
X70193700Y-116526160D01*
X70193700Y-116364870D01*
X70126037Y-116340599D01*
X70056822Y-116316892D01*
X69986055Y-116293750D01*
X69914935Y-116271525D01*
X69844662Y-116250570D01*
X69775235Y-116230885D01*
X69674111Y-116203897D01*
X69577750Y-116180085D01*
X69488215Y-116159606D01*
X69407570Y-116142620D01*
X69407570Y-116306450D01*
X69473610Y-116317880D01*
X69549810Y-116331850D01*
X69632201Y-116347725D01*
X69716815Y-116364870D01*
X69801905Y-116383285D01*
X69885725Y-116402970D01*
X69964306Y-116423290D01*
X70033680Y-116443610D01*
X69963354Y-116464089D01*
X69884455Y-116484885D01*
X69800635Y-116505205D01*
X69715545Y-116524255D01*
X69631090Y-116541876D01*
X69549175Y-116557910D01*
X69473451Y-116571245D01*
X69407570Y-116580770D01*
X69407570Y-116745870D01*
X69125207Y-116745870D01*
X69125207Y-115809880D01*
X69389790Y-115809880D01*
X69401291Y-115892289D01*
X69435792Y-115961716D01*
X69493295Y-116018160D01*
X69551278Y-116050942D01*
X69621724Y-116074357D01*
X69704631Y-116088407D01*
X69800000Y-116093090D01*
X69895369Y-116088526D01*
X69978276Y-116074834D01*
X70048722Y-116052013D01*
X70106705Y-116020065D01*
X70164208Y-115964114D01*
X70198709Y-115893629D01*
X70210210Y-115808610D01*
X70198709Y-115725637D01*
X70164208Y-115656210D01*
X70106705Y-115600330D01*
X70048722Y-115568104D01*
X69978276Y-115545085D01*
X69895369Y-115531274D01*
X69800000Y-115526670D01*
X69704631Y-115531194D01*
X69621724Y-115544767D01*
X69551278Y-115567389D01*
X69493295Y-115599060D01*
X69435792Y-115654658D01*
X69401291Y-115724931D01*
X69389790Y-115809880D01*
X69125207Y-115809880D01*
X69125207Y-115442850D01*
X69407570Y-115442850D01*
X69909220Y-115442850D01*
X69974625Y-115439675D01*
X70033680Y-115430150D01*
X70085432Y-115413005D01*
X70128930Y-115386970D01*
X70189255Y-115305055D01*
X70204971Y-115247429D01*
X70210210Y-115177420D01*
X70204971Y-115106300D01*
X70189255Y-115047880D01*
X70163696Y-115000890D01*
X70128930Y-114964060D01*
X70085432Y-114937072D01*
X70033680Y-114919610D01*
X69974625Y-114910085D01*
X69909220Y-114906910D01*
X69407570Y-114906910D01*
X69407570Y-115063120D01*
X69897790Y-115063120D01*
X69980975Y-115068200D01*
X70035585Y-115085980D01*
X70065430Y-115120270D01*
X70074320Y-115174880D01*
X70065430Y-115229490D01*
X70036220Y-115263145D01*
X69982245Y-115280290D01*
X69899060Y-115285370D01*
X69407570Y-115285370D01*
X69407570Y-115442850D01*
X69125207Y-115442850D01*
X69125207Y-114825630D01*
X69407570Y-114825630D01*
X69537110Y-114825630D01*
X69537110Y-114618620D01*
X70193700Y-114618620D01*
X70193700Y-114461140D01*
X69537110Y-114461140D01*
X69537110Y-114254130D01*
X69407570Y-114254130D01*
X69407570Y-114825630D01*
X69125207Y-114825630D01*
X69125207Y-114254130D01*
X69125207Y-114148297D01*
X69128456Y-114082155D01*
X69138173Y-114016651D01*
X69154263Y-113952414D01*
X69176572Y-113890064D01*
X69204885Y-113830201D01*
X69238930Y-113773402D01*
X69278378Y-113720212D01*
X69322849Y-113671146D01*
X69371916Y-113626674D01*
X69425105Y-113587227D01*
X69481905Y-113553182D01*
X69541768Y-113524869D01*
X69604118Y-113502560D01*
X69668354Y-113486469D01*
X69733859Y-113476753D01*
X69800000Y-113473503D01*
X69866141Y-113476753D01*
X69931646Y-113486469D01*
X69995882Y-113502560D01*
X70058232Y-113524869D01*
X70118095Y-113553182D01*
X70174895Y-113587227D01*
X70228084Y-113626674D01*
X70277151Y-113671146D01*
X70321622Y-113720212D01*
X70361070Y-113773402D01*
X70395115Y-113830201D01*
X70423428Y-113890064D01*
X70445737Y-113952414D01*
X70461827Y-114016651D01*
X70471544Y-114082155D01*
X70474793Y-114148297D01*
X70474793Y-114254130D01*
X70474793Y-114461140D01*
G37*
%TO.C,kibuzzard-655BBA6D*%
G36*
X53835560Y-117116897D02*
G01*
X52766220Y-117116897D01*
X52022000Y-117116897D01*
X51810333Y-117116897D01*
X51671453Y-117110074D01*
X51533911Y-117089671D01*
X51399030Y-117055886D01*
X51268110Y-117009042D01*
X51142413Y-116949591D01*
X51023148Y-116878107D01*
X50911464Y-116795276D01*
X50808436Y-116701897D01*
X50715057Y-116598870D01*
X50632227Y-116487186D01*
X50560742Y-116367920D01*
X50501292Y-116242223D01*
X50454448Y-116111303D01*
X50420662Y-115976423D01*
X50400259Y-115838880D01*
X50393437Y-115700000D01*
X50400259Y-115561120D01*
X50420662Y-115423577D01*
X50454448Y-115288697D01*
X50501292Y-115157777D01*
X50542169Y-115071350D01*
X52022000Y-115071350D01*
X52352200Y-115071350D01*
X52352200Y-116084810D01*
X52376965Y-116301663D01*
X52451260Y-116459460D01*
X52579530Y-116555662D01*
X52766220Y-116587730D01*
X52907190Y-116577570D01*
X53012600Y-116553440D01*
X53082450Y-116526770D01*
X53116740Y-116508990D01*
X53076100Y-116257530D01*
X52992280Y-116290550D01*
X52834800Y-116315950D01*
X52712880Y-116272770D01*
X52664620Y-116107670D01*
X52664620Y-116031470D01*
X53350420Y-116031470D01*
X53355500Y-116148310D01*
X53370740Y-116254990D01*
X53445670Y-116431520D01*
X53594260Y-116547090D01*
X53701575Y-116577570D01*
X53835560Y-116587730D01*
X53974943Y-116582015D01*
X54103530Y-116564870D01*
X54128860Y-116559790D01*
X54640740Y-116559790D01*
X55578000Y-116559790D01*
X55578000Y-116300710D01*
X55014120Y-116300710D01*
X55079208Y-116205142D01*
X55152550Y-116101320D01*
X55230020Y-115995593D01*
X55307490Y-115894310D01*
X55382103Y-115800012D01*
X55451000Y-115715240D01*
X55552600Y-115594590D01*
X55552600Y-115365990D01*
X54666140Y-115365990D01*
X54666140Y-115625070D01*
X55158900Y-115625070D01*
X55039520Y-115785090D01*
X54972845Y-115876213D01*
X54904900Y-115971780D01*
X54836320Y-116070522D01*
X54767740Y-116171170D01*
X54701700Y-116271500D01*
X54640740Y-116369290D01*
X54640740Y-116559790D01*
X54128860Y-116559790D01*
X54217513Y-116542010D01*
X54313080Y-116519150D01*
X54313080Y-115365990D01*
X53998120Y-115365990D01*
X53998120Y-116303250D01*
X53855880Y-116315950D01*
X53702210Y-116235940D01*
X53672683Y-116134658D01*
X53662840Y-115990830D01*
X53662840Y-115365990D01*
X53350420Y-115365990D01*
X53350420Y-116031470D01*
X52664620Y-116031470D01*
X52664620Y-114812270D01*
X52022000Y-114812270D01*
X52022000Y-115071350D01*
X50542169Y-115071350D01*
X50560742Y-115032080D01*
X50632227Y-114912814D01*
X50715057Y-114801130D01*
X50808436Y-114698103D01*
X50911464Y-114604724D01*
X51023148Y-114521893D01*
X51142413Y-114450409D01*
X51268110Y-114390958D01*
X51399030Y-114344114D01*
X51533911Y-114310329D01*
X51671453Y-114289926D01*
X51810333Y-114283103D01*
X52022000Y-114283103D01*
X55578000Y-114283103D01*
X55789667Y-114283103D01*
X55928547Y-114289926D01*
X56066089Y-114310329D01*
X56200970Y-114344114D01*
X56331890Y-114390958D01*
X56457587Y-114450409D01*
X56576852Y-114521893D01*
X56688536Y-114604724D01*
X56791564Y-114698103D01*
X56884943Y-114801130D01*
X56967773Y-114912814D01*
X57039258Y-115032080D01*
X57098708Y-115157777D01*
X57145552Y-115288697D01*
X57179338Y-115423577D01*
X57199741Y-115561120D01*
X57206563Y-115700000D01*
X57199741Y-115838880D01*
X57179338Y-115976423D01*
X57145552Y-116111303D01*
X57098708Y-116242223D01*
X57039258Y-116367920D01*
X56967773Y-116487186D01*
X56884943Y-116598870D01*
X56791564Y-116701897D01*
X56688536Y-116795276D01*
X56576852Y-116878107D01*
X56457587Y-116949591D01*
X56331890Y-117009042D01*
X56200970Y-117055886D01*
X56066089Y-117089671D01*
X55928547Y-117110074D01*
X55789667Y-117116897D01*
X55578000Y-117116897D01*
X53835560Y-117116897D01*
G37*
%TO.C,R8*%
X59800000Y-108016359D02*
X59800000Y-108323641D01*
X59040000Y-108016359D02*
X59040000Y-108323641D01*
%TO.C,R6*%
X60870000Y-108026359D02*
X60870000Y-108333641D01*
X60110000Y-108026359D02*
X60110000Y-108333641D01*
%TO.C,C1*%
X62067836Y-108280000D02*
X61852164Y-108280000D01*
X62067836Y-109000000D02*
X61852164Y-109000000D01*
%TO.C,R16*%
X36956359Y-114380000D02*
X37263641Y-114380000D01*
X36956359Y-113620000D02*
X37263641Y-113620000D01*
%TO.C,kibuzzard-655BBA49*%
G36*
X65825400Y-104364620D02*
G01*
X65753010Y-104326520D01*
X65679985Y-104281435D01*
X65610770Y-104233810D01*
X65548540Y-104186820D01*
X65825400Y-104186820D01*
X65825400Y-104364620D01*
G37*
G36*
X66613223Y-104030610D02*
G01*
X66613223Y-104828170D01*
X66613223Y-105421260D01*
X66613223Y-105867030D01*
X66613223Y-106712850D01*
X66613223Y-107054480D01*
X66613223Y-107160313D01*
X66609307Y-107240023D01*
X66597597Y-107318965D01*
X66578206Y-107396380D01*
X66551320Y-107471520D01*
X66517199Y-107543664D01*
X66476170Y-107612116D01*
X66428630Y-107676217D01*
X66375036Y-107735349D01*
X66315903Y-107788943D01*
X66251803Y-107836484D01*
X66183351Y-107877512D01*
X66111207Y-107911634D01*
X66036066Y-107938520D01*
X65958652Y-107957911D01*
X65879710Y-107969621D01*
X65800000Y-107973537D01*
X65720290Y-107969621D01*
X65641348Y-107957911D01*
X65563934Y-107938520D01*
X65488793Y-107911634D01*
X65416649Y-107877512D01*
X65348197Y-107836484D01*
X65284097Y-107788943D01*
X65224964Y-107735349D01*
X65171370Y-107676217D01*
X65123830Y-107612116D01*
X65082801Y-107543664D01*
X65048680Y-107471520D01*
X65021794Y-107396380D01*
X65002403Y-107318965D01*
X64990693Y-107240023D01*
X64986777Y-107160313D01*
X64986777Y-107054480D01*
X64986777Y-106697610D01*
X65335180Y-106697610D01*
X65342006Y-106772064D01*
X65362485Y-106840485D01*
X65396140Y-106901445D01*
X65442495Y-106953515D01*
X65501074Y-106995901D01*
X65571400Y-107027810D01*
X65652998Y-107047812D01*
X65745390Y-107054480D01*
X65838179Y-107049003D01*
X65919698Y-107032572D01*
X65989944Y-107005188D01*
X66048920Y-106966850D01*
X66108187Y-106899681D01*
X66143747Y-106815014D01*
X66155600Y-106712850D01*
X66151314Y-106643476D01*
X66138455Y-106582675D01*
X66100990Y-106493140D01*
X65977800Y-106532510D01*
X66005740Y-106596645D01*
X66019710Y-106697610D01*
X66001771Y-106788256D01*
X65947955Y-106849375D01*
X65893133Y-106875128D01*
X65824342Y-106890579D01*
X65741580Y-106895730D01*
X65670460Y-106891444D01*
X65612040Y-106878585D01*
X65528855Y-106834135D01*
X65484405Y-106771905D01*
X65471070Y-106700150D01*
X65484405Y-106605535D01*
X65516790Y-106535050D01*
X65392330Y-106494410D01*
X65377090Y-106520445D01*
X65358040Y-106562990D01*
X65342165Y-106622045D01*
X65335180Y-106697610D01*
X64986777Y-106697610D01*
X64986777Y-106148970D01*
X65335180Y-106148970D01*
X65341530Y-106215169D01*
X65360580Y-106281685D01*
X65392965Y-106344391D01*
X65439320Y-106399160D01*
X65548540Y-106321690D01*
X65488850Y-106241680D01*
X65471070Y-106164210D01*
X65497105Y-106090550D01*
X65571400Y-106061340D01*
X65638710Y-106084835D01*
X65707290Y-106144525D01*
X65743644Y-106181990D01*
X65781585Y-106221995D01*
X65821908Y-106262000D01*
X65865405Y-106299465D01*
X65912554Y-106332485D01*
X65963830Y-106359155D01*
X66019710Y-106376776D01*
X66080670Y-106382650D01*
X66107340Y-106383285D01*
X66139090Y-106380110D01*
X66139090Y-105867030D01*
X66009550Y-105867030D01*
X66009550Y-106204850D01*
X65967640Y-106191515D01*
X65922555Y-106159130D01*
X65879375Y-106118490D01*
X65843180Y-106080390D01*
X65779680Y-106015620D01*
X65711100Y-105958470D01*
X65638075Y-105917830D01*
X65559970Y-105902590D01*
X65461545Y-105922910D01*
X65391060Y-105977520D01*
X65349150Y-106056260D01*
X65335180Y-106148970D01*
X64986777Y-106148970D01*
X64986777Y-105578740D01*
X65251360Y-105578740D01*
X66348640Y-105578740D01*
X66348640Y-105421260D01*
X65251360Y-105421260D01*
X65251360Y-105578740D01*
X64986777Y-105578740D01*
X64986777Y-104809120D01*
X65335180Y-104809120D01*
X65341689Y-104878017D01*
X65361215Y-104942470D01*
X65393759Y-105000572D01*
X65439320Y-105050420D01*
X65497581Y-105091377D01*
X65568225Y-105122810D01*
X65650934Y-105142812D01*
X65745390Y-105149480D01*
X65840799Y-105143765D01*
X65923825Y-105126620D01*
X65994310Y-105098997D01*
X66052095Y-105061850D01*
X66097180Y-105015654D01*
X66129565Y-104960885D01*
X66149091Y-104898179D01*
X66155600Y-104828170D01*
X66152425Y-104750541D01*
X66142900Y-104685295D01*
X66120040Y-104598300D01*
X65727610Y-104598300D01*
X65727610Y-104754510D01*
X66014630Y-104754510D01*
X66018440Y-104784990D01*
X66019710Y-104815470D01*
X66003041Y-104891352D01*
X65953035Y-104946280D01*
X65900330Y-104970974D01*
X65831115Y-104985791D01*
X65745390Y-104990730D01*
X65687129Y-104988031D01*
X65634265Y-104979935D01*
X65547905Y-104944375D01*
X65491390Y-104881510D01*
X65471070Y-104787530D01*
X65485040Y-104703710D01*
X65516790Y-104635130D01*
X65392330Y-104594490D01*
X65377090Y-104620525D01*
X65358040Y-104664340D01*
X65342165Y-104727205D01*
X65335180Y-104809120D01*
X64986777Y-104809120D01*
X64986777Y-104170310D01*
X65352960Y-104170310D01*
X65407094Y-104221110D01*
X65467895Y-104271910D01*
X65532506Y-104321440D01*
X65598070Y-104368430D01*
X65663316Y-104412245D01*
X65726975Y-104452250D01*
X65786506Y-104486857D01*
X65839370Y-104514480D01*
X65953670Y-104514480D01*
X65953670Y-104186820D01*
X66139090Y-104186820D01*
X66139090Y-104030610D01*
X65953670Y-104030610D01*
X65953670Y-103945520D01*
X65825400Y-103945520D01*
X65825400Y-104030610D01*
X65352960Y-104030610D01*
X65352960Y-104170310D01*
X64986777Y-104170310D01*
X64986777Y-103945520D01*
X64986777Y-103839687D01*
X64990693Y-103759977D01*
X65002403Y-103681035D01*
X65021794Y-103603620D01*
X65048680Y-103528480D01*
X65082801Y-103456336D01*
X65123830Y-103387884D01*
X65171370Y-103323783D01*
X65224964Y-103264651D01*
X65284097Y-103211057D01*
X65348197Y-103163516D01*
X65416649Y-103122488D01*
X65488793Y-103088366D01*
X65563934Y-103061480D01*
X65641348Y-103042089D01*
X65720290Y-103030379D01*
X65800000Y-103026463D01*
X65879710Y-103030379D01*
X65958652Y-103042089D01*
X66036066Y-103061480D01*
X66111207Y-103088366D01*
X66183351Y-103122488D01*
X66251803Y-103163516D01*
X66315903Y-103211057D01*
X66375036Y-103264651D01*
X66428630Y-103323783D01*
X66476170Y-103387884D01*
X66517199Y-103456336D01*
X66551320Y-103528480D01*
X66578206Y-103603620D01*
X66597597Y-103681035D01*
X66609307Y-103759977D01*
X66613223Y-103839687D01*
X66613223Y-103945520D01*
X66613223Y-104030610D01*
G37*
D14*
%TO.C,U2*%
X56658424Y-108050000D02*
G75*
G03*
X56658424Y-108050000I-29997J0D01*
G01*
D16*
X56554824Y-107137783D02*
G75*
G03*
X56554824Y-107137783I-74931J0D01*
G01*
D17*
X50863810Y-108050000D02*
X51214328Y-108400518D01*
X53800000Y-110986190D02*
X53449482Y-110635672D01*
X51214328Y-107699482D02*
X50863810Y-108050000D01*
X54150518Y-110635672D02*
X53800000Y-110986190D01*
X53449482Y-105464328D02*
X53800000Y-105113810D01*
X56385672Y-108400518D02*
X56736190Y-108050000D01*
X53800000Y-105113810D02*
X54150518Y-105464328D01*
X56736190Y-108050000D02*
X56385672Y-107699482D01*
D15*
%TO.C,S2*%
X60914457Y-110060000D02*
X60914457Y-113060000D01*
X63414457Y-110060000D02*
X63414457Y-113060000D01*
D11*
%TO.C,C11*%
X44260000Y-100592164D02*
X44260000Y-100807836D01*
X43540000Y-100592164D02*
X43540000Y-100807836D01*
D12*
%TO.C,L1*%
X41799975Y-108899975D02*
X45800000Y-108900000D01*
X41799975Y-113500025D02*
X45800000Y-113500000D01*
D14*
X41829997Y-113200000D02*
G75*
G03*
X41829997Y-113200000I-29997J0D01*
G01*
D11*
%TO.C,D3*%
X46990000Y-105450000D02*
X46990000Y-107150000D01*
X46990000Y-105450000D02*
X49650000Y-105450000D01*
X46990000Y-107150000D02*
X49650000Y-107150000D01*
%TO.C,C22*%
X52030000Y-112282164D02*
X52030000Y-112497836D01*
X52750000Y-112282164D02*
X52750000Y-112497836D01*
%TO.C,R22*%
X56580000Y-103453641D02*
X56580000Y-103146359D01*
X55820000Y-103453641D02*
X55820000Y-103146359D01*
%TO.C,C7*%
X57652164Y-108970000D02*
X57867836Y-108970000D01*
X57652164Y-108250000D02*
X57867836Y-108250000D01*
%TO.C,U4*%
X38040000Y-111362500D02*
X38040000Y-112162500D01*
X38040000Y-111362500D02*
X38040000Y-110562500D01*
X41160000Y-111362500D02*
X41160000Y-112162500D01*
X41160000Y-111362500D02*
X41160000Y-109562500D01*
%TO.C,C8*%
X41692164Y-113740000D02*
X41907836Y-113740000D01*
X41692164Y-114460000D02*
X41907836Y-114460000D01*
%TO.C,R11*%
X45646359Y-113720000D02*
X45953641Y-113720000D01*
X45646359Y-114480000D02*
X45953641Y-114480000D01*
%TO.C,kibuzzard-655BB98B*%
G36*
X61557063Y-114641872D02*
G01*
X61601195Y-114663780D01*
X61629770Y-114701245D01*
X61639295Y-114755220D01*
X61603735Y-114843485D01*
X61557063Y-114866821D01*
X61488165Y-114874600D01*
X61453875Y-114874600D01*
X61453875Y-114638380D01*
X61479275Y-114635205D01*
X61500865Y-114634570D01*
X61557063Y-114641872D01*
G37*
G36*
X62158725Y-115574793D02*
G01*
X61850115Y-115574793D01*
X61297665Y-115574793D01*
X61191832Y-115574793D01*
X61125690Y-115571544D01*
X61060186Y-115561827D01*
X60995950Y-115545737D01*
X60933599Y-115523428D01*
X60873736Y-115495115D01*
X60816937Y-115461070D01*
X60763747Y-115421622D01*
X60714681Y-115377151D01*
X60670209Y-115328084D01*
X60644709Y-115293700D01*
X61297665Y-115293700D01*
X61453875Y-115293700D01*
X61453875Y-115004140D01*
X61535155Y-115004140D01*
X61578176Y-115076054D01*
X61618340Y-115147015D01*
X61654694Y-115218929D01*
X61686285Y-115293700D01*
X61850115Y-115293700D01*
X61831327Y-115250520D01*
X61914885Y-115250520D01*
X62002515Y-115289255D01*
X62070778Y-115304971D01*
X62158725Y-115310210D01*
X62247837Y-115303507D01*
X62320438Y-115283399D01*
X62376530Y-115249885D01*
X62430346Y-115177019D01*
X62448285Y-115079070D01*
X62442888Y-115019856D01*
X62426695Y-114971755D01*
X62371450Y-114900635D01*
X62297790Y-114854915D01*
X62220955Y-114823800D01*
X62172060Y-114804750D01*
X62127610Y-114781255D01*
X62095225Y-114750775D01*
X62082525Y-114710770D01*
X62096354Y-114660676D01*
X62137841Y-114630619D01*
X62206985Y-114620600D01*
X62296520Y-114633300D01*
X62367005Y-114663780D01*
X62377112Y-114637110D01*
X62530835Y-114637110D01*
X62737845Y-114637110D01*
X62737845Y-115293700D01*
X62895325Y-115293700D01*
X62895325Y-114637110D01*
X63102335Y-114637110D01*
X63102335Y-114507570D01*
X62530835Y-114507570D01*
X62530835Y-114637110D01*
X62377112Y-114637110D01*
X62412725Y-114543130D01*
X62321920Y-114506300D01*
X62263341Y-114493917D01*
X62195555Y-114489790D01*
X62117732Y-114496704D01*
X62051904Y-114517448D01*
X61998070Y-114552020D01*
X61944254Y-114626315D01*
X61926315Y-114724740D01*
X61946635Y-114818085D01*
X61998070Y-114880950D01*
X62067285Y-114922860D01*
X62140945Y-114952070D01*
X62194285Y-114974295D01*
X62242545Y-115000965D01*
X62278105Y-115034620D01*
X62292075Y-115077800D01*
X62286360Y-115115265D01*
X62265405Y-115148285D01*
X62224130Y-115171145D01*
X62158725Y-115179400D01*
X62095384Y-115174955D01*
X62042520Y-115161620D01*
X61960605Y-115123520D01*
X61914885Y-115250520D01*
X61831327Y-115250520D01*
X61813920Y-115210515D01*
X61770105Y-115122885D01*
X61723115Y-115039065D01*
X61677395Y-114966040D01*
X61732958Y-114930163D01*
X61770105Y-114880950D01*
X61791060Y-114821895D01*
X61798045Y-114756490D01*
X61792806Y-114694736D01*
X61777090Y-114641555D01*
X61716765Y-114560910D01*
X61673585Y-114533287D01*
X61622785Y-114513920D01*
X61565000Y-114502490D01*
X61500865Y-114498680D01*
X61456415Y-114499950D01*
X61403075Y-114503125D01*
X61347830Y-114509475D01*
X61297665Y-114519000D01*
X61297665Y-115293700D01*
X60644709Y-115293700D01*
X60630762Y-115274895D01*
X60596717Y-115218095D01*
X60568404Y-115158232D01*
X60546095Y-115095882D01*
X60530004Y-115031646D01*
X60520288Y-114966141D01*
X60517038Y-114900000D01*
X60520288Y-114833859D01*
X60530004Y-114768354D01*
X60546095Y-114704118D01*
X60568404Y-114641768D01*
X60596717Y-114581905D01*
X60630762Y-114525105D01*
X60670209Y-114471916D01*
X60714681Y-114422849D01*
X60763747Y-114378378D01*
X60816937Y-114338930D01*
X60873736Y-114304885D01*
X60933599Y-114276572D01*
X60995950Y-114254263D01*
X61060186Y-114238173D01*
X61125690Y-114228456D01*
X61191832Y-114225207D01*
X61297665Y-114225207D01*
X63102335Y-114225207D01*
X63208168Y-114225207D01*
X63274310Y-114228456D01*
X63339814Y-114238173D01*
X63404050Y-114254263D01*
X63466401Y-114276572D01*
X63526264Y-114304885D01*
X63583063Y-114338930D01*
X63636253Y-114378378D01*
X63685319Y-114422849D01*
X63729791Y-114471916D01*
X63769238Y-114525105D01*
X63803283Y-114581905D01*
X63831596Y-114641768D01*
X63853905Y-114704118D01*
X63869996Y-114768354D01*
X63879712Y-114833859D01*
X63882962Y-114900000D01*
X63879712Y-114966141D01*
X63869996Y-115031646D01*
X63853905Y-115095882D01*
X63831596Y-115158232D01*
X63803283Y-115218095D01*
X63769238Y-115274895D01*
X63729791Y-115328084D01*
X63685319Y-115377151D01*
X63636253Y-115421622D01*
X63583063Y-115461070D01*
X63526264Y-115495115D01*
X63466401Y-115523428D01*
X63404050Y-115545737D01*
X63339814Y-115561827D01*
X63274310Y-115571544D01*
X63208168Y-115574793D01*
X63102335Y-115574793D01*
X62895325Y-115574793D01*
X62158725Y-115574793D01*
G37*
%TO.C,C5*%
X57642164Y-109960000D02*
X57857836Y-109960000D01*
X57642164Y-109240000D02*
X57857836Y-109240000D01*
%TO.C,R21*%
X56890000Y-103483641D02*
X56890000Y-103176359D01*
X57650000Y-103483641D02*
X57650000Y-103176359D01*
%TD*%
M02*
