%TF.GenerationSoftware,KiCad,Pcbnew,7.0.1-0*%
%TF.CreationDate,2023-11-20T21:41:34+01:00*%
%TF.ProjectId,luz,6c757a2e-6b69-4636-9164-5f7063625858,rev?*%
%TF.SameCoordinates,Original*%
%TF.FileFunction,Copper,L4,Bot*%
%TF.FilePolarity,Positive*%
%FSLAX46Y46*%
G04 Gerber Fmt 4.6, Leading zero omitted, Abs format (unit mm)*
G04 Created by KiCad (PCBNEW 7.0.1-0) date 2023-11-20 21:41:34*
%MOMM*%
%LPD*%
G01*
G04 APERTURE LIST*
%TA.AperFunction,ComponentPad*%
%ADD10C,2.600000*%
%TD*%
%TA.AperFunction,ComponentPad*%
%ADD11R,2.600000X2.600000*%
%TD*%
%TA.AperFunction,SMDPad,CuDef*%
%ADD12R,0.900000X0.900000*%
%TD*%
%TA.AperFunction,SMDPad,CuDef*%
%ADD13R,3.800000X3.800000*%
%TD*%
%TA.AperFunction,SMDPad,CuDef*%
%ADD14R,1.500000X0.900000*%
%TD*%
%TA.AperFunction,SMDPad,CuDef*%
%ADD15R,0.900000X1.500000*%
%TD*%
%TA.AperFunction,SMDPad,CuDef*%
%ADD16C,1.500000*%
%TD*%
%TA.AperFunction,ViaPad*%
%ADD17C,0.800000*%
%TD*%
%TA.AperFunction,ViaPad*%
%ADD18C,0.600000*%
%TD*%
%TA.AperFunction,Conductor*%
%ADD19C,0.200000*%
%TD*%
%TA.AperFunction,Conductor*%
%ADD20C,0.500000*%
%TD*%
G04 APERTURE END LIST*
D10*
%TO.P,J2,4,Pin_4*%
%TO.N,GND*%
X76500000Y-99450000D03*
%TO.P,J2,3,Pin_3*%
%TO.N,Net-(J2-Pin_3)*%
X76500000Y-104450000D03*
%TO.P,J2,2,Pin_2*%
%TO.N,Net-(J2-Pin_2)*%
X76500000Y-109450000D03*
D11*
%TO.P,J2,1,Pin_1*%
%TO.N,VDCOUT*%
X76500000Y-114450000D03*
%TD*%
D12*
%TO.P,U5,39,GND*%
%TO.N,GND*%
X51200000Y-107385000D03*
X52600000Y-108785000D03*
X51200000Y-108785000D03*
X49800000Y-108785000D03*
X52600000Y-110185000D03*
X51200000Y-110185000D03*
X52600000Y-107385000D03*
D13*
X51200000Y-108785000D03*
D12*
X49800000Y-110185000D03*
X49800000Y-107385000D03*
D14*
%TO.P,U5,38,GND*%
X61450000Y-116505000D03*
%TO.P,U5,37,IO23*%
%TO.N,HPIINT*%
X61450000Y-115235000D03*
%TO.P,U5,36,IO22*%
%TO.N,SCL*%
X61450000Y-113965000D03*
%TO.P,U5,35,TXD0/IO1*%
%TO.N,TX*%
X61450000Y-112695000D03*
%TO.P,U5,34,RXD0/IO3*%
%TO.N,RX*%
X61450000Y-111425000D03*
%TO.P,U5,33,IO21*%
%TO.N,SDA*%
X61450000Y-110155000D03*
%TO.P,U5,32,NC*%
%TO.N,unconnected-(U5-NC-Pad32)*%
X61450000Y-108885000D03*
%TO.P,U5,31,IO19*%
%TO.N,unconnected-(U5-IO19-Pad31)*%
X61450000Y-107615000D03*
%TO.P,U5,30,IO18*%
%TO.N,C1*%
X61450000Y-106345000D03*
%TO.P,U5,29,IO5*%
%TO.N,unconnected-(U5-IO5-Pad29)*%
X61450000Y-105075000D03*
%TO.P,U5,28,IO17*%
%TO.N,unconnected-(U5-IO17-Pad28)*%
X61450000Y-103805000D03*
%TO.P,U5,27,IO16*%
%TO.N,unconnected-(U5-IO16-Pad27)*%
X61450000Y-102535000D03*
%TO.P,U5,26,IO4*%
%TO.N,C2*%
X61450000Y-101265000D03*
%TO.P,U5,25,IO0*%
%TO.N,Net-(U5-IO0)*%
X61450000Y-99995000D03*
D15*
%TO.P,U5,24,IO2*%
%TO.N,unconnected-(U5-IO2-Pad24)*%
X58420000Y-98745000D03*
%TO.P,U5,23,IO15*%
%TO.N,unconnected-(U5-IO15-Pad23)*%
X57150000Y-98745000D03*
%TO.P,U5,22,SDI/SD1*%
%TO.N,unconnected-(U5-SDI{slash}SD1-Pad22)*%
X55880000Y-98745000D03*
%TO.P,U5,21,SDO/SD0*%
%TO.N,unconnected-(U5-SDO{slash}SD0-Pad21)*%
X54610000Y-98745000D03*
%TO.P,U5,20,SCK/CLK*%
%TO.N,unconnected-(U5-SCK{slash}CLK-Pad20)*%
X53340000Y-98745000D03*
%TO.P,U5,19,SCS/CMD*%
%TO.N,unconnected-(U5-SCS{slash}CMD-Pad19)*%
X52070000Y-98745000D03*
%TO.P,U5,18,SWP/SD3*%
%TO.N,unconnected-(U5-SWP{slash}SD3-Pad18)*%
X50800000Y-98745000D03*
%TO.P,U5,17,SHD/SD2*%
%TO.N,unconnected-(U5-SHD{slash}SD2-Pad17)*%
X49530000Y-98745000D03*
%TO.P,U5,16,IO13*%
%TO.N,unconnected-(U5-IO13-Pad16)*%
X48260000Y-98745000D03*
%TO.P,U5,15,GND*%
%TO.N,GND*%
X46990000Y-98745000D03*
D14*
%TO.P,U5,14,IO12*%
%TO.N,unconnected-(U5-IO12-Pad14)*%
X43950000Y-99995000D03*
%TO.P,U5,13,IO14*%
%TO.N,unconnected-(U5-IO14-Pad13)*%
X43950000Y-101265000D03*
%TO.P,U5,12,IO27*%
%TO.N,Net-(U5-IO27)*%
X43950000Y-102535000D03*
%TO.P,U5,11,IO26*%
%TO.N,unconnected-(U5-IO26-Pad11)*%
X43950000Y-103805000D03*
%TO.P,U5,10,IO25*%
%TO.N,unconnected-(U5-IO25-Pad10)*%
X43950000Y-105075000D03*
%TO.P,U5,9,IO33*%
%TO.N,unconnected-(U5-IO33-Pad9)*%
X43950000Y-106345000D03*
%TO.P,U5,8,IO32*%
%TO.N,unconnected-(U5-IO32-Pad8)*%
X43950000Y-107615000D03*
%TO.P,U5,7,IO35*%
%TO.N,unconnected-(U5-IO35-Pad7)*%
X43950000Y-108885000D03*
%TO.P,U5,6,IO34*%
%TO.N,unconnected-(U5-IO34-Pad6)*%
X43950000Y-110155000D03*
%TO.P,U5,5,SENSOR_VN*%
%TO.N,unconnected-(U5-SENSOR_VN-Pad5)*%
X43950000Y-111425000D03*
%TO.P,U5,4,SENSOR_VP*%
%TO.N,VMon*%
X43950000Y-112695000D03*
%TO.P,U5,3,EN*%
%TO.N,Net-(U5-EN)*%
X43950000Y-113965000D03*
%TO.P,U5,2,VDD*%
%TO.N,+3V3*%
X43950000Y-115235000D03*
%TO.P,U5,1,GND*%
%TO.N,GND*%
X43950000Y-116505000D03*
%TD*%
D16*
%TO.P,TP5,1,1*%
%TO.N,GND*%
X71600000Y-116000000D03*
%TD*%
%TO.P,TP4,1,1*%
%TO.N,RX*%
X69060000Y-116000000D03*
%TD*%
%TO.P,TP3,1,1*%
%TO.N,TX*%
X66520000Y-116000000D03*
%TD*%
%TO.P,TP2,1,1*%
%TO.N,+3V3*%
X63980000Y-116000000D03*
%TD*%
D17*
%TO.N,GND*%
X33500000Y-113000000D03*
X34500000Y-113000000D03*
X33500000Y-101000000D03*
X34500000Y-101000000D03*
%TO.N,VMon*%
X43950000Y-112695000D03*
%TO.N,VDCOUT*%
X47600000Y-114400000D03*
%TO.N,C1*%
X63700000Y-108600000D03*
%TO.N,C2*%
X62900000Y-101600000D03*
D18*
%TO.N,Net-(U5-EN)*%
X42200000Y-115000000D03*
D17*
%TO.N,VDCOUT*%
X40000000Y-101500000D03*
X40000000Y-100500000D03*
X38000000Y-103500000D03*
X38000000Y-101500000D03*
%TO.N,C2*%
X68000000Y-105500000D03*
%TO.N,C1*%
X68000000Y-111500000D03*
%TO.N,+3V3*%
X64500000Y-113000000D03*
%TO.N,VDCOUT*%
X39000000Y-101500000D03*
X38000000Y-102500000D03*
X38000000Y-100500000D03*
X37000000Y-101500000D03*
X37000000Y-103500000D03*
X37000000Y-102500000D03*
X39000000Y-100500000D03*
X37000000Y-100500000D03*
%TO.N,GND*%
X33500000Y-115000000D03*
X34500000Y-115000000D03*
X34500000Y-114000000D03*
X33500000Y-114000000D03*
X34500000Y-99000000D03*
X33500000Y-99000000D03*
X34500000Y-100000000D03*
X33500000Y-100000000D03*
X79500000Y-101700000D03*
X79500000Y-103500000D03*
X79500000Y-102600000D03*
X79500000Y-100800000D03*
X79500000Y-113300000D03*
X79500000Y-114200000D03*
X79500000Y-115100000D03*
X79500000Y-116000000D03*
%TO.N,Net-(U5-EN)*%
X62960000Y-111630000D03*
%TO.N,Net-(U5-IO0)*%
X63600000Y-102500000D03*
%TO.N,Net-(U5-IO27)*%
X47590000Y-101740000D03*
X63590000Y-105190000D03*
%TO.N,+3V3*%
X56300000Y-112600000D03*
X59260000Y-106540000D03*
X57310000Y-101680000D03*
%TO.N,VBUS_EN*%
X57260000Y-104940000D03*
%TO.N,HPIINT*%
X59550000Y-112200000D03*
X54550000Y-104450000D03*
%TO.N,+3V3*%
X50140000Y-101300000D03*
%TO.N,VDCOUT*%
X50550000Y-102920000D03*
%TO.N,SDA*%
X50330000Y-104130000D03*
%TO.N,SCL*%
X50300000Y-105180000D03*
%TO.N,VBUS_EN*%
X49000000Y-101750000D03*
%TO.N,SDA*%
X59750000Y-110250000D03*
%TO.N,SCL*%
X59400000Y-114050000D03*
%TO.N,CC1*%
X47650000Y-107850000D03*
%TO.N,+3V3*%
X39800000Y-114100000D03*
X46700000Y-112800000D03*
X46700000Y-111200000D03*
X46700000Y-109500000D03*
%TO.N,CC1*%
X36400000Y-107600000D03*
%TD*%
D19*
%TO.N,C1*%
X63100000Y-108000000D02*
X63100000Y-106800000D01*
X63700000Y-108600000D02*
X63100000Y-108000000D01*
X63100000Y-106800000D02*
X62645000Y-106345000D01*
X62645000Y-106345000D02*
X61450000Y-106345000D01*
%TO.N,C2*%
X62900000Y-101600000D02*
X62565000Y-101265000D01*
X62565000Y-101265000D02*
X61450000Y-101265000D01*
%TO.N,Net-(U5-IO0)*%
X63600000Y-102500000D02*
X63600000Y-101195000D01*
X63600000Y-101195000D02*
X62400000Y-99995000D01*
%TO.N,Net-(U5-EN)*%
X42435000Y-113965000D02*
X42200000Y-114200000D01*
X42200000Y-114200000D02*
X42200000Y-115000000D01*
X43950000Y-113965000D02*
X42435000Y-113965000D01*
%TO.N,RX*%
X69060000Y-116000000D02*
X63990000Y-110930000D01*
X63990000Y-110930000D02*
X61945000Y-110930000D01*
X61945000Y-110930000D02*
X61450000Y-111425000D01*
%TO.N,TX*%
X66520000Y-116000000D02*
X66520000Y-114030050D01*
X66520000Y-114030050D02*
X64789950Y-112300000D01*
X64789950Y-112300000D02*
X63200000Y-112300000D01*
X63200000Y-112300000D02*
X62805000Y-112695000D01*
X62805000Y-112695000D02*
X61450000Y-112695000D01*
%TO.N,+3V3*%
X63980000Y-116000000D02*
X63980000Y-113520000D01*
X63980000Y-113520000D02*
X64500000Y-113000000D01*
%TO.N,Net-(U5-IO0)*%
X62400000Y-99995000D02*
X61450000Y-99995000D01*
%TO.N,Net-(U5-IO27)*%
X47590000Y-101740000D02*
X46795000Y-102535000D01*
X46795000Y-102535000D02*
X43950000Y-102535000D01*
%TO.N,HPIINT*%
X59550000Y-112200000D02*
X58700000Y-113050000D01*
X58700000Y-113050000D02*
X58700000Y-114350000D01*
X58700000Y-114350000D02*
X59585000Y-115235000D01*
X59585000Y-115235000D02*
X61450000Y-115235000D01*
D20*
%TO.N,+3V3*%
X46700000Y-112800000D02*
X46700000Y-113735000D01*
X45200000Y-115235000D02*
X43950000Y-115235000D01*
X46700000Y-113735000D02*
X45200000Y-115235000D01*
X46700000Y-109500000D02*
X46700000Y-112800000D01*
D19*
%TO.N,SCL*%
X59400000Y-114050000D02*
X59485000Y-113965000D01*
X59485000Y-113965000D02*
X61450000Y-113965000D01*
%TO.N,SDA*%
X59750000Y-110250000D02*
X61355000Y-110250000D01*
X61355000Y-110250000D02*
X61450000Y-110155000D01*
%TD*%
%TA.AperFunction,Conductor*%
%TO.N,GND*%
G36*
X79948297Y-96100385D02*
G01*
X79948864Y-96100499D01*
X79995934Y-96100499D01*
X80004041Y-96100763D01*
X80083585Y-96105977D01*
X80083766Y-96105990D01*
X80261586Y-96118708D01*
X80276903Y-96120771D01*
X80388377Y-96142944D01*
X80390436Y-96143373D01*
X80530239Y-96173785D01*
X80543702Y-96177521D01*
X80657724Y-96216227D01*
X80661073Y-96217419D01*
X80788814Y-96265064D01*
X80800302Y-96270025D01*
X80865051Y-96301955D01*
X80910628Y-96324431D01*
X80915211Y-96326811D01*
X81032484Y-96390847D01*
X81041948Y-96396577D01*
X81145245Y-96465598D01*
X81150663Y-96469432D01*
X81219531Y-96520985D01*
X81256736Y-96548836D01*
X81264156Y-96554852D01*
X81356836Y-96636130D01*
X81357975Y-96637129D01*
X81363896Y-96642675D01*
X81421083Y-96699862D01*
X81452422Y-96752755D01*
X81454503Y-96814199D01*
X81426814Y-96869091D01*
X81376163Y-96903937D01*
X81315000Y-96910170D01*
X81258360Y-96886258D01*
X81128617Y-96787630D01*
X80965461Y-96712146D01*
X80789887Y-96673500D01*
X80655184Y-96673500D01*
X80655183Y-96673500D01*
X80521279Y-96688062D01*
X80350915Y-96745464D01*
X80196873Y-96838148D01*
X80066358Y-96961779D01*
X79965469Y-97110578D01*
X79898929Y-97277585D01*
X79869845Y-97454988D01*
X79879577Y-97634500D01*
X79904172Y-97723080D01*
X79927673Y-97807723D01*
X79969776Y-97887139D01*
X80011881Y-97966557D01*
X80128265Y-98103574D01*
X80271382Y-98212369D01*
X80434538Y-98287853D01*
X80434539Y-98287853D01*
X80434541Y-98287854D01*
X80610113Y-98326500D01*
X80744816Y-98326500D01*
X80744817Y-98326500D01*
X80811768Y-98319218D01*
X80878721Y-98311937D01*
X81049085Y-98254535D01*
X81203126Y-98161851D01*
X81333642Y-98038220D01*
X81434529Y-97889423D01*
X81501070Y-97722416D01*
X81530155Y-97545010D01*
X81520422Y-97365499D01*
X81472327Y-97192277D01*
X81415363Y-97084831D01*
X81394235Y-97044979D01*
X81379798Y-96985624D01*
X81395450Y-96926579D01*
X81437395Y-96882171D01*
X81495453Y-96863178D01*
X81555534Y-96874209D01*
X81603058Y-96912587D01*
X81630558Y-96949323D01*
X81634393Y-96954743D01*
X81703420Y-97058050D01*
X81709150Y-97067513D01*
X81773190Y-97184793D01*
X81775570Y-97189376D01*
X81829965Y-97299678D01*
X81834935Y-97311188D01*
X81882567Y-97438893D01*
X81883804Y-97442368D01*
X81922468Y-97556268D01*
X81926215Y-97569769D01*
X81956625Y-97709562D01*
X81957076Y-97711728D01*
X81979224Y-97823071D01*
X81981291Y-97838418D01*
X81994007Y-98016223D01*
X81994057Y-98016956D01*
X81999234Y-98095925D01*
X81999500Y-98104037D01*
X81999500Y-115895947D01*
X81999234Y-115904058D01*
X81994045Y-115983217D01*
X81993995Y-115983952D01*
X81981291Y-116161573D01*
X81979224Y-116176918D01*
X81957064Y-116288323D01*
X81956613Y-116290490D01*
X81926217Y-116430221D01*
X81922470Y-116443722D01*
X81883793Y-116557660D01*
X81882556Y-116561135D01*
X81834938Y-116688802D01*
X81829969Y-116700311D01*
X81775564Y-116810635D01*
X81773183Y-116815219D01*
X81709154Y-116932478D01*
X81703424Y-116941942D01*
X81634381Y-117045272D01*
X81630546Y-117050691D01*
X81551185Y-117156706D01*
X81545146Y-117164155D01*
X81462860Y-117257984D01*
X81457313Y-117263906D01*
X81363906Y-117357313D01*
X81357984Y-117362860D01*
X81264155Y-117445146D01*
X81256706Y-117451185D01*
X81150691Y-117530546D01*
X81145272Y-117534381D01*
X81041942Y-117603424D01*
X81032478Y-117609154D01*
X80915219Y-117673183D01*
X80910635Y-117675564D01*
X80800311Y-117729969D01*
X80788802Y-117734938D01*
X80661135Y-117782556D01*
X80657660Y-117783793D01*
X80543722Y-117822470D01*
X80530221Y-117826217D01*
X80390490Y-117856613D01*
X80388323Y-117857064D01*
X80276918Y-117879224D01*
X80261573Y-117881291D01*
X80083952Y-117893995D01*
X80083217Y-117894045D01*
X80004058Y-117899234D01*
X79995947Y-117899500D01*
X76824000Y-117899500D01*
X76762000Y-117882887D01*
X76716613Y-117837500D01*
X76710797Y-117815797D01*
X76700000Y-117805000D01*
X33999786Y-117805000D01*
X33959928Y-117798420D01*
X33946255Y-117793779D01*
X33916783Y-117783774D01*
X33913317Y-117782539D01*
X33785699Y-117734939D01*
X33774189Y-117729970D01*
X33663840Y-117675552D01*
X33659257Y-117673172D01*
X33542032Y-117609162D01*
X33532568Y-117603432D01*
X33429202Y-117534365D01*
X33423783Y-117530530D01*
X33317804Y-117451195D01*
X33310355Y-117445156D01*
X33216497Y-117362845D01*
X33210575Y-117357298D01*
X33117196Y-117263919D01*
X33111649Y-117257997D01*
X33111638Y-117257984D01*
X33029332Y-117164132D01*
X33023316Y-117156712D01*
X32943950Y-117050691D01*
X32940148Y-117045319D01*
X32871053Y-116941911D01*
X32865335Y-116932466D01*
X32801335Y-116815259D01*
X32798964Y-116810692D01*
X32787130Y-116786696D01*
X32744512Y-116700274D01*
X32739558Y-116688802D01*
X32691932Y-116561111D01*
X32690776Y-116557865D01*
X32689799Y-116554988D01*
X33369845Y-116554988D01*
X33379577Y-116734500D01*
X33414319Y-116859626D01*
X33427673Y-116907723D01*
X33443060Y-116936746D01*
X33511881Y-117066557D01*
X33628265Y-117203574D01*
X33771382Y-117312369D01*
X33934538Y-117387853D01*
X33934539Y-117387853D01*
X33934541Y-117387854D01*
X34110113Y-117426500D01*
X34244816Y-117426500D01*
X34244817Y-117426500D01*
X34311768Y-117419218D01*
X34378721Y-117411937D01*
X34549085Y-117354535D01*
X34703126Y-117261851D01*
X34833642Y-117138220D01*
X34898119Y-117043124D01*
X70910426Y-117043124D01*
X70910427Y-117043125D01*
X70972610Y-117086666D01*
X71170840Y-117179102D01*
X71382113Y-117235712D01*
X71600000Y-117254775D01*
X71817886Y-117235712D01*
X72029159Y-117179102D01*
X72227385Y-117086667D01*
X72289572Y-117043124D01*
X71600001Y-116353553D01*
X71600000Y-116353553D01*
X70910426Y-117043124D01*
X34898119Y-117043124D01*
X34934529Y-116989423D01*
X35001070Y-116822416D01*
X35030155Y-116645010D01*
X35020422Y-116465499D01*
X34972327Y-116292277D01*
X34888119Y-116133444D01*
X34888118Y-116133442D01*
X34771734Y-115996425D01*
X34628617Y-115887630D01*
X34465461Y-115812146D01*
X34289887Y-115773500D01*
X34155184Y-115773500D01*
X34155183Y-115773500D01*
X34021279Y-115788062D01*
X33850915Y-115845464D01*
X33696873Y-115938148D01*
X33566358Y-116061779D01*
X33465469Y-116210578D01*
X33398929Y-116377585D01*
X33369845Y-116554988D01*
X32689799Y-116554988D01*
X32652014Y-116443677D01*
X32648276Y-116430204D01*
X32648049Y-116429161D01*
X32630712Y-116349465D01*
X32617908Y-116290601D01*
X32617457Y-116288436D01*
X32617435Y-116288323D01*
X32595269Y-116176889D01*
X32593205Y-116161569D01*
X32580528Y-115984315D01*
X32580492Y-115983802D01*
X32575262Y-115904007D01*
X32574998Y-115895908D01*
X32574998Y-115000000D01*
X41694353Y-115000000D01*
X41714834Y-115142457D01*
X41774623Y-115273374D01*
X41860616Y-115372615D01*
X41868872Y-115382143D01*
X41989947Y-115459953D01*
X42128039Y-115500500D01*
X42271961Y-115500500D01*
X42410053Y-115459953D01*
X42531128Y-115382143D01*
X42625377Y-115273373D01*
X42685165Y-115142457D01*
X42705647Y-115000000D01*
X42685165Y-114857543D01*
X42625377Y-114726627D01*
X42625376Y-114726626D01*
X42625376Y-114726625D01*
X42530787Y-114617462D01*
X42508318Y-114579593D01*
X42500500Y-114536260D01*
X42500500Y-114389500D01*
X42517113Y-114327500D01*
X42562500Y-114282113D01*
X42624500Y-114265500D01*
X42875500Y-114265500D01*
X42937500Y-114282113D01*
X42982887Y-114327500D01*
X42999500Y-114389500D01*
X42999500Y-114434749D01*
X43011133Y-114493232D01*
X43036442Y-114531110D01*
X43054957Y-114575809D01*
X43054957Y-114624191D01*
X43036442Y-114668890D01*
X43011133Y-114706767D01*
X42999500Y-114765251D01*
X42999500Y-115704749D01*
X43011132Y-115763230D01*
X43055447Y-115829552D01*
X43121769Y-115873867D01*
X43180251Y-115885500D01*
X43180252Y-115885500D01*
X44719748Y-115885500D01*
X44719749Y-115885500D01*
X44748989Y-115879683D01*
X44778231Y-115873867D01*
X44844552Y-115829552D01*
X44888867Y-115763231D01*
X44888867Y-115763230D01*
X44902570Y-115742723D01*
X44903494Y-115743340D01*
X44907729Y-115733999D01*
X44951258Y-115698284D01*
X45006093Y-115685500D01*
X45167738Y-115685500D01*
X45181622Y-115686280D01*
X45217033Y-115690270D01*
X45217033Y-115690269D01*
X45217035Y-115690270D01*
X45273228Y-115679636D01*
X45277726Y-115678872D01*
X45334287Y-115670348D01*
X45334288Y-115670347D01*
X45340268Y-115669446D01*
X45345128Y-115667846D01*
X45350467Y-115665023D01*
X45350472Y-115665023D01*
X45401045Y-115638292D01*
X45405136Y-115636227D01*
X45456642Y-115611425D01*
X45456644Y-115611422D01*
X45462078Y-115608806D01*
X45466271Y-115605831D01*
X45470533Y-115601568D01*
X45470538Y-115601566D01*
X45511002Y-115561100D01*
X45514260Y-115557962D01*
X45556194Y-115519055D01*
X45556195Y-115519053D01*
X45560613Y-115514954D01*
X45572033Y-115500069D01*
X46784871Y-114287231D01*
X46837332Y-114256021D01*
X46898330Y-114253623D01*
X46953080Y-114280622D01*
X46988313Y-114330474D01*
X46995490Y-114391096D01*
X46994317Y-114400000D01*
X47014956Y-114556762D01*
X47075463Y-114702840D01*
X47171717Y-114828282D01*
X47229344Y-114872500D01*
X47297159Y-114924536D01*
X47443238Y-114985044D01*
X47600000Y-115005682D01*
X47756762Y-114985044D01*
X47902841Y-114924536D01*
X48028282Y-114828282D01*
X48124536Y-114702841D01*
X48185044Y-114556762D01*
X48205682Y-114400000D01*
X48185044Y-114243238D01*
X48124536Y-114097159D01*
X48124535Y-114097158D01*
X48028282Y-113971717D01*
X47902840Y-113875463D01*
X47756762Y-113814956D01*
X47600000Y-113794317D01*
X47443237Y-113814956D01*
X47321952Y-113865194D01*
X47262346Y-113874036D01*
X47205609Y-113853735D01*
X47165142Y-113809086D01*
X47150500Y-113750633D01*
X47150500Y-113745739D01*
X47150587Y-113741102D01*
X47152180Y-113698527D01*
X47152724Y-113683990D01*
X47152723Y-113683989D01*
X47152949Y-113677970D01*
X47150500Y-113659365D01*
X47150500Y-113241419D01*
X47157081Y-113201560D01*
X47176122Y-113165935D01*
X47224536Y-113102841D01*
X47285044Y-112956762D01*
X47305682Y-112800000D01*
X47285044Y-112643238D01*
X47267134Y-112600000D01*
X55694317Y-112600000D01*
X55714956Y-112756762D01*
X55775463Y-112902840D01*
X55871717Y-113028282D01*
X55968885Y-113102841D01*
X55997159Y-113124536D01*
X56143238Y-113185044D01*
X56300000Y-113205682D01*
X56456762Y-113185044D01*
X56602841Y-113124536D01*
X56718379Y-113035881D01*
X58394621Y-113035881D01*
X58398311Y-113062332D01*
X58399500Y-113079465D01*
X58399500Y-114280757D01*
X58396756Y-114297577D01*
X58399368Y-114354079D01*
X58399500Y-114359805D01*
X58399500Y-114378819D01*
X58401181Y-114393307D01*
X58402415Y-114419993D01*
X58405213Y-114426330D01*
X58413666Y-114453626D01*
X58414938Y-114460434D01*
X58428997Y-114483140D01*
X58437002Y-114498327D01*
X58447792Y-114522763D01*
X58452688Y-114527659D01*
X58470434Y-114550063D01*
X58474080Y-114555951D01*
X58474081Y-114555952D01*
X58495396Y-114572048D01*
X58508351Y-114583322D01*
X59323550Y-115398521D01*
X59333507Y-115412358D01*
X59341041Y-115419226D01*
X59341042Y-115419228D01*
X59354429Y-115431432D01*
X59375316Y-115450474D01*
X59379457Y-115454429D01*
X59392888Y-115467860D01*
X59404328Y-115476922D01*
X59424065Y-115494915D01*
X59424066Y-115494915D01*
X59424067Y-115494916D01*
X59430340Y-115497346D01*
X59430523Y-115497417D01*
X59455810Y-115510745D01*
X59461519Y-115514656D01*
X59487514Y-115520769D01*
X59503910Y-115525846D01*
X59528827Y-115535500D01*
X59535751Y-115535500D01*
X59564140Y-115538793D01*
X59570881Y-115540379D01*
X59597333Y-115536688D01*
X59614465Y-115535500D01*
X60375500Y-115535500D01*
X60437500Y-115552113D01*
X60482887Y-115597500D01*
X60499500Y-115659500D01*
X60499500Y-115704749D01*
X60511132Y-115763230D01*
X60555447Y-115829552D01*
X60621769Y-115873867D01*
X60680251Y-115885500D01*
X60680252Y-115885500D01*
X62219748Y-115885500D01*
X62219749Y-115885500D01*
X62248989Y-115879683D01*
X62278231Y-115873867D01*
X62344552Y-115829552D01*
X62388867Y-115763231D01*
X62400500Y-115704748D01*
X62400500Y-114765252D01*
X62388867Y-114706769D01*
X62363555Y-114668888D01*
X62345042Y-114624192D01*
X62345042Y-114575808D01*
X62363555Y-114531111D01*
X62388867Y-114493231D01*
X62400500Y-114434748D01*
X62400500Y-113495252D01*
X62388867Y-113436769D01*
X62363555Y-113398888D01*
X62345042Y-113354192D01*
X62345042Y-113305808D01*
X62363555Y-113261111D01*
X62388867Y-113223231D01*
X62398566Y-113174471D01*
X62400500Y-113164749D01*
X62400500Y-113119500D01*
X62417113Y-113057500D01*
X62462500Y-113012113D01*
X62524500Y-112995500D01*
X62735757Y-112995500D01*
X62752577Y-112998243D01*
X62762762Y-112997772D01*
X62762765Y-112997773D01*
X62809080Y-112995631D01*
X62814805Y-112995500D01*
X62833824Y-112995500D01*
X62848318Y-112993817D01*
X62874992Y-112992585D01*
X62881330Y-112989786D01*
X62908633Y-112981332D01*
X62915433Y-112980061D01*
X62938143Y-112965998D01*
X62953325Y-112957996D01*
X62977765Y-112947206D01*
X62982659Y-112942311D01*
X63005063Y-112924564D01*
X63010952Y-112920919D01*
X63027053Y-112899595D01*
X63038306Y-112886663D01*
X63288154Y-112636816D01*
X63328380Y-112609939D01*
X63375833Y-112600500D01*
X63829922Y-112600500D01*
X63888375Y-112615142D01*
X63933024Y-112655609D01*
X63953325Y-112712345D01*
X63944483Y-112771952D01*
X63914956Y-112843237D01*
X63894317Y-113000000D01*
X63907359Y-113099060D01*
X63901839Y-113155104D01*
X63872101Y-113202926D01*
X63816475Y-113258552D01*
X63802639Y-113268508D01*
X63764523Y-113310318D01*
X63760573Y-113314454D01*
X63747141Y-113327886D01*
X63738087Y-113339317D01*
X63720083Y-113359067D01*
X63717578Y-113365534D01*
X63704259Y-113390802D01*
X63700343Y-113396518D01*
X63694228Y-113422517D01*
X63689151Y-113438913D01*
X63679500Y-113463827D01*
X63679500Y-113470751D01*
X63676206Y-113499144D01*
X63674621Y-113505881D01*
X63678311Y-113532332D01*
X63679500Y-113549465D01*
X63679500Y-115008538D01*
X63661858Y-115072287D01*
X63613953Y-115117895D01*
X63591379Y-115129961D01*
X63449375Y-115205863D01*
X63304643Y-115324643D01*
X63185863Y-115469375D01*
X63097603Y-115634499D01*
X63043253Y-115813667D01*
X63024901Y-115999999D01*
X63043253Y-116186332D01*
X63097603Y-116365500D01*
X63151053Y-116465499D01*
X63185864Y-116530625D01*
X63304643Y-116675357D01*
X63449375Y-116794136D01*
X63614499Y-116882396D01*
X63793669Y-116936747D01*
X63980000Y-116955099D01*
X64166331Y-116936747D01*
X64345501Y-116882396D01*
X64510625Y-116794136D01*
X64655357Y-116675357D01*
X64774136Y-116530625D01*
X64862396Y-116365501D01*
X64916747Y-116186331D01*
X64935099Y-116000000D01*
X64916747Y-115813669D01*
X64862396Y-115634499D01*
X64774136Y-115469375D01*
X64655357Y-115324643D01*
X64510625Y-115205864D01*
X64510624Y-115205863D01*
X64387941Y-115140288D01*
X64346046Y-115117895D01*
X64298142Y-115072287D01*
X64280500Y-115008538D01*
X64280500Y-113718179D01*
X64299920Y-113651554D01*
X64352095Y-113605797D01*
X64420685Y-113595240D01*
X64500000Y-113605682D01*
X64656762Y-113585044D01*
X64802841Y-113524536D01*
X64928282Y-113428282D01*
X65024536Y-113302841D01*
X65054064Y-113231552D01*
X65089958Y-113183154D01*
X65144432Y-113157390D01*
X65204619Y-113160346D01*
X65256305Y-113191326D01*
X66183181Y-114118202D01*
X66210061Y-114158430D01*
X66219500Y-114205883D01*
X66219500Y-115008538D01*
X66201858Y-115072287D01*
X66153953Y-115117895D01*
X66131379Y-115129961D01*
X65989375Y-115205863D01*
X65844643Y-115324643D01*
X65725863Y-115469375D01*
X65637603Y-115634499D01*
X65583253Y-115813667D01*
X65564901Y-115999999D01*
X65583253Y-116186332D01*
X65637603Y-116365500D01*
X65691053Y-116465499D01*
X65725864Y-116530625D01*
X65844643Y-116675357D01*
X65989375Y-116794136D01*
X66154499Y-116882396D01*
X66333669Y-116936747D01*
X66520000Y-116955099D01*
X66706331Y-116936747D01*
X66885501Y-116882396D01*
X67050625Y-116794136D01*
X67195357Y-116675357D01*
X67314136Y-116530625D01*
X67402396Y-116365501D01*
X67456747Y-116186331D01*
X67475099Y-116000000D01*
X67456747Y-115813669D01*
X67402396Y-115634499D01*
X67314136Y-115469375D01*
X67195357Y-115324643D01*
X67050625Y-115205864D01*
X67050624Y-115205863D01*
X66927941Y-115140288D01*
X66886046Y-115117895D01*
X66838142Y-115072287D01*
X66820500Y-115008538D01*
X66820500Y-114484833D01*
X66834015Y-114428538D01*
X66871615Y-114384515D01*
X66925102Y-114362360D01*
X66982818Y-114366902D01*
X67032181Y-114397152D01*
X68146444Y-115511415D01*
X68179047Y-115568966D01*
X68177424Y-115635091D01*
X68123252Y-115813670D01*
X68104901Y-115999999D01*
X68123253Y-116186332D01*
X68177603Y-116365500D01*
X68231053Y-116465499D01*
X68265864Y-116530625D01*
X68384643Y-116675357D01*
X68529375Y-116794136D01*
X68694499Y-116882396D01*
X68873669Y-116936747D01*
X69060000Y-116955099D01*
X69246331Y-116936747D01*
X69425501Y-116882396D01*
X69590625Y-116794136D01*
X69735357Y-116675357D01*
X69854136Y-116530625D01*
X69942396Y-116365501D01*
X69996747Y-116186331D01*
X70015099Y-116000000D01*
X70015099Y-115999999D01*
X70345224Y-115999999D01*
X70364287Y-116217886D01*
X70420898Y-116429161D01*
X70513331Y-116627386D01*
X70556873Y-116689571D01*
X70556875Y-116689572D01*
X71246447Y-116000001D01*
X71246447Y-116000000D01*
X71953553Y-116000000D01*
X72643124Y-116689572D01*
X72686667Y-116627385D01*
X72779102Y-116429159D01*
X72835712Y-116217886D01*
X72854775Y-116000000D01*
X72835712Y-115782113D01*
X72832399Y-115769749D01*
X74999500Y-115769749D01*
X75011132Y-115828230D01*
X75055447Y-115894552D01*
X75121769Y-115938867D01*
X75180251Y-115950500D01*
X75180252Y-115950500D01*
X77819748Y-115950500D01*
X77819749Y-115950500D01*
X77848989Y-115944683D01*
X77878231Y-115938867D01*
X77944552Y-115894552D01*
X77988867Y-115828231D01*
X77996857Y-115788062D01*
X78000500Y-115769749D01*
X78000500Y-113130251D01*
X77988867Y-113071769D01*
X77944552Y-113005447D01*
X77878230Y-112961132D01*
X77819749Y-112949500D01*
X77819748Y-112949500D01*
X75180252Y-112949500D01*
X75180251Y-112949500D01*
X75121769Y-112961132D01*
X75055447Y-113005447D01*
X75011132Y-113071769D01*
X74999500Y-113130251D01*
X74999500Y-115769749D01*
X72832399Y-115769749D01*
X72779102Y-115570840D01*
X72686667Y-115372615D01*
X72643123Y-115310428D01*
X71953553Y-116000000D01*
X71246447Y-116000000D01*
X70556875Y-115310427D01*
X70556874Y-115310428D01*
X70513333Y-115372611D01*
X70420897Y-115570840D01*
X70364287Y-115782113D01*
X70345224Y-115999999D01*
X70015099Y-115999999D01*
X69996747Y-115813669D01*
X69942396Y-115634499D01*
X69854136Y-115469375D01*
X69735357Y-115324643D01*
X69590625Y-115205864D01*
X69590624Y-115205863D01*
X69425500Y-115117603D01*
X69246332Y-115063253D01*
X69060000Y-115044901D01*
X68873670Y-115063252D01*
X68695091Y-115117424D01*
X68628966Y-115119047D01*
X68571415Y-115086444D01*
X68441846Y-114956875D01*
X70910427Y-114956875D01*
X71600000Y-115646447D01*
X71600001Y-115646447D01*
X72289572Y-114956875D01*
X72289571Y-114956873D01*
X72227386Y-114913331D01*
X72029161Y-114820898D01*
X71817886Y-114764287D01*
X71600000Y-114745224D01*
X71382113Y-114764287D01*
X71170840Y-114820897D01*
X70972611Y-114913333D01*
X70910428Y-114956874D01*
X70910427Y-114956875D01*
X68441846Y-114956875D01*
X64984971Y-111500000D01*
X67394317Y-111500000D01*
X67414956Y-111656762D01*
X67475463Y-111802840D01*
X67571717Y-111928282D01*
X67657778Y-111994318D01*
X67697159Y-112024536D01*
X67843238Y-112085044D01*
X68000000Y-112105682D01*
X68156762Y-112085044D01*
X68302841Y-112024536D01*
X68428282Y-111928282D01*
X68524536Y-111802841D01*
X68585044Y-111656762D01*
X68605682Y-111500000D01*
X68585044Y-111343238D01*
X68524536Y-111197159D01*
X68471739Y-111128352D01*
X68428282Y-111071717D01*
X68302840Y-110975463D01*
X68156762Y-110914956D01*
X68000000Y-110894317D01*
X67843237Y-110914956D01*
X67697159Y-110975463D01*
X67571717Y-111071717D01*
X67475463Y-111197159D01*
X67414956Y-111343237D01*
X67394317Y-111500000D01*
X64984971Y-111500000D01*
X64251450Y-110766479D01*
X64241497Y-110752645D01*
X64199681Y-110714524D01*
X64195540Y-110710569D01*
X64182110Y-110697139D01*
X64170678Y-110688083D01*
X64150934Y-110670084D01*
X64144468Y-110667579D01*
X64119192Y-110654256D01*
X64113481Y-110650344D01*
X64113480Y-110650343D01*
X64113478Y-110650342D01*
X64087484Y-110644228D01*
X64071087Y-110639151D01*
X64046173Y-110629500D01*
X64039249Y-110629500D01*
X64010859Y-110626206D01*
X64004119Y-110624621D01*
X64004118Y-110624621D01*
X63992757Y-110626206D01*
X63977666Y-110628311D01*
X63960535Y-110629500D01*
X62524500Y-110629500D01*
X62462500Y-110612887D01*
X62417113Y-110567500D01*
X62400500Y-110505500D01*
X62400500Y-109685251D01*
X62392358Y-109644318D01*
X62388867Y-109626769D01*
X62363555Y-109588888D01*
X62345042Y-109544192D01*
X62345042Y-109495808D01*
X62363555Y-109451111D01*
X62364297Y-109450000D01*
X74994356Y-109450000D01*
X75014891Y-109697816D01*
X75014891Y-109697819D01*
X75014892Y-109697821D01*
X75075937Y-109938881D01*
X75080595Y-109949500D01*
X75175825Y-110166604D01*
X75175827Y-110166607D01*
X75311836Y-110374785D01*
X75480256Y-110557738D01*
X75533286Y-110599013D01*
X75676485Y-110710470D01*
X75676487Y-110710471D01*
X75676491Y-110710474D01*
X75895190Y-110828828D01*
X76130386Y-110909571D01*
X76375665Y-110950500D01*
X76624335Y-110950500D01*
X76869614Y-110909571D01*
X77104810Y-110828828D01*
X77323509Y-110710474D01*
X77519744Y-110557738D01*
X77688164Y-110374785D01*
X77824173Y-110166607D01*
X77924063Y-109938881D01*
X77985108Y-109697821D01*
X78005643Y-109450000D01*
X77985108Y-109202179D01*
X77924063Y-108961119D01*
X77824173Y-108733393D01*
X77688164Y-108525215D01*
X77519744Y-108342262D01*
X77461796Y-108297159D01*
X77323514Y-108189529D01*
X77323510Y-108189526D01*
X77323509Y-108189526D01*
X77104810Y-108071172D01*
X77104806Y-108071170D01*
X77104805Y-108071170D01*
X76869615Y-107990429D01*
X76624335Y-107949500D01*
X76375665Y-107949500D01*
X76130384Y-107990429D01*
X75895194Y-108071170D01*
X75676485Y-108189529D01*
X75480259Y-108342259D01*
X75480256Y-108342261D01*
X75480256Y-108342262D01*
X75450546Y-108374536D01*
X75311837Y-108525214D01*
X75175825Y-108733395D01*
X75101500Y-108902841D01*
X75075937Y-108961119D01*
X75034554Y-109124536D01*
X75014891Y-109202183D01*
X74994356Y-109450000D01*
X62364297Y-109450000D01*
X62388867Y-109413231D01*
X62400500Y-109354748D01*
X62400500Y-108415252D01*
X62388867Y-108356769D01*
X62363555Y-108318888D01*
X62345042Y-108274192D01*
X62345042Y-108225808D01*
X62363555Y-108181111D01*
X62388867Y-108143231D01*
X62400500Y-108084748D01*
X62400500Y-107145252D01*
X62388867Y-107086769D01*
X62363555Y-107048888D01*
X62345042Y-107004192D01*
X62345042Y-106955808D01*
X62363555Y-106911111D01*
X62388867Y-106873231D01*
X62400500Y-106814748D01*
X62402883Y-106802769D01*
X62405664Y-106803322D01*
X62414015Y-106768538D01*
X62451615Y-106724515D01*
X62505102Y-106702360D01*
X62562818Y-106706902D01*
X62612181Y-106737152D01*
X62763181Y-106888152D01*
X62790061Y-106928380D01*
X62799500Y-106975833D01*
X62799500Y-107930757D01*
X62796756Y-107947577D01*
X62799368Y-108004079D01*
X62799500Y-108009805D01*
X62799500Y-108028819D01*
X62801181Y-108043307D01*
X62802415Y-108069993D01*
X62805213Y-108076330D01*
X62813666Y-108103626D01*
X62814938Y-108110434D01*
X62828997Y-108133140D01*
X62837002Y-108148327D01*
X62847792Y-108172763D01*
X62852688Y-108177659D01*
X62870434Y-108200063D01*
X62873914Y-108205682D01*
X62874081Y-108205952D01*
X62895396Y-108222048D01*
X62908351Y-108233322D01*
X63072101Y-108397072D01*
X63101839Y-108444894D01*
X63107359Y-108500938D01*
X63094317Y-108599999D01*
X63114956Y-108756762D01*
X63175463Y-108902840D01*
X63271717Y-109028282D01*
X63328325Y-109071718D01*
X63397159Y-109124536D01*
X63543238Y-109185044D01*
X63700000Y-109205682D01*
X63856762Y-109185044D01*
X64002841Y-109124536D01*
X64128282Y-109028282D01*
X64224536Y-108902841D01*
X64285044Y-108756762D01*
X64305682Y-108600000D01*
X64285044Y-108443238D01*
X64224536Y-108297159D01*
X64224535Y-108297158D01*
X64128282Y-108171717D01*
X64002840Y-108075463D01*
X63856762Y-108014956D01*
X63699999Y-107994317D01*
X63600938Y-108007359D01*
X63544894Y-108001839D01*
X63497072Y-107972101D01*
X63436819Y-107911848D01*
X63409939Y-107871620D01*
X63400500Y-107824167D01*
X63400500Y-106869243D01*
X63403243Y-106852422D01*
X63402772Y-106842236D01*
X63402773Y-106842235D01*
X63400631Y-106795919D01*
X63400500Y-106790195D01*
X63400500Y-106771178D01*
X63398817Y-106756680D01*
X63397585Y-106730008D01*
X63394786Y-106723670D01*
X63386332Y-106696367D01*
X63385061Y-106689567D01*
X63371002Y-106666860D01*
X63362995Y-106651670D01*
X63359127Y-106642910D01*
X63352206Y-106627235D01*
X63347310Y-106622339D01*
X63329563Y-106599933D01*
X63325919Y-106594048D01*
X63304602Y-106577950D01*
X63291648Y-106566677D01*
X62906450Y-106181479D01*
X62896497Y-106167645D01*
X62854681Y-106129524D01*
X62850540Y-106125569D01*
X62837110Y-106112139D01*
X62825678Y-106103083D01*
X62805934Y-106085084D01*
X62799468Y-106082579D01*
X62774192Y-106069256D01*
X62768481Y-106065344D01*
X62768480Y-106065343D01*
X62768478Y-106065342D01*
X62742484Y-106059228D01*
X62726087Y-106054151D01*
X62701173Y-106044500D01*
X62694249Y-106044500D01*
X62665859Y-106041206D01*
X62659119Y-106039621D01*
X62659118Y-106039621D01*
X62647757Y-106041206D01*
X62632666Y-106043311D01*
X62615535Y-106044500D01*
X62524500Y-106044500D01*
X62462500Y-106027887D01*
X62417113Y-105982500D01*
X62400500Y-105920500D01*
X62400500Y-105875251D01*
X62388867Y-105816770D01*
X62388867Y-105816769D01*
X62363555Y-105778888D01*
X62345042Y-105734192D01*
X62345042Y-105685808D01*
X62363555Y-105641111D01*
X62388867Y-105603231D01*
X62400500Y-105544748D01*
X62400500Y-105189999D01*
X62984317Y-105189999D01*
X63004956Y-105346762D01*
X63065463Y-105492840D01*
X63161717Y-105618282D01*
X63249720Y-105685808D01*
X63287159Y-105714536D01*
X63433238Y-105775044D01*
X63590000Y-105795682D01*
X63746762Y-105775044D01*
X63892841Y-105714536D01*
X64018282Y-105618282D01*
X64109043Y-105500000D01*
X67394317Y-105500000D01*
X67414956Y-105656762D01*
X67475463Y-105802840D01*
X67571717Y-105928282D01*
X67606480Y-105954956D01*
X67697159Y-106024536D01*
X67843238Y-106085044D01*
X68000000Y-106105682D01*
X68156762Y-106085044D01*
X68302841Y-106024536D01*
X68428282Y-105928282D01*
X68524536Y-105802841D01*
X68585044Y-105656762D01*
X68605682Y-105500000D01*
X68585044Y-105343238D01*
X68524536Y-105197159D01*
X68519042Y-105189999D01*
X68428282Y-105071717D01*
X68302840Y-104975463D01*
X68156762Y-104914956D01*
X68000000Y-104894317D01*
X67843237Y-104914956D01*
X67697159Y-104975463D01*
X67571717Y-105071717D01*
X67475463Y-105197159D01*
X67414956Y-105343237D01*
X67394317Y-105500000D01*
X64109043Y-105500000D01*
X64114536Y-105492841D01*
X64175044Y-105346762D01*
X64195682Y-105190000D01*
X64175044Y-105033238D01*
X64114536Y-104887159D01*
X64018282Y-104761717D01*
X63892840Y-104665463D01*
X63746762Y-104604956D01*
X63590000Y-104584317D01*
X63433237Y-104604956D01*
X63287159Y-104665463D01*
X63161717Y-104761717D01*
X63065463Y-104887159D01*
X63004956Y-105033237D01*
X62984317Y-105189999D01*
X62400500Y-105189999D01*
X62400500Y-104605252D01*
X62388867Y-104546769D01*
X62363555Y-104508888D01*
X62345042Y-104464192D01*
X62345042Y-104450000D01*
X74994356Y-104450000D01*
X75014891Y-104697816D01*
X75014891Y-104697819D01*
X75014892Y-104697821D01*
X75075937Y-104938881D01*
X75117325Y-105033237D01*
X75175825Y-105166604D01*
X75175827Y-105166607D01*
X75311836Y-105374785D01*
X75480256Y-105557738D01*
X75480259Y-105557740D01*
X75676485Y-105710470D01*
X75676487Y-105710471D01*
X75676491Y-105710474D01*
X75895190Y-105828828D01*
X76130386Y-105909571D01*
X76375665Y-105950500D01*
X76624335Y-105950500D01*
X76869614Y-105909571D01*
X77104810Y-105828828D01*
X77323509Y-105710474D01*
X77519744Y-105557738D01*
X77688164Y-105374785D01*
X77824173Y-105166607D01*
X77924063Y-104938881D01*
X77985108Y-104697821D01*
X78005643Y-104450000D01*
X77985108Y-104202179D01*
X77924063Y-103961119D01*
X77824173Y-103733393D01*
X77688164Y-103525215D01*
X77519744Y-103342262D01*
X77435599Y-103276769D01*
X77323514Y-103189529D01*
X77323510Y-103189526D01*
X77323509Y-103189526D01*
X77104810Y-103071172D01*
X77104806Y-103071170D01*
X77104805Y-103071170D01*
X76869615Y-102990429D01*
X76624335Y-102949500D01*
X76375665Y-102949500D01*
X76130384Y-102990429D01*
X75895194Y-103071170D01*
X75895190Y-103071171D01*
X75895190Y-103071172D01*
X75831421Y-103105682D01*
X75676485Y-103189529D01*
X75480259Y-103342259D01*
X75480256Y-103342261D01*
X75480256Y-103342262D01*
X75479358Y-103343238D01*
X75311837Y-103525214D01*
X75175825Y-103733395D01*
X75118118Y-103864956D01*
X75075937Y-103961119D01*
X75033170Y-104130000D01*
X75014891Y-104202183D01*
X74994356Y-104450000D01*
X62345042Y-104450000D01*
X62345042Y-104415808D01*
X62363555Y-104371111D01*
X62388867Y-104333231D01*
X62400500Y-104274748D01*
X62400500Y-103335252D01*
X62388867Y-103276769D01*
X62363555Y-103238888D01*
X62345042Y-103194192D01*
X62345042Y-103145808D01*
X62363555Y-103101111D01*
X62388867Y-103063231D01*
X62400500Y-103004748D01*
X62400500Y-102225082D01*
X62419199Y-102159602D01*
X62469655Y-102113870D01*
X62536652Y-102101679D01*
X62581599Y-102119439D01*
X62582076Y-102118289D01*
X62655090Y-102148532D01*
X62743238Y-102185044D01*
X62900000Y-102205682D01*
X62900002Y-102205681D01*
X62907859Y-102206716D01*
X62967160Y-102231279D01*
X63006235Y-102282202D01*
X63014613Y-102345840D01*
X62994317Y-102499999D01*
X63014956Y-102656762D01*
X63075463Y-102802840D01*
X63171717Y-102928282D01*
X63271372Y-103004749D01*
X63297159Y-103024536D01*
X63443238Y-103085044D01*
X63600000Y-103105682D01*
X63756762Y-103085044D01*
X63902841Y-103024536D01*
X64028282Y-102928282D01*
X64124536Y-102802841D01*
X64185044Y-102656762D01*
X64205682Y-102500000D01*
X64185044Y-102343238D01*
X64124536Y-102197159D01*
X64028282Y-102071718D01*
X63949013Y-102010893D01*
X63913288Y-101967362D01*
X63900500Y-101912518D01*
X63900500Y-101264243D01*
X63903243Y-101247422D01*
X63902772Y-101237236D01*
X63902773Y-101237235D01*
X63900631Y-101190919D01*
X63900500Y-101185195D01*
X63900500Y-101166178D01*
X63898817Y-101151680D01*
X63898427Y-101143237D01*
X63897585Y-101125008D01*
X63894786Y-101118670D01*
X63886332Y-101091367D01*
X63885061Y-101084567D01*
X63871002Y-101061860D01*
X63862995Y-101046670D01*
X63852206Y-101022235D01*
X63847310Y-101017339D01*
X63829563Y-100994933D01*
X63825919Y-100989048D01*
X63804602Y-100972950D01*
X63791648Y-100961677D01*
X62661450Y-99831479D01*
X62651497Y-99817645D01*
X62609681Y-99779524D01*
X62605540Y-99775569D01*
X62592110Y-99762139D01*
X62580678Y-99753083D01*
X62560934Y-99735084D01*
X62554468Y-99732579D01*
X62529192Y-99719256D01*
X62523481Y-99715344D01*
X62523480Y-99715343D01*
X62523478Y-99715342D01*
X62497484Y-99709228D01*
X62481145Y-99704173D01*
X62479767Y-99703640D01*
X62438211Y-99677042D01*
X62410316Y-99636344D01*
X62400500Y-99587990D01*
X62400500Y-99525251D01*
X62388867Y-99466769D01*
X62344552Y-99400447D01*
X62278230Y-99356132D01*
X62219749Y-99344500D01*
X62219748Y-99344500D01*
X60680252Y-99344500D01*
X60680251Y-99344500D01*
X60621769Y-99356132D01*
X60555447Y-99400447D01*
X60511132Y-99466769D01*
X60499500Y-99525251D01*
X60499500Y-100464749D01*
X60511133Y-100523232D01*
X60536442Y-100561110D01*
X60554957Y-100605809D01*
X60554957Y-100654191D01*
X60536442Y-100698890D01*
X60511133Y-100736767D01*
X60499500Y-100795251D01*
X60499500Y-101734749D01*
X60511133Y-101793232D01*
X60536442Y-101831110D01*
X60554957Y-101875809D01*
X60554957Y-101924191D01*
X60536442Y-101968890D01*
X60511133Y-102006767D01*
X60499500Y-102065251D01*
X60499500Y-103004749D01*
X60511133Y-103063232D01*
X60536442Y-103101110D01*
X60554957Y-103145809D01*
X60554957Y-103194191D01*
X60536442Y-103238890D01*
X60511133Y-103276767D01*
X60499500Y-103335251D01*
X60499500Y-104274749D01*
X60511133Y-104333232D01*
X60536442Y-104371110D01*
X60554957Y-104415809D01*
X60554957Y-104464191D01*
X60536442Y-104508890D01*
X60511133Y-104546767D01*
X60499500Y-104605251D01*
X60499500Y-105544749D01*
X60511133Y-105603232D01*
X60536442Y-105641110D01*
X60554957Y-105685809D01*
X60554957Y-105734191D01*
X60536442Y-105778890D01*
X60511133Y-105816767D01*
X60499500Y-105875251D01*
X60499500Y-106814749D01*
X60511133Y-106873232D01*
X60536442Y-106911110D01*
X60554957Y-106955809D01*
X60554957Y-107004191D01*
X60536442Y-107048890D01*
X60511133Y-107086767D01*
X60499500Y-107145251D01*
X60499500Y-108084749D01*
X60511133Y-108143232D01*
X60536442Y-108181110D01*
X60554957Y-108225809D01*
X60554957Y-108274191D01*
X60536442Y-108318890D01*
X60511133Y-108356767D01*
X60499500Y-108415251D01*
X60499500Y-109354749D01*
X60511133Y-109413232D01*
X60536442Y-109451110D01*
X60554957Y-109495809D01*
X60554957Y-109544191D01*
X60536442Y-109588890D01*
X60511133Y-109626767D01*
X60499500Y-109685251D01*
X60499500Y-109825500D01*
X60482887Y-109887500D01*
X60437500Y-109932887D01*
X60375500Y-109949500D01*
X60337482Y-109949500D01*
X60282638Y-109936712D01*
X60239106Y-109900986D01*
X60212208Y-109865932D01*
X60178282Y-109821718D01*
X60052841Y-109725464D01*
X60052840Y-109725463D01*
X59906762Y-109664956D01*
X59750000Y-109644317D01*
X59593237Y-109664956D01*
X59447159Y-109725463D01*
X59321717Y-109821717D01*
X59225463Y-109947159D01*
X59164956Y-110093237D01*
X59144317Y-110249999D01*
X59164956Y-110406762D01*
X59225463Y-110552840D01*
X59321717Y-110678282D01*
X59409673Y-110745772D01*
X59447159Y-110774536D01*
X59593238Y-110835044D01*
X59750000Y-110855682D01*
X59906762Y-110835044D01*
X60052841Y-110774536D01*
X60178282Y-110678282D01*
X60239106Y-110599013D01*
X60282638Y-110563288D01*
X60337482Y-110550500D01*
X60382967Y-110550500D01*
X60437811Y-110563288D01*
X60481343Y-110599013D01*
X60504584Y-110650308D01*
X60511133Y-110683232D01*
X60536442Y-110721110D01*
X60554957Y-110765809D01*
X60554957Y-110814191D01*
X60536442Y-110858890D01*
X60511133Y-110896767D01*
X60499500Y-110955251D01*
X60499500Y-111894749D01*
X60511133Y-111953232D01*
X60536442Y-111991110D01*
X60554957Y-112035809D01*
X60554957Y-112084191D01*
X60536442Y-112128890D01*
X60511133Y-112166767D01*
X60499500Y-112225251D01*
X60499500Y-113164749D01*
X60511133Y-113223232D01*
X60536442Y-113261110D01*
X60554957Y-113305809D01*
X60554957Y-113354191D01*
X60536442Y-113398890D01*
X60511133Y-113436767D01*
X60499500Y-113495251D01*
X60499500Y-113540500D01*
X60482887Y-113602500D01*
X60437500Y-113647887D01*
X60375500Y-113664500D01*
X59922260Y-113664500D01*
X59867416Y-113651712D01*
X59841907Y-113630777D01*
X59841234Y-113631656D01*
X59702840Y-113525463D01*
X59556762Y-113464956D01*
X59400000Y-113444317D01*
X59243237Y-113464956D01*
X59171952Y-113494483D01*
X59112345Y-113503325D01*
X59055609Y-113483024D01*
X59015142Y-113438375D01*
X59000500Y-113379922D01*
X59000500Y-113225833D01*
X59009939Y-113178380D01*
X59036819Y-113138152D01*
X59190995Y-112983976D01*
X59347074Y-112827896D01*
X59394895Y-112798160D01*
X59450937Y-112792640D01*
X59550000Y-112805682D01*
X59706762Y-112785044D01*
X59852841Y-112724536D01*
X59978282Y-112628282D01*
X60074536Y-112502841D01*
X60135044Y-112356762D01*
X60155682Y-112200000D01*
X60135044Y-112043238D01*
X60074536Y-111897159D01*
X60037146Y-111848431D01*
X59978282Y-111771717D01*
X59852840Y-111675463D01*
X59706762Y-111614956D01*
X59550000Y-111594317D01*
X59393237Y-111614956D01*
X59247159Y-111675463D01*
X59121717Y-111771717D01*
X59025463Y-111897159D01*
X58964956Y-112043237D01*
X58944317Y-112200000D01*
X58957359Y-112299060D01*
X58951839Y-112355104D01*
X58922101Y-112402926D01*
X58536475Y-112788552D01*
X58522639Y-112798508D01*
X58484523Y-112840318D01*
X58480573Y-112844454D01*
X58467141Y-112857886D01*
X58458087Y-112869317D01*
X58440083Y-112889067D01*
X58437578Y-112895534D01*
X58424259Y-112920802D01*
X58420343Y-112926518D01*
X58414228Y-112952517D01*
X58409151Y-112968913D01*
X58399500Y-112993827D01*
X58399500Y-113000751D01*
X58396206Y-113029144D01*
X58394621Y-113035881D01*
X56718379Y-113035881D01*
X56728282Y-113028282D01*
X56824536Y-112902841D01*
X56885044Y-112756762D01*
X56905682Y-112600000D01*
X56885044Y-112443238D01*
X56824536Y-112297159D01*
X56769360Y-112225252D01*
X56728282Y-112171717D01*
X56602840Y-112075463D01*
X56456762Y-112014956D01*
X56300000Y-111994317D01*
X56143237Y-112014956D01*
X55997159Y-112075463D01*
X55871717Y-112171717D01*
X55775463Y-112297159D01*
X55714956Y-112443237D01*
X55694317Y-112600000D01*
X47267134Y-112600000D01*
X47224536Y-112497159D01*
X47176122Y-112434064D01*
X47157081Y-112398440D01*
X47150500Y-112358581D01*
X47150500Y-111641419D01*
X47157081Y-111601560D01*
X47176122Y-111565935D01*
X47224536Y-111502841D01*
X47285044Y-111356762D01*
X47305682Y-111200000D01*
X47285044Y-111043238D01*
X47224536Y-110897159D01*
X47176122Y-110834064D01*
X47157081Y-110798440D01*
X47150500Y-110758581D01*
X47150500Y-109941419D01*
X47157081Y-109901560D01*
X47176122Y-109865935D01*
X47224536Y-109802841D01*
X47285044Y-109656762D01*
X47305682Y-109500000D01*
X47285044Y-109343238D01*
X47224536Y-109197159D01*
X47168811Y-109124536D01*
X47128282Y-109071717D01*
X47080431Y-109035000D01*
X48800000Y-109035000D01*
X48800000Y-110732824D01*
X48806402Y-110792375D01*
X48856647Y-110927089D01*
X48942811Y-111042188D01*
X49057910Y-111128352D01*
X49192624Y-111178597D01*
X49252176Y-111185000D01*
X50950000Y-111185000D01*
X51450000Y-111185000D01*
X53147824Y-111185000D01*
X53207375Y-111178597D01*
X53342089Y-111128352D01*
X53457188Y-111042188D01*
X53543352Y-110927089D01*
X53593597Y-110792375D01*
X53600000Y-110732824D01*
X53600000Y-109035000D01*
X52850000Y-109035000D01*
X52850000Y-110311000D01*
X52833387Y-110373000D01*
X52788000Y-110418387D01*
X52726000Y-110435000D01*
X51450000Y-110435000D01*
X51450000Y-111185000D01*
X50950000Y-111185000D01*
X50950000Y-110435000D01*
X49674000Y-110435000D01*
X49612000Y-110418387D01*
X49566613Y-110373000D01*
X49550000Y-110311000D01*
X49550000Y-109035000D01*
X50050000Y-109035000D01*
X50050000Y-109935000D01*
X50950000Y-109935000D01*
X50950000Y-109035000D01*
X51450000Y-109035000D01*
X51450000Y-109935000D01*
X52350000Y-109935000D01*
X52350000Y-109035000D01*
X51450000Y-109035000D01*
X50950000Y-109035000D01*
X50050000Y-109035000D01*
X49550000Y-109035000D01*
X48800000Y-109035000D01*
X47080431Y-109035000D01*
X47002840Y-108975463D01*
X46856762Y-108914956D01*
X46700000Y-108894317D01*
X46543237Y-108914956D01*
X46397159Y-108975463D01*
X46271717Y-109071717D01*
X46175463Y-109197159D01*
X46114956Y-109343237D01*
X46094317Y-109500000D01*
X46114956Y-109656762D01*
X46175462Y-109802838D01*
X46175463Y-109802840D01*
X46175464Y-109802841D01*
X46223877Y-109865935D01*
X46242919Y-109901560D01*
X46249500Y-109941419D01*
X46249500Y-110758581D01*
X46242919Y-110798440D01*
X46223877Y-110834064D01*
X46204829Y-110858890D01*
X46175462Y-110897161D01*
X46114956Y-111043237D01*
X46094317Y-111200000D01*
X46114956Y-111356762D01*
X46175462Y-111502838D01*
X46175463Y-111502840D01*
X46175464Y-111502841D01*
X46223877Y-111565935D01*
X46242919Y-111601560D01*
X46249500Y-111641419D01*
X46249500Y-112358581D01*
X46242919Y-112398440D01*
X46223877Y-112434064D01*
X46216840Y-112443237D01*
X46175462Y-112497161D01*
X46114956Y-112643237D01*
X46094317Y-112800000D01*
X46114956Y-112956762D01*
X46175462Y-113102838D01*
X46175463Y-113102840D01*
X46175464Y-113102841D01*
X46223877Y-113165935D01*
X46242919Y-113201560D01*
X46249500Y-113241419D01*
X46249500Y-113497035D01*
X46240061Y-113544488D01*
X46213181Y-113584716D01*
X45076721Y-114721175D01*
X45030815Y-114750245D01*
X44976887Y-114756897D01*
X44925293Y-114739853D01*
X44885939Y-114702387D01*
X44882591Y-114697376D01*
X44863556Y-114668890D01*
X44845042Y-114624193D01*
X44845042Y-114575809D01*
X44863555Y-114531111D01*
X44888867Y-114493231D01*
X44900500Y-114434748D01*
X44900500Y-113495252D01*
X44888867Y-113436769D01*
X44863555Y-113398888D01*
X44845042Y-113354192D01*
X44845042Y-113305808D01*
X44863555Y-113261111D01*
X44888867Y-113223231D01*
X44898566Y-113174471D01*
X44900500Y-113164749D01*
X44900500Y-112225251D01*
X44898569Y-112215548D01*
X44888867Y-112166769D01*
X44863557Y-112128890D01*
X44845042Y-112084190D01*
X44845042Y-112035806D01*
X44863558Y-111991108D01*
X44888867Y-111953231D01*
X44894683Y-111923989D01*
X44900500Y-111894749D01*
X44900500Y-110955251D01*
X44894898Y-110927089D01*
X44888867Y-110896769D01*
X44863557Y-110858890D01*
X44845042Y-110814190D01*
X44845042Y-110765806D01*
X44863558Y-110721108D01*
X44888867Y-110683231D01*
X44900500Y-110624748D01*
X44900500Y-109685252D01*
X44888867Y-109626769D01*
X44863555Y-109588888D01*
X44845042Y-109544192D01*
X44845042Y-109495808D01*
X44863555Y-109451111D01*
X44888867Y-109413231D01*
X44900500Y-109354748D01*
X44900500Y-108535000D01*
X48800000Y-108535000D01*
X49550000Y-108535000D01*
X49550000Y-107635000D01*
X50050000Y-107635000D01*
X50050000Y-108535000D01*
X50950000Y-108535000D01*
X50950000Y-107635000D01*
X51450000Y-107635000D01*
X51450000Y-108535000D01*
X52350000Y-108535000D01*
X52350000Y-107635000D01*
X51450000Y-107635000D01*
X50950000Y-107635000D01*
X50050000Y-107635000D01*
X49550000Y-107635000D01*
X49550000Y-107259000D01*
X49566613Y-107197000D01*
X49612000Y-107151613D01*
X49674000Y-107135000D01*
X50950000Y-107135000D01*
X50950000Y-106385000D01*
X51450000Y-106385000D01*
X51450000Y-107135000D01*
X52726000Y-107135000D01*
X52788000Y-107151613D01*
X52833387Y-107197000D01*
X52850000Y-107259000D01*
X52850000Y-108535000D01*
X53600000Y-108535000D01*
X53600000Y-106837176D01*
X53593597Y-106777624D01*
X53543352Y-106642910D01*
X53466313Y-106540000D01*
X58654317Y-106540000D01*
X58674956Y-106696762D01*
X58735463Y-106842840D01*
X58831717Y-106968282D01*
X58899702Y-107020448D01*
X58957159Y-107064536D01*
X59103238Y-107125044D01*
X59260000Y-107145682D01*
X59416762Y-107125044D01*
X59562841Y-107064536D01*
X59688282Y-106968282D01*
X59784536Y-106842841D01*
X59845044Y-106696762D01*
X59865682Y-106540000D01*
X59845044Y-106383238D01*
X59784536Y-106237159D01*
X59784535Y-106237158D01*
X59688282Y-106111717D01*
X59562840Y-106015463D01*
X59416762Y-105954956D01*
X59260000Y-105934317D01*
X59103237Y-105954956D01*
X58957159Y-106015463D01*
X58831717Y-106111717D01*
X58735463Y-106237159D01*
X58674956Y-106383237D01*
X58654317Y-106540000D01*
X53466313Y-106540000D01*
X53457188Y-106527811D01*
X53342089Y-106441647D01*
X53207375Y-106391402D01*
X53147824Y-106385000D01*
X51450000Y-106385000D01*
X50950000Y-106385000D01*
X49252176Y-106385000D01*
X49192624Y-106391402D01*
X49057910Y-106441647D01*
X48942811Y-106527811D01*
X48856647Y-106642910D01*
X48806402Y-106777624D01*
X48800000Y-106837176D01*
X48800000Y-108535000D01*
X44900500Y-108535000D01*
X44900500Y-108415252D01*
X44888867Y-108356769D01*
X44863555Y-108318888D01*
X44845042Y-108274192D01*
X44845042Y-108225808D01*
X44863555Y-108181111D01*
X44888867Y-108143231D01*
X44900500Y-108084748D01*
X44900500Y-107850000D01*
X47044317Y-107850000D01*
X47064956Y-108006762D01*
X47125463Y-108152840D01*
X47221717Y-108278282D01*
X47324006Y-108356770D01*
X47347159Y-108374536D01*
X47493238Y-108435044D01*
X47650000Y-108455682D01*
X47806762Y-108435044D01*
X47952841Y-108374536D01*
X48078282Y-108278282D01*
X48174536Y-108152841D01*
X48235044Y-108006762D01*
X48255682Y-107850000D01*
X48235044Y-107693238D01*
X48174536Y-107547159D01*
X48094795Y-107443238D01*
X48078282Y-107421717D01*
X47952840Y-107325463D01*
X47806762Y-107264956D01*
X47650000Y-107244317D01*
X47493237Y-107264956D01*
X47347159Y-107325463D01*
X47221717Y-107421717D01*
X47125463Y-107547159D01*
X47064956Y-107693237D01*
X47044317Y-107850000D01*
X44900500Y-107850000D01*
X44900500Y-107145252D01*
X44888867Y-107086769D01*
X44863555Y-107048888D01*
X44845042Y-107004192D01*
X44845042Y-106955808D01*
X44863555Y-106911111D01*
X44888867Y-106873231D01*
X44900500Y-106814748D01*
X44900500Y-105875252D01*
X44888867Y-105816769D01*
X44863555Y-105778888D01*
X44845042Y-105734192D01*
X44845042Y-105685808D01*
X44863555Y-105641111D01*
X44888867Y-105603231D01*
X44900500Y-105544748D01*
X44900500Y-105180000D01*
X49694317Y-105180000D01*
X49714956Y-105336762D01*
X49775463Y-105482840D01*
X49871717Y-105608282D01*
X49972752Y-105685808D01*
X49997159Y-105704536D01*
X50143238Y-105765044D01*
X50300000Y-105785682D01*
X50456762Y-105765044D01*
X50602841Y-105704536D01*
X50728282Y-105608282D01*
X50824536Y-105482841D01*
X50885044Y-105336762D01*
X50905682Y-105180000D01*
X50885044Y-105023238D01*
X50824536Y-104877159D01*
X50735955Y-104761718D01*
X50721463Y-104742831D01*
X50696900Y-104683529D01*
X50705279Y-104619890D01*
X50744354Y-104568968D01*
X50758282Y-104558282D01*
X50841369Y-104450000D01*
X53944317Y-104450000D01*
X53964956Y-104606762D01*
X54025463Y-104752840D01*
X54121717Y-104878282D01*
X54247159Y-104974536D01*
X54393238Y-105035044D01*
X54550000Y-105055682D01*
X54706762Y-105035044D01*
X54852841Y-104974536D01*
X54897849Y-104940000D01*
X56654317Y-104940000D01*
X56674956Y-105096762D01*
X56735463Y-105242840D01*
X56831717Y-105368282D01*
X56957158Y-105464535D01*
X56957159Y-105464536D01*
X57103238Y-105525044D01*
X57260000Y-105545682D01*
X57416762Y-105525044D01*
X57562841Y-105464536D01*
X57688282Y-105368282D01*
X57784536Y-105242841D01*
X57845044Y-105096762D01*
X57865682Y-104940000D01*
X57845044Y-104783238D01*
X57784536Y-104637159D01*
X57732211Y-104568967D01*
X57688282Y-104511717D01*
X57562840Y-104415463D01*
X57416762Y-104354956D01*
X57260000Y-104334317D01*
X57103237Y-104354956D01*
X56957159Y-104415463D01*
X56831717Y-104511717D01*
X56735463Y-104637159D01*
X56674956Y-104783237D01*
X56654317Y-104940000D01*
X54897849Y-104940000D01*
X54978282Y-104878282D01*
X55074536Y-104752841D01*
X55135044Y-104606762D01*
X55155682Y-104450000D01*
X55135044Y-104293238D01*
X55074536Y-104147159D01*
X54978282Y-104021717D01*
X54852840Y-103925463D01*
X54706762Y-103864956D01*
X54550000Y-103844317D01*
X54393237Y-103864956D01*
X54247159Y-103925463D01*
X54121717Y-104021717D01*
X54025463Y-104147159D01*
X53964956Y-104293237D01*
X53944317Y-104450000D01*
X50841369Y-104450000D01*
X50854536Y-104432841D01*
X50915044Y-104286762D01*
X50935682Y-104130000D01*
X50915044Y-103973238D01*
X50854536Y-103827159D01*
X50758282Y-103701718D01*
X50744155Y-103690878D01*
X50705082Y-103639955D01*
X50696704Y-103576317D01*
X50721268Y-103517016D01*
X50772189Y-103477942D01*
X50852841Y-103444536D01*
X50978282Y-103348282D01*
X51074536Y-103222841D01*
X51135044Y-103076762D01*
X51155682Y-102920000D01*
X51135044Y-102763238D01*
X51074536Y-102617159D01*
X50978282Y-102491717D01*
X50852840Y-102395463D01*
X50706762Y-102334956D01*
X50550000Y-102314317D01*
X50393237Y-102334956D01*
X50247159Y-102395463D01*
X50121717Y-102491717D01*
X50025463Y-102617159D01*
X49964956Y-102763237D01*
X49944317Y-102920000D01*
X49964956Y-103076762D01*
X50025463Y-103222840D01*
X50121717Y-103348282D01*
X50135842Y-103359120D01*
X50174917Y-103410043D01*
X50183295Y-103473681D01*
X50158732Y-103532982D01*
X50107809Y-103572057D01*
X50027158Y-103605463D01*
X49901717Y-103701717D01*
X49805463Y-103827159D01*
X49744956Y-103973237D01*
X49724317Y-104130000D01*
X49744956Y-104286762D01*
X49805463Y-104432840D01*
X49908536Y-104567168D01*
X49933099Y-104626469D01*
X49924721Y-104690106D01*
X49885647Y-104741029D01*
X49871718Y-104751716D01*
X49775463Y-104877159D01*
X49714956Y-105023237D01*
X49694317Y-105180000D01*
X44900500Y-105180000D01*
X44900500Y-104605252D01*
X44888867Y-104546769D01*
X44863555Y-104508888D01*
X44845042Y-104464192D01*
X44845042Y-104415808D01*
X44863555Y-104371111D01*
X44888867Y-104333231D01*
X44900500Y-104274748D01*
X44900500Y-103335252D01*
X44888867Y-103276769D01*
X44863555Y-103238888D01*
X44845042Y-103194192D01*
X44845042Y-103145808D01*
X44863555Y-103101111D01*
X44888867Y-103063231D01*
X44900500Y-103004748D01*
X44900500Y-102959500D01*
X44917113Y-102897500D01*
X44962500Y-102852113D01*
X45024500Y-102835500D01*
X46725757Y-102835500D01*
X46742577Y-102838243D01*
X46752762Y-102837772D01*
X46752765Y-102837773D01*
X46799080Y-102835631D01*
X46804805Y-102835500D01*
X46823824Y-102835500D01*
X46838318Y-102833817D01*
X46864992Y-102832585D01*
X46871330Y-102829786D01*
X46898633Y-102821332D01*
X46905433Y-102820061D01*
X46928143Y-102805998D01*
X46943325Y-102797996D01*
X46967765Y-102787206D01*
X46972659Y-102782311D01*
X46995063Y-102764564D01*
X47000952Y-102760919D01*
X47017053Y-102739595D01*
X47028313Y-102726656D01*
X47387073Y-102367896D01*
X47434894Y-102338160D01*
X47490936Y-102332640D01*
X47590000Y-102345682D01*
X47746762Y-102325044D01*
X47892841Y-102264536D01*
X48018282Y-102168282D01*
X48114536Y-102042841D01*
X48175044Y-101896762D01*
X48175044Y-101896757D01*
X48178998Y-101887213D01*
X48218068Y-101836293D01*
X48277363Y-101811727D01*
X48340998Y-101820098D01*
X48391923Y-101859163D01*
X48405883Y-101892850D01*
X48408709Y-101891680D01*
X48475463Y-102052840D01*
X48571717Y-102178282D01*
X48632709Y-102225082D01*
X48697159Y-102274536D01*
X48843238Y-102335044D01*
X49000000Y-102355682D01*
X49156762Y-102335044D01*
X49302841Y-102274536D01*
X49428282Y-102178282D01*
X49524536Y-102052841D01*
X49585044Y-101906762D01*
X49589974Y-101869310D01*
X49614537Y-101810011D01*
X49665460Y-101770936D01*
X49729099Y-101762558D01*
X49788399Y-101787121D01*
X49837159Y-101824536D01*
X49983238Y-101885044D01*
X50140000Y-101905682D01*
X50296762Y-101885044D01*
X50442841Y-101824536D01*
X50568282Y-101728282D01*
X50605330Y-101680000D01*
X56704317Y-101680000D01*
X56724956Y-101836762D01*
X56785463Y-101982840D01*
X56881717Y-102108282D01*
X56972944Y-102178282D01*
X57007159Y-102204536D01*
X57153238Y-102265044D01*
X57310000Y-102285682D01*
X57466762Y-102265044D01*
X57612841Y-102204536D01*
X57738282Y-102108282D01*
X57834536Y-101982841D01*
X57895044Y-101836762D01*
X57915682Y-101680000D01*
X57895044Y-101523238D01*
X57834536Y-101377159D01*
X57791994Y-101321717D01*
X57738282Y-101251717D01*
X57612840Y-101155463D01*
X57466762Y-101094956D01*
X57310000Y-101074317D01*
X57153237Y-101094956D01*
X57007159Y-101155463D01*
X56881717Y-101251717D01*
X56785463Y-101377159D01*
X56724956Y-101523237D01*
X56704317Y-101680000D01*
X50605330Y-101680000D01*
X50664536Y-101602841D01*
X50725044Y-101456762D01*
X50745682Y-101300000D01*
X50725044Y-101143238D01*
X50664536Y-100997159D01*
X50637310Y-100961677D01*
X50568282Y-100871717D01*
X50442840Y-100775463D01*
X50296762Y-100714956D01*
X50140000Y-100694317D01*
X49983237Y-100714956D01*
X49837159Y-100775463D01*
X49711717Y-100871717D01*
X49615463Y-100997159D01*
X49554956Y-101143237D01*
X49550025Y-101180689D01*
X49525461Y-101239990D01*
X49474538Y-101279064D01*
X49410900Y-101287441D01*
X49351601Y-101262878D01*
X49302841Y-101225464D01*
X49302840Y-101225463D01*
X49302838Y-101225462D01*
X49156762Y-101164956D01*
X49000000Y-101144317D01*
X48843237Y-101164956D01*
X48697159Y-101225463D01*
X48571717Y-101321717D01*
X48475464Y-101447158D01*
X48411001Y-101602787D01*
X48371927Y-101653710D01*
X48312626Y-101678273D01*
X48248988Y-101669895D01*
X48198065Y-101630821D01*
X48184117Y-101597149D01*
X48181291Y-101598320D01*
X48175043Y-101583237D01*
X48114536Y-101437159D01*
X48068497Y-101377159D01*
X48018282Y-101311717D01*
X47892840Y-101215463D01*
X47746762Y-101154956D01*
X47590000Y-101134317D01*
X47433237Y-101154956D01*
X47287159Y-101215463D01*
X47161717Y-101311717D01*
X47065463Y-101437159D01*
X47004956Y-101583237D01*
X46984317Y-101740000D01*
X46997359Y-101839060D01*
X46991839Y-101895103D01*
X46962101Y-101942926D01*
X46706845Y-102198183D01*
X46666620Y-102225061D01*
X46619167Y-102234500D01*
X45024500Y-102234500D01*
X44962500Y-102217887D01*
X44917113Y-102172500D01*
X44900500Y-102110500D01*
X44900500Y-102065251D01*
X44891158Y-102018289D01*
X44888867Y-102006769D01*
X44863555Y-101968888D01*
X44845042Y-101924192D01*
X44845042Y-101875808D01*
X44863555Y-101831111D01*
X44888867Y-101793231D01*
X44900500Y-101734748D01*
X44900500Y-100795252D01*
X44888867Y-100736769D01*
X44863555Y-100698888D01*
X44845042Y-100654192D01*
X44845042Y-100605808D01*
X44863555Y-100561111D01*
X44888867Y-100523231D01*
X44900500Y-100464748D01*
X44900500Y-99525252D01*
X44898411Y-99514749D01*
X47609500Y-99514749D01*
X47621132Y-99573230D01*
X47665447Y-99639552D01*
X47731769Y-99683867D01*
X47790251Y-99695500D01*
X47790252Y-99695500D01*
X48729748Y-99695500D01*
X48729749Y-99695500D01*
X48749752Y-99691521D01*
X48788231Y-99683867D01*
X48826111Y-99658555D01*
X48870808Y-99640042D01*
X48919192Y-99640042D01*
X48963888Y-99658555D01*
X49001769Y-99683867D01*
X49030696Y-99689621D01*
X49060251Y-99695500D01*
X49060252Y-99695500D01*
X49999748Y-99695500D01*
X49999749Y-99695500D01*
X50019752Y-99691521D01*
X50058231Y-99683867D01*
X50096111Y-99658555D01*
X50140808Y-99640042D01*
X50189192Y-99640042D01*
X50233888Y-99658555D01*
X50271769Y-99683867D01*
X50300696Y-99689621D01*
X50330251Y-99695500D01*
X50330252Y-99695500D01*
X51269748Y-99695500D01*
X51269749Y-99695500D01*
X51289752Y-99691521D01*
X51328231Y-99683867D01*
X51366111Y-99658555D01*
X51410808Y-99640042D01*
X51459192Y-99640042D01*
X51503888Y-99658555D01*
X51541769Y-99683867D01*
X51570696Y-99689621D01*
X51600251Y-99695500D01*
X51600252Y-99695500D01*
X52539748Y-99695500D01*
X52539749Y-99695500D01*
X52559752Y-99691521D01*
X52598231Y-99683867D01*
X52636111Y-99658555D01*
X52680808Y-99640042D01*
X52729192Y-99640042D01*
X52773888Y-99658555D01*
X52811769Y-99683867D01*
X52840696Y-99689621D01*
X52870251Y-99695500D01*
X52870252Y-99695500D01*
X53809748Y-99695500D01*
X53809749Y-99695500D01*
X53829752Y-99691521D01*
X53868231Y-99683867D01*
X53906111Y-99658555D01*
X53950808Y-99640042D01*
X53999192Y-99640042D01*
X54043888Y-99658555D01*
X54081769Y-99683867D01*
X54110696Y-99689621D01*
X54140251Y-99695500D01*
X54140252Y-99695500D01*
X55079748Y-99695500D01*
X55079749Y-99695500D01*
X55099752Y-99691521D01*
X55138231Y-99683867D01*
X55176111Y-99658555D01*
X55220808Y-99640042D01*
X55269192Y-99640042D01*
X55313888Y-99658555D01*
X55351769Y-99683867D01*
X55380696Y-99689621D01*
X55410251Y-99695500D01*
X55410252Y-99695500D01*
X56349748Y-99695500D01*
X56349749Y-99695500D01*
X56369752Y-99691521D01*
X56408231Y-99683867D01*
X56446111Y-99658555D01*
X56490808Y-99640042D01*
X56539192Y-99640042D01*
X56583888Y-99658555D01*
X56621769Y-99683867D01*
X56650696Y-99689621D01*
X56680251Y-99695500D01*
X56680252Y-99695500D01*
X57619748Y-99695500D01*
X57619749Y-99695500D01*
X57639752Y-99691521D01*
X57678231Y-99683867D01*
X57716111Y-99658555D01*
X57760808Y-99640042D01*
X57809192Y-99640042D01*
X57853888Y-99658555D01*
X57891769Y-99683867D01*
X57920696Y-99689621D01*
X57950251Y-99695500D01*
X57950252Y-99695500D01*
X58889748Y-99695500D01*
X58889749Y-99695500D01*
X58919304Y-99689621D01*
X58948231Y-99683867D01*
X59014552Y-99639552D01*
X59058867Y-99573231D01*
X59070500Y-99514748D01*
X59070500Y-97975252D01*
X59068770Y-97966557D01*
X59058867Y-97916769D01*
X59014552Y-97850447D01*
X58948230Y-97806132D01*
X58889749Y-97794500D01*
X58889748Y-97794500D01*
X57950252Y-97794500D01*
X57950251Y-97794500D01*
X57891767Y-97806133D01*
X57853890Y-97831442D01*
X57809191Y-97849957D01*
X57760809Y-97849957D01*
X57716110Y-97831442D01*
X57678232Y-97806133D01*
X57619749Y-97794500D01*
X57619748Y-97794500D01*
X56680252Y-97794500D01*
X56680251Y-97794500D01*
X56621767Y-97806133D01*
X56583890Y-97831442D01*
X56539191Y-97849957D01*
X56490809Y-97849957D01*
X56446110Y-97831442D01*
X56408232Y-97806133D01*
X56349749Y-97794500D01*
X56349748Y-97794500D01*
X55410252Y-97794500D01*
X55410251Y-97794500D01*
X55351767Y-97806133D01*
X55313890Y-97831442D01*
X55269191Y-97849957D01*
X55220809Y-97849957D01*
X55176110Y-97831442D01*
X55138232Y-97806133D01*
X55079749Y-97794500D01*
X55079748Y-97794500D01*
X54140252Y-97794500D01*
X54140251Y-97794500D01*
X54081767Y-97806133D01*
X54043890Y-97831442D01*
X53999191Y-97849957D01*
X53950809Y-97849957D01*
X53906110Y-97831442D01*
X53868232Y-97806133D01*
X53809749Y-97794500D01*
X53809748Y-97794500D01*
X52870252Y-97794500D01*
X52870251Y-97794500D01*
X52811767Y-97806133D01*
X52773890Y-97831442D01*
X52729191Y-97849957D01*
X52680809Y-97849957D01*
X52636110Y-97831442D01*
X52598232Y-97806133D01*
X52539749Y-97794500D01*
X52539748Y-97794500D01*
X51600252Y-97794500D01*
X51600251Y-97794500D01*
X51541767Y-97806133D01*
X51503890Y-97831442D01*
X51459191Y-97849957D01*
X51410809Y-97849957D01*
X51366110Y-97831442D01*
X51328232Y-97806133D01*
X51269749Y-97794500D01*
X51269748Y-97794500D01*
X50330252Y-97794500D01*
X50330251Y-97794500D01*
X50271767Y-97806133D01*
X50233890Y-97831442D01*
X50189191Y-97849957D01*
X50140809Y-97849957D01*
X50096110Y-97831442D01*
X50058232Y-97806133D01*
X49999749Y-97794500D01*
X49999748Y-97794500D01*
X49060252Y-97794500D01*
X49060251Y-97794500D01*
X49001767Y-97806133D01*
X48963890Y-97831442D01*
X48919191Y-97849957D01*
X48870809Y-97849957D01*
X48826110Y-97831442D01*
X48788232Y-97806133D01*
X48729749Y-97794500D01*
X48729748Y-97794500D01*
X47790252Y-97794500D01*
X47790251Y-97794500D01*
X47731769Y-97806132D01*
X47665447Y-97850447D01*
X47621132Y-97916769D01*
X47609500Y-97975251D01*
X47609500Y-99514749D01*
X44898411Y-99514749D01*
X44888867Y-99466769D01*
X44888866Y-99466768D01*
X44844552Y-99400447D01*
X44778230Y-99356132D01*
X44719749Y-99344500D01*
X44719748Y-99344500D01*
X43180252Y-99344500D01*
X43180251Y-99344500D01*
X43121769Y-99356132D01*
X43055447Y-99400447D01*
X43011132Y-99466769D01*
X42999500Y-99525251D01*
X42999500Y-100464749D01*
X43011133Y-100523232D01*
X43036442Y-100561110D01*
X43054957Y-100605809D01*
X43054957Y-100654191D01*
X43036442Y-100698890D01*
X43011133Y-100736767D01*
X42999500Y-100795251D01*
X42999500Y-101734749D01*
X43011133Y-101793232D01*
X43036442Y-101831110D01*
X43054957Y-101875809D01*
X43054957Y-101924191D01*
X43036442Y-101968890D01*
X43011133Y-102006767D01*
X42999500Y-102065251D01*
X42999500Y-103004749D01*
X43011133Y-103063232D01*
X43036442Y-103101110D01*
X43054957Y-103145809D01*
X43054957Y-103194191D01*
X43036442Y-103238890D01*
X43011133Y-103276767D01*
X42999500Y-103335251D01*
X42999500Y-104274749D01*
X43011133Y-104333232D01*
X43036442Y-104371110D01*
X43054957Y-104415809D01*
X43054957Y-104464191D01*
X43036442Y-104508890D01*
X43011133Y-104546767D01*
X42999500Y-104605251D01*
X42999500Y-105544749D01*
X43011133Y-105603232D01*
X43036442Y-105641110D01*
X43054957Y-105685809D01*
X43054957Y-105734191D01*
X43036442Y-105778890D01*
X43011133Y-105816767D01*
X42999500Y-105875251D01*
X42999500Y-106814749D01*
X43011133Y-106873232D01*
X43036442Y-106911110D01*
X43054957Y-106955809D01*
X43054957Y-107004191D01*
X43036442Y-107048890D01*
X43011133Y-107086767D01*
X42999500Y-107145251D01*
X42999500Y-108084749D01*
X43011133Y-108143232D01*
X43036442Y-108181110D01*
X43054957Y-108225809D01*
X43054957Y-108274191D01*
X43036442Y-108318890D01*
X43011133Y-108356767D01*
X42999500Y-108415251D01*
X42999500Y-109354749D01*
X43011133Y-109413232D01*
X43036442Y-109451110D01*
X43054957Y-109495809D01*
X43054957Y-109544191D01*
X43036442Y-109588890D01*
X43011133Y-109626767D01*
X42999500Y-109685251D01*
X42999500Y-110624749D01*
X43011132Y-110683230D01*
X43036442Y-110721108D01*
X43054957Y-110765807D01*
X43054958Y-110814189D01*
X43036443Y-110858889D01*
X43011133Y-110896768D01*
X42999500Y-110955251D01*
X42999500Y-111894749D01*
X43011132Y-111953230D01*
X43036442Y-111991108D01*
X43054957Y-112035807D01*
X43054958Y-112084189D01*
X43036443Y-112128889D01*
X43011133Y-112166768D01*
X42999500Y-112225251D01*
X42999500Y-113164749D01*
X43011133Y-113223232D01*
X43036442Y-113261110D01*
X43054957Y-113305809D01*
X43054957Y-113354191D01*
X43036442Y-113398890D01*
X43011133Y-113436767D01*
X42999500Y-113495251D01*
X42999500Y-113540500D01*
X42982887Y-113602500D01*
X42937500Y-113647887D01*
X42875500Y-113664500D01*
X42504243Y-113664500D01*
X42487422Y-113661756D01*
X42444308Y-113663749D01*
X42430919Y-113664368D01*
X42425195Y-113664500D01*
X42406183Y-113664500D01*
X42391695Y-113666181D01*
X42365007Y-113667415D01*
X42358666Y-113670215D01*
X42331378Y-113678665D01*
X42324568Y-113679938D01*
X42301859Y-113693998D01*
X42286677Y-113702000D01*
X42262233Y-113712794D01*
X42257333Y-113717694D01*
X42234943Y-113735429D01*
X42229048Y-113739079D01*
X42212950Y-113760396D01*
X42201679Y-113773348D01*
X42036475Y-113938552D01*
X42022639Y-113948508D01*
X41984523Y-113990318D01*
X41980573Y-113994454D01*
X41967141Y-114007886D01*
X41958087Y-114019317D01*
X41940083Y-114039067D01*
X41937578Y-114045534D01*
X41924259Y-114070802D01*
X41920343Y-114076518D01*
X41914228Y-114102517D01*
X41909151Y-114118913D01*
X41899500Y-114143827D01*
X41899500Y-114150751D01*
X41896206Y-114179144D01*
X41894621Y-114185881D01*
X41898311Y-114212332D01*
X41899500Y-114229465D01*
X41899500Y-114536260D01*
X41891682Y-114579593D01*
X41869213Y-114617462D01*
X41774623Y-114726625D01*
X41714834Y-114857542D01*
X41694353Y-115000000D01*
X32574998Y-115000000D01*
X32574998Y-114100000D01*
X39194317Y-114100000D01*
X39214956Y-114256762D01*
X39275463Y-114402840D01*
X39371717Y-114528282D01*
X39474315Y-114607007D01*
X39497159Y-114624536D01*
X39643238Y-114685044D01*
X39800000Y-114705682D01*
X39956762Y-114685044D01*
X40102841Y-114624536D01*
X40228282Y-114528282D01*
X40324536Y-114402841D01*
X40385044Y-114256762D01*
X40405682Y-114100000D01*
X40385044Y-113943238D01*
X40324536Y-113797159D01*
X40296327Y-113760396D01*
X40228282Y-113671717D01*
X40102840Y-113575463D01*
X39956762Y-113514956D01*
X39800000Y-113494317D01*
X39643237Y-113514956D01*
X39497159Y-113575463D01*
X39371717Y-113671717D01*
X39275463Y-113797159D01*
X39214956Y-113943237D01*
X39194317Y-114100000D01*
X32574998Y-114100000D01*
X32574998Y-107600000D01*
X35794317Y-107600000D01*
X35814956Y-107756762D01*
X35875463Y-107902840D01*
X35971717Y-108028282D01*
X36078781Y-108110434D01*
X36097159Y-108124536D01*
X36243238Y-108185044D01*
X36400000Y-108205682D01*
X36556762Y-108185044D01*
X36702841Y-108124536D01*
X36828282Y-108028282D01*
X36924536Y-107902841D01*
X36985044Y-107756762D01*
X37005682Y-107600000D01*
X36985044Y-107443238D01*
X36924536Y-107297159D01*
X36847682Y-107197000D01*
X36828282Y-107171717D01*
X36702840Y-107075463D01*
X36556762Y-107014956D01*
X36400000Y-106994317D01*
X36243237Y-107014956D01*
X36097159Y-107075463D01*
X35971717Y-107171717D01*
X35875463Y-107297159D01*
X35814956Y-107443237D01*
X35794317Y-107600000D01*
X32574998Y-107600000D01*
X32574998Y-103500000D01*
X36394317Y-103500000D01*
X36414956Y-103656762D01*
X36475463Y-103802840D01*
X36571717Y-103928282D01*
X36697159Y-104024536D01*
X36843238Y-104085044D01*
X37000000Y-104105682D01*
X37156762Y-104085044D01*
X37302841Y-104024536D01*
X37424516Y-103931171D01*
X37473161Y-103908488D01*
X37526839Y-103908488D01*
X37575483Y-103931171D01*
X37697159Y-104024536D01*
X37843238Y-104085044D01*
X38000000Y-104105682D01*
X38156762Y-104085044D01*
X38302841Y-104024536D01*
X38428282Y-103928282D01*
X38524536Y-103802841D01*
X38585044Y-103656762D01*
X38605682Y-103500000D01*
X38585044Y-103343238D01*
X38535173Y-103222840D01*
X38524537Y-103197161D01*
X38524536Y-103197160D01*
X38524536Y-103197159D01*
X38431171Y-103075483D01*
X38408488Y-103026839D01*
X38408488Y-102973161D01*
X38431173Y-102924514D01*
X38524536Y-102802841D01*
X38585044Y-102656762D01*
X38605682Y-102500000D01*
X38585044Y-102343238D01*
X38536102Y-102225082D01*
X38518289Y-102182076D01*
X38519434Y-102181601D01*
X38504883Y-102148532D01*
X38508738Y-102089712D01*
X38539318Y-102039318D01*
X38589712Y-102008738D01*
X38648532Y-102004883D01*
X38681601Y-102019434D01*
X38682076Y-102018289D01*
X38741351Y-102042841D01*
X38843238Y-102085044D01*
X39000000Y-102105682D01*
X39156762Y-102085044D01*
X39302841Y-102024536D01*
X39424516Y-101931171D01*
X39473161Y-101908488D01*
X39526839Y-101908488D01*
X39575483Y-101931171D01*
X39697159Y-102024536D01*
X39697160Y-102024536D01*
X39697161Y-102024537D01*
X39730253Y-102038244D01*
X39843238Y-102085044D01*
X40000000Y-102105682D01*
X40156762Y-102085044D01*
X40302841Y-102024536D01*
X40428282Y-101928282D01*
X40524536Y-101802841D01*
X40585044Y-101656762D01*
X40605682Y-101500000D01*
X40585044Y-101343238D01*
X40524536Y-101197159D01*
X40431171Y-101075483D01*
X40408488Y-101026839D01*
X40408488Y-100973161D01*
X40431173Y-100924514D01*
X40524536Y-100802841D01*
X40585044Y-100656762D01*
X40605682Y-100500000D01*
X40585044Y-100343238D01*
X40524536Y-100197159D01*
X40443470Y-100091511D01*
X40428282Y-100071717D01*
X40302840Y-99975463D01*
X40156762Y-99914956D01*
X40000000Y-99894317D01*
X39843237Y-99914956D01*
X39697159Y-99975463D01*
X39575485Y-100068826D01*
X39526837Y-100091511D01*
X39473160Y-100091511D01*
X39424513Y-100068826D01*
X39302840Y-99975463D01*
X39156762Y-99914956D01*
X39000000Y-99894317D01*
X38843237Y-99914956D01*
X38697159Y-99975463D01*
X38575485Y-100068826D01*
X38526837Y-100091511D01*
X38473160Y-100091511D01*
X38424513Y-100068826D01*
X38302840Y-99975463D01*
X38156762Y-99914956D01*
X38000000Y-99894317D01*
X37843237Y-99914956D01*
X37697159Y-99975463D01*
X37575485Y-100068826D01*
X37526837Y-100091511D01*
X37473160Y-100091511D01*
X37424513Y-100068826D01*
X37302840Y-99975463D01*
X37156762Y-99914956D01*
X37000000Y-99894317D01*
X36843237Y-99914956D01*
X36697159Y-99975463D01*
X36571717Y-100071717D01*
X36475463Y-100197159D01*
X36414956Y-100343237D01*
X36394317Y-100499999D01*
X36414956Y-100656762D01*
X36475463Y-100802840D01*
X36568826Y-100924514D01*
X36591511Y-100973162D01*
X36591511Y-101026838D01*
X36568826Y-101075486D01*
X36475463Y-101197159D01*
X36414956Y-101343237D01*
X36394317Y-101500000D01*
X36414956Y-101656762D01*
X36475463Y-101802840D01*
X36568826Y-101924514D01*
X36591511Y-101973162D01*
X36591511Y-102026838D01*
X36568826Y-102075486D01*
X36475463Y-102197159D01*
X36414956Y-102343237D01*
X36394317Y-102500000D01*
X36414956Y-102656762D01*
X36475463Y-102802840D01*
X36568826Y-102924514D01*
X36591511Y-102973162D01*
X36591511Y-103026838D01*
X36568826Y-103075486D01*
X36475463Y-103197159D01*
X36414956Y-103343237D01*
X36394317Y-103500000D01*
X32574998Y-103500000D01*
X32574998Y-98004065D01*
X32575263Y-97995956D01*
X32576620Y-97975251D01*
X32580490Y-97916193D01*
X32593207Y-97738407D01*
X32595269Y-97723099D01*
X32617453Y-97611573D01*
X32617862Y-97609606D01*
X32648286Y-97469749D01*
X32652017Y-97456305D01*
X32690741Y-97342230D01*
X32691902Y-97338967D01*
X32739566Y-97211177D01*
X32744520Y-97199704D01*
X32798960Y-97089310D01*
X32801286Y-97084831D01*
X32865357Y-96967494D01*
X32871063Y-96958070D01*
X32940136Y-96854694D01*
X32943907Y-96849365D01*
X33023348Y-96743245D01*
X33029323Y-96735874D01*
X33111659Y-96641988D01*
X33117146Y-96636130D01*
X33210631Y-96542645D01*
X33216474Y-96537171D01*
X33310383Y-96454815D01*
X33317716Y-96448870D01*
X33423887Y-96369391D01*
X33429200Y-96365632D01*
X33532572Y-96296562D01*
X33541981Y-96290864D01*
X33659349Y-96226777D01*
X33663826Y-96224452D01*
X33774205Y-96170019D01*
X33785662Y-96165072D01*
X33913463Y-96117405D01*
X33916770Y-96116227D01*
X34030791Y-96077523D01*
X34044244Y-96073789D01*
X34184151Y-96043354D01*
X34186167Y-96042934D01*
X34297581Y-96020772D01*
X34312893Y-96018710D01*
X34490910Y-96005978D01*
X34491361Y-96005946D01*
X34570288Y-96000773D01*
X34578655Y-96000509D01*
X79948297Y-96100385D01*
G37*
%TD.AperFunction*%
%TD*%
M02*
