M48
; DRILL file {KiCad 7.0.1-0} date 2023 November 13, Monday 20:41:19
; FORMAT={-:-/ absolute / metric / decimal}
; #@! TF.CreationDate,2023-11-13T20:41:19+01:00
; #@! TF.GenerationSoftware,Kicad,Pcbnew,7.0.1-0
; #@! TF.FileFunction,MixedPlating,1,4
FMAT,2
METRIC
; #@! TA.AperFunction,Plated,PTH,ViaDrill
T1C0.300
; #@! TA.AperFunction,Plated,PTH,ViaDrill
T2C0.400
; #@! TA.AperFunction,Plated,PTH,ComponentDrill
T3C1.300
%
G90
G05
T1
X55.0Y-94.7
X55.1Y-104.9
X63.1Y-104.9
X63.8Y-103.3
X64.7Y-104.0
X65.8Y-103.1
X66.3Y-104.0
X71.0Y-95.9
X77.0Y-96.2
X77.1Y-98.6
T2
X55.9Y-87.4
X55.9Y-88.35
X55.9Y-89.3
X56.1Y-109.0
X56.1Y-109.95
X56.2Y-110.9
X56.9Y-85.9
X56.9Y-86.85
X56.9Y-87.8
X56.9Y-99.75
X57.2Y-109.5
X57.2Y-110.45
X57.2Y-111.4
X58.05Y-99.8
X58.45Y-88.7
X58.8Y-95.9
X58.8Y-96.9
X58.8Y-97.9
X58.8Y-101.5
X58.8Y-102.5
X58.8Y-103.5
X58.85Y-104.55
X58.85Y-105.55
X59.0Y-99.1
X59.9Y-101.5
X59.9Y-103.5
X59.95Y-104.55
X59.95Y-105.55
X60.0Y-95.9
X60.0Y-96.9
X60.0Y-97.9
X61.0Y-101.5
X61.0Y-102.5
X61.0Y-103.5
X61.05Y-104.55
X61.05Y-105.55
X61.1Y-95.9
X61.1Y-96.9
X61.1Y-97.9
X63.3Y-94.9
X63.45Y-98.75
X63.9Y-99.7
X64.5Y-97.0
X64.7Y-85.75
X64.7Y-86.8
X65.8Y-85.75
X65.8Y-86.8
X66.9Y-85.7
X66.9Y-86.75
X67.7Y-104.4
X68.0Y-85.7
X68.0Y-86.75
X68.7Y-108.45
X68.9Y-96.0
X69.0Y-102.75
X69.07Y-97.609
X69.1Y-85.7
X69.1Y-86.75
X69.3Y-104.75
X70.2Y-85.7
X70.2Y-86.75
X71.05Y-97.3
X71.8Y-95.2
X71.95Y-99.5
X72.4Y-87.9
X72.4Y-89.0
X72.45Y-90.1
X72.45Y-91.2
X72.45Y-92.3
X72.45Y-93.4
X73.5Y-87.9
X73.5Y-89.0
X73.5Y-109.8
X73.55Y-90.1
X73.55Y-91.2
X73.55Y-92.3
X73.55Y-93.4
X74.9Y-95.3
X74.9Y-104.2
X75.0Y-101.1
X75.4Y-107.3
X75.5Y-100.2
X75.9Y-104.3
X76.2Y-86.1
X76.2Y-87.2
X76.2Y-88.3
X76.566Y-99.966
X77.2Y-97.1
X77.8Y-86.1
X77.8Y-87.2
X77.8Y-88.3
X77.9Y-96.0
X77.9Y-101.4
X79.2Y-102.6
X79.498Y-91.849
X79.5Y-93.7
X80.1Y-103.2
X80.4Y-106.4
X80.5Y-105.2
X80.552Y-93.748
X80.9Y-103.8
X81.8Y-96.7
X81.9Y-99.8
X82.6Y-93.5
X83.0Y-99.8
X83.4Y-105.7
X83.5Y-96.7
X84.1Y-99.8
X84.4Y-93.2
X84.5Y-107.2
X85.3Y-104.0
X86.4Y-104.0
X87.037Y-93.737
X87.1Y-102.6
X87.5Y-104.0
X87.599Y-97.409
X87.9Y-94.4
X88.1Y-93.4
X88.134Y-98.254
X88.3Y-95.4
X88.4Y-101.0
X88.5Y-99.4
X88.7Y-102.1
X89.081Y-100.213
X90.8Y-109.3
X92.1Y-88.9
X92.1Y-99.0
X92.1Y-104.1
X92.2Y-94.0
X105.52Y-89.15
X105.52Y-91.862
X105.52Y-94.575
X105.52Y-97.287
X105.52Y-100.0
X105.52Y-102.712
X105.52Y-105.425
X105.52Y-108.137
X105.52Y-110.85
T3
X102.12Y-89.84
X102.12Y-94.92
X102.12Y-100.0
X102.12Y-105.08
X102.12Y-110.16
T0
M30
