M48
; DRILL file {KiCad 7.0.1-0} date 2023 November 20, Monday 21:41:38
; FORMAT={-:-/ absolute / metric / decimal}
; #@! TF.CreationDate,2023-11-20T21:41:38+01:00
; #@! TF.GenerationSoftware,Kicad,Pcbnew,7.0.1-0
; #@! TF.FileFunction,MixedPlating,1,4
FMAT,2
METRIC
; #@! TA.AperFunction,Plated,PTH,ViaDrill
T1C0.300
; #@! TA.AperFunction,Plated,PTH,ViaDrill
T2C0.400
; #@! TA.AperFunction,Plated,PTH,ComponentDrill
T3C1.300
; #@! TA.AperFunction,NonPlated,NPTH,ComponentDrill
T4C1.152
%
G90
G05
T1
X42.2Y-115.0
T2
X33.5Y-99.0
X33.5Y-100.0
X33.5Y-101.0
X33.5Y-113.0
X33.5Y-114.0
X33.5Y-115.0
X34.5Y-99.0
X34.5Y-100.0
X34.5Y-101.0
X34.5Y-113.0
X34.5Y-114.0
X34.5Y-115.0
X36.4Y-107.6
X37.0Y-100.5
X37.0Y-101.5
X37.0Y-102.5
X37.0Y-103.5
X38.0Y-100.5
X38.0Y-101.5
X38.0Y-102.5
X38.0Y-103.5
X39.0Y-100.5
X39.0Y-101.5
X39.8Y-114.1
X40.0Y-100.5
X40.0Y-101.5
X43.95Y-112.695
X46.7Y-109.5
X46.7Y-111.2
X46.7Y-112.8
X47.59Y-101.74
X47.6Y-114.4
X47.65Y-107.85
X49.0Y-101.75
X50.14Y-101.3
X50.3Y-105.18
X50.33Y-104.13
X50.55Y-102.92
X54.55Y-104.45
X56.3Y-112.6
X57.26Y-104.94
X57.31Y-101.68
X59.26Y-106.54
X59.4Y-114.05
X59.55Y-112.2
X59.75Y-110.25
X62.9Y-101.6
X62.96Y-111.63
X63.59Y-105.19
X63.6Y-102.5
X63.7Y-108.6
X64.5Y-113.0
X68.0Y-105.5
X68.0Y-111.5
X79.5Y-100.8
X79.5Y-101.7
X79.5Y-102.6
X79.5Y-103.5
X79.5Y-113.3
X79.5Y-114.2
X79.5Y-115.1
X79.5Y-116.0
T3
X76.5Y-99.45
X76.5Y-104.45
X76.5Y-109.45
X76.5Y-114.45
T4
X34.2Y-116.6
X80.7Y-97.5
T0
M30
